M48
; DRILL file {KiCad 7.0.8} date Wed Feb 21 14:18:43 2024
; FORMAT={-:-/ absolute / metric / decimal}
; #@! TF.CreationDate,2024-02-21T14:18:43-03:00
; #@! TF.GenerationSoftware,Kicad,Pcbnew,7.0.8
; #@! TF.FileFunction,Plated,1,2,PTH
FMAT,2
METRIC
; #@! TA.AperFunction,Plated,PTH,ViaDrill
T1C0.400
; #@! TA.AperFunction,Plated,PTH,ComponentDrill
T2C0.900
; #@! TA.AperFunction,Plated,PTH,ComponentDrill
T3C1.000
%
G90
G05
T1
X135.977Y-119.593
X138.104Y-78.846
X142.508Y-74.02
X145.785Y-102.4
X146.227Y-68.432
X146.227Y-72.623
X146.227Y-115.803
X146.42Y-94.85
X146.42Y-96.45
X147.182Y-95.65
X147.887Y-98.85
X148.198Y-89.7
X148.199Y-68.432
X148.199Y-72.623
X148.199Y-115.803
X149.214Y-103.925
X150.424Y-111.612
X151.358Y-74.909
X151.754Y-94.85
X151.754Y-97.007
X151.754Y-98.658
X152.516Y-89.7
X153.659Y-78.973
X153.659Y-103.925
X153.786Y-91.673
X155.691Y-97.896
X160.009Y-85.507
X160.009Y-93.507
T2
X136.293Y-123.043
X138.833Y-123.043
X145.563Y-120.543
X145.563Y-125.543
X147.563Y-120.543
X147.563Y-125.543
X149.563Y-120.543
X149.563Y-125.543
T3
X127.563Y-73.757
X127.563Y-76.257
X127.563Y-117.757
X127.563Y-120.257
X135.038Y-105.007
X135.038Y-107.507
X136.489Y-85.831
X136.489Y-88.371
X136.489Y-90.911
X136.489Y-93.451
X136.489Y-95.991
X136.489Y-98.531
X140.863Y-85.577
X140.863Y-88.117
X140.863Y-90.657
X140.863Y-93.197
X140.863Y-95.737
X140.863Y-98.277
X140.863Y-100.817
X140.863Y-103.357
X140.863Y-105.897
X140.863Y-108.437
X156.333Y-123.932
X157.99Y-73.607
X157.99Y-76.147
X157.99Y-78.687
X157.99Y-81.227
X158.833Y-123.932
X160.53Y-73.607
X160.53Y-76.147
X160.53Y-78.687
X160.53Y-81.227
X167.563Y-73.757
X167.563Y-76.257
X167.563Y-117.757
X167.563Y-120.257
T0
M30
