G04 #@! TF.GenerationSoftware,KiCad,Pcbnew,7.0.8*
G04 #@! TF.CreationDate,2024-02-21T14:18:38-03:00*
G04 #@! TF.ProjectId,Drone PCB,44726f6e-6520-4504-9342-2e6b69636164,1.0*
G04 #@! TF.SameCoordinates,Original*
G04 #@! TF.FileFunction,Legend,Top*
G04 #@! TF.FilePolarity,Positive*
%FSLAX46Y46*%
G04 Gerber Fmt 4.6, Leading zero omitted, Abs format (unit mm)*
G04 Created by KiCad (PCBNEW 7.0.8) date 2024-02-21 14:18:38*
%MOMM*%
%LPD*%
G01*
G04 APERTURE LIST*
G04 Aperture macros list*
%AMRoundRect*
0 Rectangle with rounded corners*
0 $1 Rounding radius*
0 $2 $3 $4 $5 $6 $7 $8 $9 X,Y pos of 4 corners*
0 Add a 4 corners polygon primitive as box body*
4,1,4,$2,$3,$4,$5,$6,$7,$8,$9,$2,$3,0*
0 Add four circle primitives for the rounded corners*
1,1,$1+$1,$2,$3*
1,1,$1+$1,$4,$5*
1,1,$1+$1,$6,$7*
1,1,$1+$1,$8,$9*
0 Add four rect primitives between the rounded corners*
20,1,$1+$1,$2,$3,$4,$5,0*
20,1,$1+$1,$4,$5,$6,$7,0*
20,1,$1+$1,$6,$7,$8,$9,0*
20,1,$1+$1,$8,$9,$2,$3,0*%
G04 Aperture macros list end*
%ADD10C,0.100000*%
%ADD11C,0.150000*%
%ADD12C,0.120000*%
%ADD13RoundRect,0.250000X0.750000X-0.600000X0.750000X0.600000X-0.750000X0.600000X-0.750000X-0.600000X0*%
%ADD14O,2.000000X1.700000*%
%ADD15RoundRect,0.250000X-1.000000X-0.650000X1.000000X-0.650000X1.000000X0.650000X-1.000000X0.650000X0*%
%ADD16R,1.800000X1.800000*%
%ADD17C,1.800000*%
%ADD18C,2.700000*%
%ADD19RoundRect,0.200000X0.275000X-0.200000X0.275000X0.200000X-0.275000X0.200000X-0.275000X-0.200000X0*%
%ADD20RoundRect,0.225000X-0.250000X0.225000X-0.250000X-0.225000X0.250000X-0.225000X0.250000X0.225000X0*%
%ADD21R,0.550000X1.600000*%
%ADD22R,1.600000X0.550000*%
%ADD23RoundRect,0.150000X0.587500X0.150000X-0.587500X0.150000X-0.587500X-0.150000X0.587500X-0.150000X0*%
%ADD24RoundRect,0.250000X-0.750000X0.600000X-0.750000X-0.600000X0.750000X-0.600000X0.750000X0.600000X0*%
%ADD25R,1.400000X1.600000*%
%ADD26RoundRect,0.225000X-0.225000X-0.250000X0.225000X-0.250000X0.225000X0.250000X-0.225000X0.250000X0*%
%ADD27RoundRect,0.200000X-0.275000X0.200000X-0.275000X-0.200000X0.275000X-0.200000X0.275000X0.200000X0*%
%ADD28RoundRect,0.200000X-0.200000X-0.275000X0.200000X-0.275000X0.200000X0.275000X-0.200000X0.275000X0*%
%ADD29RoundRect,0.250000X0.250000X0.475000X-0.250000X0.475000X-0.250000X-0.475000X0.250000X-0.475000X0*%
%ADD30R,2.000000X1.500000*%
%ADD31R,2.000000X3.800000*%
%ADD32R,2.000000X4.500000*%
%ADD33R,1.700000X1.700000*%
%ADD34O,1.700000X1.700000*%
%ADD35RoundRect,0.250000X0.475000X-0.250000X0.475000X0.250000X-0.475000X0.250000X-0.475000X-0.250000X0*%
%ADD36RoundRect,0.150000X-0.587500X-0.150000X0.587500X-0.150000X0.587500X0.150000X-0.587500X0.150000X0*%
%ADD37RoundRect,0.250000X1.000000X0.650000X-1.000000X0.650000X-1.000000X-0.650000X1.000000X-0.650000X0*%
%ADD38R,1.500000X1.500000*%
%ADD39C,1.500000*%
%ADD40RoundRect,0.250000X0.600000X0.750000X-0.600000X0.750000X-0.600000X-0.750000X0.600000X-0.750000X0*%
%ADD41O,1.700000X2.000000*%
G04 APERTURE END LIST*
D10*
X132325000Y-92079000D02*
X134801000Y-92079000D01*
X134825000Y-95122000D02*
X132325000Y-95122000D01*
X132325000Y-89024000D01*
X134825000Y-89024000D01*
X134825000Y-95122000D01*
X132325000Y-90040000D02*
X134801001Y-90040000D01*
X132325000Y-91056000D02*
X134801000Y-91056000D01*
X132351000Y-94129001D02*
X134801000Y-94129000D01*
X132351000Y-93129000D02*
X134801000Y-93129000D01*
X132619646Y-90850370D02*
X132619646Y-90250370D01*
X132619646Y-90250370D02*
X132819646Y-90678941D01*
X132819646Y-90678941D02*
X133019646Y-90250370D01*
X133019646Y-90250370D02*
X133019646Y-90850370D01*
X133419645Y-90250370D02*
X133533931Y-90250370D01*
X133533931Y-90250370D02*
X133591074Y-90278941D01*
X133591074Y-90278941D02*
X133648217Y-90336084D01*
X133648217Y-90336084D02*
X133676788Y-90450370D01*
X133676788Y-90450370D02*
X133676788Y-90650370D01*
X133676788Y-90650370D02*
X133648217Y-90764656D01*
X133648217Y-90764656D02*
X133591074Y-90821799D01*
X133591074Y-90821799D02*
X133533931Y-90850370D01*
X133533931Y-90850370D02*
X133419645Y-90850370D01*
X133419645Y-90850370D02*
X133362503Y-90821799D01*
X133362503Y-90821799D02*
X133305360Y-90764656D01*
X133305360Y-90764656D02*
X133276788Y-90650370D01*
X133276788Y-90650370D02*
X133276788Y-90450370D01*
X133276788Y-90450370D02*
X133305360Y-90336084D01*
X133305360Y-90336084D02*
X133362503Y-90278941D01*
X133362503Y-90278941D02*
X133419645Y-90250370D01*
X133905359Y-90821799D02*
X133991074Y-90850370D01*
X133991074Y-90850370D02*
X134133931Y-90850370D01*
X134133931Y-90850370D02*
X134191074Y-90821799D01*
X134191074Y-90821799D02*
X134219645Y-90793227D01*
X134219645Y-90793227D02*
X134248216Y-90736084D01*
X134248216Y-90736084D02*
X134248216Y-90678941D01*
X134248216Y-90678941D02*
X134219645Y-90621799D01*
X134219645Y-90621799D02*
X134191074Y-90593227D01*
X134191074Y-90593227D02*
X134133931Y-90564656D01*
X134133931Y-90564656D02*
X134019645Y-90536084D01*
X134019645Y-90536084D02*
X133962502Y-90507513D01*
X133962502Y-90507513D02*
X133933931Y-90478941D01*
X133933931Y-90478941D02*
X133905359Y-90421799D01*
X133905359Y-90421799D02*
X133905359Y-90364656D01*
X133905359Y-90364656D02*
X133933931Y-90307513D01*
X133933931Y-90307513D02*
X133962502Y-90278941D01*
X133962502Y-90278941D02*
X134019645Y-90250370D01*
X134019645Y-90250370D02*
X134162502Y-90250370D01*
X134162502Y-90250370D02*
X134248216Y-90278941D01*
X134505360Y-90850370D02*
X134505360Y-90250370D01*
X132619646Y-92900371D02*
X132619646Y-92300371D01*
X132619646Y-92300371D02*
X132819646Y-92728942D01*
X132819646Y-92728942D02*
X133019646Y-92300371D01*
X133019646Y-92300371D02*
X133019646Y-92900371D01*
X133305360Y-92900371D02*
X133305360Y-92300371D01*
X133562502Y-92871800D02*
X133648217Y-92900371D01*
X133648217Y-92900371D02*
X133791074Y-92900371D01*
X133791074Y-92900371D02*
X133848217Y-92871800D01*
X133848217Y-92871800D02*
X133876788Y-92843228D01*
X133876788Y-92843228D02*
X133905359Y-92786085D01*
X133905359Y-92786085D02*
X133905359Y-92728942D01*
X133905359Y-92728942D02*
X133876788Y-92671800D01*
X133876788Y-92671800D02*
X133848217Y-92643228D01*
X133848217Y-92643228D02*
X133791074Y-92614657D01*
X133791074Y-92614657D02*
X133676788Y-92586085D01*
X133676788Y-92586085D02*
X133619645Y-92557514D01*
X133619645Y-92557514D02*
X133591074Y-92528942D01*
X133591074Y-92528942D02*
X133562502Y-92471800D01*
X133562502Y-92471800D02*
X133562502Y-92414657D01*
X133562502Y-92414657D02*
X133591074Y-92357514D01*
X133591074Y-92357514D02*
X133619645Y-92328942D01*
X133619645Y-92328942D02*
X133676788Y-92300371D01*
X133676788Y-92300371D02*
X133819645Y-92300371D01*
X133819645Y-92300371D02*
X133905359Y-92328942D01*
X134276788Y-92300371D02*
X134391074Y-92300371D01*
X134391074Y-92300371D02*
X134448217Y-92328942D01*
X134448217Y-92328942D02*
X134505360Y-92386085D01*
X134505360Y-92386085D02*
X134533931Y-92500371D01*
X134533931Y-92500371D02*
X134533931Y-92700371D01*
X134533931Y-92700371D02*
X134505360Y-92814657D01*
X134505360Y-92814657D02*
X134448217Y-92871800D01*
X134448217Y-92871800D02*
X134391074Y-92900371D01*
X134391074Y-92900371D02*
X134276788Y-92900371D01*
X134276788Y-92900371D02*
X134219646Y-92871800D01*
X134219646Y-92871800D02*
X134162503Y-92814657D01*
X134162503Y-92814657D02*
X134133931Y-92700371D01*
X134133931Y-92700371D02*
X134133931Y-92500371D01*
X134133931Y-92500371D02*
X134162503Y-92386085D01*
X134162503Y-92386085D02*
X134219646Y-92328942D01*
X134219646Y-92328942D02*
X134276788Y-92300371D01*
X132562503Y-89234371D02*
X132933931Y-89234371D01*
X132933931Y-89234371D02*
X132733931Y-89462942D01*
X132733931Y-89462942D02*
X132819646Y-89462942D01*
X132819646Y-89462942D02*
X132876789Y-89491514D01*
X132876789Y-89491514D02*
X132905360Y-89520085D01*
X132905360Y-89520085D02*
X132933931Y-89577228D01*
X132933931Y-89577228D02*
X132933931Y-89720085D01*
X132933931Y-89720085D02*
X132905360Y-89777228D01*
X132905360Y-89777228D02*
X132876789Y-89805800D01*
X132876789Y-89805800D02*
X132819646Y-89834371D01*
X132819646Y-89834371D02*
X132648217Y-89834371D01*
X132648217Y-89834371D02*
X132591074Y-89805800D01*
X132591074Y-89805800D02*
X132562503Y-89777228D01*
X133105360Y-89234371D02*
X133305360Y-89834371D01*
X133305360Y-89834371D02*
X133505360Y-89234371D01*
X133648218Y-89234371D02*
X134019646Y-89234371D01*
X134019646Y-89234371D02*
X133819646Y-89462942D01*
X133819646Y-89462942D02*
X133905361Y-89462942D01*
X133905361Y-89462942D02*
X133962504Y-89491514D01*
X133962504Y-89491514D02*
X133991075Y-89520085D01*
X133991075Y-89520085D02*
X134019646Y-89577228D01*
X134019646Y-89577228D02*
X134019646Y-89720085D01*
X134019646Y-89720085D02*
X133991075Y-89777228D01*
X133991075Y-89777228D02*
X133962504Y-89805800D01*
X133962504Y-89805800D02*
X133905361Y-89834371D01*
X133905361Y-89834371D02*
X133733932Y-89834371D01*
X133733932Y-89834371D02*
X133676789Y-89805800D01*
X133676789Y-89805800D02*
X133648218Y-89777228D01*
X132933931Y-91294942D02*
X132876789Y-91266371D01*
X132876789Y-91266371D02*
X132791074Y-91266371D01*
X132791074Y-91266371D02*
X132705360Y-91294942D01*
X132705360Y-91294942D02*
X132648217Y-91352085D01*
X132648217Y-91352085D02*
X132619646Y-91409228D01*
X132619646Y-91409228D02*
X132591074Y-91523514D01*
X132591074Y-91523514D02*
X132591074Y-91609228D01*
X132591074Y-91609228D02*
X132619646Y-91723514D01*
X132619646Y-91723514D02*
X132648217Y-91780657D01*
X132648217Y-91780657D02*
X132705360Y-91837800D01*
X132705360Y-91837800D02*
X132791074Y-91866371D01*
X132791074Y-91866371D02*
X132848217Y-91866371D01*
X132848217Y-91866371D02*
X132933931Y-91837800D01*
X132933931Y-91837800D02*
X132962503Y-91809228D01*
X132962503Y-91809228D02*
X132962503Y-91609228D01*
X132962503Y-91609228D02*
X132848217Y-91609228D01*
X133219646Y-91866371D02*
X133219646Y-91266371D01*
X133219646Y-91266371D02*
X133562503Y-91866371D01*
X133562503Y-91866371D02*
X133562503Y-91266371D01*
X133848217Y-91866371D02*
X133848217Y-91266371D01*
X133848217Y-91266371D02*
X133991074Y-91266371D01*
X133991074Y-91266371D02*
X134076788Y-91294942D01*
X134076788Y-91294942D02*
X134133931Y-91352085D01*
X134133931Y-91352085D02*
X134162502Y-91409228D01*
X134162502Y-91409228D02*
X134191074Y-91523514D01*
X134191074Y-91523514D02*
X134191074Y-91609228D01*
X134191074Y-91609228D02*
X134162502Y-91723514D01*
X134162502Y-91723514D02*
X134133931Y-91780657D01*
X134133931Y-91780657D02*
X134076788Y-91837800D01*
X134076788Y-91837800D02*
X133991074Y-91866371D01*
X133991074Y-91866371D02*
X133848217Y-91866371D01*
X132591073Y-93921800D02*
X132676788Y-93950371D01*
X132676788Y-93950371D02*
X132819645Y-93950371D01*
X132819645Y-93950371D02*
X132876788Y-93921800D01*
X132876788Y-93921800D02*
X132905359Y-93893228D01*
X132905359Y-93893228D02*
X132933930Y-93836085D01*
X132933930Y-93836085D02*
X132933930Y-93778942D01*
X132933930Y-93778942D02*
X132905359Y-93721800D01*
X132905359Y-93721800D02*
X132876788Y-93693228D01*
X132876788Y-93693228D02*
X132819645Y-93664657D01*
X132819645Y-93664657D02*
X132705359Y-93636085D01*
X132705359Y-93636085D02*
X132648216Y-93607514D01*
X132648216Y-93607514D02*
X132619645Y-93578942D01*
X132619645Y-93578942D02*
X132591073Y-93521800D01*
X132591073Y-93521800D02*
X132591073Y-93464657D01*
X132591073Y-93464657D02*
X132619645Y-93407514D01*
X132619645Y-93407514D02*
X132648216Y-93378942D01*
X132648216Y-93378942D02*
X132705359Y-93350371D01*
X132705359Y-93350371D02*
X132848216Y-93350371D01*
X132848216Y-93350371D02*
X132933930Y-93378942D01*
X133533931Y-93893228D02*
X133505359Y-93921800D01*
X133505359Y-93921800D02*
X133419645Y-93950371D01*
X133419645Y-93950371D02*
X133362502Y-93950371D01*
X133362502Y-93950371D02*
X133276788Y-93921800D01*
X133276788Y-93921800D02*
X133219645Y-93864657D01*
X133219645Y-93864657D02*
X133191074Y-93807514D01*
X133191074Y-93807514D02*
X133162502Y-93693228D01*
X133162502Y-93693228D02*
X133162502Y-93607514D01*
X133162502Y-93607514D02*
X133191074Y-93493228D01*
X133191074Y-93493228D02*
X133219645Y-93436085D01*
X133219645Y-93436085D02*
X133276788Y-93378942D01*
X133276788Y-93378942D02*
X133362502Y-93350371D01*
X133362502Y-93350371D02*
X133419645Y-93350371D01*
X133419645Y-93350371D02*
X133505359Y-93378942D01*
X133505359Y-93378942D02*
X133533931Y-93407514D01*
X133791074Y-93950371D02*
X133791074Y-93350371D01*
X134133931Y-93950371D02*
X133876788Y-93607514D01*
X134133931Y-93350371D02*
X133791074Y-93693228D01*
X132962503Y-94950371D02*
X132762503Y-94664657D01*
X132619646Y-94950371D02*
X132619646Y-94350371D01*
X132619646Y-94350371D02*
X132848217Y-94350371D01*
X132848217Y-94350371D02*
X132905360Y-94378942D01*
X132905360Y-94378942D02*
X132933931Y-94407514D01*
X132933931Y-94407514D02*
X132962503Y-94464657D01*
X132962503Y-94464657D02*
X132962503Y-94550371D01*
X132962503Y-94550371D02*
X132933931Y-94607514D01*
X132933931Y-94607514D02*
X132905360Y-94636085D01*
X132905360Y-94636085D02*
X132848217Y-94664657D01*
X132848217Y-94664657D02*
X132619646Y-94664657D01*
X133191074Y-94921800D02*
X133276789Y-94950371D01*
X133276789Y-94950371D02*
X133419646Y-94950371D01*
X133419646Y-94950371D02*
X133476789Y-94921800D01*
X133476789Y-94921800D02*
X133505360Y-94893228D01*
X133505360Y-94893228D02*
X133533931Y-94836085D01*
X133533931Y-94836085D02*
X133533931Y-94778942D01*
X133533931Y-94778942D02*
X133505360Y-94721800D01*
X133505360Y-94721800D02*
X133476789Y-94693228D01*
X133476789Y-94693228D02*
X133419646Y-94664657D01*
X133419646Y-94664657D02*
X133305360Y-94636085D01*
X133305360Y-94636085D02*
X133248217Y-94607514D01*
X133248217Y-94607514D02*
X133219646Y-94578942D01*
X133219646Y-94578942D02*
X133191074Y-94521800D01*
X133191074Y-94521800D02*
X133191074Y-94464657D01*
X133191074Y-94464657D02*
X133219646Y-94407514D01*
X133219646Y-94407514D02*
X133248217Y-94378942D01*
X133248217Y-94378942D02*
X133305360Y-94350371D01*
X133305360Y-94350371D02*
X133448217Y-94350371D01*
X133448217Y-94350371D02*
X133533931Y-94378942D01*
X133705360Y-94350371D02*
X134048218Y-94350371D01*
X133876789Y-94950371D02*
X133876789Y-94350371D01*
D11*
X125229666Y-113461819D02*
X125229666Y-114176104D01*
X125229666Y-114176104D02*
X125182047Y-114318961D01*
X125182047Y-114318961D02*
X125086809Y-114414200D01*
X125086809Y-114414200D02*
X124943952Y-114461819D01*
X124943952Y-114461819D02*
X124848714Y-114461819D01*
X126182047Y-113461819D02*
X125705857Y-113461819D01*
X125705857Y-113461819D02*
X125658238Y-113938009D01*
X125658238Y-113938009D02*
X125705857Y-113890390D01*
X125705857Y-113890390D02*
X125801095Y-113842771D01*
X125801095Y-113842771D02*
X126039190Y-113842771D01*
X126039190Y-113842771D02*
X126134428Y-113890390D01*
X126134428Y-113890390D02*
X126182047Y-113938009D01*
X126182047Y-113938009D02*
X126229666Y-114033247D01*
X126229666Y-114033247D02*
X126229666Y-114271342D01*
X126229666Y-114271342D02*
X126182047Y-114366580D01*
X126182047Y-114366580D02*
X126134428Y-114414200D01*
X126134428Y-114414200D02*
X126039190Y-114461819D01*
X126039190Y-114461819D02*
X125801095Y-114461819D01*
X125801095Y-114461819D02*
X125705857Y-114414200D01*
X125705857Y-114414200D02*
X125658238Y-114366580D01*
X127643952Y-124461819D02*
X127643952Y-123461819D01*
X127643952Y-123461819D02*
X127977285Y-124176104D01*
X127977285Y-124176104D02*
X128310618Y-123461819D01*
X128310618Y-123461819D02*
X128310618Y-124461819D01*
X128548714Y-124557057D02*
X129310618Y-124557057D01*
X129882047Y-123938009D02*
X130024904Y-123985628D01*
X130024904Y-123985628D02*
X130072523Y-124033247D01*
X130072523Y-124033247D02*
X130120142Y-124128485D01*
X130120142Y-124128485D02*
X130120142Y-124271342D01*
X130120142Y-124271342D02*
X130072523Y-124366580D01*
X130072523Y-124366580D02*
X130024904Y-124414200D01*
X130024904Y-124414200D02*
X129929666Y-124461819D01*
X129929666Y-124461819D02*
X129548714Y-124461819D01*
X129548714Y-124461819D02*
X129548714Y-123461819D01*
X129548714Y-123461819D02*
X129882047Y-123461819D01*
X129882047Y-123461819D02*
X129977285Y-123509438D01*
X129977285Y-123509438D02*
X130024904Y-123557057D01*
X130024904Y-123557057D02*
X130072523Y-123652295D01*
X130072523Y-123652295D02*
X130072523Y-123747533D01*
X130072523Y-123747533D02*
X130024904Y-123842771D01*
X130024904Y-123842771D02*
X129977285Y-123890390D01*
X129977285Y-123890390D02*
X129882047Y-123938009D01*
X129882047Y-123938009D02*
X129548714Y-123938009D01*
X131024904Y-124461819D02*
X130548714Y-124461819D01*
X130548714Y-124461819D02*
X130548714Y-123461819D01*
X132243951Y-117683133D02*
X131482047Y-117683133D01*
X131936866Y-120637952D02*
X131936866Y-119876048D01*
X132317819Y-120257000D02*
X131555914Y-120257000D01*
X137824905Y-73261819D02*
X137824905Y-72261819D01*
X137824905Y-72261819D02*
X138063000Y-72261819D01*
X138063000Y-72261819D02*
X138205857Y-72309438D01*
X138205857Y-72309438D02*
X138301095Y-72404676D01*
X138301095Y-72404676D02*
X138348714Y-72499914D01*
X138348714Y-72499914D02*
X138396333Y-72690390D01*
X138396333Y-72690390D02*
X138396333Y-72833247D01*
X138396333Y-72833247D02*
X138348714Y-73023723D01*
X138348714Y-73023723D02*
X138301095Y-73118961D01*
X138301095Y-73118961D02*
X138205857Y-73214200D01*
X138205857Y-73214200D02*
X138063000Y-73261819D01*
X138063000Y-73261819D02*
X137824905Y-73261819D01*
X139348714Y-73261819D02*
X138777286Y-73261819D01*
X139063000Y-73261819D02*
X139063000Y-72261819D01*
X139063000Y-72261819D02*
X138967762Y-72404676D01*
X138967762Y-72404676D02*
X138872524Y-72499914D01*
X138872524Y-72499914D02*
X138777286Y-72547533D01*
X133324905Y-123461819D02*
X133324905Y-122461819D01*
X133324905Y-122461819D02*
X133563000Y-122461819D01*
X133563000Y-122461819D02*
X133705857Y-122509438D01*
X133705857Y-122509438D02*
X133801095Y-122604676D01*
X133801095Y-122604676D02*
X133848714Y-122699914D01*
X133848714Y-122699914D02*
X133896333Y-122890390D01*
X133896333Y-122890390D02*
X133896333Y-123033247D01*
X133896333Y-123033247D02*
X133848714Y-123223723D01*
X133848714Y-123223723D02*
X133801095Y-123318961D01*
X133801095Y-123318961D02*
X133705857Y-123414200D01*
X133705857Y-123414200D02*
X133563000Y-123461819D01*
X133563000Y-123461819D02*
X133324905Y-123461819D01*
X134801095Y-122461819D02*
X134324905Y-122461819D01*
X134324905Y-122461819D02*
X134277286Y-122938009D01*
X134277286Y-122938009D02*
X134324905Y-122890390D01*
X134324905Y-122890390D02*
X134420143Y-122842771D01*
X134420143Y-122842771D02*
X134658238Y-122842771D01*
X134658238Y-122842771D02*
X134753476Y-122890390D01*
X134753476Y-122890390D02*
X134801095Y-122938009D01*
X134801095Y-122938009D02*
X134848714Y-123033247D01*
X134848714Y-123033247D02*
X134848714Y-123271342D01*
X134848714Y-123271342D02*
X134801095Y-123366580D01*
X134801095Y-123366580D02*
X134753476Y-123414200D01*
X134753476Y-123414200D02*
X134658238Y-123461819D01*
X134658238Y-123461819D02*
X134420143Y-123461819D01*
X134420143Y-123461819D02*
X134324905Y-123414200D01*
X134324905Y-123414200D02*
X134277286Y-123366580D01*
X144896333Y-73261819D02*
X144563000Y-72785628D01*
X144324905Y-73261819D02*
X144324905Y-72261819D01*
X144324905Y-72261819D02*
X144705857Y-72261819D01*
X144705857Y-72261819D02*
X144801095Y-72309438D01*
X144801095Y-72309438D02*
X144848714Y-72357057D01*
X144848714Y-72357057D02*
X144896333Y-72452295D01*
X144896333Y-72452295D02*
X144896333Y-72595152D01*
X144896333Y-72595152D02*
X144848714Y-72690390D01*
X144848714Y-72690390D02*
X144801095Y-72738009D01*
X144801095Y-72738009D02*
X144705857Y-72785628D01*
X144705857Y-72785628D02*
X144324905Y-72785628D01*
X145848714Y-73261819D02*
X145277286Y-73261819D01*
X145563000Y-73261819D02*
X145563000Y-72261819D01*
X145563000Y-72261819D02*
X145467762Y-72404676D01*
X145467762Y-72404676D02*
X145372524Y-72499914D01*
X145372524Y-72499914D02*
X145277286Y-72547533D01*
X153796333Y-102566580D02*
X153748714Y-102614200D01*
X153748714Y-102614200D02*
X153605857Y-102661819D01*
X153605857Y-102661819D02*
X153510619Y-102661819D01*
X153510619Y-102661819D02*
X153367762Y-102614200D01*
X153367762Y-102614200D02*
X153272524Y-102518961D01*
X153272524Y-102518961D02*
X153224905Y-102423723D01*
X153224905Y-102423723D02*
X153177286Y-102233247D01*
X153177286Y-102233247D02*
X153177286Y-102090390D01*
X153177286Y-102090390D02*
X153224905Y-101899914D01*
X153224905Y-101899914D02*
X153272524Y-101804676D01*
X153272524Y-101804676D02*
X153367762Y-101709438D01*
X153367762Y-101709438D02*
X153510619Y-101661819D01*
X153510619Y-101661819D02*
X153605857Y-101661819D01*
X153605857Y-101661819D02*
X153748714Y-101709438D01*
X153748714Y-101709438D02*
X153796333Y-101757057D01*
X154653476Y-101661819D02*
X154463000Y-101661819D01*
X154463000Y-101661819D02*
X154367762Y-101709438D01*
X154367762Y-101709438D02*
X154320143Y-101757057D01*
X154320143Y-101757057D02*
X154224905Y-101899914D01*
X154224905Y-101899914D02*
X154177286Y-102090390D01*
X154177286Y-102090390D02*
X154177286Y-102471342D01*
X154177286Y-102471342D02*
X154224905Y-102566580D01*
X154224905Y-102566580D02*
X154272524Y-102614200D01*
X154272524Y-102614200D02*
X154367762Y-102661819D01*
X154367762Y-102661819D02*
X154558238Y-102661819D01*
X154558238Y-102661819D02*
X154653476Y-102614200D01*
X154653476Y-102614200D02*
X154701095Y-102566580D01*
X154701095Y-102566580D02*
X154748714Y-102471342D01*
X154748714Y-102471342D02*
X154748714Y-102233247D01*
X154748714Y-102233247D02*
X154701095Y-102138009D01*
X154701095Y-102138009D02*
X154653476Y-102090390D01*
X154653476Y-102090390D02*
X154558238Y-102042771D01*
X154558238Y-102042771D02*
X154367762Y-102042771D01*
X154367762Y-102042771D02*
X154272524Y-102090390D01*
X154272524Y-102090390D02*
X154224905Y-102138009D01*
X154224905Y-102138009D02*
X154177286Y-102233247D01*
X145101095Y-89561819D02*
X145101095Y-90371342D01*
X145101095Y-90371342D02*
X145148714Y-90466580D01*
X145148714Y-90466580D02*
X145196333Y-90514200D01*
X145196333Y-90514200D02*
X145291571Y-90561819D01*
X145291571Y-90561819D02*
X145482047Y-90561819D01*
X145482047Y-90561819D02*
X145577285Y-90514200D01*
X145577285Y-90514200D02*
X145624904Y-90466580D01*
X145624904Y-90466580D02*
X145672523Y-90371342D01*
X145672523Y-90371342D02*
X145672523Y-89561819D01*
X146101095Y-89657057D02*
X146148714Y-89609438D01*
X146148714Y-89609438D02*
X146243952Y-89561819D01*
X146243952Y-89561819D02*
X146482047Y-89561819D01*
X146482047Y-89561819D02*
X146577285Y-89609438D01*
X146577285Y-89609438D02*
X146624904Y-89657057D01*
X146624904Y-89657057D02*
X146672523Y-89752295D01*
X146672523Y-89752295D02*
X146672523Y-89847533D01*
X146672523Y-89847533D02*
X146624904Y-89990390D01*
X146624904Y-89990390D02*
X146053476Y-90561819D01*
X146053476Y-90561819D02*
X146672523Y-90561819D01*
X142767761Y-73357057D02*
X142672523Y-73309438D01*
X142672523Y-73309438D02*
X142577285Y-73214200D01*
X142577285Y-73214200D02*
X142434428Y-73071342D01*
X142434428Y-73071342D02*
X142339190Y-73023723D01*
X142339190Y-73023723D02*
X142243952Y-73023723D01*
X142291571Y-73261819D02*
X142196333Y-73214200D01*
X142196333Y-73214200D02*
X142101095Y-73118961D01*
X142101095Y-73118961D02*
X142053476Y-72928485D01*
X142053476Y-72928485D02*
X142053476Y-72595152D01*
X142053476Y-72595152D02*
X142101095Y-72404676D01*
X142101095Y-72404676D02*
X142196333Y-72309438D01*
X142196333Y-72309438D02*
X142291571Y-72261819D01*
X142291571Y-72261819D02*
X142482047Y-72261819D01*
X142482047Y-72261819D02*
X142577285Y-72309438D01*
X142577285Y-72309438D02*
X142672523Y-72404676D01*
X142672523Y-72404676D02*
X142720142Y-72595152D01*
X142720142Y-72595152D02*
X142720142Y-72928485D01*
X142720142Y-72928485D02*
X142672523Y-73118961D01*
X142672523Y-73118961D02*
X142577285Y-73214200D01*
X142577285Y-73214200D02*
X142482047Y-73261819D01*
X142482047Y-73261819D02*
X142291571Y-73261819D01*
X143672523Y-73261819D02*
X143101095Y-73261819D01*
X143386809Y-73261819D02*
X143386809Y-72261819D01*
X143386809Y-72261819D02*
X143291571Y-72404676D01*
X143291571Y-72404676D02*
X143196333Y-72499914D01*
X143196333Y-72499914D02*
X143101095Y-72547533D01*
X169229666Y-113461819D02*
X169229666Y-114176104D01*
X169229666Y-114176104D02*
X169182047Y-114318961D01*
X169182047Y-114318961D02*
X169086809Y-114414200D01*
X169086809Y-114414200D02*
X168943952Y-114461819D01*
X168943952Y-114461819D02*
X168848714Y-114461819D01*
X170134428Y-113461819D02*
X169943952Y-113461819D01*
X169943952Y-113461819D02*
X169848714Y-113509438D01*
X169848714Y-113509438D02*
X169801095Y-113557057D01*
X169801095Y-113557057D02*
X169705857Y-113699914D01*
X169705857Y-113699914D02*
X169658238Y-113890390D01*
X169658238Y-113890390D02*
X169658238Y-114271342D01*
X169658238Y-114271342D02*
X169705857Y-114366580D01*
X169705857Y-114366580D02*
X169753476Y-114414200D01*
X169753476Y-114414200D02*
X169848714Y-114461819D01*
X169848714Y-114461819D02*
X170039190Y-114461819D01*
X170039190Y-114461819D02*
X170134428Y-114414200D01*
X170134428Y-114414200D02*
X170182047Y-114366580D01*
X170182047Y-114366580D02*
X170229666Y-114271342D01*
X170229666Y-114271342D02*
X170229666Y-114033247D01*
X170229666Y-114033247D02*
X170182047Y-113938009D01*
X170182047Y-113938009D02*
X170134428Y-113890390D01*
X170134428Y-113890390D02*
X170039190Y-113842771D01*
X170039190Y-113842771D02*
X169848714Y-113842771D01*
X169848714Y-113842771D02*
X169753476Y-113890390D01*
X169753476Y-113890390D02*
X169705857Y-113938009D01*
X169705857Y-113938009D02*
X169658238Y-114033247D01*
X164048714Y-124461819D02*
X164048714Y-123461819D01*
X164048714Y-123461819D02*
X164382047Y-124176104D01*
X164382047Y-124176104D02*
X164715380Y-123461819D01*
X164715380Y-123461819D02*
X164715380Y-124461819D01*
X164953476Y-124557057D02*
X165715380Y-124557057D01*
X166286809Y-123938009D02*
X166429666Y-123985628D01*
X166429666Y-123985628D02*
X166477285Y-124033247D01*
X166477285Y-124033247D02*
X166524904Y-124128485D01*
X166524904Y-124128485D02*
X166524904Y-124271342D01*
X166524904Y-124271342D02*
X166477285Y-124366580D01*
X166477285Y-124366580D02*
X166429666Y-124414200D01*
X166429666Y-124414200D02*
X166334428Y-124461819D01*
X166334428Y-124461819D02*
X165953476Y-124461819D01*
X165953476Y-124461819D02*
X165953476Y-123461819D01*
X165953476Y-123461819D02*
X166286809Y-123461819D01*
X166286809Y-123461819D02*
X166382047Y-123509438D01*
X166382047Y-123509438D02*
X166429666Y-123557057D01*
X166429666Y-123557057D02*
X166477285Y-123652295D01*
X166477285Y-123652295D02*
X166477285Y-123747533D01*
X166477285Y-123747533D02*
X166429666Y-123842771D01*
X166429666Y-123842771D02*
X166382047Y-123890390D01*
X166382047Y-123890390D02*
X166286809Y-123938009D01*
X166286809Y-123938009D02*
X165953476Y-123938009D01*
X167524904Y-124461819D02*
X167191571Y-123985628D01*
X166953476Y-124461819D02*
X166953476Y-123461819D01*
X166953476Y-123461819D02*
X167334428Y-123461819D01*
X167334428Y-123461819D02*
X167429666Y-123509438D01*
X167429666Y-123509438D02*
X167477285Y-123557057D01*
X167477285Y-123557057D02*
X167524904Y-123652295D01*
X167524904Y-123652295D02*
X167524904Y-123795152D01*
X167524904Y-123795152D02*
X167477285Y-123890390D01*
X167477285Y-123890390D02*
X167429666Y-123938009D01*
X167429666Y-123938009D02*
X167334428Y-123985628D01*
X167334428Y-123985628D02*
X166953476Y-123985628D01*
X162782048Y-117830866D02*
X163543953Y-117830866D01*
X163163000Y-118211819D02*
X163163000Y-117449914D01*
X162782048Y-120330866D02*
X163543953Y-120330866D01*
X157829667Y-95714200D02*
X157972524Y-95761819D01*
X157972524Y-95761819D02*
X158210619Y-95761819D01*
X158210619Y-95761819D02*
X158305857Y-95714200D01*
X158305857Y-95714200D02*
X158353476Y-95666580D01*
X158353476Y-95666580D02*
X158401095Y-95571342D01*
X158401095Y-95571342D02*
X158401095Y-95476104D01*
X158401095Y-95476104D02*
X158353476Y-95380866D01*
X158353476Y-95380866D02*
X158305857Y-95333247D01*
X158305857Y-95333247D02*
X158210619Y-95285628D01*
X158210619Y-95285628D02*
X158020143Y-95238009D01*
X158020143Y-95238009D02*
X157924905Y-95190390D01*
X157924905Y-95190390D02*
X157877286Y-95142771D01*
X157877286Y-95142771D02*
X157829667Y-95047533D01*
X157829667Y-95047533D02*
X157829667Y-94952295D01*
X157829667Y-94952295D02*
X157877286Y-94857057D01*
X157877286Y-94857057D02*
X157924905Y-94809438D01*
X157924905Y-94809438D02*
X158020143Y-94761819D01*
X158020143Y-94761819D02*
X158258238Y-94761819D01*
X158258238Y-94761819D02*
X158401095Y-94809438D01*
X158734429Y-94761819D02*
X158972524Y-95761819D01*
X158972524Y-95761819D02*
X159163000Y-95047533D01*
X159163000Y-95047533D02*
X159353476Y-95761819D01*
X159353476Y-95761819D02*
X159591572Y-94761819D01*
X159924905Y-94857057D02*
X159972524Y-94809438D01*
X159972524Y-94809438D02*
X160067762Y-94761819D01*
X160067762Y-94761819D02*
X160305857Y-94761819D01*
X160305857Y-94761819D02*
X160401095Y-94809438D01*
X160401095Y-94809438D02*
X160448714Y-94857057D01*
X160448714Y-94857057D02*
X160496333Y-94952295D01*
X160496333Y-94952295D02*
X160496333Y-95047533D01*
X160496333Y-95047533D02*
X160448714Y-95190390D01*
X160448714Y-95190390D02*
X159877286Y-95761819D01*
X159877286Y-95761819D02*
X160496333Y-95761819D01*
X158815380Y-84661819D02*
X158482047Y-84185628D01*
X158243952Y-84661819D02*
X158243952Y-83661819D01*
X158243952Y-83661819D02*
X158624904Y-83661819D01*
X158624904Y-83661819D02*
X158720142Y-83709438D01*
X158720142Y-83709438D02*
X158767761Y-83757057D01*
X158767761Y-83757057D02*
X158815380Y-83852295D01*
X158815380Y-83852295D02*
X158815380Y-83995152D01*
X158815380Y-83995152D02*
X158767761Y-84090390D01*
X158767761Y-84090390D02*
X158720142Y-84138009D01*
X158720142Y-84138009D02*
X158624904Y-84185628D01*
X158624904Y-84185628D02*
X158243952Y-84185628D01*
X159196333Y-84614200D02*
X159339190Y-84661819D01*
X159339190Y-84661819D02*
X159577285Y-84661819D01*
X159577285Y-84661819D02*
X159672523Y-84614200D01*
X159672523Y-84614200D02*
X159720142Y-84566580D01*
X159720142Y-84566580D02*
X159767761Y-84471342D01*
X159767761Y-84471342D02*
X159767761Y-84376104D01*
X159767761Y-84376104D02*
X159720142Y-84280866D01*
X159720142Y-84280866D02*
X159672523Y-84233247D01*
X159672523Y-84233247D02*
X159577285Y-84185628D01*
X159577285Y-84185628D02*
X159386809Y-84138009D01*
X159386809Y-84138009D02*
X159291571Y-84090390D01*
X159291571Y-84090390D02*
X159243952Y-84042771D01*
X159243952Y-84042771D02*
X159196333Y-83947533D01*
X159196333Y-83947533D02*
X159196333Y-83852295D01*
X159196333Y-83852295D02*
X159243952Y-83757057D01*
X159243952Y-83757057D02*
X159291571Y-83709438D01*
X159291571Y-83709438D02*
X159386809Y-83661819D01*
X159386809Y-83661819D02*
X159624904Y-83661819D01*
X159624904Y-83661819D02*
X159767761Y-83709438D01*
X160053476Y-83661819D02*
X160624904Y-83661819D01*
X160339190Y-84661819D02*
X160339190Y-83661819D01*
X147296333Y-104290578D02*
X147248714Y-104338198D01*
X147248714Y-104338198D02*
X147105857Y-104385817D01*
X147105857Y-104385817D02*
X147010619Y-104385817D01*
X147010619Y-104385817D02*
X146867762Y-104338198D01*
X146867762Y-104338198D02*
X146772524Y-104242959D01*
X146772524Y-104242959D02*
X146724905Y-104147721D01*
X146724905Y-104147721D02*
X146677286Y-103957245D01*
X146677286Y-103957245D02*
X146677286Y-103814388D01*
X146677286Y-103814388D02*
X146724905Y-103623912D01*
X146724905Y-103623912D02*
X146772524Y-103528674D01*
X146772524Y-103528674D02*
X146867762Y-103433436D01*
X146867762Y-103433436D02*
X147010619Y-103385817D01*
X147010619Y-103385817D02*
X147105857Y-103385817D01*
X147105857Y-103385817D02*
X147248714Y-103433436D01*
X147248714Y-103433436D02*
X147296333Y-103481055D01*
X148153476Y-103719150D02*
X148153476Y-104385817D01*
X147915381Y-103338198D02*
X147677286Y-104052483D01*
X147677286Y-104052483D02*
X148296333Y-104052483D01*
X125229666Y-79461819D02*
X125229666Y-80176104D01*
X125229666Y-80176104D02*
X125182047Y-80318961D01*
X125182047Y-80318961D02*
X125086809Y-80414200D01*
X125086809Y-80414200D02*
X124943952Y-80461819D01*
X124943952Y-80461819D02*
X124848714Y-80461819D01*
X125610619Y-79461819D02*
X126229666Y-79461819D01*
X126229666Y-79461819D02*
X125896333Y-79842771D01*
X125896333Y-79842771D02*
X126039190Y-79842771D01*
X126039190Y-79842771D02*
X126134428Y-79890390D01*
X126134428Y-79890390D02*
X126182047Y-79938009D01*
X126182047Y-79938009D02*
X126229666Y-80033247D01*
X126229666Y-80033247D02*
X126229666Y-80271342D01*
X126229666Y-80271342D02*
X126182047Y-80366580D01*
X126182047Y-80366580D02*
X126134428Y-80414200D01*
X126134428Y-80414200D02*
X126039190Y-80461819D01*
X126039190Y-80461819D02*
X125753476Y-80461819D01*
X125753476Y-80461819D02*
X125658238Y-80414200D01*
X125658238Y-80414200D02*
X125610619Y-80366580D01*
X132243952Y-73533133D02*
X131482048Y-73533133D01*
X131936866Y-76637952D02*
X131936866Y-75876048D01*
X132317819Y-76257000D02*
X131555914Y-76257000D01*
X128015381Y-70461819D02*
X128015381Y-69461819D01*
X128015381Y-69461819D02*
X128348714Y-70176104D01*
X128348714Y-70176104D02*
X128682047Y-69461819D01*
X128682047Y-69461819D02*
X128682047Y-70461819D01*
X128920143Y-70557057D02*
X129682047Y-70557057D01*
X130253476Y-69938009D02*
X129920143Y-69938009D01*
X129920143Y-70461819D02*
X129920143Y-69461819D01*
X129920143Y-69461819D02*
X130396333Y-69461819D01*
X131253476Y-70461819D02*
X130777286Y-70461819D01*
X130777286Y-70461819D02*
X130777286Y-69461819D01*
X148196333Y-111961819D02*
X147863000Y-111485628D01*
X147624905Y-111961819D02*
X147624905Y-110961819D01*
X147624905Y-110961819D02*
X148005857Y-110961819D01*
X148005857Y-110961819D02*
X148101095Y-111009438D01*
X148101095Y-111009438D02*
X148148714Y-111057057D01*
X148148714Y-111057057D02*
X148196333Y-111152295D01*
X148196333Y-111152295D02*
X148196333Y-111295152D01*
X148196333Y-111295152D02*
X148148714Y-111390390D01*
X148148714Y-111390390D02*
X148101095Y-111438009D01*
X148101095Y-111438009D02*
X148005857Y-111485628D01*
X148005857Y-111485628D02*
X147624905Y-111485628D01*
X149053476Y-111295152D02*
X149053476Y-111961819D01*
X148815381Y-110914200D02*
X148577286Y-111628485D01*
X148577286Y-111628485D02*
X149196333Y-111628485D01*
X151867761Y-73357057D02*
X151772523Y-73309438D01*
X151772523Y-73309438D02*
X151677285Y-73214200D01*
X151677285Y-73214200D02*
X151534428Y-73071342D01*
X151534428Y-73071342D02*
X151439190Y-73023723D01*
X151439190Y-73023723D02*
X151343952Y-73023723D01*
X151391571Y-73261819D02*
X151296333Y-73214200D01*
X151296333Y-73214200D02*
X151201095Y-73118961D01*
X151201095Y-73118961D02*
X151153476Y-72928485D01*
X151153476Y-72928485D02*
X151153476Y-72595152D01*
X151153476Y-72595152D02*
X151201095Y-72404676D01*
X151201095Y-72404676D02*
X151296333Y-72309438D01*
X151296333Y-72309438D02*
X151391571Y-72261819D01*
X151391571Y-72261819D02*
X151582047Y-72261819D01*
X151582047Y-72261819D02*
X151677285Y-72309438D01*
X151677285Y-72309438D02*
X151772523Y-72404676D01*
X151772523Y-72404676D02*
X151820142Y-72595152D01*
X151820142Y-72595152D02*
X151820142Y-72928485D01*
X151820142Y-72928485D02*
X151772523Y-73118961D01*
X151772523Y-73118961D02*
X151677285Y-73214200D01*
X151677285Y-73214200D02*
X151582047Y-73261819D01*
X151582047Y-73261819D02*
X151391571Y-73261819D01*
X152201095Y-72357057D02*
X152248714Y-72309438D01*
X152248714Y-72309438D02*
X152343952Y-72261819D01*
X152343952Y-72261819D02*
X152582047Y-72261819D01*
X152582047Y-72261819D02*
X152677285Y-72309438D01*
X152677285Y-72309438D02*
X152724904Y-72357057D01*
X152724904Y-72357057D02*
X152772523Y-72452295D01*
X152772523Y-72452295D02*
X152772523Y-72547533D01*
X152772523Y-72547533D02*
X152724904Y-72690390D01*
X152724904Y-72690390D02*
X152153476Y-73261819D01*
X152153476Y-73261819D02*
X152772523Y-73261819D01*
X132877285Y-110661819D02*
X132877285Y-111376104D01*
X132877285Y-111376104D02*
X132829666Y-111518961D01*
X132829666Y-111518961D02*
X132734428Y-111614200D01*
X132734428Y-111614200D02*
X132591571Y-111661819D01*
X132591571Y-111661819D02*
X132496333Y-111661819D01*
X133877285Y-111661819D02*
X133305857Y-111661819D01*
X133591571Y-111661819D02*
X133591571Y-110661819D01*
X133591571Y-110661819D02*
X133496333Y-110804676D01*
X133496333Y-110804676D02*
X133401095Y-110899914D01*
X133401095Y-110899914D02*
X133305857Y-110947533D01*
X136436866Y-111287951D02*
X136436866Y-110526047D01*
X136817819Y-110906999D02*
X136055914Y-110906999D01*
X132924904Y-101438009D02*
X133067761Y-101485628D01*
X133067761Y-101485628D02*
X133115380Y-101533247D01*
X133115380Y-101533247D02*
X133162999Y-101628485D01*
X133162999Y-101628485D02*
X133162999Y-101771342D01*
X133162999Y-101771342D02*
X133115380Y-101866580D01*
X133115380Y-101866580D02*
X133067761Y-101914200D01*
X133067761Y-101914200D02*
X132972523Y-101961819D01*
X132972523Y-101961819D02*
X132591571Y-101961819D01*
X132591571Y-101961819D02*
X132591571Y-100961819D01*
X132591571Y-100961819D02*
X132924904Y-100961819D01*
X132924904Y-100961819D02*
X133020142Y-101009438D01*
X133020142Y-101009438D02*
X133067761Y-101057057D01*
X133067761Y-101057057D02*
X133115380Y-101152295D01*
X133115380Y-101152295D02*
X133115380Y-101247533D01*
X133115380Y-101247533D02*
X133067761Y-101342771D01*
X133067761Y-101342771D02*
X133020142Y-101390390D01*
X133020142Y-101390390D02*
X132924904Y-101438009D01*
X132924904Y-101438009D02*
X132591571Y-101438009D01*
X133543952Y-101676104D02*
X134020142Y-101676104D01*
X133448714Y-101961819D02*
X133782047Y-100961819D01*
X133782047Y-100961819D02*
X134115380Y-101961819D01*
X134305857Y-100961819D02*
X134877285Y-100961819D01*
X134591571Y-101961819D02*
X134591571Y-100961819D01*
X136743952Y-101633133D02*
X135982048Y-101633133D01*
X137841333Y-118661819D02*
X137508000Y-118185628D01*
X137269905Y-118661819D02*
X137269905Y-117661819D01*
X137269905Y-117661819D02*
X137650857Y-117661819D01*
X137650857Y-117661819D02*
X137746095Y-117709438D01*
X137746095Y-117709438D02*
X137793714Y-117757057D01*
X137793714Y-117757057D02*
X137841333Y-117852295D01*
X137841333Y-117852295D02*
X137841333Y-117995152D01*
X137841333Y-117995152D02*
X137793714Y-118090390D01*
X137793714Y-118090390D02*
X137746095Y-118138009D01*
X137746095Y-118138009D02*
X137650857Y-118185628D01*
X137650857Y-118185628D02*
X137269905Y-118185628D01*
X138698476Y-117661819D02*
X138508000Y-117661819D01*
X138508000Y-117661819D02*
X138412762Y-117709438D01*
X138412762Y-117709438D02*
X138365143Y-117757057D01*
X138365143Y-117757057D02*
X138269905Y-117899914D01*
X138269905Y-117899914D02*
X138222286Y-118090390D01*
X138222286Y-118090390D02*
X138222286Y-118471342D01*
X138222286Y-118471342D02*
X138269905Y-118566580D01*
X138269905Y-118566580D02*
X138317524Y-118614200D01*
X138317524Y-118614200D02*
X138412762Y-118661819D01*
X138412762Y-118661819D02*
X138603238Y-118661819D01*
X138603238Y-118661819D02*
X138698476Y-118614200D01*
X138698476Y-118614200D02*
X138746095Y-118566580D01*
X138746095Y-118566580D02*
X138793714Y-118471342D01*
X138793714Y-118471342D02*
X138793714Y-118233247D01*
X138793714Y-118233247D02*
X138746095Y-118138009D01*
X138746095Y-118138009D02*
X138698476Y-118090390D01*
X138698476Y-118090390D02*
X138603238Y-118042771D01*
X138603238Y-118042771D02*
X138412762Y-118042771D01*
X138412762Y-118042771D02*
X138317524Y-118090390D01*
X138317524Y-118090390D02*
X138269905Y-118138009D01*
X138269905Y-118138009D02*
X138222286Y-118233247D01*
X149696333Y-105666580D02*
X149648714Y-105714200D01*
X149648714Y-105714200D02*
X149505857Y-105761819D01*
X149505857Y-105761819D02*
X149410619Y-105761819D01*
X149410619Y-105761819D02*
X149267762Y-105714200D01*
X149267762Y-105714200D02*
X149172524Y-105618961D01*
X149172524Y-105618961D02*
X149124905Y-105523723D01*
X149124905Y-105523723D02*
X149077286Y-105333247D01*
X149077286Y-105333247D02*
X149077286Y-105190390D01*
X149077286Y-105190390D02*
X149124905Y-104999914D01*
X149124905Y-104999914D02*
X149172524Y-104904676D01*
X149172524Y-104904676D02*
X149267762Y-104809438D01*
X149267762Y-104809438D02*
X149410619Y-104761819D01*
X149410619Y-104761819D02*
X149505857Y-104761819D01*
X149505857Y-104761819D02*
X149648714Y-104809438D01*
X149648714Y-104809438D02*
X149696333Y-104857057D01*
X150601095Y-104761819D02*
X150124905Y-104761819D01*
X150124905Y-104761819D02*
X150077286Y-105238009D01*
X150077286Y-105238009D02*
X150124905Y-105190390D01*
X150124905Y-105190390D02*
X150220143Y-105142771D01*
X150220143Y-105142771D02*
X150458238Y-105142771D01*
X150458238Y-105142771D02*
X150553476Y-105190390D01*
X150553476Y-105190390D02*
X150601095Y-105238009D01*
X150601095Y-105238009D02*
X150648714Y-105333247D01*
X150648714Y-105333247D02*
X150648714Y-105571342D01*
X150648714Y-105571342D02*
X150601095Y-105666580D01*
X150601095Y-105666580D02*
X150553476Y-105714200D01*
X150553476Y-105714200D02*
X150458238Y-105761819D01*
X150458238Y-105761819D02*
X150220143Y-105761819D01*
X150220143Y-105761819D02*
X150124905Y-105714200D01*
X150124905Y-105714200D02*
X150077286Y-105666580D01*
X145196333Y-86861819D02*
X144863000Y-86385628D01*
X144624905Y-86861819D02*
X144624905Y-85861819D01*
X144624905Y-85861819D02*
X145005857Y-85861819D01*
X145005857Y-85861819D02*
X145101095Y-85909438D01*
X145101095Y-85909438D02*
X145148714Y-85957057D01*
X145148714Y-85957057D02*
X145196333Y-86052295D01*
X145196333Y-86052295D02*
X145196333Y-86195152D01*
X145196333Y-86195152D02*
X145148714Y-86290390D01*
X145148714Y-86290390D02*
X145101095Y-86338009D01*
X145101095Y-86338009D02*
X145005857Y-86385628D01*
X145005857Y-86385628D02*
X144624905Y-86385628D01*
X146101095Y-85861819D02*
X145624905Y-85861819D01*
X145624905Y-85861819D02*
X145577286Y-86338009D01*
X145577286Y-86338009D02*
X145624905Y-86290390D01*
X145624905Y-86290390D02*
X145720143Y-86242771D01*
X145720143Y-86242771D02*
X145958238Y-86242771D01*
X145958238Y-86242771D02*
X146053476Y-86290390D01*
X146053476Y-86290390D02*
X146101095Y-86338009D01*
X146101095Y-86338009D02*
X146148714Y-86433247D01*
X146148714Y-86433247D02*
X146148714Y-86671342D01*
X146148714Y-86671342D02*
X146101095Y-86766580D01*
X146101095Y-86766580D02*
X146053476Y-86814200D01*
X146053476Y-86814200D02*
X145958238Y-86861819D01*
X145958238Y-86861819D02*
X145720143Y-86861819D01*
X145720143Y-86861819D02*
X145624905Y-86814200D01*
X145624905Y-86814200D02*
X145577286Y-86766580D01*
X145896333Y-111961819D02*
X145563000Y-111485628D01*
X145324905Y-111961819D02*
X145324905Y-110961819D01*
X145324905Y-110961819D02*
X145705857Y-110961819D01*
X145705857Y-110961819D02*
X145801095Y-111009438D01*
X145801095Y-111009438D02*
X145848714Y-111057057D01*
X145848714Y-111057057D02*
X145896333Y-111152295D01*
X145896333Y-111152295D02*
X145896333Y-111295152D01*
X145896333Y-111295152D02*
X145848714Y-111390390D01*
X145848714Y-111390390D02*
X145801095Y-111438009D01*
X145801095Y-111438009D02*
X145705857Y-111485628D01*
X145705857Y-111485628D02*
X145324905Y-111485628D01*
X146229667Y-110961819D02*
X146848714Y-110961819D01*
X146848714Y-110961819D02*
X146515381Y-111342771D01*
X146515381Y-111342771D02*
X146658238Y-111342771D01*
X146658238Y-111342771D02*
X146753476Y-111390390D01*
X146753476Y-111390390D02*
X146801095Y-111438009D01*
X146801095Y-111438009D02*
X146848714Y-111533247D01*
X146848714Y-111533247D02*
X146848714Y-111771342D01*
X146848714Y-111771342D02*
X146801095Y-111866580D01*
X146801095Y-111866580D02*
X146753476Y-111914200D01*
X146753476Y-111914200D02*
X146658238Y-111961819D01*
X146658238Y-111961819D02*
X146372524Y-111961819D01*
X146372524Y-111961819D02*
X146277286Y-111914200D01*
X146277286Y-111914200D02*
X146229667Y-111866580D01*
X138896333Y-82666580D02*
X138848714Y-82714200D01*
X138848714Y-82714200D02*
X138705857Y-82761819D01*
X138705857Y-82761819D02*
X138610619Y-82761819D01*
X138610619Y-82761819D02*
X138467762Y-82714200D01*
X138467762Y-82714200D02*
X138372524Y-82618961D01*
X138372524Y-82618961D02*
X138324905Y-82523723D01*
X138324905Y-82523723D02*
X138277286Y-82333247D01*
X138277286Y-82333247D02*
X138277286Y-82190390D01*
X138277286Y-82190390D02*
X138324905Y-81999914D01*
X138324905Y-81999914D02*
X138372524Y-81904676D01*
X138372524Y-81904676D02*
X138467762Y-81809438D01*
X138467762Y-81809438D02*
X138610619Y-81761819D01*
X138610619Y-81761819D02*
X138705857Y-81761819D01*
X138705857Y-81761819D02*
X138848714Y-81809438D01*
X138848714Y-81809438D02*
X138896333Y-81857057D01*
X139848714Y-82761819D02*
X139277286Y-82761819D01*
X139563000Y-82761819D02*
X139563000Y-81761819D01*
X139563000Y-81761819D02*
X139467762Y-81904676D01*
X139467762Y-81904676D02*
X139372524Y-81999914D01*
X139372524Y-81999914D02*
X139277286Y-82047533D01*
X144901095Y-81961819D02*
X144901095Y-82771342D01*
X144901095Y-82771342D02*
X144948714Y-82866580D01*
X144948714Y-82866580D02*
X144996333Y-82914200D01*
X144996333Y-82914200D02*
X145091571Y-82961819D01*
X145091571Y-82961819D02*
X145282047Y-82961819D01*
X145282047Y-82961819D02*
X145377285Y-82914200D01*
X145377285Y-82914200D02*
X145424904Y-82866580D01*
X145424904Y-82866580D02*
X145472523Y-82771342D01*
X145472523Y-82771342D02*
X145472523Y-81961819D01*
X146472523Y-82961819D02*
X145901095Y-82961819D01*
X146186809Y-82961819D02*
X146186809Y-81961819D01*
X146186809Y-81961819D02*
X146091571Y-82104676D01*
X146091571Y-82104676D02*
X145996333Y-82199914D01*
X145996333Y-82199914D02*
X145901095Y-82247533D01*
X149396333Y-73261819D02*
X149063000Y-72785628D01*
X148824905Y-73261819D02*
X148824905Y-72261819D01*
X148824905Y-72261819D02*
X149205857Y-72261819D01*
X149205857Y-72261819D02*
X149301095Y-72309438D01*
X149301095Y-72309438D02*
X149348714Y-72357057D01*
X149348714Y-72357057D02*
X149396333Y-72452295D01*
X149396333Y-72452295D02*
X149396333Y-72595152D01*
X149396333Y-72595152D02*
X149348714Y-72690390D01*
X149348714Y-72690390D02*
X149301095Y-72738009D01*
X149301095Y-72738009D02*
X149205857Y-72785628D01*
X149205857Y-72785628D02*
X148824905Y-72785628D01*
X149777286Y-72357057D02*
X149824905Y-72309438D01*
X149824905Y-72309438D02*
X149920143Y-72261819D01*
X149920143Y-72261819D02*
X150158238Y-72261819D01*
X150158238Y-72261819D02*
X150253476Y-72309438D01*
X150253476Y-72309438D02*
X150301095Y-72357057D01*
X150301095Y-72357057D02*
X150348714Y-72452295D01*
X150348714Y-72452295D02*
X150348714Y-72547533D01*
X150348714Y-72547533D02*
X150301095Y-72690390D01*
X150301095Y-72690390D02*
X149729667Y-73261819D01*
X149729667Y-73261819D02*
X150348714Y-73261819D01*
X158786809Y-111132628D02*
X158786809Y-111608819D01*
X158453476Y-110608819D02*
X158786809Y-111132628D01*
X158786809Y-111132628D02*
X159120142Y-110608819D01*
X159977285Y-111608819D02*
X159405857Y-111608819D01*
X159691571Y-111608819D02*
X159691571Y-110608819D01*
X159691571Y-110608819D02*
X159596333Y-110751676D01*
X159596333Y-110751676D02*
X159501095Y-110846914D01*
X159501095Y-110846914D02*
X159405857Y-110894533D01*
X136701095Y-74861819D02*
X136701095Y-75671342D01*
X136701095Y-75671342D02*
X136748714Y-75766580D01*
X136748714Y-75766580D02*
X136796333Y-75814200D01*
X136796333Y-75814200D02*
X136891571Y-75861819D01*
X136891571Y-75861819D02*
X137082047Y-75861819D01*
X137082047Y-75861819D02*
X137177285Y-75814200D01*
X137177285Y-75814200D02*
X137224904Y-75766580D01*
X137224904Y-75766580D02*
X137272523Y-75671342D01*
X137272523Y-75671342D02*
X137272523Y-74861819D01*
X138177285Y-75195152D02*
X138177285Y-75861819D01*
X137939190Y-74814200D02*
X137701095Y-75528485D01*
X137701095Y-75528485D02*
X138320142Y-75528485D01*
X169229666Y-79461819D02*
X169229666Y-80176104D01*
X169229666Y-80176104D02*
X169182047Y-80318961D01*
X169182047Y-80318961D02*
X169086809Y-80414200D01*
X169086809Y-80414200D02*
X168943952Y-80461819D01*
X168943952Y-80461819D02*
X168848714Y-80461819D01*
X170134428Y-79795152D02*
X170134428Y-80461819D01*
X169896333Y-79414200D02*
X169658238Y-80128485D01*
X169658238Y-80128485D02*
X170277285Y-80128485D01*
X162882048Y-76330866D02*
X163643953Y-76330866D01*
X163920143Y-70461819D02*
X163920143Y-69461819D01*
X163920143Y-69461819D02*
X164253476Y-70176104D01*
X164253476Y-70176104D02*
X164586809Y-69461819D01*
X164586809Y-69461819D02*
X164586809Y-70461819D01*
X164824905Y-70557057D02*
X165586809Y-70557057D01*
X166158238Y-69938009D02*
X165824905Y-69938009D01*
X165824905Y-70461819D02*
X165824905Y-69461819D01*
X165824905Y-69461819D02*
X166301095Y-69461819D01*
X167253476Y-70461819D02*
X166920143Y-69985628D01*
X166682048Y-70461819D02*
X166682048Y-69461819D01*
X166682048Y-69461819D02*
X167063000Y-69461819D01*
X167063000Y-69461819D02*
X167158238Y-69509438D01*
X167158238Y-69509438D02*
X167205857Y-69557057D01*
X167205857Y-69557057D02*
X167253476Y-69652295D01*
X167253476Y-69652295D02*
X167253476Y-69795152D01*
X167253476Y-69795152D02*
X167205857Y-69890390D01*
X167205857Y-69890390D02*
X167158238Y-69938009D01*
X167158238Y-69938009D02*
X167063000Y-69985628D01*
X167063000Y-69985628D02*
X166682048Y-69985628D01*
X163189133Y-73376048D02*
X163189133Y-74137953D01*
X162808180Y-73757000D02*
X163570085Y-73757000D01*
X153196333Y-77566580D02*
X153148714Y-77614200D01*
X153148714Y-77614200D02*
X153005857Y-77661819D01*
X153005857Y-77661819D02*
X152910619Y-77661819D01*
X152910619Y-77661819D02*
X152767762Y-77614200D01*
X152767762Y-77614200D02*
X152672524Y-77518961D01*
X152672524Y-77518961D02*
X152624905Y-77423723D01*
X152624905Y-77423723D02*
X152577286Y-77233247D01*
X152577286Y-77233247D02*
X152577286Y-77090390D01*
X152577286Y-77090390D02*
X152624905Y-76899914D01*
X152624905Y-76899914D02*
X152672524Y-76804676D01*
X152672524Y-76804676D02*
X152767762Y-76709438D01*
X152767762Y-76709438D02*
X152910619Y-76661819D01*
X152910619Y-76661819D02*
X153005857Y-76661819D01*
X153005857Y-76661819D02*
X153148714Y-76709438D01*
X153148714Y-76709438D02*
X153196333Y-76757057D01*
X153577286Y-76757057D02*
X153624905Y-76709438D01*
X153624905Y-76709438D02*
X153720143Y-76661819D01*
X153720143Y-76661819D02*
X153958238Y-76661819D01*
X153958238Y-76661819D02*
X154053476Y-76709438D01*
X154053476Y-76709438D02*
X154101095Y-76757057D01*
X154101095Y-76757057D02*
X154148714Y-76852295D01*
X154148714Y-76852295D02*
X154148714Y-76947533D01*
X154148714Y-76947533D02*
X154101095Y-77090390D01*
X154101095Y-77090390D02*
X153529667Y-77661819D01*
X153529667Y-77661819D02*
X154148714Y-77661819D01*
X151267761Y-116957057D02*
X151172523Y-116909438D01*
X151172523Y-116909438D02*
X151077285Y-116814200D01*
X151077285Y-116814200D02*
X150934428Y-116671342D01*
X150934428Y-116671342D02*
X150839190Y-116623723D01*
X150839190Y-116623723D02*
X150743952Y-116623723D01*
X150791571Y-116861819D02*
X150696333Y-116814200D01*
X150696333Y-116814200D02*
X150601095Y-116718961D01*
X150601095Y-116718961D02*
X150553476Y-116528485D01*
X150553476Y-116528485D02*
X150553476Y-116195152D01*
X150553476Y-116195152D02*
X150601095Y-116004676D01*
X150601095Y-116004676D02*
X150696333Y-115909438D01*
X150696333Y-115909438D02*
X150791571Y-115861819D01*
X150791571Y-115861819D02*
X150982047Y-115861819D01*
X150982047Y-115861819D02*
X151077285Y-115909438D01*
X151077285Y-115909438D02*
X151172523Y-116004676D01*
X151172523Y-116004676D02*
X151220142Y-116195152D01*
X151220142Y-116195152D02*
X151220142Y-116528485D01*
X151220142Y-116528485D02*
X151172523Y-116718961D01*
X151172523Y-116718961D02*
X151077285Y-116814200D01*
X151077285Y-116814200D02*
X150982047Y-116861819D01*
X150982047Y-116861819D02*
X150791571Y-116861819D01*
X152077285Y-116195152D02*
X152077285Y-116861819D01*
X151839190Y-115814200D02*
X151601095Y-116528485D01*
X151601095Y-116528485D02*
X152220142Y-116528485D01*
X136324905Y-116961819D02*
X136324905Y-115961819D01*
X136324905Y-115961819D02*
X136563000Y-115961819D01*
X136563000Y-115961819D02*
X136705857Y-116009438D01*
X136705857Y-116009438D02*
X136801095Y-116104676D01*
X136801095Y-116104676D02*
X136848714Y-116199914D01*
X136848714Y-116199914D02*
X136896333Y-116390390D01*
X136896333Y-116390390D02*
X136896333Y-116533247D01*
X136896333Y-116533247D02*
X136848714Y-116723723D01*
X136848714Y-116723723D02*
X136801095Y-116818961D01*
X136801095Y-116818961D02*
X136705857Y-116914200D01*
X136705857Y-116914200D02*
X136563000Y-116961819D01*
X136563000Y-116961819D02*
X136324905Y-116961819D01*
X137229667Y-115961819D02*
X137848714Y-115961819D01*
X137848714Y-115961819D02*
X137515381Y-116342771D01*
X137515381Y-116342771D02*
X137658238Y-116342771D01*
X137658238Y-116342771D02*
X137753476Y-116390390D01*
X137753476Y-116390390D02*
X137801095Y-116438009D01*
X137801095Y-116438009D02*
X137848714Y-116533247D01*
X137848714Y-116533247D02*
X137848714Y-116771342D01*
X137848714Y-116771342D02*
X137801095Y-116866580D01*
X137801095Y-116866580D02*
X137753476Y-116914200D01*
X137753476Y-116914200D02*
X137658238Y-116961819D01*
X137658238Y-116961819D02*
X137372524Y-116961819D01*
X137372524Y-116961819D02*
X137277286Y-116914200D01*
X137277286Y-116914200D02*
X137229667Y-116866580D01*
X156824905Y-116961819D02*
X156824905Y-115961819D01*
X156824905Y-115961819D02*
X157063000Y-115961819D01*
X157063000Y-115961819D02*
X157205857Y-116009438D01*
X157205857Y-116009438D02*
X157301095Y-116104676D01*
X157301095Y-116104676D02*
X157348714Y-116199914D01*
X157348714Y-116199914D02*
X157396333Y-116390390D01*
X157396333Y-116390390D02*
X157396333Y-116533247D01*
X157396333Y-116533247D02*
X157348714Y-116723723D01*
X157348714Y-116723723D02*
X157301095Y-116818961D01*
X157301095Y-116818961D02*
X157205857Y-116914200D01*
X157205857Y-116914200D02*
X157063000Y-116961819D01*
X157063000Y-116961819D02*
X156824905Y-116961819D01*
X158253476Y-116295152D02*
X158253476Y-116961819D01*
X158015381Y-115914200D02*
X157777286Y-116628485D01*
X157777286Y-116628485D02*
X158396333Y-116628485D01*
X133329666Y-87361819D02*
X133329666Y-88076104D01*
X133329666Y-88076104D02*
X133282047Y-88218961D01*
X133282047Y-88218961D02*
X133186809Y-88314200D01*
X133186809Y-88314200D02*
X133043952Y-88361819D01*
X133043952Y-88361819D02*
X132948714Y-88361819D01*
X133710619Y-87361819D02*
X134377285Y-87361819D01*
X134377285Y-87361819D02*
X133948714Y-88361819D01*
X133517819Y-98902237D02*
X134327342Y-98902237D01*
X134327342Y-98902237D02*
X134422580Y-98854618D01*
X134422580Y-98854618D02*
X134470200Y-98806999D01*
X134470200Y-98806999D02*
X134517819Y-98711761D01*
X134517819Y-98711761D02*
X134517819Y-98521285D01*
X134517819Y-98521285D02*
X134470200Y-98426047D01*
X134470200Y-98426047D02*
X134422580Y-98378428D01*
X134422580Y-98378428D02*
X134327342Y-98330809D01*
X134327342Y-98330809D02*
X133517819Y-98330809D01*
X134232104Y-97902237D02*
X134232104Y-97426047D01*
X134517819Y-97997475D02*
X133517819Y-97664142D01*
X133517819Y-97664142D02*
X134517819Y-97330809D01*
X134517819Y-96426047D02*
X134041628Y-96759380D01*
X134517819Y-96997475D02*
X133517819Y-96997475D01*
X133517819Y-96997475D02*
X133517819Y-96616523D01*
X133517819Y-96616523D02*
X133565438Y-96521285D01*
X133565438Y-96521285D02*
X133613057Y-96473666D01*
X133613057Y-96473666D02*
X133708295Y-96426047D01*
X133708295Y-96426047D02*
X133851152Y-96426047D01*
X133851152Y-96426047D02*
X133946390Y-96473666D01*
X133946390Y-96473666D02*
X133994009Y-96521285D01*
X133994009Y-96521285D02*
X134041628Y-96616523D01*
X134041628Y-96616523D02*
X134041628Y-96997475D01*
X133517819Y-96140332D02*
X133517819Y-95568904D01*
X134517819Y-95854618D02*
X133517819Y-95854618D01*
X155024905Y-73261819D02*
X155024905Y-72261819D01*
X155024905Y-72261819D02*
X155263000Y-72261819D01*
X155263000Y-72261819D02*
X155405857Y-72309438D01*
X155405857Y-72309438D02*
X155501095Y-72404676D01*
X155501095Y-72404676D02*
X155548714Y-72499914D01*
X155548714Y-72499914D02*
X155596333Y-72690390D01*
X155596333Y-72690390D02*
X155596333Y-72833247D01*
X155596333Y-72833247D02*
X155548714Y-73023723D01*
X155548714Y-73023723D02*
X155501095Y-73118961D01*
X155501095Y-73118961D02*
X155405857Y-73214200D01*
X155405857Y-73214200D02*
X155263000Y-73261819D01*
X155263000Y-73261819D02*
X155024905Y-73261819D01*
X155977286Y-72357057D02*
X156024905Y-72309438D01*
X156024905Y-72309438D02*
X156120143Y-72261819D01*
X156120143Y-72261819D02*
X156358238Y-72261819D01*
X156358238Y-72261819D02*
X156453476Y-72309438D01*
X156453476Y-72309438D02*
X156501095Y-72357057D01*
X156501095Y-72357057D02*
X156548714Y-72452295D01*
X156548714Y-72452295D02*
X156548714Y-72547533D01*
X156548714Y-72547533D02*
X156501095Y-72690390D01*
X156501095Y-72690390D02*
X155929667Y-73261819D01*
X155929667Y-73261819D02*
X156548714Y-73261819D01*
X145301095Y-105461819D02*
X145301095Y-106271342D01*
X145301095Y-106271342D02*
X145348714Y-106366580D01*
X145348714Y-106366580D02*
X145396333Y-106414200D01*
X145396333Y-106414200D02*
X145491571Y-106461819D01*
X145491571Y-106461819D02*
X145682047Y-106461819D01*
X145682047Y-106461819D02*
X145777285Y-106414200D01*
X145777285Y-106414200D02*
X145824904Y-106366580D01*
X145824904Y-106366580D02*
X145872523Y-106271342D01*
X145872523Y-106271342D02*
X145872523Y-105461819D01*
X146253476Y-105461819D02*
X146872523Y-105461819D01*
X146872523Y-105461819D02*
X146539190Y-105842771D01*
X146539190Y-105842771D02*
X146682047Y-105842771D01*
X146682047Y-105842771D02*
X146777285Y-105890390D01*
X146777285Y-105890390D02*
X146824904Y-105938009D01*
X146824904Y-105938009D02*
X146872523Y-106033247D01*
X146872523Y-106033247D02*
X146872523Y-106271342D01*
X146872523Y-106271342D02*
X146824904Y-106366580D01*
X146824904Y-106366580D02*
X146777285Y-106414200D01*
X146777285Y-106414200D02*
X146682047Y-106461819D01*
X146682047Y-106461819D02*
X146396333Y-106461819D01*
X146396333Y-106461819D02*
X146301095Y-106414200D01*
X146301095Y-106414200D02*
X146253476Y-106366580D01*
X142867761Y-116957057D02*
X142772523Y-116909438D01*
X142772523Y-116909438D02*
X142677285Y-116814200D01*
X142677285Y-116814200D02*
X142534428Y-116671342D01*
X142534428Y-116671342D02*
X142439190Y-116623723D01*
X142439190Y-116623723D02*
X142343952Y-116623723D01*
X142391571Y-116861819D02*
X142296333Y-116814200D01*
X142296333Y-116814200D02*
X142201095Y-116718961D01*
X142201095Y-116718961D02*
X142153476Y-116528485D01*
X142153476Y-116528485D02*
X142153476Y-116195152D01*
X142153476Y-116195152D02*
X142201095Y-116004676D01*
X142201095Y-116004676D02*
X142296333Y-115909438D01*
X142296333Y-115909438D02*
X142391571Y-115861819D01*
X142391571Y-115861819D02*
X142582047Y-115861819D01*
X142582047Y-115861819D02*
X142677285Y-115909438D01*
X142677285Y-115909438D02*
X142772523Y-116004676D01*
X142772523Y-116004676D02*
X142820142Y-116195152D01*
X142820142Y-116195152D02*
X142820142Y-116528485D01*
X142820142Y-116528485D02*
X142772523Y-116718961D01*
X142772523Y-116718961D02*
X142677285Y-116814200D01*
X142677285Y-116814200D02*
X142582047Y-116861819D01*
X142582047Y-116861819D02*
X142391571Y-116861819D01*
X143153476Y-115861819D02*
X143772523Y-115861819D01*
X143772523Y-115861819D02*
X143439190Y-116242771D01*
X143439190Y-116242771D02*
X143582047Y-116242771D01*
X143582047Y-116242771D02*
X143677285Y-116290390D01*
X143677285Y-116290390D02*
X143724904Y-116338009D01*
X143724904Y-116338009D02*
X143772523Y-116433247D01*
X143772523Y-116433247D02*
X143772523Y-116671342D01*
X143772523Y-116671342D02*
X143724904Y-116766580D01*
X143724904Y-116766580D02*
X143677285Y-116814200D01*
X143677285Y-116814200D02*
X143582047Y-116861819D01*
X143582047Y-116861819D02*
X143296333Y-116861819D01*
X143296333Y-116861819D02*
X143201095Y-116814200D01*
X143201095Y-116814200D02*
X143153476Y-116766580D01*
X140912667Y-123209199D02*
X141055524Y-123256818D01*
X141055524Y-123256818D02*
X141293619Y-123256818D01*
X141293619Y-123256818D02*
X141388857Y-123209199D01*
X141388857Y-123209199D02*
X141436476Y-123161579D01*
X141436476Y-123161579D02*
X141484095Y-123066341D01*
X141484095Y-123066341D02*
X141484095Y-122971103D01*
X141484095Y-122971103D02*
X141436476Y-122875865D01*
X141436476Y-122875865D02*
X141388857Y-122828246D01*
X141388857Y-122828246D02*
X141293619Y-122780627D01*
X141293619Y-122780627D02*
X141103143Y-122733008D01*
X141103143Y-122733008D02*
X141007905Y-122685389D01*
X141007905Y-122685389D02*
X140960286Y-122637770D01*
X140960286Y-122637770D02*
X140912667Y-122542532D01*
X140912667Y-122542532D02*
X140912667Y-122447294D01*
X140912667Y-122447294D02*
X140960286Y-122352056D01*
X140960286Y-122352056D02*
X141007905Y-122304437D01*
X141007905Y-122304437D02*
X141103143Y-122256818D01*
X141103143Y-122256818D02*
X141341238Y-122256818D01*
X141341238Y-122256818D02*
X141484095Y-122304437D01*
X141817429Y-122256818D02*
X142055524Y-123256818D01*
X142055524Y-123256818D02*
X142246000Y-122542532D01*
X142246000Y-122542532D02*
X142436476Y-123256818D01*
X142436476Y-123256818D02*
X142674572Y-122256818D01*
X143579333Y-123256818D02*
X143007905Y-123256818D01*
X143293619Y-123256818D02*
X143293619Y-122256818D01*
X143293619Y-122256818D02*
X143198381Y-122399675D01*
X143198381Y-122399675D02*
X143103143Y-122494913D01*
X143103143Y-122494913D02*
X143007905Y-122542532D01*
X145253476Y-118938818D02*
X145253476Y-117938818D01*
X145253476Y-117938818D02*
X145634428Y-117938818D01*
X145634428Y-117938818D02*
X145729666Y-117986437D01*
X145729666Y-117986437D02*
X145777285Y-118034056D01*
X145777285Y-118034056D02*
X145824904Y-118129294D01*
X145824904Y-118129294D02*
X145824904Y-118272151D01*
X145824904Y-118272151D02*
X145777285Y-118367389D01*
X145777285Y-118367389D02*
X145729666Y-118415008D01*
X145729666Y-118415008D02*
X145634428Y-118462627D01*
X145634428Y-118462627D02*
X145253476Y-118462627D01*
X146443952Y-117938818D02*
X146634428Y-117938818D01*
X146634428Y-117938818D02*
X146729666Y-117986437D01*
X146729666Y-117986437D02*
X146824904Y-118081675D01*
X146824904Y-118081675D02*
X146872523Y-118272151D01*
X146872523Y-118272151D02*
X146872523Y-118605484D01*
X146872523Y-118605484D02*
X146824904Y-118795960D01*
X146824904Y-118795960D02*
X146729666Y-118891199D01*
X146729666Y-118891199D02*
X146634428Y-118938818D01*
X146634428Y-118938818D02*
X146443952Y-118938818D01*
X146443952Y-118938818D02*
X146348714Y-118891199D01*
X146348714Y-118891199D02*
X146253476Y-118795960D01*
X146253476Y-118795960D02*
X146205857Y-118605484D01*
X146205857Y-118605484D02*
X146205857Y-118272151D01*
X146205857Y-118272151D02*
X146253476Y-118081675D01*
X146253476Y-118081675D02*
X146348714Y-117986437D01*
X146348714Y-117986437D02*
X146443952Y-117938818D01*
X147205857Y-117938818D02*
X147443952Y-118938818D01*
X147443952Y-118938818D02*
X147634428Y-118224532D01*
X147634428Y-118224532D02*
X147824904Y-118938818D01*
X147824904Y-118938818D02*
X148063000Y-117938818D01*
X148443952Y-118415008D02*
X148777285Y-118415008D01*
X148920142Y-118938818D02*
X148443952Y-118938818D01*
X148443952Y-118938818D02*
X148443952Y-117938818D01*
X148443952Y-117938818D02*
X148920142Y-117938818D01*
X149920142Y-118938818D02*
X149586809Y-118462627D01*
X149348714Y-118938818D02*
X149348714Y-117938818D01*
X149348714Y-117938818D02*
X149729666Y-117938818D01*
X149729666Y-117938818D02*
X149824904Y-117986437D01*
X149824904Y-117986437D02*
X149872523Y-118034056D01*
X149872523Y-118034056D02*
X149920142Y-118129294D01*
X149920142Y-118129294D02*
X149920142Y-118272151D01*
X149920142Y-118272151D02*
X149872523Y-118367389D01*
X149872523Y-118367389D02*
X149824904Y-118415008D01*
X149824904Y-118415008D02*
X149729666Y-118462627D01*
X149729666Y-118462627D02*
X149348714Y-118462627D01*
X162429666Y-125261819D02*
X162429666Y-125976104D01*
X162429666Y-125976104D02*
X162382047Y-126118961D01*
X162382047Y-126118961D02*
X162286809Y-126214200D01*
X162286809Y-126214200D02*
X162143952Y-126261819D01*
X162143952Y-126261819D02*
X162048714Y-126261819D01*
X162858238Y-125357057D02*
X162905857Y-125309438D01*
X162905857Y-125309438D02*
X163001095Y-125261819D01*
X163001095Y-125261819D02*
X163239190Y-125261819D01*
X163239190Y-125261819D02*
X163334428Y-125309438D01*
X163334428Y-125309438D02*
X163382047Y-125357057D01*
X163382047Y-125357057D02*
X163429666Y-125452295D01*
X163429666Y-125452295D02*
X163429666Y-125547533D01*
X163429666Y-125547533D02*
X163382047Y-125690390D01*
X163382047Y-125690390D02*
X162810619Y-126261819D01*
X162810619Y-126261819D02*
X163429666Y-126261819D01*
X155004761Y-119548580D02*
X154957142Y-119596200D01*
X154957142Y-119596200D02*
X154814285Y-119643819D01*
X154814285Y-119643819D02*
X154719047Y-119643819D01*
X154719047Y-119643819D02*
X154576190Y-119596200D01*
X154576190Y-119596200D02*
X154480952Y-119500961D01*
X154480952Y-119500961D02*
X154433333Y-119405723D01*
X154433333Y-119405723D02*
X154385714Y-119215247D01*
X154385714Y-119215247D02*
X154385714Y-119072390D01*
X154385714Y-119072390D02*
X154433333Y-118881914D01*
X154433333Y-118881914D02*
X154480952Y-118786676D01*
X154480952Y-118786676D02*
X154576190Y-118691438D01*
X154576190Y-118691438D02*
X154719047Y-118643819D01*
X154719047Y-118643819D02*
X154814285Y-118643819D01*
X154814285Y-118643819D02*
X154957142Y-118691438D01*
X154957142Y-118691438D02*
X155004761Y-118739057D01*
X155433333Y-119643819D02*
X155433333Y-118643819D01*
X155433333Y-119120009D02*
X156004761Y-119120009D01*
X156004761Y-119643819D02*
X156004761Y-118643819D01*
X156433333Y-119358104D02*
X156909523Y-119358104D01*
X156338095Y-119643819D02*
X156671428Y-118643819D01*
X156671428Y-118643819D02*
X157004761Y-119643819D01*
X157909523Y-119643819D02*
X157576190Y-119167628D01*
X157338095Y-119643819D02*
X157338095Y-118643819D01*
X157338095Y-118643819D02*
X157719047Y-118643819D01*
X157719047Y-118643819D02*
X157814285Y-118691438D01*
X157814285Y-118691438D02*
X157861904Y-118739057D01*
X157861904Y-118739057D02*
X157909523Y-118834295D01*
X157909523Y-118834295D02*
X157909523Y-118977152D01*
X157909523Y-118977152D02*
X157861904Y-119072390D01*
X157861904Y-119072390D02*
X157814285Y-119120009D01*
X157814285Y-119120009D02*
X157719047Y-119167628D01*
X157719047Y-119167628D02*
X157338095Y-119167628D01*
X158861904Y-118691438D02*
X158766666Y-118643819D01*
X158766666Y-118643819D02*
X158623809Y-118643819D01*
X158623809Y-118643819D02*
X158480952Y-118691438D01*
X158480952Y-118691438D02*
X158385714Y-118786676D01*
X158385714Y-118786676D02*
X158338095Y-118881914D01*
X158338095Y-118881914D02*
X158290476Y-119072390D01*
X158290476Y-119072390D02*
X158290476Y-119215247D01*
X158290476Y-119215247D02*
X158338095Y-119405723D01*
X158338095Y-119405723D02*
X158385714Y-119500961D01*
X158385714Y-119500961D02*
X158480952Y-119596200D01*
X158480952Y-119596200D02*
X158623809Y-119643819D01*
X158623809Y-119643819D02*
X158719047Y-119643819D01*
X158719047Y-119643819D02*
X158861904Y-119596200D01*
X158861904Y-119596200D02*
X158909523Y-119548580D01*
X158909523Y-119548580D02*
X158909523Y-119215247D01*
X158909523Y-119215247D02*
X158719047Y-119215247D01*
X159338095Y-119120009D02*
X159671428Y-119120009D01*
X159814285Y-119643819D02*
X159338095Y-119643819D01*
X159338095Y-119643819D02*
X159338095Y-118643819D01*
X159338095Y-118643819D02*
X159814285Y-118643819D01*
X160814285Y-119643819D02*
X160480952Y-119167628D01*
X160242857Y-119643819D02*
X160242857Y-118643819D01*
X160242857Y-118643819D02*
X160623809Y-118643819D01*
X160623809Y-118643819D02*
X160719047Y-118691438D01*
X160719047Y-118691438D02*
X160766666Y-118739057D01*
X160766666Y-118739057D02*
X160814285Y-118834295D01*
X160814285Y-118834295D02*
X160814285Y-118977152D01*
X160814285Y-118977152D02*
X160766666Y-119072390D01*
X160766666Y-119072390D02*
X160719047Y-119120009D01*
X160719047Y-119120009D02*
X160623809Y-119167628D01*
X160623809Y-119167628D02*
X160242857Y-119167628D01*
X153027951Y-123833133D02*
X152266047Y-123833133D01*
X162843951Y-123833133D02*
X162082047Y-123833133D01*
X162462999Y-123452180D02*
X162462999Y-124214085D01*
X149196333Y-88666580D02*
X149148714Y-88714200D01*
X149148714Y-88714200D02*
X149005857Y-88761819D01*
X149005857Y-88761819D02*
X148910619Y-88761819D01*
X148910619Y-88761819D02*
X148767762Y-88714200D01*
X148767762Y-88714200D02*
X148672524Y-88618961D01*
X148672524Y-88618961D02*
X148624905Y-88523723D01*
X148624905Y-88523723D02*
X148577286Y-88333247D01*
X148577286Y-88333247D02*
X148577286Y-88190390D01*
X148577286Y-88190390D02*
X148624905Y-87999914D01*
X148624905Y-87999914D02*
X148672524Y-87904676D01*
X148672524Y-87904676D02*
X148767762Y-87809438D01*
X148767762Y-87809438D02*
X148910619Y-87761819D01*
X148910619Y-87761819D02*
X149005857Y-87761819D01*
X149005857Y-87761819D02*
X149148714Y-87809438D01*
X149148714Y-87809438D02*
X149196333Y-87857057D01*
X149529667Y-87761819D02*
X150148714Y-87761819D01*
X150148714Y-87761819D02*
X149815381Y-88142771D01*
X149815381Y-88142771D02*
X149958238Y-88142771D01*
X149958238Y-88142771D02*
X150053476Y-88190390D01*
X150053476Y-88190390D02*
X150101095Y-88238009D01*
X150101095Y-88238009D02*
X150148714Y-88333247D01*
X150148714Y-88333247D02*
X150148714Y-88571342D01*
X150148714Y-88571342D02*
X150101095Y-88666580D01*
X150101095Y-88666580D02*
X150053476Y-88714200D01*
X150053476Y-88714200D02*
X149958238Y-88761819D01*
X149958238Y-88761819D02*
X149672524Y-88761819D01*
X149672524Y-88761819D02*
X149577286Y-88714200D01*
X149577286Y-88714200D02*
X149529667Y-88666580D01*
D12*
X124813000Y-123107000D02*
X126063000Y-123107000D01*
X125103000Y-122817000D02*
X131073000Y-122817000D01*
X131073000Y-122817000D02*
X131073000Y-115197000D01*
X125113000Y-122807000D02*
X125863000Y-122807000D01*
X125863000Y-122807000D02*
X125863000Y-121007000D01*
X127363000Y-122807000D02*
X127363000Y-122057000D01*
X127363000Y-122057000D02*
X130313000Y-122057000D01*
X130313000Y-122057000D02*
X130313000Y-119007000D01*
X124813000Y-121857000D02*
X124813000Y-123107000D01*
X125113000Y-121007000D02*
X125113000Y-122807000D01*
X125863000Y-121007000D02*
X125113000Y-121007000D01*
X125113000Y-119507000D02*
X125863000Y-119507000D01*
X125863000Y-119507000D02*
X125863000Y-118507000D01*
X125113000Y-118507000D02*
X125113000Y-119507000D01*
X125863000Y-118507000D02*
X125113000Y-118507000D01*
X125113000Y-117007000D02*
X125863000Y-117007000D01*
X125863000Y-117007000D02*
X125863000Y-115207000D01*
X127363000Y-115957000D02*
X130313000Y-115957000D01*
X130313000Y-115957000D02*
X130313000Y-119007000D01*
X125113000Y-115207000D02*
X125113000Y-117007000D01*
X125863000Y-115207000D02*
X125113000Y-115207000D01*
X127363000Y-115207000D02*
X127363000Y-115957000D01*
X125103000Y-115197000D02*
X125103000Y-122817000D01*
X131073000Y-115197000D02*
X125103000Y-115197000D01*
X133622500Y-68576000D02*
X133622500Y-71876000D01*
X133622500Y-68576000D02*
X139132500Y-68576000D01*
X133622500Y-71876000D02*
X139132500Y-71876000D01*
X136003000Y-121807000D02*
X136003000Y-121963000D01*
X136003000Y-124123000D02*
X136003000Y-124279000D01*
X139235334Y-121964392D02*
G75*
G03*
X136003001Y-121807485I-1672334J-1078608D01*
G01*
X138604129Y-121963164D02*
G75*
G03*
X136522040Y-121963001I-1041129J-1079836D01*
G01*
X136522040Y-124122999D02*
G75*
G03*
X138604129Y-124122836I1040960J1079999D01*
G01*
X136003001Y-124278515D02*
G75*
G03*
X139235334Y-124121608I1559999J1235515D01*
G01*
X145704400Y-70733258D02*
X145704400Y-70258742D01*
X146749400Y-70733258D02*
X146749400Y-70258742D01*
X152877000Y-103009420D02*
X152877000Y-103290580D01*
X151857000Y-103009420D02*
X151857000Y-103290580D01*
D11*
X145462000Y-99675000D02*
X145687000Y-99675000D01*
X145462000Y-99675000D02*
X145462000Y-99350000D01*
X145687000Y-99675000D02*
X145687000Y-101100000D01*
X152712000Y-99675000D02*
X152387000Y-99675000D01*
X152712000Y-99675000D02*
X152712000Y-99350000D01*
X145462000Y-92425000D02*
X145462000Y-92750000D01*
X145462000Y-92425000D02*
X145787000Y-92425000D01*
X152712000Y-92425000D02*
X152712000Y-92750000D01*
X152712000Y-92425000D02*
X152387000Y-92425000D01*
D12*
X143064700Y-71836000D02*
X144739700Y-71836000D01*
X143064700Y-71836000D02*
X142414700Y-71836000D01*
X143064700Y-68716000D02*
X143714700Y-68716000D01*
X143064700Y-68716000D02*
X142414700Y-68716000D01*
X170313000Y-114907000D02*
X169063000Y-114907000D01*
X170023000Y-115197000D02*
X164053000Y-115197000D01*
X164053000Y-115197000D02*
X164053000Y-122817000D01*
X170013000Y-115207000D02*
X169263000Y-115207000D01*
X169263000Y-115207000D02*
X169263000Y-117007000D01*
X167763000Y-115207000D02*
X167763000Y-115957000D01*
X167763000Y-115957000D02*
X164813000Y-115957000D01*
X164813000Y-115957000D02*
X164813000Y-119007000D01*
X170313000Y-116157000D02*
X170313000Y-114907000D01*
X170013000Y-117007000D02*
X170013000Y-115207000D01*
X169263000Y-117007000D02*
X170013000Y-117007000D01*
X170013000Y-118507000D02*
X169263000Y-118507000D01*
X169263000Y-118507000D02*
X169263000Y-119507000D01*
X170013000Y-119507000D02*
X170013000Y-118507000D01*
X169263000Y-119507000D02*
X170013000Y-119507000D01*
X170013000Y-121007000D02*
X169263000Y-121007000D01*
X169263000Y-121007000D02*
X169263000Y-122807000D01*
X167763000Y-122057000D02*
X164813000Y-122057000D01*
X164813000Y-122057000D02*
X164813000Y-119007000D01*
X170013000Y-122807000D02*
X170013000Y-121007000D01*
X169263000Y-122807000D02*
X170013000Y-122807000D01*
X167763000Y-122807000D02*
X167763000Y-122057000D01*
X170023000Y-122817000D02*
X170023000Y-115197000D01*
X164053000Y-122817000D02*
X170023000Y-122817000D01*
X156013000Y-94607000D02*
X156013000Y-93607000D01*
X157013000Y-94607000D02*
X156013000Y-94607000D01*
X158013000Y-92607000D02*
X160613000Y-92607000D01*
X156063000Y-86607000D02*
X156063000Y-92407000D01*
X162563000Y-86507000D02*
X162563000Y-92507000D01*
X158013000Y-86407000D02*
X160613000Y-86407000D01*
X147771420Y-101890000D02*
X148052580Y-101890000D01*
X147771420Y-102910000D02*
X148052580Y-102910000D01*
X124813000Y-79107000D02*
X126063000Y-79107000D01*
X125103000Y-78817000D02*
X131073000Y-78817000D01*
X131073000Y-78817000D02*
X131073000Y-71197000D01*
X125113000Y-78807000D02*
X125863000Y-78807000D01*
X125863000Y-78807000D02*
X125863000Y-77007000D01*
X127363000Y-78807000D02*
X127363000Y-78057000D01*
X127363000Y-78057000D02*
X130313000Y-78057000D01*
X130313000Y-78057000D02*
X130313000Y-75007000D01*
X124813000Y-77857000D02*
X124813000Y-79107000D01*
X125113000Y-77007000D02*
X125113000Y-78807000D01*
X125863000Y-77007000D02*
X125113000Y-77007000D01*
X125113000Y-75507000D02*
X125863000Y-75507000D01*
X125863000Y-75507000D02*
X125863000Y-74507000D01*
X125113000Y-74507000D02*
X125113000Y-75507000D01*
X125863000Y-74507000D02*
X125113000Y-74507000D01*
X125113000Y-73007000D02*
X125863000Y-73007000D01*
X125863000Y-73007000D02*
X125863000Y-71207000D01*
X127363000Y-71957000D02*
X130313000Y-71957000D01*
X130313000Y-71957000D02*
X130313000Y-75007000D01*
X125113000Y-71207000D02*
X125113000Y-73007000D01*
X125863000Y-71207000D02*
X125113000Y-71207000D01*
X127363000Y-71207000D02*
X127363000Y-71957000D01*
X125103000Y-71197000D02*
X125103000Y-78817000D01*
X131073000Y-71197000D02*
X125103000Y-71197000D01*
X148721600Y-113499742D02*
X148721600Y-113974258D01*
X147676600Y-113499742D02*
X147676600Y-113974258D01*
X151361300Y-71836000D02*
X153036300Y-71836000D01*
X151361300Y-71836000D02*
X150711300Y-71836000D01*
X151361300Y-68716000D02*
X152011300Y-68716000D01*
X151361300Y-68716000D02*
X150711300Y-68716000D01*
X132288000Y-110357000D02*
X133538000Y-110357000D01*
X132578000Y-110067000D02*
X138548000Y-110067000D01*
X138548000Y-110067000D02*
X138548000Y-102447000D01*
X132588000Y-110057000D02*
X133338000Y-110057000D01*
X133338000Y-110057000D02*
X133338000Y-108257000D01*
X134838000Y-110057000D02*
X134838000Y-109307000D01*
X134838000Y-109307000D02*
X137788000Y-109307000D01*
X137788000Y-109307000D02*
X137788000Y-106257000D01*
X132288000Y-109107000D02*
X132288000Y-110357000D01*
X132588000Y-108257000D02*
X132588000Y-110057000D01*
X133338000Y-108257000D02*
X132588000Y-108257000D01*
X132588000Y-106757000D02*
X133338000Y-106757000D01*
X133338000Y-106757000D02*
X133338000Y-105757000D01*
X132588000Y-105757000D02*
X132588000Y-106757000D01*
X133338000Y-105757000D02*
X132588000Y-105757000D01*
X132588000Y-104257000D02*
X133338000Y-104257000D01*
X133338000Y-104257000D02*
X133338000Y-102457000D01*
X134838000Y-103207000D02*
X137788000Y-103207000D01*
X137788000Y-103207000D02*
X137788000Y-106257000D01*
X132588000Y-102457000D02*
X132588000Y-104257000D01*
X133338000Y-102457000D02*
X132588000Y-102457000D01*
X134838000Y-102457000D02*
X134838000Y-103207000D01*
X132578000Y-102447000D02*
X132578000Y-110067000D01*
X138548000Y-102447000D02*
X132578000Y-102447000D01*
X137770742Y-119091500D02*
X138245258Y-119091500D01*
X137770742Y-120136500D02*
X138245258Y-120136500D01*
X151117000Y-103009420D02*
X151117000Y-103290580D01*
X150097000Y-103009420D02*
X150097000Y-103290580D01*
X144148500Y-86164742D02*
X144148500Y-86639258D01*
X143103500Y-86164742D02*
X143103500Y-86639258D01*
X146749400Y-113499742D02*
X146749400Y-113974258D01*
X145704400Y-113499742D02*
X145704400Y-113974258D01*
X139315252Y-81246002D02*
X138792748Y-81246002D01*
X139315252Y-79776002D02*
X138792748Y-79776002D01*
X141558000Y-74801000D02*
X147568000Y-74801000D01*
X143808000Y-81621000D02*
X147568000Y-81621000D01*
X147568000Y-74801000D02*
X147568000Y-76061000D01*
X147568000Y-81621000D02*
X147568000Y-80361000D01*
X147676600Y-70733258D02*
X147676600Y-70258742D01*
X148721600Y-70733258D02*
X148721600Y-70258742D01*
X161863000Y-96807000D02*
X156763000Y-96807000D01*
X156763000Y-96807000D02*
X156763000Y-109407000D01*
X161863000Y-109407000D02*
X161863000Y-96807000D01*
X161895500Y-83207000D02*
X161895500Y-67807000D01*
X161895500Y-83207000D02*
X133195500Y-83207000D01*
X161895500Y-67807000D02*
X133195500Y-67807000D01*
X133195500Y-83207000D02*
X133195500Y-67807000D01*
X170313000Y-70907000D02*
X169063000Y-70907000D01*
X170023000Y-71197000D02*
X164053000Y-71197000D01*
X164053000Y-71197000D02*
X164053000Y-78817000D01*
X170013000Y-71207000D02*
X169263000Y-71207000D01*
X169263000Y-71207000D02*
X169263000Y-73007000D01*
X167763000Y-71207000D02*
X167763000Y-71957000D01*
X167763000Y-71957000D02*
X164813000Y-71957000D01*
X164813000Y-71957000D02*
X164813000Y-75007000D01*
X170313000Y-72157000D02*
X170313000Y-70907000D01*
X170013000Y-73007000D02*
X170013000Y-71207000D01*
X169263000Y-73007000D02*
X170013000Y-73007000D01*
X170013000Y-74507000D02*
X169263000Y-74507000D01*
X169263000Y-74507000D02*
X169263000Y-75507000D01*
X170013000Y-75507000D02*
X170013000Y-74507000D01*
X169263000Y-75507000D02*
X170013000Y-75507000D01*
X170013000Y-77007000D02*
X169263000Y-77007000D01*
X169263000Y-77007000D02*
X169263000Y-78807000D01*
X167763000Y-78057000D02*
X164813000Y-78057000D01*
X164813000Y-78057000D02*
X164813000Y-75007000D01*
X170013000Y-78807000D02*
X170013000Y-77007000D01*
X169263000Y-78807000D02*
X170013000Y-78807000D01*
X167763000Y-78807000D02*
X167763000Y-78057000D01*
X170023000Y-78817000D02*
X170023000Y-71197000D01*
X164053000Y-78817000D02*
X170023000Y-78817000D01*
X150623000Y-77518252D02*
X150623000Y-76995748D01*
X152093000Y-77518252D02*
X152093000Y-76995748D01*
X151361300Y-112397000D02*
X149686300Y-112397000D01*
X151361300Y-112397000D02*
X152011300Y-112397000D01*
X151361300Y-115517000D02*
X150711300Y-115517000D01*
X151361300Y-115517000D02*
X152011300Y-115517000D01*
X133622500Y-112357000D02*
X133622500Y-115657000D01*
X133622500Y-112357000D02*
X139132500Y-112357000D01*
X133622500Y-115657000D02*
X139132500Y-115657000D01*
X160803500Y-115657000D02*
X160803500Y-112357000D01*
X160803500Y-115657000D02*
X155293500Y-115657000D01*
X160803500Y-112357000D02*
X155293500Y-112357000D01*
X137819000Y-97261000D02*
X137819000Y-84501000D01*
X137819000Y-97261000D02*
X135159000Y-97261000D01*
X137819000Y-84501000D02*
X135159000Y-84501000D01*
X136489000Y-99861000D02*
X135159000Y-99861000D01*
X135159000Y-99861000D02*
X135159000Y-98531000D01*
X135159000Y-97261000D02*
X135159000Y-84501000D01*
X160803500Y-71876000D02*
X160803500Y-68576000D01*
X160803500Y-71876000D02*
X155293500Y-71876000D01*
X160803500Y-68576000D02*
X155293500Y-68576000D01*
D10*
X139463000Y-84207000D02*
X154963000Y-84207000D01*
X154963000Y-84207000D02*
X154963000Y-109807000D01*
X154963000Y-109807000D02*
X139463000Y-109807000D01*
X139463000Y-109807000D02*
X139463000Y-84207000D01*
D12*
X143064700Y-112397000D02*
X141389700Y-112397000D01*
X143064700Y-112397000D02*
X143714700Y-112397000D01*
X143064700Y-115517000D02*
X142414700Y-115517000D01*
X143064700Y-115517000D02*
X143714700Y-115517000D01*
X143963000Y-126643000D02*
X143963000Y-119443000D01*
X145863000Y-121643000D02*
X145863000Y-124443000D01*
X149263000Y-121643000D02*
X145863000Y-121643000D01*
X149263000Y-121643000D02*
X149263000Y-124443000D01*
X149263000Y-124443000D02*
X145863000Y-124443000D01*
X151163000Y-119443000D02*
X143963000Y-119443000D01*
X151163000Y-126643000D02*
X143963000Y-126643000D01*
X151163000Y-126643000D02*
X151163000Y-119443000D01*
X161683000Y-126682000D02*
X161683000Y-125432000D01*
X161393000Y-126392000D02*
X161393000Y-120422000D01*
X161393000Y-120422000D02*
X153773000Y-120422000D01*
X161383000Y-126382000D02*
X161383000Y-125632000D01*
X161383000Y-125632000D02*
X159583000Y-125632000D01*
X161383000Y-124132000D02*
X160633000Y-124132000D01*
X160633000Y-124132000D02*
X160633000Y-121182000D01*
X160633000Y-121182000D02*
X157583000Y-121182000D01*
X160433000Y-126682000D02*
X161683000Y-126682000D01*
X159583000Y-126382000D02*
X161383000Y-126382000D01*
X159583000Y-125632000D02*
X159583000Y-126382000D01*
X158083000Y-126382000D02*
X158083000Y-125632000D01*
X158083000Y-125632000D02*
X157083000Y-125632000D01*
X157083000Y-126382000D02*
X158083000Y-126382000D01*
X157083000Y-125632000D02*
X157083000Y-126382000D01*
X155583000Y-126382000D02*
X155583000Y-125632000D01*
X155583000Y-125632000D02*
X153783000Y-125632000D01*
X154533000Y-124132000D02*
X154533000Y-121182000D01*
X154533000Y-121182000D02*
X157583000Y-121182000D01*
X153783000Y-126382000D02*
X155583000Y-126382000D01*
X153783000Y-125632000D02*
X153783000Y-126382000D01*
X153783000Y-124132000D02*
X154533000Y-124132000D01*
X153773000Y-126392000D02*
X161393000Y-126392000D01*
X153773000Y-120422000D02*
X153773000Y-126392000D01*
X150171420Y-89190000D02*
X150452580Y-89190000D01*
X150171420Y-90210000D02*
X150452580Y-90210000D01*
%LPC*%
D13*
X127563000Y-120257000D03*
D14*
X127563000Y-117757000D03*
D15*
X135132500Y-70226000D03*
X139132500Y-70226000D03*
D16*
X136293000Y-123043000D03*
D17*
X138833000Y-123043000D03*
D18*
X166063000Y-82507000D03*
D19*
X146226900Y-71321000D03*
X146226900Y-69671000D03*
D20*
X152367000Y-102375000D03*
X152367000Y-103925000D03*
D18*
X129063000Y-82507000D03*
D21*
X146287000Y-100300000D03*
X147087000Y-100300000D03*
X147887000Y-100300000D03*
X148687000Y-100300000D03*
X149487000Y-100300000D03*
X150287000Y-100300000D03*
X151087000Y-100300000D03*
X151887000Y-100300000D03*
D22*
X153337000Y-98850000D03*
X153337000Y-98050000D03*
X153337000Y-97250000D03*
X153337000Y-96450000D03*
X153337000Y-95650000D03*
X153337000Y-94850000D03*
X153337000Y-94050000D03*
X153337000Y-93250000D03*
D21*
X151887000Y-91800000D03*
X151087000Y-91800000D03*
X150287000Y-91800000D03*
X149487000Y-91800000D03*
X148687000Y-91800000D03*
X147887000Y-91800000D03*
X147087000Y-91800000D03*
X146287000Y-91800000D03*
D22*
X144837000Y-93250000D03*
X144837000Y-94050000D03*
X144837000Y-94850000D03*
X144837000Y-95650000D03*
X144837000Y-96450000D03*
X144837000Y-97250000D03*
X144837000Y-98050000D03*
X144837000Y-98850000D03*
D23*
X144002200Y-71226000D03*
X144002200Y-69326000D03*
X142127200Y-70276000D03*
D24*
X167563000Y-117757000D03*
D14*
X167563000Y-120257000D03*
D25*
X157063000Y-93507000D03*
X157063000Y-85507000D03*
X161563000Y-93507000D03*
X161563000Y-85507000D03*
D26*
X147137000Y-102400000D03*
X148687000Y-102400000D03*
D13*
X127563000Y-76257000D03*
D14*
X127563000Y-73757000D03*
D27*
X148199100Y-112912000D03*
X148199100Y-114562000D03*
D23*
X152298800Y-71226000D03*
X152298800Y-69326000D03*
X150423800Y-70276000D03*
D13*
X135038000Y-107507000D03*
D14*
X135038000Y-105007000D03*
D28*
X137183000Y-119614000D03*
X138833000Y-119614000D03*
D20*
X150607000Y-102375000D03*
X150607000Y-103925000D03*
D27*
X143626000Y-85577000D03*
X143626000Y-87227000D03*
X146226900Y-112912000D03*
X146226900Y-114562000D03*
D29*
X140004000Y-80511002D03*
X138104000Y-80511002D03*
D30*
X142508000Y-75911000D03*
X142508000Y-78211000D03*
D31*
X148808000Y-78211000D03*
D30*
X142508000Y-80511000D03*
D19*
X148199100Y-71321000D03*
X148199100Y-69671000D03*
D32*
X159313000Y-99257000D03*
X159313000Y-107757000D03*
D33*
X160530500Y-81227000D03*
D34*
X157990500Y-81227000D03*
X160530500Y-78687000D03*
X157990500Y-78687000D03*
X160530500Y-76147000D03*
X157990500Y-76147000D03*
X160530500Y-73607000D03*
X157990500Y-73607000D03*
D18*
X166063000Y-111507000D03*
D24*
X167563000Y-73757000D03*
D14*
X167563000Y-76257000D03*
D35*
X151358000Y-78207000D03*
X151358000Y-76307000D03*
D36*
X150423800Y-113007000D03*
X150423800Y-114907000D03*
X152298800Y-113957000D03*
D15*
X135132500Y-114007000D03*
X139132500Y-114007000D03*
D37*
X159293500Y-114007000D03*
X155293500Y-114007000D03*
D33*
X136489000Y-98531000D03*
D34*
X136489000Y-95991000D03*
X136489000Y-93451000D03*
X136489000Y-90911000D03*
X136489000Y-88371000D03*
X136489000Y-85831000D03*
D37*
X159293500Y-70226000D03*
X155293500Y-70226000D03*
D33*
X140863000Y-85577000D03*
D34*
X140863000Y-88117000D03*
X140863000Y-90657000D03*
X140863000Y-93197000D03*
X140863000Y-95737000D03*
X140863000Y-98277000D03*
X140863000Y-100817000D03*
X140863000Y-103357000D03*
X140863000Y-105897000D03*
X140863000Y-108437000D03*
D18*
X129063000Y-111507000D03*
D36*
X142127200Y-113007000D03*
X142127200Y-114907000D03*
X144002200Y-113957000D03*
D38*
X145563000Y-120543000D03*
D39*
X147563000Y-120543000D03*
X149563000Y-120543000D03*
X145563000Y-125543000D03*
X147563000Y-125543000D03*
X149563000Y-125543000D03*
D40*
X158833000Y-123932000D03*
D41*
X156333000Y-123932000D03*
D26*
X149537000Y-89700000D03*
X151087000Y-89700000D03*
%LPD*%
M02*
