G04 #@! TF.GenerationSoftware,KiCad,Pcbnew,7.0.8*
G04 #@! TF.CreationDate,2024-02-21T14:18:38-03:00*
G04 #@! TF.ProjectId,Drone PCB,44726f6e-6520-4504-9342-2e6b69636164,1.0*
G04 #@! TF.SameCoordinates,Original*
G04 #@! TF.FileFunction,Soldermask,Top*
G04 #@! TF.FilePolarity,Negative*
%FSLAX46Y46*%
G04 Gerber Fmt 4.6, Leading zero omitted, Abs format (unit mm)*
G04 Created by KiCad (PCBNEW 7.0.8) date 2024-02-21 14:18:38*
%MOMM*%
%LPD*%
G01*
G04 APERTURE LIST*
G04 Aperture macros list*
%AMRoundRect*
0 Rectangle with rounded corners*
0 $1 Rounding radius*
0 $2 $3 $4 $5 $6 $7 $8 $9 X,Y pos of 4 corners*
0 Add a 4 corners polygon primitive as box body*
4,1,4,$2,$3,$4,$5,$6,$7,$8,$9,$2,$3,0*
0 Add four circle primitives for the rounded corners*
1,1,$1+$1,$2,$3*
1,1,$1+$1,$4,$5*
1,1,$1+$1,$6,$7*
1,1,$1+$1,$8,$9*
0 Add four rect primitives between the rounded corners*
20,1,$1+$1,$2,$3,$4,$5,0*
20,1,$1+$1,$4,$5,$6,$7,0*
20,1,$1+$1,$6,$7,$8,$9,0*
20,1,$1+$1,$8,$9,$2,$3,0*%
G04 Aperture macros list end*
%ADD10RoundRect,0.250000X0.750000X-0.600000X0.750000X0.600000X-0.750000X0.600000X-0.750000X-0.600000X0*%
%ADD11O,2.000000X1.700000*%
%ADD12RoundRect,0.250000X-1.000000X-0.650000X1.000000X-0.650000X1.000000X0.650000X-1.000000X0.650000X0*%
%ADD13R,1.800000X1.800000*%
%ADD14C,1.800000*%
%ADD15C,2.700000*%
%ADD16RoundRect,0.200000X0.275000X-0.200000X0.275000X0.200000X-0.275000X0.200000X-0.275000X-0.200000X0*%
%ADD17RoundRect,0.225000X-0.250000X0.225000X-0.250000X-0.225000X0.250000X-0.225000X0.250000X0.225000X0*%
%ADD18R,0.550000X1.600000*%
%ADD19R,1.600000X0.550000*%
%ADD20RoundRect,0.150000X0.587500X0.150000X-0.587500X0.150000X-0.587500X-0.150000X0.587500X-0.150000X0*%
%ADD21RoundRect,0.250000X-0.750000X0.600000X-0.750000X-0.600000X0.750000X-0.600000X0.750000X0.600000X0*%
%ADD22R,1.400000X1.600000*%
%ADD23RoundRect,0.225000X-0.225000X-0.250000X0.225000X-0.250000X0.225000X0.250000X-0.225000X0.250000X0*%
%ADD24RoundRect,0.200000X-0.275000X0.200000X-0.275000X-0.200000X0.275000X-0.200000X0.275000X0.200000X0*%
%ADD25RoundRect,0.200000X-0.200000X-0.275000X0.200000X-0.275000X0.200000X0.275000X-0.200000X0.275000X0*%
%ADD26RoundRect,0.250000X0.250000X0.475000X-0.250000X0.475000X-0.250000X-0.475000X0.250000X-0.475000X0*%
%ADD27R,2.000000X1.500000*%
%ADD28R,2.000000X3.800000*%
%ADD29R,2.000000X4.500000*%
%ADD30R,1.700000X1.700000*%
%ADD31O,1.700000X1.700000*%
%ADD32RoundRect,0.250000X0.475000X-0.250000X0.475000X0.250000X-0.475000X0.250000X-0.475000X-0.250000X0*%
%ADD33RoundRect,0.150000X-0.587500X-0.150000X0.587500X-0.150000X0.587500X0.150000X-0.587500X0.150000X0*%
%ADD34RoundRect,0.250000X1.000000X0.650000X-1.000000X0.650000X-1.000000X-0.650000X1.000000X-0.650000X0*%
%ADD35R,1.500000X1.500000*%
%ADD36C,1.500000*%
%ADD37RoundRect,0.250000X0.600000X0.750000X-0.600000X0.750000X-0.600000X-0.750000X0.600000X-0.750000X0*%
%ADD38O,1.700000X2.000000*%
G04 APERTURE END LIST*
D10*
X127563000Y-120257000D03*
D11*
X127563000Y-117757000D03*
D12*
X135132500Y-70226000D03*
X139132500Y-70226000D03*
D13*
X136293000Y-123043000D03*
D14*
X138833000Y-123043000D03*
D15*
X166063000Y-82507000D03*
D16*
X146226900Y-71321000D03*
X146226900Y-69671000D03*
D17*
X152367000Y-102375000D03*
X152367000Y-103925000D03*
D15*
X129063000Y-82507000D03*
D18*
X146287000Y-100300000D03*
X147087000Y-100300000D03*
X147887000Y-100300000D03*
X148687000Y-100300000D03*
X149487000Y-100300000D03*
X150287000Y-100300000D03*
X151087000Y-100300000D03*
X151887000Y-100300000D03*
D19*
X153337000Y-98850000D03*
X153337000Y-98050000D03*
X153337000Y-97250000D03*
X153337000Y-96450000D03*
X153337000Y-95650000D03*
X153337000Y-94850000D03*
X153337000Y-94050000D03*
X153337000Y-93250000D03*
D18*
X151887000Y-91800000D03*
X151087000Y-91800000D03*
X150287000Y-91800000D03*
X149487000Y-91800000D03*
X148687000Y-91800000D03*
X147887000Y-91800000D03*
X147087000Y-91800000D03*
X146287000Y-91800000D03*
D19*
X144837000Y-93250000D03*
X144837000Y-94050000D03*
X144837000Y-94850000D03*
X144837000Y-95650000D03*
X144837000Y-96450000D03*
X144837000Y-97250000D03*
X144837000Y-98050000D03*
X144837000Y-98850000D03*
D20*
X144002200Y-71226000D03*
X144002200Y-69326000D03*
X142127200Y-70276000D03*
D21*
X167563000Y-117757000D03*
D11*
X167563000Y-120257000D03*
D22*
X157063000Y-93507000D03*
X157063000Y-85507000D03*
X161563000Y-93507000D03*
X161563000Y-85507000D03*
D23*
X147137000Y-102400000D03*
X148687000Y-102400000D03*
D10*
X127563000Y-76257000D03*
D11*
X127563000Y-73757000D03*
D24*
X148199100Y-112912000D03*
X148199100Y-114562000D03*
D20*
X152298800Y-71226000D03*
X152298800Y-69326000D03*
X150423800Y-70276000D03*
D10*
X135038000Y-107507000D03*
D11*
X135038000Y-105007000D03*
D25*
X137183000Y-119614000D03*
X138833000Y-119614000D03*
D17*
X150607000Y-102375000D03*
X150607000Y-103925000D03*
D24*
X143626000Y-85577000D03*
X143626000Y-87227000D03*
X146226900Y-112912000D03*
X146226900Y-114562000D03*
D26*
X140004000Y-80511002D03*
X138104000Y-80511002D03*
D27*
X142508000Y-75911000D03*
X142508000Y-78211000D03*
D28*
X148808000Y-78211000D03*
D27*
X142508000Y-80511000D03*
D16*
X148199100Y-71321000D03*
X148199100Y-69671000D03*
D29*
X159313000Y-99257000D03*
X159313000Y-107757000D03*
D30*
X160530500Y-81227000D03*
D31*
X157990500Y-81227000D03*
X160530500Y-78687000D03*
X157990500Y-78687000D03*
X160530500Y-76147000D03*
X157990500Y-76147000D03*
X160530500Y-73607000D03*
X157990500Y-73607000D03*
D15*
X166063000Y-111507000D03*
D21*
X167563000Y-73757000D03*
D11*
X167563000Y-76257000D03*
D32*
X151358000Y-78207000D03*
X151358000Y-76307000D03*
D33*
X150423800Y-113007000D03*
X150423800Y-114907000D03*
X152298800Y-113957000D03*
D12*
X135132500Y-114007000D03*
X139132500Y-114007000D03*
D34*
X159293500Y-114007000D03*
X155293500Y-114007000D03*
D30*
X136489000Y-98531000D03*
D31*
X136489000Y-95991000D03*
X136489000Y-93451000D03*
X136489000Y-90911000D03*
X136489000Y-88371000D03*
X136489000Y-85831000D03*
D34*
X159293500Y-70226000D03*
X155293500Y-70226000D03*
D30*
X140863000Y-85577000D03*
D31*
X140863000Y-88117000D03*
X140863000Y-90657000D03*
X140863000Y-93197000D03*
X140863000Y-95737000D03*
X140863000Y-98277000D03*
X140863000Y-100817000D03*
X140863000Y-103357000D03*
X140863000Y-105897000D03*
X140863000Y-108437000D03*
D15*
X129063000Y-111507000D03*
D33*
X142127200Y-113007000D03*
X142127200Y-114907000D03*
X144002200Y-113957000D03*
D35*
X145563000Y-120543000D03*
D36*
X147563000Y-120543000D03*
X149563000Y-120543000D03*
X145563000Y-125543000D03*
X147563000Y-125543000D03*
X149563000Y-125543000D03*
D37*
X158833000Y-123932000D03*
D38*
X156333000Y-123932000D03*
D23*
X149537000Y-89700000D03*
X151087000Y-89700000D03*
M02*
