%TF.GenerationSoftware,KiCad,Pcbnew,7.0.8*%
%TF.CreationDate,2024-02-21T14:18:44-03:00*%
%TF.ProjectId,Drone PCB,44726f6e-6520-4504-9342-2e6b69636164,1.0*%
%TF.SameCoordinates,Original*%
%TF.FileFunction,Drillmap*%
%TF.FilePolarity,Positive*%
%FSLAX45Y45*%
G04 Gerber Fmt 4.5, Leading zero omitted, Abs format (unit mm)*
G04 Created by KiCad (PCBNEW 7.0.8) date 2024-02-21 14:18:44*
%MOMM*%
%LPD*%
G01*
G04 APERTURE LIST*
%ADD10C,0.100000*%
%ADD11C,0.200000*%
%ADD12C,0.040000*%
%ADD13C,0.090000*%
G04 APERTURE END LIST*
D10*
X17056300Y-7050700D02*
X17056300Y-8400700D01*
X12456300Y-7050700D02*
X13206300Y-6700700D01*
X16306300Y-10650700D02*
X17056300Y-11000700D01*
X13206300Y-8750700D02*
X12456300Y-8400700D01*
X17056300Y-7050700D02*
X16306300Y-6700700D01*
X16306300Y-8750700D02*
X17056300Y-8400700D01*
X17056300Y-12350700D02*
X16306300Y-12700700D01*
X17056300Y-11000700D02*
X17056300Y-12350700D01*
X16306300Y-8750700D02*
X16306300Y-10650700D01*
X13206300Y-12700700D02*
X16306300Y-12700700D01*
X13206300Y-10650700D02*
X12456300Y-11000700D01*
X12456300Y-7050700D02*
X12456300Y-8400700D01*
X12456300Y-11000700D02*
X12456300Y-12350700D01*
X12456300Y-12350700D02*
X13206300Y-12700700D01*
X13206300Y-6700700D02*
X16306300Y-6700700D01*
X13206300Y-8750700D02*
X13206300Y-10650700D01*
D11*
D12*
X13577720Y-11939280D02*
X13617720Y-11979280D01*
X13617720Y-11939280D02*
X13577720Y-11979280D01*
X13790400Y-7864600D02*
X13830400Y-7904600D01*
X13830400Y-7864600D02*
X13790400Y-7904600D01*
X14230800Y-7382000D02*
X14270800Y-7422000D01*
X14270800Y-7382000D02*
X14230800Y-7422000D01*
X14558500Y-10220000D02*
X14598500Y-10260000D01*
X14598500Y-10220000D02*
X14558500Y-10260000D01*
X14602690Y-6823200D02*
X14642690Y-6863200D01*
X14642690Y-6823200D02*
X14602690Y-6863200D01*
X14602690Y-7242300D02*
X14642690Y-7282300D01*
X14642690Y-7242300D02*
X14602690Y-7282300D01*
X14602690Y-11560300D02*
X14642690Y-11600300D01*
X14642690Y-11560300D02*
X14602690Y-11600300D01*
X14622000Y-9465000D02*
X14662000Y-9505000D01*
X14662000Y-9465000D02*
X14622000Y-9505000D01*
X14622000Y-9625000D02*
X14662000Y-9665000D01*
X14662000Y-9625000D02*
X14622000Y-9665000D01*
X14698200Y-9545000D02*
X14738200Y-9585000D01*
X14738200Y-9545000D02*
X14698200Y-9585000D01*
X14768700Y-9865000D02*
X14808700Y-9905000D01*
X14808700Y-9865000D02*
X14768700Y-9905000D01*
X14799800Y-8950000D02*
X14839800Y-8990000D01*
X14839800Y-8950000D02*
X14799800Y-8990000D01*
X14799910Y-6823200D02*
X14839910Y-6863200D01*
X14839910Y-6823200D02*
X14799910Y-6863200D01*
X14799910Y-7242300D02*
X14839910Y-7282300D01*
X14839910Y-7242300D02*
X14799910Y-7282300D01*
X14799910Y-11560300D02*
X14839910Y-11600300D01*
X14839910Y-11560300D02*
X14799910Y-11600300D01*
X14901400Y-10372500D02*
X14941400Y-10412500D01*
X14941400Y-10372500D02*
X14901400Y-10412500D01*
X15022380Y-11141200D02*
X15062380Y-11181200D01*
X15062380Y-11141200D02*
X15022380Y-11181200D01*
X15115800Y-7470900D02*
X15155800Y-7510900D01*
X15155800Y-7470900D02*
X15115800Y-7510900D01*
X15155400Y-9465000D02*
X15195400Y-9505000D01*
X15195400Y-9465000D02*
X15155400Y-9505000D01*
X15155400Y-9680700D02*
X15195400Y-9720700D01*
X15195400Y-9680700D02*
X15155400Y-9720700D01*
X15155400Y-9845800D02*
X15195400Y-9885800D01*
X15195400Y-9845800D02*
X15155400Y-9885800D01*
X15231600Y-8950000D02*
X15271600Y-8990000D01*
X15271600Y-8950000D02*
X15231600Y-8990000D01*
X15345900Y-7877300D02*
X15385900Y-7917300D01*
X15385900Y-7877300D02*
X15345900Y-7917300D01*
X15345900Y-10372500D02*
X15385900Y-10412500D01*
X15385900Y-10372500D02*
X15345900Y-10412500D01*
X15358600Y-9147300D02*
X15398600Y-9187300D01*
X15398600Y-9147300D02*
X15358600Y-9187300D01*
X15549100Y-9769600D02*
X15589100Y-9809600D01*
X15589100Y-9769600D02*
X15549100Y-9809600D01*
X15980900Y-8530700D02*
X16020900Y-8570700D01*
X16020900Y-8530700D02*
X15980900Y-8570700D01*
X15980900Y-9330700D02*
X16020900Y-9370700D01*
X16020900Y-9330700D02*
X15980900Y-9370700D01*
D13*
X13674300Y-12304300D02*
G75*
G03*
X13674300Y-12304300I-45000J0D01*
G01*
X13928300Y-12304300D02*
G75*
G03*
X13928300Y-12304300I-45000J0D01*
G01*
X14601300Y-12054300D02*
G75*
G03*
X14601300Y-12054300I-45000J0D01*
G01*
X14601300Y-12554300D02*
G75*
G03*
X14601300Y-12554300I-45000J0D01*
G01*
X14801300Y-12054300D02*
G75*
G03*
X14801300Y-12054300I-45000J0D01*
G01*
X14801300Y-12554300D02*
G75*
G03*
X14801300Y-12554300I-45000J0D01*
G01*
X15001300Y-12054300D02*
G75*
G03*
X15001300Y-12054300I-45000J0D01*
G01*
X15001300Y-12554300D02*
G75*
G03*
X15001300Y-12554300I-45000J0D01*
G01*
D10*
X12756300Y-7325700D02*
X12756300Y-7425700D01*
X12706300Y-7375700D02*
X12806300Y-7375700D01*
X12756300Y-7575700D02*
X12756300Y-7675700D01*
X12706300Y-7625700D02*
X12806300Y-7625700D01*
X12756300Y-11725700D02*
X12756300Y-11825700D01*
X12706300Y-11775700D02*
X12806300Y-11775700D01*
X12756300Y-11975700D02*
X12756300Y-12075700D01*
X12706300Y-12025700D02*
X12806300Y-12025700D01*
X13503800Y-10450700D02*
X13503800Y-10550700D01*
X13453800Y-10500700D02*
X13553800Y-10500700D01*
X13503800Y-10700700D02*
X13503800Y-10800700D01*
X13453800Y-10750700D02*
X13553800Y-10750700D01*
X13648900Y-8533100D02*
X13648900Y-8633100D01*
X13598900Y-8583100D02*
X13698900Y-8583100D01*
X13648900Y-8787100D02*
X13648900Y-8887100D01*
X13598900Y-8837100D02*
X13698900Y-8837100D01*
X13648900Y-9041100D02*
X13648900Y-9141100D01*
X13598900Y-9091100D02*
X13698900Y-9091100D01*
X13648900Y-9295100D02*
X13648900Y-9395100D01*
X13598900Y-9345100D02*
X13698900Y-9345100D01*
X13648900Y-9549100D02*
X13648900Y-9649100D01*
X13598900Y-9599100D02*
X13698900Y-9599100D01*
X13648900Y-9803100D02*
X13648900Y-9903100D01*
X13598900Y-9853100D02*
X13698900Y-9853100D01*
X14086300Y-8507700D02*
X14086300Y-8607700D01*
X14036300Y-8557700D02*
X14136300Y-8557700D01*
X14086300Y-8761700D02*
X14086300Y-8861700D01*
X14036300Y-8811700D02*
X14136300Y-8811700D01*
X14086300Y-9015700D02*
X14086300Y-9115700D01*
X14036300Y-9065700D02*
X14136300Y-9065700D01*
X14086300Y-9269700D02*
X14086300Y-9369700D01*
X14036300Y-9319700D02*
X14136300Y-9319700D01*
X14086300Y-9523700D02*
X14086300Y-9623700D01*
X14036300Y-9573700D02*
X14136300Y-9573700D01*
X14086300Y-9777700D02*
X14086300Y-9877700D01*
X14036300Y-9827700D02*
X14136300Y-9827700D01*
X14086300Y-10031700D02*
X14086300Y-10131700D01*
X14036300Y-10081700D02*
X14136300Y-10081700D01*
X14086300Y-10285700D02*
X14086300Y-10385700D01*
X14036300Y-10335700D02*
X14136300Y-10335700D01*
X14086300Y-10539700D02*
X14086300Y-10639700D01*
X14036300Y-10589700D02*
X14136300Y-10589700D01*
X14086300Y-10793700D02*
X14086300Y-10893700D01*
X14036300Y-10843700D02*
X14136300Y-10843700D01*
X15633300Y-12343200D02*
X15633300Y-12443200D01*
X15583300Y-12393200D02*
X15683300Y-12393200D01*
X15799050Y-7310700D02*
X15799050Y-7410700D01*
X15749050Y-7360700D02*
X15849050Y-7360700D01*
X15799050Y-7564700D02*
X15799050Y-7664700D01*
X15749050Y-7614700D02*
X15849050Y-7614700D01*
X15799050Y-7818700D02*
X15799050Y-7918700D01*
X15749050Y-7868700D02*
X15849050Y-7868700D01*
X15799050Y-8072700D02*
X15799050Y-8172700D01*
X15749050Y-8122700D02*
X15849050Y-8122700D01*
X15883300Y-12343200D02*
X15883300Y-12443200D01*
X15833300Y-12393200D02*
X15933300Y-12393200D01*
X16053050Y-7310700D02*
X16053050Y-7410700D01*
X16003050Y-7360700D02*
X16103050Y-7360700D01*
X16053050Y-7564700D02*
X16053050Y-7664700D01*
X16003050Y-7614700D02*
X16103050Y-7614700D01*
X16053050Y-7818700D02*
X16053050Y-7918700D01*
X16003050Y-7868700D02*
X16103050Y-7868700D01*
X16053050Y-8072700D02*
X16053050Y-8172700D01*
X16003050Y-8122700D02*
X16103050Y-8122700D01*
X16756300Y-7325700D02*
X16756300Y-7425700D01*
X16706300Y-7375700D02*
X16806300Y-7375700D01*
X16756300Y-7575700D02*
X16756300Y-7675700D01*
X16706300Y-7625700D02*
X16806300Y-7625700D01*
X16756300Y-11725700D02*
X16756300Y-11825700D01*
X16706300Y-11775700D02*
X16806300Y-11775700D01*
X16756300Y-11975700D02*
X16756300Y-12075700D01*
X16706300Y-12025700D02*
X16806300Y-12025700D01*
D11*
X12712077Y-13017184D02*
X12712077Y-12817184D01*
X12712077Y-12817184D02*
X12759696Y-12817184D01*
X12759696Y-12817184D02*
X12788267Y-12826708D01*
X12788267Y-12826708D02*
X12807315Y-12845755D01*
X12807315Y-12845755D02*
X12816839Y-12864803D01*
X12816839Y-12864803D02*
X12826362Y-12902898D01*
X12826362Y-12902898D02*
X12826362Y-12931469D01*
X12826362Y-12931469D02*
X12816839Y-12969565D01*
X12816839Y-12969565D02*
X12807315Y-12988612D01*
X12807315Y-12988612D02*
X12788267Y-13007660D01*
X12788267Y-13007660D02*
X12759696Y-13017184D01*
X12759696Y-13017184D02*
X12712077Y-13017184D01*
X12912077Y-13017184D02*
X12912077Y-12883850D01*
X12912077Y-12921946D02*
X12921601Y-12902898D01*
X12921601Y-12902898D02*
X12931124Y-12893374D01*
X12931124Y-12893374D02*
X12950172Y-12883850D01*
X12950172Y-12883850D02*
X12969220Y-12883850D01*
X13035886Y-13017184D02*
X13035886Y-12883850D01*
X13035886Y-12817184D02*
X13026362Y-12826708D01*
X13026362Y-12826708D02*
X13035886Y-12836231D01*
X13035886Y-12836231D02*
X13045410Y-12826708D01*
X13045410Y-12826708D02*
X13035886Y-12817184D01*
X13035886Y-12817184D02*
X13035886Y-12836231D01*
X13159696Y-13017184D02*
X13140648Y-13007660D01*
X13140648Y-13007660D02*
X13131124Y-12988612D01*
X13131124Y-12988612D02*
X13131124Y-12817184D01*
X13264458Y-13017184D02*
X13245410Y-13007660D01*
X13245410Y-13007660D02*
X13235886Y-12988612D01*
X13235886Y-12988612D02*
X13235886Y-12817184D01*
X13493029Y-13017184D02*
X13493029Y-12817184D01*
X13493029Y-12817184D02*
X13559696Y-12960041D01*
X13559696Y-12960041D02*
X13626362Y-12817184D01*
X13626362Y-12817184D02*
X13626362Y-13017184D01*
X13807315Y-13017184D02*
X13807315Y-12912422D01*
X13807315Y-12912422D02*
X13797791Y-12893374D01*
X13797791Y-12893374D02*
X13778743Y-12883850D01*
X13778743Y-12883850D02*
X13740648Y-12883850D01*
X13740648Y-12883850D02*
X13721601Y-12893374D01*
X13807315Y-13007660D02*
X13788267Y-13017184D01*
X13788267Y-13017184D02*
X13740648Y-13017184D01*
X13740648Y-13017184D02*
X13721601Y-13007660D01*
X13721601Y-13007660D02*
X13712077Y-12988612D01*
X13712077Y-12988612D02*
X13712077Y-12969565D01*
X13712077Y-12969565D02*
X13721601Y-12950517D01*
X13721601Y-12950517D02*
X13740648Y-12940993D01*
X13740648Y-12940993D02*
X13788267Y-12940993D01*
X13788267Y-12940993D02*
X13807315Y-12931469D01*
X13902553Y-12883850D02*
X13902553Y-13083850D01*
X13902553Y-12893374D02*
X13921601Y-12883850D01*
X13921601Y-12883850D02*
X13959696Y-12883850D01*
X13959696Y-12883850D02*
X13978743Y-12893374D01*
X13978743Y-12893374D02*
X13988267Y-12902898D01*
X13988267Y-12902898D02*
X13997791Y-12921946D01*
X13997791Y-12921946D02*
X13997791Y-12979088D01*
X13997791Y-12979088D02*
X13988267Y-12998136D01*
X13988267Y-12998136D02*
X13978743Y-13007660D01*
X13978743Y-13007660D02*
X13959696Y-13017184D01*
X13959696Y-13017184D02*
X13921601Y-13017184D01*
X13921601Y-13017184D02*
X13902553Y-13007660D01*
X14083505Y-12998136D02*
X14093029Y-13007660D01*
X14093029Y-13007660D02*
X14083505Y-13017184D01*
X14083505Y-13017184D02*
X14073982Y-13007660D01*
X14073982Y-13007660D02*
X14083505Y-12998136D01*
X14083505Y-12998136D02*
X14083505Y-13017184D01*
X14083505Y-12893374D02*
X14093029Y-12902898D01*
X14093029Y-12902898D02*
X14083505Y-12912422D01*
X14083505Y-12912422D02*
X14073982Y-12902898D01*
X14073982Y-12902898D02*
X14083505Y-12893374D01*
X14083505Y-12893374D02*
X14083505Y-12912422D01*
D12*
X12411300Y-13325700D02*
X12451300Y-13365700D01*
X12451300Y-13325700D02*
X12411300Y-13365700D01*
D11*
X12750172Y-13237184D02*
X12769220Y-13237184D01*
X12769220Y-13237184D02*
X12788267Y-13246708D01*
X12788267Y-13246708D02*
X12797791Y-13256231D01*
X12797791Y-13256231D02*
X12807315Y-13275279D01*
X12807315Y-13275279D02*
X12816839Y-13313374D01*
X12816839Y-13313374D02*
X12816839Y-13360993D01*
X12816839Y-13360993D02*
X12807315Y-13399088D01*
X12807315Y-13399088D02*
X12797791Y-13418136D01*
X12797791Y-13418136D02*
X12788267Y-13427660D01*
X12788267Y-13427660D02*
X12769220Y-13437184D01*
X12769220Y-13437184D02*
X12750172Y-13437184D01*
X12750172Y-13437184D02*
X12731124Y-13427660D01*
X12731124Y-13427660D02*
X12721601Y-13418136D01*
X12721601Y-13418136D02*
X12712077Y-13399088D01*
X12712077Y-13399088D02*
X12702553Y-13360993D01*
X12702553Y-13360993D02*
X12702553Y-13313374D01*
X12702553Y-13313374D02*
X12712077Y-13275279D01*
X12712077Y-13275279D02*
X12721601Y-13256231D01*
X12721601Y-13256231D02*
X12731124Y-13246708D01*
X12731124Y-13246708D02*
X12750172Y-13237184D01*
X12902553Y-13418136D02*
X12912077Y-13427660D01*
X12912077Y-13427660D02*
X12902553Y-13437184D01*
X12902553Y-13437184D02*
X12893029Y-13427660D01*
X12893029Y-13427660D02*
X12902553Y-13418136D01*
X12902553Y-13418136D02*
X12902553Y-13437184D01*
X13083505Y-13303850D02*
X13083505Y-13437184D01*
X13035886Y-13227660D02*
X12988267Y-13370517D01*
X12988267Y-13370517D02*
X13112077Y-13370517D01*
X13226362Y-13237184D02*
X13245410Y-13237184D01*
X13245410Y-13237184D02*
X13264458Y-13246708D01*
X13264458Y-13246708D02*
X13273982Y-13256231D01*
X13273982Y-13256231D02*
X13283505Y-13275279D01*
X13283505Y-13275279D02*
X13293029Y-13313374D01*
X13293029Y-13313374D02*
X13293029Y-13360993D01*
X13293029Y-13360993D02*
X13283505Y-13399088D01*
X13283505Y-13399088D02*
X13273982Y-13418136D01*
X13273982Y-13418136D02*
X13264458Y-13427660D01*
X13264458Y-13427660D02*
X13245410Y-13437184D01*
X13245410Y-13437184D02*
X13226362Y-13437184D01*
X13226362Y-13437184D02*
X13207315Y-13427660D01*
X13207315Y-13427660D02*
X13197791Y-13418136D01*
X13197791Y-13418136D02*
X13188267Y-13399088D01*
X13188267Y-13399088D02*
X13178743Y-13360993D01*
X13178743Y-13360993D02*
X13178743Y-13313374D01*
X13178743Y-13313374D02*
X13188267Y-13275279D01*
X13188267Y-13275279D02*
X13197791Y-13256231D01*
X13197791Y-13256231D02*
X13207315Y-13246708D01*
X13207315Y-13246708D02*
X13226362Y-13237184D01*
X13416839Y-13237184D02*
X13435886Y-13237184D01*
X13435886Y-13237184D02*
X13454934Y-13246708D01*
X13454934Y-13246708D02*
X13464458Y-13256231D01*
X13464458Y-13256231D02*
X13473982Y-13275279D01*
X13473982Y-13275279D02*
X13483505Y-13313374D01*
X13483505Y-13313374D02*
X13483505Y-13360993D01*
X13483505Y-13360993D02*
X13473982Y-13399088D01*
X13473982Y-13399088D02*
X13464458Y-13418136D01*
X13464458Y-13418136D02*
X13454934Y-13427660D01*
X13454934Y-13427660D02*
X13435886Y-13437184D01*
X13435886Y-13437184D02*
X13416839Y-13437184D01*
X13416839Y-13437184D02*
X13397791Y-13427660D01*
X13397791Y-13427660D02*
X13388267Y-13418136D01*
X13388267Y-13418136D02*
X13378743Y-13399088D01*
X13378743Y-13399088D02*
X13369220Y-13360993D01*
X13369220Y-13360993D02*
X13369220Y-13313374D01*
X13369220Y-13313374D02*
X13378743Y-13275279D01*
X13378743Y-13275279D02*
X13388267Y-13256231D01*
X13388267Y-13256231D02*
X13397791Y-13246708D01*
X13397791Y-13246708D02*
X13416839Y-13237184D01*
X13569220Y-13437184D02*
X13569220Y-13303850D01*
X13569220Y-13322898D02*
X13578743Y-13313374D01*
X13578743Y-13313374D02*
X13597791Y-13303850D01*
X13597791Y-13303850D02*
X13626363Y-13303850D01*
X13626363Y-13303850D02*
X13645410Y-13313374D01*
X13645410Y-13313374D02*
X13654934Y-13332422D01*
X13654934Y-13332422D02*
X13654934Y-13437184D01*
X13654934Y-13332422D02*
X13664458Y-13313374D01*
X13664458Y-13313374D02*
X13683505Y-13303850D01*
X13683505Y-13303850D02*
X13712077Y-13303850D01*
X13712077Y-13303850D02*
X13731124Y-13313374D01*
X13731124Y-13313374D02*
X13740648Y-13332422D01*
X13740648Y-13332422D02*
X13740648Y-13437184D01*
X13835886Y-13437184D02*
X13835886Y-13303850D01*
X13835886Y-13322898D02*
X13845410Y-13313374D01*
X13845410Y-13313374D02*
X13864458Y-13303850D01*
X13864458Y-13303850D02*
X13893029Y-13303850D01*
X13893029Y-13303850D02*
X13912077Y-13313374D01*
X13912077Y-13313374D02*
X13921601Y-13332422D01*
X13921601Y-13332422D02*
X13921601Y-13437184D01*
X13921601Y-13332422D02*
X13931124Y-13313374D01*
X13931124Y-13313374D02*
X13950172Y-13303850D01*
X13950172Y-13303850D02*
X13978743Y-13303850D01*
X13978743Y-13303850D02*
X13997791Y-13313374D01*
X13997791Y-13313374D02*
X14007315Y-13332422D01*
X14007315Y-13332422D02*
X14007315Y-13437184D01*
X14397791Y-13227660D02*
X14226363Y-13484803D01*
X14654934Y-13237184D02*
X14673982Y-13237184D01*
X14673982Y-13237184D02*
X14693029Y-13246708D01*
X14693029Y-13246708D02*
X14702553Y-13256231D01*
X14702553Y-13256231D02*
X14712077Y-13275279D01*
X14712077Y-13275279D02*
X14721601Y-13313374D01*
X14721601Y-13313374D02*
X14721601Y-13360993D01*
X14721601Y-13360993D02*
X14712077Y-13399088D01*
X14712077Y-13399088D02*
X14702553Y-13418136D01*
X14702553Y-13418136D02*
X14693029Y-13427660D01*
X14693029Y-13427660D02*
X14673982Y-13437184D01*
X14673982Y-13437184D02*
X14654934Y-13437184D01*
X14654934Y-13437184D02*
X14635886Y-13427660D01*
X14635886Y-13427660D02*
X14626363Y-13418136D01*
X14626363Y-13418136D02*
X14616839Y-13399088D01*
X14616839Y-13399088D02*
X14607315Y-13360993D01*
X14607315Y-13360993D02*
X14607315Y-13313374D01*
X14607315Y-13313374D02*
X14616839Y-13275279D01*
X14616839Y-13275279D02*
X14626363Y-13256231D01*
X14626363Y-13256231D02*
X14635886Y-13246708D01*
X14635886Y-13246708D02*
X14654934Y-13237184D01*
X14807315Y-13418136D02*
X14816839Y-13427660D01*
X14816839Y-13427660D02*
X14807315Y-13437184D01*
X14807315Y-13437184D02*
X14797791Y-13427660D01*
X14797791Y-13427660D02*
X14807315Y-13418136D01*
X14807315Y-13418136D02*
X14807315Y-13437184D01*
X14940648Y-13237184D02*
X14959696Y-13237184D01*
X14959696Y-13237184D02*
X14978744Y-13246708D01*
X14978744Y-13246708D02*
X14988267Y-13256231D01*
X14988267Y-13256231D02*
X14997791Y-13275279D01*
X14997791Y-13275279D02*
X15007315Y-13313374D01*
X15007315Y-13313374D02*
X15007315Y-13360993D01*
X15007315Y-13360993D02*
X14997791Y-13399088D01*
X14997791Y-13399088D02*
X14988267Y-13418136D01*
X14988267Y-13418136D02*
X14978744Y-13427660D01*
X14978744Y-13427660D02*
X14959696Y-13437184D01*
X14959696Y-13437184D02*
X14940648Y-13437184D01*
X14940648Y-13437184D02*
X14921601Y-13427660D01*
X14921601Y-13427660D02*
X14912077Y-13418136D01*
X14912077Y-13418136D02*
X14902553Y-13399088D01*
X14902553Y-13399088D02*
X14893029Y-13360993D01*
X14893029Y-13360993D02*
X14893029Y-13313374D01*
X14893029Y-13313374D02*
X14902553Y-13275279D01*
X14902553Y-13275279D02*
X14912077Y-13256231D01*
X14912077Y-13256231D02*
X14921601Y-13246708D01*
X14921601Y-13246708D02*
X14940648Y-13237184D01*
X15197791Y-13437184D02*
X15083506Y-13437184D01*
X15140648Y-13437184D02*
X15140648Y-13237184D01*
X15140648Y-13237184D02*
X15121601Y-13265755D01*
X15121601Y-13265755D02*
X15102553Y-13284803D01*
X15102553Y-13284803D02*
X15083506Y-13294327D01*
X15378744Y-13237184D02*
X15283506Y-13237184D01*
X15283506Y-13237184D02*
X15273982Y-13332422D01*
X15273982Y-13332422D02*
X15283506Y-13322898D01*
X15283506Y-13322898D02*
X15302553Y-13313374D01*
X15302553Y-13313374D02*
X15350172Y-13313374D01*
X15350172Y-13313374D02*
X15369220Y-13322898D01*
X15369220Y-13322898D02*
X15378744Y-13332422D01*
X15378744Y-13332422D02*
X15388267Y-13351469D01*
X15388267Y-13351469D02*
X15388267Y-13399088D01*
X15388267Y-13399088D02*
X15378744Y-13418136D01*
X15378744Y-13418136D02*
X15369220Y-13427660D01*
X15369220Y-13427660D02*
X15350172Y-13437184D01*
X15350172Y-13437184D02*
X15302553Y-13437184D01*
X15302553Y-13437184D02*
X15283506Y-13427660D01*
X15283506Y-13427660D02*
X15273982Y-13418136D01*
X15454934Y-13237184D02*
X15588267Y-13237184D01*
X15588267Y-13237184D02*
X15502553Y-13437184D01*
X15654934Y-13237184D02*
X15654934Y-13275279D01*
X15731125Y-13237184D02*
X15731125Y-13275279D01*
X16026363Y-13513374D02*
X16016839Y-13503850D01*
X16016839Y-13503850D02*
X15997791Y-13475279D01*
X15997791Y-13475279D02*
X15988268Y-13456231D01*
X15988268Y-13456231D02*
X15978744Y-13427660D01*
X15978744Y-13427660D02*
X15969220Y-13380041D01*
X15969220Y-13380041D02*
X15969220Y-13341946D01*
X15969220Y-13341946D02*
X15978744Y-13294327D01*
X15978744Y-13294327D02*
X15988268Y-13265755D01*
X15988268Y-13265755D02*
X15997791Y-13246708D01*
X15997791Y-13246708D02*
X16016839Y-13218136D01*
X16016839Y-13218136D02*
X16026363Y-13208612D01*
X16093029Y-13256231D02*
X16102553Y-13246708D01*
X16102553Y-13246708D02*
X16121601Y-13237184D01*
X16121601Y-13237184D02*
X16169220Y-13237184D01*
X16169220Y-13237184D02*
X16188268Y-13246708D01*
X16188268Y-13246708D02*
X16197791Y-13256231D01*
X16197791Y-13256231D02*
X16207315Y-13275279D01*
X16207315Y-13275279D02*
X16207315Y-13294327D01*
X16207315Y-13294327D02*
X16197791Y-13322898D01*
X16197791Y-13322898D02*
X16083506Y-13437184D01*
X16083506Y-13437184D02*
X16207315Y-13437184D01*
X16321601Y-13322898D02*
X16302553Y-13313374D01*
X16302553Y-13313374D02*
X16293029Y-13303850D01*
X16293029Y-13303850D02*
X16283506Y-13284803D01*
X16283506Y-13284803D02*
X16283506Y-13275279D01*
X16283506Y-13275279D02*
X16293029Y-13256231D01*
X16293029Y-13256231D02*
X16302553Y-13246708D01*
X16302553Y-13246708D02*
X16321601Y-13237184D01*
X16321601Y-13237184D02*
X16359696Y-13237184D01*
X16359696Y-13237184D02*
X16378744Y-13246708D01*
X16378744Y-13246708D02*
X16388268Y-13256231D01*
X16388268Y-13256231D02*
X16397791Y-13275279D01*
X16397791Y-13275279D02*
X16397791Y-13284803D01*
X16397791Y-13284803D02*
X16388268Y-13303850D01*
X16388268Y-13303850D02*
X16378744Y-13313374D01*
X16378744Y-13313374D02*
X16359696Y-13322898D01*
X16359696Y-13322898D02*
X16321601Y-13322898D01*
X16321601Y-13322898D02*
X16302553Y-13332422D01*
X16302553Y-13332422D02*
X16293029Y-13341946D01*
X16293029Y-13341946D02*
X16283506Y-13360993D01*
X16283506Y-13360993D02*
X16283506Y-13399088D01*
X16283506Y-13399088D02*
X16293029Y-13418136D01*
X16293029Y-13418136D02*
X16302553Y-13427660D01*
X16302553Y-13427660D02*
X16321601Y-13437184D01*
X16321601Y-13437184D02*
X16359696Y-13437184D01*
X16359696Y-13437184D02*
X16378744Y-13427660D01*
X16378744Y-13427660D02*
X16388268Y-13418136D01*
X16388268Y-13418136D02*
X16397791Y-13399088D01*
X16397791Y-13399088D02*
X16397791Y-13360993D01*
X16397791Y-13360993D02*
X16388268Y-13341946D01*
X16388268Y-13341946D02*
X16378744Y-13332422D01*
X16378744Y-13332422D02*
X16359696Y-13322898D01*
X16635887Y-13437184D02*
X16635887Y-13237184D01*
X16721601Y-13437184D02*
X16721601Y-13332422D01*
X16721601Y-13332422D02*
X16712077Y-13313374D01*
X16712077Y-13313374D02*
X16693030Y-13303850D01*
X16693030Y-13303850D02*
X16664458Y-13303850D01*
X16664458Y-13303850D02*
X16645410Y-13313374D01*
X16645410Y-13313374D02*
X16635887Y-13322898D01*
X16845411Y-13437184D02*
X16826363Y-13427660D01*
X16826363Y-13427660D02*
X16816839Y-13418136D01*
X16816839Y-13418136D02*
X16807315Y-13399088D01*
X16807315Y-13399088D02*
X16807315Y-13341946D01*
X16807315Y-13341946D02*
X16816839Y-13322898D01*
X16816839Y-13322898D02*
X16826363Y-13313374D01*
X16826363Y-13313374D02*
X16845411Y-13303850D01*
X16845411Y-13303850D02*
X16873982Y-13303850D01*
X16873982Y-13303850D02*
X16893030Y-13313374D01*
X16893030Y-13313374D02*
X16902553Y-13322898D01*
X16902553Y-13322898D02*
X16912077Y-13341946D01*
X16912077Y-13341946D02*
X16912077Y-13399088D01*
X16912077Y-13399088D02*
X16902553Y-13418136D01*
X16902553Y-13418136D02*
X16893030Y-13427660D01*
X16893030Y-13427660D02*
X16873982Y-13437184D01*
X16873982Y-13437184D02*
X16845411Y-13437184D01*
X17026363Y-13437184D02*
X17007315Y-13427660D01*
X17007315Y-13427660D02*
X16997792Y-13408612D01*
X16997792Y-13408612D02*
X16997792Y-13237184D01*
X17178744Y-13427660D02*
X17159696Y-13437184D01*
X17159696Y-13437184D02*
X17121601Y-13437184D01*
X17121601Y-13437184D02*
X17102553Y-13427660D01*
X17102553Y-13427660D02*
X17093030Y-13408612D01*
X17093030Y-13408612D02*
X17093030Y-13332422D01*
X17093030Y-13332422D02*
X17102553Y-13313374D01*
X17102553Y-13313374D02*
X17121601Y-13303850D01*
X17121601Y-13303850D02*
X17159696Y-13303850D01*
X17159696Y-13303850D02*
X17178744Y-13313374D01*
X17178744Y-13313374D02*
X17188268Y-13332422D01*
X17188268Y-13332422D02*
X17188268Y-13351469D01*
X17188268Y-13351469D02*
X17093030Y-13370517D01*
X17264458Y-13427660D02*
X17283506Y-13437184D01*
X17283506Y-13437184D02*
X17321601Y-13437184D01*
X17321601Y-13437184D02*
X17340649Y-13427660D01*
X17340649Y-13427660D02*
X17350173Y-13408612D01*
X17350173Y-13408612D02*
X17350173Y-13399088D01*
X17350173Y-13399088D02*
X17340649Y-13380041D01*
X17340649Y-13380041D02*
X17321601Y-13370517D01*
X17321601Y-13370517D02*
X17293030Y-13370517D01*
X17293030Y-13370517D02*
X17273982Y-13360993D01*
X17273982Y-13360993D02*
X17264458Y-13341946D01*
X17264458Y-13341946D02*
X17264458Y-13332422D01*
X17264458Y-13332422D02*
X17273982Y-13313374D01*
X17273982Y-13313374D02*
X17293030Y-13303850D01*
X17293030Y-13303850D02*
X17321601Y-13303850D01*
X17321601Y-13303850D02*
X17340649Y-13313374D01*
X17416839Y-13513374D02*
X17426363Y-13503850D01*
X17426363Y-13503850D02*
X17445411Y-13475279D01*
X17445411Y-13475279D02*
X17454934Y-13456231D01*
X17454934Y-13456231D02*
X17464458Y-13427660D01*
X17464458Y-13427660D02*
X17473982Y-13380041D01*
X17473982Y-13380041D02*
X17473982Y-13341946D01*
X17473982Y-13341946D02*
X17464458Y-13294327D01*
X17464458Y-13294327D02*
X17454934Y-13265755D01*
X17454934Y-13265755D02*
X17445411Y-13246708D01*
X17445411Y-13246708D02*
X17426363Y-13218136D01*
X17426363Y-13218136D02*
X17416839Y-13208612D01*
D13*
X12451300Y-13609700D02*
G75*
G03*
X12451300Y-13609700I-45000J0D01*
G01*
D11*
X12750172Y-13501184D02*
X12769220Y-13501184D01*
X12769220Y-13501184D02*
X12788267Y-13510708D01*
X12788267Y-13510708D02*
X12797791Y-13520231D01*
X12797791Y-13520231D02*
X12807315Y-13539279D01*
X12807315Y-13539279D02*
X12816839Y-13577374D01*
X12816839Y-13577374D02*
X12816839Y-13624993D01*
X12816839Y-13624993D02*
X12807315Y-13663088D01*
X12807315Y-13663088D02*
X12797791Y-13682136D01*
X12797791Y-13682136D02*
X12788267Y-13691660D01*
X12788267Y-13691660D02*
X12769220Y-13701184D01*
X12769220Y-13701184D02*
X12750172Y-13701184D01*
X12750172Y-13701184D02*
X12731124Y-13691660D01*
X12731124Y-13691660D02*
X12721601Y-13682136D01*
X12721601Y-13682136D02*
X12712077Y-13663088D01*
X12712077Y-13663088D02*
X12702553Y-13624993D01*
X12702553Y-13624993D02*
X12702553Y-13577374D01*
X12702553Y-13577374D02*
X12712077Y-13539279D01*
X12712077Y-13539279D02*
X12721601Y-13520231D01*
X12721601Y-13520231D02*
X12731124Y-13510708D01*
X12731124Y-13510708D02*
X12750172Y-13501184D01*
X12902553Y-13682136D02*
X12912077Y-13691660D01*
X12912077Y-13691660D02*
X12902553Y-13701184D01*
X12902553Y-13701184D02*
X12893029Y-13691660D01*
X12893029Y-13691660D02*
X12902553Y-13682136D01*
X12902553Y-13682136D02*
X12902553Y-13701184D01*
X13007315Y-13701184D02*
X13045410Y-13701184D01*
X13045410Y-13701184D02*
X13064458Y-13691660D01*
X13064458Y-13691660D02*
X13073982Y-13682136D01*
X13073982Y-13682136D02*
X13093029Y-13653565D01*
X13093029Y-13653565D02*
X13102553Y-13615469D01*
X13102553Y-13615469D02*
X13102553Y-13539279D01*
X13102553Y-13539279D02*
X13093029Y-13520231D01*
X13093029Y-13520231D02*
X13083505Y-13510708D01*
X13083505Y-13510708D02*
X13064458Y-13501184D01*
X13064458Y-13501184D02*
X13026362Y-13501184D01*
X13026362Y-13501184D02*
X13007315Y-13510708D01*
X13007315Y-13510708D02*
X12997791Y-13520231D01*
X12997791Y-13520231D02*
X12988267Y-13539279D01*
X12988267Y-13539279D02*
X12988267Y-13586898D01*
X12988267Y-13586898D02*
X12997791Y-13605946D01*
X12997791Y-13605946D02*
X13007315Y-13615469D01*
X13007315Y-13615469D02*
X13026362Y-13624993D01*
X13026362Y-13624993D02*
X13064458Y-13624993D01*
X13064458Y-13624993D02*
X13083505Y-13615469D01*
X13083505Y-13615469D02*
X13093029Y-13605946D01*
X13093029Y-13605946D02*
X13102553Y-13586898D01*
X13226362Y-13501184D02*
X13245410Y-13501184D01*
X13245410Y-13501184D02*
X13264458Y-13510708D01*
X13264458Y-13510708D02*
X13273982Y-13520231D01*
X13273982Y-13520231D02*
X13283505Y-13539279D01*
X13283505Y-13539279D02*
X13293029Y-13577374D01*
X13293029Y-13577374D02*
X13293029Y-13624993D01*
X13293029Y-13624993D02*
X13283505Y-13663088D01*
X13283505Y-13663088D02*
X13273982Y-13682136D01*
X13273982Y-13682136D02*
X13264458Y-13691660D01*
X13264458Y-13691660D02*
X13245410Y-13701184D01*
X13245410Y-13701184D02*
X13226362Y-13701184D01*
X13226362Y-13701184D02*
X13207315Y-13691660D01*
X13207315Y-13691660D02*
X13197791Y-13682136D01*
X13197791Y-13682136D02*
X13188267Y-13663088D01*
X13188267Y-13663088D02*
X13178743Y-13624993D01*
X13178743Y-13624993D02*
X13178743Y-13577374D01*
X13178743Y-13577374D02*
X13188267Y-13539279D01*
X13188267Y-13539279D02*
X13197791Y-13520231D01*
X13197791Y-13520231D02*
X13207315Y-13510708D01*
X13207315Y-13510708D02*
X13226362Y-13501184D01*
X13416839Y-13501184D02*
X13435886Y-13501184D01*
X13435886Y-13501184D02*
X13454934Y-13510708D01*
X13454934Y-13510708D02*
X13464458Y-13520231D01*
X13464458Y-13520231D02*
X13473982Y-13539279D01*
X13473982Y-13539279D02*
X13483505Y-13577374D01*
X13483505Y-13577374D02*
X13483505Y-13624993D01*
X13483505Y-13624993D02*
X13473982Y-13663088D01*
X13473982Y-13663088D02*
X13464458Y-13682136D01*
X13464458Y-13682136D02*
X13454934Y-13691660D01*
X13454934Y-13691660D02*
X13435886Y-13701184D01*
X13435886Y-13701184D02*
X13416839Y-13701184D01*
X13416839Y-13701184D02*
X13397791Y-13691660D01*
X13397791Y-13691660D02*
X13388267Y-13682136D01*
X13388267Y-13682136D02*
X13378743Y-13663088D01*
X13378743Y-13663088D02*
X13369220Y-13624993D01*
X13369220Y-13624993D02*
X13369220Y-13577374D01*
X13369220Y-13577374D02*
X13378743Y-13539279D01*
X13378743Y-13539279D02*
X13388267Y-13520231D01*
X13388267Y-13520231D02*
X13397791Y-13510708D01*
X13397791Y-13510708D02*
X13416839Y-13501184D01*
X13569220Y-13701184D02*
X13569220Y-13567850D01*
X13569220Y-13586898D02*
X13578743Y-13577374D01*
X13578743Y-13577374D02*
X13597791Y-13567850D01*
X13597791Y-13567850D02*
X13626363Y-13567850D01*
X13626363Y-13567850D02*
X13645410Y-13577374D01*
X13645410Y-13577374D02*
X13654934Y-13596422D01*
X13654934Y-13596422D02*
X13654934Y-13701184D01*
X13654934Y-13596422D02*
X13664458Y-13577374D01*
X13664458Y-13577374D02*
X13683505Y-13567850D01*
X13683505Y-13567850D02*
X13712077Y-13567850D01*
X13712077Y-13567850D02*
X13731124Y-13577374D01*
X13731124Y-13577374D02*
X13740648Y-13596422D01*
X13740648Y-13596422D02*
X13740648Y-13701184D01*
X13835886Y-13701184D02*
X13835886Y-13567850D01*
X13835886Y-13586898D02*
X13845410Y-13577374D01*
X13845410Y-13577374D02*
X13864458Y-13567850D01*
X13864458Y-13567850D02*
X13893029Y-13567850D01*
X13893029Y-13567850D02*
X13912077Y-13577374D01*
X13912077Y-13577374D02*
X13921601Y-13596422D01*
X13921601Y-13596422D02*
X13921601Y-13701184D01*
X13921601Y-13596422D02*
X13931124Y-13577374D01*
X13931124Y-13577374D02*
X13950172Y-13567850D01*
X13950172Y-13567850D02*
X13978743Y-13567850D01*
X13978743Y-13567850D02*
X13997791Y-13577374D01*
X13997791Y-13577374D02*
X14007315Y-13596422D01*
X14007315Y-13596422D02*
X14007315Y-13701184D01*
X14397791Y-13491660D02*
X14226363Y-13748803D01*
X14654934Y-13501184D02*
X14673982Y-13501184D01*
X14673982Y-13501184D02*
X14693029Y-13510708D01*
X14693029Y-13510708D02*
X14702553Y-13520231D01*
X14702553Y-13520231D02*
X14712077Y-13539279D01*
X14712077Y-13539279D02*
X14721601Y-13577374D01*
X14721601Y-13577374D02*
X14721601Y-13624993D01*
X14721601Y-13624993D02*
X14712077Y-13663088D01*
X14712077Y-13663088D02*
X14702553Y-13682136D01*
X14702553Y-13682136D02*
X14693029Y-13691660D01*
X14693029Y-13691660D02*
X14673982Y-13701184D01*
X14673982Y-13701184D02*
X14654934Y-13701184D01*
X14654934Y-13701184D02*
X14635886Y-13691660D01*
X14635886Y-13691660D02*
X14626363Y-13682136D01*
X14626363Y-13682136D02*
X14616839Y-13663088D01*
X14616839Y-13663088D02*
X14607315Y-13624993D01*
X14607315Y-13624993D02*
X14607315Y-13577374D01*
X14607315Y-13577374D02*
X14616839Y-13539279D01*
X14616839Y-13539279D02*
X14626363Y-13520231D01*
X14626363Y-13520231D02*
X14635886Y-13510708D01*
X14635886Y-13510708D02*
X14654934Y-13501184D01*
X14807315Y-13682136D02*
X14816839Y-13691660D01*
X14816839Y-13691660D02*
X14807315Y-13701184D01*
X14807315Y-13701184D02*
X14797791Y-13691660D01*
X14797791Y-13691660D02*
X14807315Y-13682136D01*
X14807315Y-13682136D02*
X14807315Y-13701184D01*
X14940648Y-13501184D02*
X14959696Y-13501184D01*
X14959696Y-13501184D02*
X14978744Y-13510708D01*
X14978744Y-13510708D02*
X14988267Y-13520231D01*
X14988267Y-13520231D02*
X14997791Y-13539279D01*
X14997791Y-13539279D02*
X15007315Y-13577374D01*
X15007315Y-13577374D02*
X15007315Y-13624993D01*
X15007315Y-13624993D02*
X14997791Y-13663088D01*
X14997791Y-13663088D02*
X14988267Y-13682136D01*
X14988267Y-13682136D02*
X14978744Y-13691660D01*
X14978744Y-13691660D02*
X14959696Y-13701184D01*
X14959696Y-13701184D02*
X14940648Y-13701184D01*
X14940648Y-13701184D02*
X14921601Y-13691660D01*
X14921601Y-13691660D02*
X14912077Y-13682136D01*
X14912077Y-13682136D02*
X14902553Y-13663088D01*
X14902553Y-13663088D02*
X14893029Y-13624993D01*
X14893029Y-13624993D02*
X14893029Y-13577374D01*
X14893029Y-13577374D02*
X14902553Y-13539279D01*
X14902553Y-13539279D02*
X14912077Y-13520231D01*
X14912077Y-13520231D02*
X14921601Y-13510708D01*
X14921601Y-13510708D02*
X14940648Y-13501184D01*
X15073982Y-13501184D02*
X15197791Y-13501184D01*
X15197791Y-13501184D02*
X15131125Y-13577374D01*
X15131125Y-13577374D02*
X15159696Y-13577374D01*
X15159696Y-13577374D02*
X15178744Y-13586898D01*
X15178744Y-13586898D02*
X15188267Y-13596422D01*
X15188267Y-13596422D02*
X15197791Y-13615469D01*
X15197791Y-13615469D02*
X15197791Y-13663088D01*
X15197791Y-13663088D02*
X15188267Y-13682136D01*
X15188267Y-13682136D02*
X15178744Y-13691660D01*
X15178744Y-13691660D02*
X15159696Y-13701184D01*
X15159696Y-13701184D02*
X15102553Y-13701184D01*
X15102553Y-13701184D02*
X15083506Y-13691660D01*
X15083506Y-13691660D02*
X15073982Y-13682136D01*
X15378744Y-13501184D02*
X15283506Y-13501184D01*
X15283506Y-13501184D02*
X15273982Y-13596422D01*
X15273982Y-13596422D02*
X15283506Y-13586898D01*
X15283506Y-13586898D02*
X15302553Y-13577374D01*
X15302553Y-13577374D02*
X15350172Y-13577374D01*
X15350172Y-13577374D02*
X15369220Y-13586898D01*
X15369220Y-13586898D02*
X15378744Y-13596422D01*
X15378744Y-13596422D02*
X15388267Y-13615469D01*
X15388267Y-13615469D02*
X15388267Y-13663088D01*
X15388267Y-13663088D02*
X15378744Y-13682136D01*
X15378744Y-13682136D02*
X15369220Y-13691660D01*
X15369220Y-13691660D02*
X15350172Y-13701184D01*
X15350172Y-13701184D02*
X15302553Y-13701184D01*
X15302553Y-13701184D02*
X15283506Y-13691660D01*
X15283506Y-13691660D02*
X15273982Y-13682136D01*
X15559696Y-13567850D02*
X15559696Y-13701184D01*
X15512077Y-13491660D02*
X15464458Y-13634517D01*
X15464458Y-13634517D02*
X15588267Y-13634517D01*
X15654934Y-13501184D02*
X15654934Y-13539279D01*
X15731125Y-13501184D02*
X15731125Y-13539279D01*
X16026363Y-13777374D02*
X16016839Y-13767850D01*
X16016839Y-13767850D02*
X15997791Y-13739279D01*
X15997791Y-13739279D02*
X15988268Y-13720231D01*
X15988268Y-13720231D02*
X15978744Y-13691660D01*
X15978744Y-13691660D02*
X15969220Y-13644041D01*
X15969220Y-13644041D02*
X15969220Y-13605946D01*
X15969220Y-13605946D02*
X15978744Y-13558327D01*
X15978744Y-13558327D02*
X15988268Y-13529755D01*
X15988268Y-13529755D02*
X15997791Y-13510708D01*
X15997791Y-13510708D02*
X16016839Y-13482136D01*
X16016839Y-13482136D02*
X16026363Y-13472612D01*
X16131125Y-13586898D02*
X16112077Y-13577374D01*
X16112077Y-13577374D02*
X16102553Y-13567850D01*
X16102553Y-13567850D02*
X16093029Y-13548803D01*
X16093029Y-13548803D02*
X16093029Y-13539279D01*
X16093029Y-13539279D02*
X16102553Y-13520231D01*
X16102553Y-13520231D02*
X16112077Y-13510708D01*
X16112077Y-13510708D02*
X16131125Y-13501184D01*
X16131125Y-13501184D02*
X16169220Y-13501184D01*
X16169220Y-13501184D02*
X16188268Y-13510708D01*
X16188268Y-13510708D02*
X16197791Y-13520231D01*
X16197791Y-13520231D02*
X16207315Y-13539279D01*
X16207315Y-13539279D02*
X16207315Y-13548803D01*
X16207315Y-13548803D02*
X16197791Y-13567850D01*
X16197791Y-13567850D02*
X16188268Y-13577374D01*
X16188268Y-13577374D02*
X16169220Y-13586898D01*
X16169220Y-13586898D02*
X16131125Y-13586898D01*
X16131125Y-13586898D02*
X16112077Y-13596422D01*
X16112077Y-13596422D02*
X16102553Y-13605946D01*
X16102553Y-13605946D02*
X16093029Y-13624993D01*
X16093029Y-13624993D02*
X16093029Y-13663088D01*
X16093029Y-13663088D02*
X16102553Y-13682136D01*
X16102553Y-13682136D02*
X16112077Y-13691660D01*
X16112077Y-13691660D02*
X16131125Y-13701184D01*
X16131125Y-13701184D02*
X16169220Y-13701184D01*
X16169220Y-13701184D02*
X16188268Y-13691660D01*
X16188268Y-13691660D02*
X16197791Y-13682136D01*
X16197791Y-13682136D02*
X16207315Y-13663088D01*
X16207315Y-13663088D02*
X16207315Y-13624993D01*
X16207315Y-13624993D02*
X16197791Y-13605946D01*
X16197791Y-13605946D02*
X16188268Y-13596422D01*
X16188268Y-13596422D02*
X16169220Y-13586898D01*
X16445410Y-13701184D02*
X16445410Y-13501184D01*
X16531125Y-13701184D02*
X16531125Y-13596422D01*
X16531125Y-13596422D02*
X16521601Y-13577374D01*
X16521601Y-13577374D02*
X16502553Y-13567850D01*
X16502553Y-13567850D02*
X16473982Y-13567850D01*
X16473982Y-13567850D02*
X16454934Y-13577374D01*
X16454934Y-13577374D02*
X16445410Y-13586898D01*
X16654934Y-13701184D02*
X16635887Y-13691660D01*
X16635887Y-13691660D02*
X16626363Y-13682136D01*
X16626363Y-13682136D02*
X16616839Y-13663088D01*
X16616839Y-13663088D02*
X16616839Y-13605946D01*
X16616839Y-13605946D02*
X16626363Y-13586898D01*
X16626363Y-13586898D02*
X16635887Y-13577374D01*
X16635887Y-13577374D02*
X16654934Y-13567850D01*
X16654934Y-13567850D02*
X16683506Y-13567850D01*
X16683506Y-13567850D02*
X16702553Y-13577374D01*
X16702553Y-13577374D02*
X16712077Y-13586898D01*
X16712077Y-13586898D02*
X16721601Y-13605946D01*
X16721601Y-13605946D02*
X16721601Y-13663088D01*
X16721601Y-13663088D02*
X16712077Y-13682136D01*
X16712077Y-13682136D02*
X16702553Y-13691660D01*
X16702553Y-13691660D02*
X16683506Y-13701184D01*
X16683506Y-13701184D02*
X16654934Y-13701184D01*
X16835887Y-13701184D02*
X16816839Y-13691660D01*
X16816839Y-13691660D02*
X16807315Y-13672612D01*
X16807315Y-13672612D02*
X16807315Y-13501184D01*
X16988268Y-13691660D02*
X16969220Y-13701184D01*
X16969220Y-13701184D02*
X16931125Y-13701184D01*
X16931125Y-13701184D02*
X16912077Y-13691660D01*
X16912077Y-13691660D02*
X16902553Y-13672612D01*
X16902553Y-13672612D02*
X16902553Y-13596422D01*
X16902553Y-13596422D02*
X16912077Y-13577374D01*
X16912077Y-13577374D02*
X16931125Y-13567850D01*
X16931125Y-13567850D02*
X16969220Y-13567850D01*
X16969220Y-13567850D02*
X16988268Y-13577374D01*
X16988268Y-13577374D02*
X16997792Y-13596422D01*
X16997792Y-13596422D02*
X16997792Y-13615469D01*
X16997792Y-13615469D02*
X16902553Y-13634517D01*
X17073982Y-13691660D02*
X17093030Y-13701184D01*
X17093030Y-13701184D02*
X17131125Y-13701184D01*
X17131125Y-13701184D02*
X17150173Y-13691660D01*
X17150173Y-13691660D02*
X17159696Y-13672612D01*
X17159696Y-13672612D02*
X17159696Y-13663088D01*
X17159696Y-13663088D02*
X17150173Y-13644041D01*
X17150173Y-13644041D02*
X17131125Y-13634517D01*
X17131125Y-13634517D02*
X17102553Y-13634517D01*
X17102553Y-13634517D02*
X17083506Y-13624993D01*
X17083506Y-13624993D02*
X17073982Y-13605946D01*
X17073982Y-13605946D02*
X17073982Y-13596422D01*
X17073982Y-13596422D02*
X17083506Y-13577374D01*
X17083506Y-13577374D02*
X17102553Y-13567850D01*
X17102553Y-13567850D02*
X17131125Y-13567850D01*
X17131125Y-13567850D02*
X17150173Y-13577374D01*
X17226363Y-13777374D02*
X17235887Y-13767850D01*
X17235887Y-13767850D02*
X17254934Y-13739279D01*
X17254934Y-13739279D02*
X17264458Y-13720231D01*
X17264458Y-13720231D02*
X17273982Y-13691660D01*
X17273982Y-13691660D02*
X17283506Y-13644041D01*
X17283506Y-13644041D02*
X17283506Y-13605946D01*
X17283506Y-13605946D02*
X17273982Y-13558327D01*
X17273982Y-13558327D02*
X17264458Y-13529755D01*
X17264458Y-13529755D02*
X17254934Y-13510708D01*
X17254934Y-13510708D02*
X17235887Y-13482136D01*
X17235887Y-13482136D02*
X17226363Y-13472612D01*
D10*
X12401300Y-13823700D02*
X12401300Y-13923700D01*
X12351300Y-13873700D02*
X12451300Y-13873700D01*
D11*
X12816839Y-13965184D02*
X12702553Y-13965184D01*
X12759696Y-13965184D02*
X12759696Y-13765184D01*
X12759696Y-13765184D02*
X12740648Y-13793755D01*
X12740648Y-13793755D02*
X12721601Y-13812803D01*
X12721601Y-13812803D02*
X12702553Y-13822327D01*
X12902553Y-13946136D02*
X12912077Y-13955660D01*
X12912077Y-13955660D02*
X12902553Y-13965184D01*
X12902553Y-13965184D02*
X12893029Y-13955660D01*
X12893029Y-13955660D02*
X12902553Y-13946136D01*
X12902553Y-13946136D02*
X12902553Y-13965184D01*
X13035886Y-13765184D02*
X13054934Y-13765184D01*
X13054934Y-13765184D02*
X13073982Y-13774708D01*
X13073982Y-13774708D02*
X13083505Y-13784231D01*
X13083505Y-13784231D02*
X13093029Y-13803279D01*
X13093029Y-13803279D02*
X13102553Y-13841374D01*
X13102553Y-13841374D02*
X13102553Y-13888993D01*
X13102553Y-13888993D02*
X13093029Y-13927088D01*
X13093029Y-13927088D02*
X13083505Y-13946136D01*
X13083505Y-13946136D02*
X13073982Y-13955660D01*
X13073982Y-13955660D02*
X13054934Y-13965184D01*
X13054934Y-13965184D02*
X13035886Y-13965184D01*
X13035886Y-13965184D02*
X13016839Y-13955660D01*
X13016839Y-13955660D02*
X13007315Y-13946136D01*
X13007315Y-13946136D02*
X12997791Y-13927088D01*
X12997791Y-13927088D02*
X12988267Y-13888993D01*
X12988267Y-13888993D02*
X12988267Y-13841374D01*
X12988267Y-13841374D02*
X12997791Y-13803279D01*
X12997791Y-13803279D02*
X13007315Y-13784231D01*
X13007315Y-13784231D02*
X13016839Y-13774708D01*
X13016839Y-13774708D02*
X13035886Y-13765184D01*
X13226362Y-13765184D02*
X13245410Y-13765184D01*
X13245410Y-13765184D02*
X13264458Y-13774708D01*
X13264458Y-13774708D02*
X13273982Y-13784231D01*
X13273982Y-13784231D02*
X13283505Y-13803279D01*
X13283505Y-13803279D02*
X13293029Y-13841374D01*
X13293029Y-13841374D02*
X13293029Y-13888993D01*
X13293029Y-13888993D02*
X13283505Y-13927088D01*
X13283505Y-13927088D02*
X13273982Y-13946136D01*
X13273982Y-13946136D02*
X13264458Y-13955660D01*
X13264458Y-13955660D02*
X13245410Y-13965184D01*
X13245410Y-13965184D02*
X13226362Y-13965184D01*
X13226362Y-13965184D02*
X13207315Y-13955660D01*
X13207315Y-13955660D02*
X13197791Y-13946136D01*
X13197791Y-13946136D02*
X13188267Y-13927088D01*
X13188267Y-13927088D02*
X13178743Y-13888993D01*
X13178743Y-13888993D02*
X13178743Y-13841374D01*
X13178743Y-13841374D02*
X13188267Y-13803279D01*
X13188267Y-13803279D02*
X13197791Y-13784231D01*
X13197791Y-13784231D02*
X13207315Y-13774708D01*
X13207315Y-13774708D02*
X13226362Y-13765184D01*
X13416839Y-13765184D02*
X13435886Y-13765184D01*
X13435886Y-13765184D02*
X13454934Y-13774708D01*
X13454934Y-13774708D02*
X13464458Y-13784231D01*
X13464458Y-13784231D02*
X13473982Y-13803279D01*
X13473982Y-13803279D02*
X13483505Y-13841374D01*
X13483505Y-13841374D02*
X13483505Y-13888993D01*
X13483505Y-13888993D02*
X13473982Y-13927088D01*
X13473982Y-13927088D02*
X13464458Y-13946136D01*
X13464458Y-13946136D02*
X13454934Y-13955660D01*
X13454934Y-13955660D02*
X13435886Y-13965184D01*
X13435886Y-13965184D02*
X13416839Y-13965184D01*
X13416839Y-13965184D02*
X13397791Y-13955660D01*
X13397791Y-13955660D02*
X13388267Y-13946136D01*
X13388267Y-13946136D02*
X13378743Y-13927088D01*
X13378743Y-13927088D02*
X13369220Y-13888993D01*
X13369220Y-13888993D02*
X13369220Y-13841374D01*
X13369220Y-13841374D02*
X13378743Y-13803279D01*
X13378743Y-13803279D02*
X13388267Y-13784231D01*
X13388267Y-13784231D02*
X13397791Y-13774708D01*
X13397791Y-13774708D02*
X13416839Y-13765184D01*
X13569220Y-13965184D02*
X13569220Y-13831850D01*
X13569220Y-13850898D02*
X13578743Y-13841374D01*
X13578743Y-13841374D02*
X13597791Y-13831850D01*
X13597791Y-13831850D02*
X13626363Y-13831850D01*
X13626363Y-13831850D02*
X13645410Y-13841374D01*
X13645410Y-13841374D02*
X13654934Y-13860422D01*
X13654934Y-13860422D02*
X13654934Y-13965184D01*
X13654934Y-13860422D02*
X13664458Y-13841374D01*
X13664458Y-13841374D02*
X13683505Y-13831850D01*
X13683505Y-13831850D02*
X13712077Y-13831850D01*
X13712077Y-13831850D02*
X13731124Y-13841374D01*
X13731124Y-13841374D02*
X13740648Y-13860422D01*
X13740648Y-13860422D02*
X13740648Y-13965184D01*
X13835886Y-13965184D02*
X13835886Y-13831850D01*
X13835886Y-13850898D02*
X13845410Y-13841374D01*
X13845410Y-13841374D02*
X13864458Y-13831850D01*
X13864458Y-13831850D02*
X13893029Y-13831850D01*
X13893029Y-13831850D02*
X13912077Y-13841374D01*
X13912077Y-13841374D02*
X13921601Y-13860422D01*
X13921601Y-13860422D02*
X13921601Y-13965184D01*
X13921601Y-13860422D02*
X13931124Y-13841374D01*
X13931124Y-13841374D02*
X13950172Y-13831850D01*
X13950172Y-13831850D02*
X13978743Y-13831850D01*
X13978743Y-13831850D02*
X13997791Y-13841374D01*
X13997791Y-13841374D02*
X14007315Y-13860422D01*
X14007315Y-13860422D02*
X14007315Y-13965184D01*
X14397791Y-13755660D02*
X14226363Y-14012803D01*
X14654934Y-13765184D02*
X14673982Y-13765184D01*
X14673982Y-13765184D02*
X14693029Y-13774708D01*
X14693029Y-13774708D02*
X14702553Y-13784231D01*
X14702553Y-13784231D02*
X14712077Y-13803279D01*
X14712077Y-13803279D02*
X14721601Y-13841374D01*
X14721601Y-13841374D02*
X14721601Y-13888993D01*
X14721601Y-13888993D02*
X14712077Y-13927088D01*
X14712077Y-13927088D02*
X14702553Y-13946136D01*
X14702553Y-13946136D02*
X14693029Y-13955660D01*
X14693029Y-13955660D02*
X14673982Y-13965184D01*
X14673982Y-13965184D02*
X14654934Y-13965184D01*
X14654934Y-13965184D02*
X14635886Y-13955660D01*
X14635886Y-13955660D02*
X14626363Y-13946136D01*
X14626363Y-13946136D02*
X14616839Y-13927088D01*
X14616839Y-13927088D02*
X14607315Y-13888993D01*
X14607315Y-13888993D02*
X14607315Y-13841374D01*
X14607315Y-13841374D02*
X14616839Y-13803279D01*
X14616839Y-13803279D02*
X14626363Y-13784231D01*
X14626363Y-13784231D02*
X14635886Y-13774708D01*
X14635886Y-13774708D02*
X14654934Y-13765184D01*
X14807315Y-13946136D02*
X14816839Y-13955660D01*
X14816839Y-13955660D02*
X14807315Y-13965184D01*
X14807315Y-13965184D02*
X14797791Y-13955660D01*
X14797791Y-13955660D02*
X14807315Y-13946136D01*
X14807315Y-13946136D02*
X14807315Y-13965184D01*
X14940648Y-13765184D02*
X14959696Y-13765184D01*
X14959696Y-13765184D02*
X14978744Y-13774708D01*
X14978744Y-13774708D02*
X14988267Y-13784231D01*
X14988267Y-13784231D02*
X14997791Y-13803279D01*
X14997791Y-13803279D02*
X15007315Y-13841374D01*
X15007315Y-13841374D02*
X15007315Y-13888993D01*
X15007315Y-13888993D02*
X14997791Y-13927088D01*
X14997791Y-13927088D02*
X14988267Y-13946136D01*
X14988267Y-13946136D02*
X14978744Y-13955660D01*
X14978744Y-13955660D02*
X14959696Y-13965184D01*
X14959696Y-13965184D02*
X14940648Y-13965184D01*
X14940648Y-13965184D02*
X14921601Y-13955660D01*
X14921601Y-13955660D02*
X14912077Y-13946136D01*
X14912077Y-13946136D02*
X14902553Y-13927088D01*
X14902553Y-13927088D02*
X14893029Y-13888993D01*
X14893029Y-13888993D02*
X14893029Y-13841374D01*
X14893029Y-13841374D02*
X14902553Y-13803279D01*
X14902553Y-13803279D02*
X14912077Y-13784231D01*
X14912077Y-13784231D02*
X14921601Y-13774708D01*
X14921601Y-13774708D02*
X14940648Y-13765184D01*
X15073982Y-13765184D02*
X15197791Y-13765184D01*
X15197791Y-13765184D02*
X15131125Y-13841374D01*
X15131125Y-13841374D02*
X15159696Y-13841374D01*
X15159696Y-13841374D02*
X15178744Y-13850898D01*
X15178744Y-13850898D02*
X15188267Y-13860422D01*
X15188267Y-13860422D02*
X15197791Y-13879469D01*
X15197791Y-13879469D02*
X15197791Y-13927088D01*
X15197791Y-13927088D02*
X15188267Y-13946136D01*
X15188267Y-13946136D02*
X15178744Y-13955660D01*
X15178744Y-13955660D02*
X15159696Y-13965184D01*
X15159696Y-13965184D02*
X15102553Y-13965184D01*
X15102553Y-13965184D02*
X15083506Y-13955660D01*
X15083506Y-13955660D02*
X15073982Y-13946136D01*
X15293029Y-13965184D02*
X15331125Y-13965184D01*
X15331125Y-13965184D02*
X15350172Y-13955660D01*
X15350172Y-13955660D02*
X15359696Y-13946136D01*
X15359696Y-13946136D02*
X15378744Y-13917565D01*
X15378744Y-13917565D02*
X15388267Y-13879469D01*
X15388267Y-13879469D02*
X15388267Y-13803279D01*
X15388267Y-13803279D02*
X15378744Y-13784231D01*
X15378744Y-13784231D02*
X15369220Y-13774708D01*
X15369220Y-13774708D02*
X15350172Y-13765184D01*
X15350172Y-13765184D02*
X15312077Y-13765184D01*
X15312077Y-13765184D02*
X15293029Y-13774708D01*
X15293029Y-13774708D02*
X15283506Y-13784231D01*
X15283506Y-13784231D02*
X15273982Y-13803279D01*
X15273982Y-13803279D02*
X15273982Y-13850898D01*
X15273982Y-13850898D02*
X15283506Y-13869946D01*
X15283506Y-13869946D02*
X15293029Y-13879469D01*
X15293029Y-13879469D02*
X15312077Y-13888993D01*
X15312077Y-13888993D02*
X15350172Y-13888993D01*
X15350172Y-13888993D02*
X15369220Y-13879469D01*
X15369220Y-13879469D02*
X15378744Y-13869946D01*
X15378744Y-13869946D02*
X15388267Y-13850898D01*
X15559696Y-13831850D02*
X15559696Y-13965184D01*
X15512077Y-13755660D02*
X15464458Y-13898517D01*
X15464458Y-13898517D02*
X15588267Y-13898517D01*
X15654934Y-13765184D02*
X15654934Y-13803279D01*
X15731125Y-13765184D02*
X15731125Y-13803279D01*
X16026363Y-14041374D02*
X16016839Y-14031850D01*
X16016839Y-14031850D02*
X15997791Y-14003279D01*
X15997791Y-14003279D02*
X15988268Y-13984231D01*
X15988268Y-13984231D02*
X15978744Y-13955660D01*
X15978744Y-13955660D02*
X15969220Y-13908041D01*
X15969220Y-13908041D02*
X15969220Y-13869946D01*
X15969220Y-13869946D02*
X15978744Y-13822327D01*
X15978744Y-13822327D02*
X15988268Y-13793755D01*
X15988268Y-13793755D02*
X15997791Y-13774708D01*
X15997791Y-13774708D02*
X16016839Y-13746136D01*
X16016839Y-13746136D02*
X16026363Y-13736612D01*
X16083506Y-13765184D02*
X16207315Y-13765184D01*
X16207315Y-13765184D02*
X16140648Y-13841374D01*
X16140648Y-13841374D02*
X16169220Y-13841374D01*
X16169220Y-13841374D02*
X16188268Y-13850898D01*
X16188268Y-13850898D02*
X16197791Y-13860422D01*
X16197791Y-13860422D02*
X16207315Y-13879469D01*
X16207315Y-13879469D02*
X16207315Y-13927088D01*
X16207315Y-13927088D02*
X16197791Y-13946136D01*
X16197791Y-13946136D02*
X16188268Y-13955660D01*
X16188268Y-13955660D02*
X16169220Y-13965184D01*
X16169220Y-13965184D02*
X16112077Y-13965184D01*
X16112077Y-13965184D02*
X16093029Y-13955660D01*
X16093029Y-13955660D02*
X16083506Y-13946136D01*
X16378744Y-13765184D02*
X16340648Y-13765184D01*
X16340648Y-13765184D02*
X16321601Y-13774708D01*
X16321601Y-13774708D02*
X16312077Y-13784231D01*
X16312077Y-13784231D02*
X16293029Y-13812803D01*
X16293029Y-13812803D02*
X16283506Y-13850898D01*
X16283506Y-13850898D02*
X16283506Y-13927088D01*
X16283506Y-13927088D02*
X16293029Y-13946136D01*
X16293029Y-13946136D02*
X16302553Y-13955660D01*
X16302553Y-13955660D02*
X16321601Y-13965184D01*
X16321601Y-13965184D02*
X16359696Y-13965184D01*
X16359696Y-13965184D02*
X16378744Y-13955660D01*
X16378744Y-13955660D02*
X16388268Y-13946136D01*
X16388268Y-13946136D02*
X16397791Y-13927088D01*
X16397791Y-13927088D02*
X16397791Y-13879469D01*
X16397791Y-13879469D02*
X16388268Y-13860422D01*
X16388268Y-13860422D02*
X16378744Y-13850898D01*
X16378744Y-13850898D02*
X16359696Y-13841374D01*
X16359696Y-13841374D02*
X16321601Y-13841374D01*
X16321601Y-13841374D02*
X16302553Y-13850898D01*
X16302553Y-13850898D02*
X16293029Y-13860422D01*
X16293029Y-13860422D02*
X16283506Y-13879469D01*
X16635887Y-13965184D02*
X16635887Y-13765184D01*
X16721601Y-13965184D02*
X16721601Y-13860422D01*
X16721601Y-13860422D02*
X16712077Y-13841374D01*
X16712077Y-13841374D02*
X16693030Y-13831850D01*
X16693030Y-13831850D02*
X16664458Y-13831850D01*
X16664458Y-13831850D02*
X16645410Y-13841374D01*
X16645410Y-13841374D02*
X16635887Y-13850898D01*
X16845411Y-13965184D02*
X16826363Y-13955660D01*
X16826363Y-13955660D02*
X16816839Y-13946136D01*
X16816839Y-13946136D02*
X16807315Y-13927088D01*
X16807315Y-13927088D02*
X16807315Y-13869946D01*
X16807315Y-13869946D02*
X16816839Y-13850898D01*
X16816839Y-13850898D02*
X16826363Y-13841374D01*
X16826363Y-13841374D02*
X16845411Y-13831850D01*
X16845411Y-13831850D02*
X16873982Y-13831850D01*
X16873982Y-13831850D02*
X16893030Y-13841374D01*
X16893030Y-13841374D02*
X16902553Y-13850898D01*
X16902553Y-13850898D02*
X16912077Y-13869946D01*
X16912077Y-13869946D02*
X16912077Y-13927088D01*
X16912077Y-13927088D02*
X16902553Y-13946136D01*
X16902553Y-13946136D02*
X16893030Y-13955660D01*
X16893030Y-13955660D02*
X16873982Y-13965184D01*
X16873982Y-13965184D02*
X16845411Y-13965184D01*
X17026363Y-13965184D02*
X17007315Y-13955660D01*
X17007315Y-13955660D02*
X16997792Y-13936612D01*
X16997792Y-13936612D02*
X16997792Y-13765184D01*
X17178744Y-13955660D02*
X17159696Y-13965184D01*
X17159696Y-13965184D02*
X17121601Y-13965184D01*
X17121601Y-13965184D02*
X17102553Y-13955660D01*
X17102553Y-13955660D02*
X17093030Y-13936612D01*
X17093030Y-13936612D02*
X17093030Y-13860422D01*
X17093030Y-13860422D02*
X17102553Y-13841374D01*
X17102553Y-13841374D02*
X17121601Y-13831850D01*
X17121601Y-13831850D02*
X17159696Y-13831850D01*
X17159696Y-13831850D02*
X17178744Y-13841374D01*
X17178744Y-13841374D02*
X17188268Y-13860422D01*
X17188268Y-13860422D02*
X17188268Y-13879469D01*
X17188268Y-13879469D02*
X17093030Y-13898517D01*
X17264458Y-13955660D02*
X17283506Y-13965184D01*
X17283506Y-13965184D02*
X17321601Y-13965184D01*
X17321601Y-13965184D02*
X17340649Y-13955660D01*
X17340649Y-13955660D02*
X17350173Y-13936612D01*
X17350173Y-13936612D02*
X17350173Y-13927088D01*
X17350173Y-13927088D02*
X17340649Y-13908041D01*
X17340649Y-13908041D02*
X17321601Y-13898517D01*
X17321601Y-13898517D02*
X17293030Y-13898517D01*
X17293030Y-13898517D02*
X17273982Y-13888993D01*
X17273982Y-13888993D02*
X17264458Y-13869946D01*
X17264458Y-13869946D02*
X17264458Y-13860422D01*
X17264458Y-13860422D02*
X17273982Y-13841374D01*
X17273982Y-13841374D02*
X17293030Y-13831850D01*
X17293030Y-13831850D02*
X17321601Y-13831850D01*
X17321601Y-13831850D02*
X17340649Y-13841374D01*
X17416839Y-14041374D02*
X17426363Y-14031850D01*
X17426363Y-14031850D02*
X17445411Y-14003279D01*
X17445411Y-14003279D02*
X17454934Y-13984231D01*
X17454934Y-13984231D02*
X17464458Y-13955660D01*
X17464458Y-13955660D02*
X17473982Y-13908041D01*
X17473982Y-13908041D02*
X17473982Y-13869946D01*
X17473982Y-13869946D02*
X17464458Y-13822327D01*
X17464458Y-13822327D02*
X17454934Y-13793755D01*
X17454934Y-13793755D02*
X17445411Y-13774708D01*
X17445411Y-13774708D02*
X17426363Y-13746136D01*
X17426363Y-13746136D02*
X17416839Y-13736612D01*
M02*
