G04 #@! TF.GenerationSoftware,KiCad,Pcbnew,7.0.8*
G04 #@! TF.CreationDate,2024-02-21T14:18:38-03:00*
G04 #@! TF.ProjectId,Drone PCB,44726f6e-6520-4504-9342-2e6b69636164,1.0*
G04 #@! TF.SameCoordinates,Original*
G04 #@! TF.FileFunction,Copper,L1,Top*
G04 #@! TF.FilePolarity,Positive*
%FSLAX46Y46*%
G04 Gerber Fmt 4.6, Leading zero omitted, Abs format (unit mm)*
G04 Created by KiCad (PCBNEW 7.0.8) date 2024-02-21 14:18:38*
%MOMM*%
%LPD*%
G01*
G04 APERTURE LIST*
G04 Aperture macros list*
%AMRoundRect*
0 Rectangle with rounded corners*
0 $1 Rounding radius*
0 $2 $3 $4 $5 $6 $7 $8 $9 X,Y pos of 4 corners*
0 Add a 4 corners polygon primitive as box body*
4,1,4,$2,$3,$4,$5,$6,$7,$8,$9,$2,$3,0*
0 Add four circle primitives for the rounded corners*
1,1,$1+$1,$2,$3*
1,1,$1+$1,$4,$5*
1,1,$1+$1,$6,$7*
1,1,$1+$1,$8,$9*
0 Add four rect primitives between the rounded corners*
20,1,$1+$1,$2,$3,$4,$5,0*
20,1,$1+$1,$4,$5,$6,$7,0*
20,1,$1+$1,$6,$7,$8,$9,0*
20,1,$1+$1,$8,$9,$2,$3,0*%
G04 Aperture macros list end*
G04 #@! TA.AperFunction,ComponentPad*
%ADD10RoundRect,0.250000X0.750000X-0.600000X0.750000X0.600000X-0.750000X0.600000X-0.750000X-0.600000X0*%
G04 #@! TD*
G04 #@! TA.AperFunction,ComponentPad*
%ADD11O,2.000000X1.700000*%
G04 #@! TD*
G04 #@! TA.AperFunction,SMDPad,CuDef*
%ADD12RoundRect,0.250000X-1.000000X-0.650000X1.000000X-0.650000X1.000000X0.650000X-1.000000X0.650000X0*%
G04 #@! TD*
G04 #@! TA.AperFunction,ComponentPad*
%ADD13R,1.800000X1.800000*%
G04 #@! TD*
G04 #@! TA.AperFunction,ComponentPad*
%ADD14C,1.800000*%
G04 #@! TD*
G04 #@! TA.AperFunction,SMDPad,CuDef*
%ADD15RoundRect,0.200000X0.275000X-0.200000X0.275000X0.200000X-0.275000X0.200000X-0.275000X-0.200000X0*%
G04 #@! TD*
G04 #@! TA.AperFunction,SMDPad,CuDef*
%ADD16RoundRect,0.225000X-0.250000X0.225000X-0.250000X-0.225000X0.250000X-0.225000X0.250000X0.225000X0*%
G04 #@! TD*
G04 #@! TA.AperFunction,SMDPad,CuDef*
%ADD17R,0.550000X1.600000*%
G04 #@! TD*
G04 #@! TA.AperFunction,SMDPad,CuDef*
%ADD18R,1.600000X0.550000*%
G04 #@! TD*
G04 #@! TA.AperFunction,SMDPad,CuDef*
%ADD19RoundRect,0.150000X0.587500X0.150000X-0.587500X0.150000X-0.587500X-0.150000X0.587500X-0.150000X0*%
G04 #@! TD*
G04 #@! TA.AperFunction,ComponentPad*
%ADD20RoundRect,0.250000X-0.750000X0.600000X-0.750000X-0.600000X0.750000X-0.600000X0.750000X0.600000X0*%
G04 #@! TD*
G04 #@! TA.AperFunction,SMDPad,CuDef*
%ADD21R,1.400000X1.600000*%
G04 #@! TD*
G04 #@! TA.AperFunction,SMDPad,CuDef*
%ADD22RoundRect,0.225000X-0.225000X-0.250000X0.225000X-0.250000X0.225000X0.250000X-0.225000X0.250000X0*%
G04 #@! TD*
G04 #@! TA.AperFunction,SMDPad,CuDef*
%ADD23RoundRect,0.200000X-0.275000X0.200000X-0.275000X-0.200000X0.275000X-0.200000X0.275000X0.200000X0*%
G04 #@! TD*
G04 #@! TA.AperFunction,SMDPad,CuDef*
%ADD24RoundRect,0.200000X-0.200000X-0.275000X0.200000X-0.275000X0.200000X0.275000X-0.200000X0.275000X0*%
G04 #@! TD*
G04 #@! TA.AperFunction,SMDPad,CuDef*
%ADD25RoundRect,0.250000X0.250000X0.475000X-0.250000X0.475000X-0.250000X-0.475000X0.250000X-0.475000X0*%
G04 #@! TD*
G04 #@! TA.AperFunction,SMDPad,CuDef*
%ADD26R,2.000000X1.500000*%
G04 #@! TD*
G04 #@! TA.AperFunction,SMDPad,CuDef*
%ADD27R,2.000000X3.800000*%
G04 #@! TD*
G04 #@! TA.AperFunction,SMDPad,CuDef*
%ADD28R,2.000000X4.500000*%
G04 #@! TD*
G04 #@! TA.AperFunction,ComponentPad*
%ADD29R,1.700000X1.700000*%
G04 #@! TD*
G04 #@! TA.AperFunction,ComponentPad*
%ADD30O,1.700000X1.700000*%
G04 #@! TD*
G04 #@! TA.AperFunction,SMDPad,CuDef*
%ADD31RoundRect,0.250000X0.475000X-0.250000X0.475000X0.250000X-0.475000X0.250000X-0.475000X-0.250000X0*%
G04 #@! TD*
G04 #@! TA.AperFunction,SMDPad,CuDef*
%ADD32RoundRect,0.150000X-0.587500X-0.150000X0.587500X-0.150000X0.587500X0.150000X-0.587500X0.150000X0*%
G04 #@! TD*
G04 #@! TA.AperFunction,SMDPad,CuDef*
%ADD33RoundRect,0.250000X1.000000X0.650000X-1.000000X0.650000X-1.000000X-0.650000X1.000000X-0.650000X0*%
G04 #@! TD*
G04 #@! TA.AperFunction,ComponentPad*
%ADD34R,1.500000X1.500000*%
G04 #@! TD*
G04 #@! TA.AperFunction,ComponentPad*
%ADD35C,1.500000*%
G04 #@! TD*
G04 #@! TA.AperFunction,ComponentPad*
%ADD36RoundRect,0.250000X0.600000X0.750000X-0.600000X0.750000X-0.600000X-0.750000X0.600000X-0.750000X0*%
G04 #@! TD*
G04 #@! TA.AperFunction,ComponentPad*
%ADD37O,1.700000X2.000000*%
G04 #@! TD*
G04 #@! TA.AperFunction,ViaPad*
%ADD38C,0.800000*%
G04 #@! TD*
G04 #@! TA.AperFunction,Conductor*
%ADD39C,0.250000*%
G04 #@! TD*
G04 #@! TA.AperFunction,Conductor*
%ADD40C,0.750000*%
G04 #@! TD*
G04 #@! TA.AperFunction,Conductor*
%ADD41C,0.500000*%
G04 #@! TD*
G04 #@! TA.AperFunction,Conductor*
%ADD42C,1.000000*%
G04 #@! TD*
G04 APERTURE END LIST*
D10*
X127563000Y-120257000D03*
D11*
X127563000Y-117757000D03*
D12*
X135132500Y-70226000D03*
X139132500Y-70226000D03*
D13*
X136293000Y-123043000D03*
D14*
X138833000Y-123043000D03*
D15*
X146226900Y-71321000D03*
X146226900Y-69671000D03*
D16*
X152367000Y-102375000D03*
X152367000Y-103925000D03*
D17*
X146287000Y-100300000D03*
X147087000Y-100300000D03*
X147887000Y-100300000D03*
X148687000Y-100300000D03*
X149487000Y-100300000D03*
X150287000Y-100300000D03*
X151087000Y-100300000D03*
X151887000Y-100300000D03*
D18*
X153337000Y-98850000D03*
X153337000Y-98050000D03*
X153337000Y-97250000D03*
X153337000Y-96450000D03*
X153337000Y-95650000D03*
X153337000Y-94850000D03*
X153337000Y-94050000D03*
X153337000Y-93250000D03*
D17*
X151887000Y-91800000D03*
X151087000Y-91800000D03*
X150287000Y-91800000D03*
X149487000Y-91800000D03*
X148687000Y-91800000D03*
X147887000Y-91800000D03*
X147087000Y-91800000D03*
X146287000Y-91800000D03*
D18*
X144837000Y-93250000D03*
X144837000Y-94050000D03*
X144837000Y-94850000D03*
X144837000Y-95650000D03*
X144837000Y-96450000D03*
X144837000Y-97250000D03*
X144837000Y-98050000D03*
X144837000Y-98850000D03*
D19*
X144002200Y-71226000D03*
X144002200Y-69326000D03*
X142127200Y-70276000D03*
D20*
X167563000Y-117757000D03*
D11*
X167563000Y-120257000D03*
D21*
X157063000Y-93507000D03*
X157063000Y-85507000D03*
X161563000Y-93507000D03*
X161563000Y-85507000D03*
D22*
X147137000Y-102400000D03*
X148687000Y-102400000D03*
D10*
X127563000Y-76257000D03*
D11*
X127563000Y-73757000D03*
D23*
X148199100Y-112912000D03*
X148199100Y-114562000D03*
D19*
X152298800Y-71226000D03*
X152298800Y-69326000D03*
X150423800Y-70276000D03*
D10*
X135038000Y-107507000D03*
D11*
X135038000Y-105007000D03*
D24*
X137183000Y-119614000D03*
X138833000Y-119614000D03*
D16*
X150607000Y-102375000D03*
X150607000Y-103925000D03*
D23*
X143626000Y-85577000D03*
X143626000Y-87227000D03*
X146226900Y-112912000D03*
X146226900Y-114562000D03*
D25*
X140004000Y-80511002D03*
X138104000Y-80511002D03*
D26*
X142508000Y-75911000D03*
X142508000Y-78211000D03*
D27*
X148808000Y-78211000D03*
D26*
X142508000Y-80511000D03*
D15*
X148199100Y-71321000D03*
X148199100Y-69671000D03*
D28*
X159313000Y-99257000D03*
X159313000Y-107757000D03*
D29*
X160530500Y-81227000D03*
D30*
X157990500Y-81227000D03*
X160530500Y-78687000D03*
X157990500Y-78687000D03*
X160530500Y-76147000D03*
X157990500Y-76147000D03*
X160530500Y-73607000D03*
X157990500Y-73607000D03*
D20*
X167563000Y-73757000D03*
D11*
X167563000Y-76257000D03*
D31*
X151358000Y-78207000D03*
X151358000Y-76307000D03*
D32*
X150423800Y-113007000D03*
X150423800Y-114907000D03*
X152298800Y-113957000D03*
D12*
X135132500Y-114007000D03*
X139132500Y-114007000D03*
D33*
X159293500Y-114007000D03*
X155293500Y-114007000D03*
D29*
X136489000Y-98531000D03*
D30*
X136489000Y-95991000D03*
X136489000Y-93451000D03*
X136489000Y-90911000D03*
X136489000Y-88371000D03*
X136489000Y-85831000D03*
D33*
X159293500Y-70226000D03*
X155293500Y-70226000D03*
D29*
X140863000Y-85577000D03*
D30*
X140863000Y-88117000D03*
X140863000Y-90657000D03*
X140863000Y-93197000D03*
X140863000Y-95737000D03*
X140863000Y-98277000D03*
X140863000Y-100817000D03*
X140863000Y-103357000D03*
X140863000Y-105897000D03*
X140863000Y-108437000D03*
D32*
X142127200Y-113007000D03*
X142127200Y-114907000D03*
X144002200Y-113957000D03*
D34*
X145563000Y-120543000D03*
D35*
X147563000Y-120543000D03*
X149563000Y-120543000D03*
X145563000Y-125543000D03*
X147563000Y-125543000D03*
X149563000Y-125543000D03*
D36*
X158833000Y-123932000D03*
D37*
X156333000Y-123932000D03*
D22*
X149537000Y-89700000D03*
X151087000Y-89700000D03*
D38*
X160009000Y-85507000D03*
X142508000Y-74020000D03*
X151358000Y-74909000D03*
X145785000Y-102400000D03*
X149214000Y-103925000D03*
X138104000Y-78846000D03*
X146226900Y-115803000D03*
X153659000Y-103925000D03*
X146226900Y-68432000D03*
X160009000Y-93507000D03*
X148198000Y-89700000D03*
X147887000Y-98850000D03*
X148199100Y-115803000D03*
X148199100Y-68432000D03*
X135977201Y-119592799D03*
X153659000Y-78973000D03*
X153786000Y-91673000D03*
X152516000Y-89700000D03*
X155691000Y-97896000D03*
X146420000Y-96450000D03*
X146226900Y-72623000D03*
X151754000Y-97007000D03*
X148199100Y-72623000D03*
X151754000Y-94850000D03*
X151754000Y-98658000D03*
X150423800Y-111612000D03*
X146420000Y-94850000D03*
X147182000Y-95650000D03*
D39*
X142507998Y-80511002D02*
X142508000Y-80511000D01*
D40*
X140004000Y-80511002D02*
X142507998Y-80511002D01*
D39*
X149595000Y-103544000D02*
X149214000Y-103925000D01*
X146226900Y-69671000D02*
X146226900Y-68432000D01*
D41*
X143023200Y-115803000D02*
X146226900Y-115803000D01*
D39*
X153659000Y-103925000D02*
X152367000Y-103925000D01*
D41*
X152298800Y-69326000D02*
X151404800Y-68432000D01*
D39*
X161563000Y-93507000D02*
X160009000Y-93507000D01*
X149487000Y-100300000D02*
X149595000Y-100408000D01*
D41*
X148199100Y-115803000D02*
X149527800Y-115803000D01*
X149527800Y-115803000D02*
X150423800Y-114907000D01*
X142127200Y-114907000D02*
X143023200Y-115803000D01*
D39*
X148199100Y-69671000D02*
X148199100Y-68432000D01*
D41*
X146226900Y-68432000D02*
X144896200Y-68432000D01*
D39*
X148199100Y-114562000D02*
X148199100Y-115803000D01*
X149537000Y-89700000D02*
X148198000Y-89700000D01*
D41*
X151404800Y-68432000D02*
X148199100Y-68432000D01*
D39*
X151358000Y-76307000D02*
X151358000Y-74909000D01*
X161563000Y-85507000D02*
X160009000Y-85507000D01*
X148687000Y-91800000D02*
X148687000Y-90189000D01*
X138104000Y-80511002D02*
X138104000Y-78846000D01*
X145785000Y-102400000D02*
X147137000Y-102400000D01*
X149595000Y-100408000D02*
X149595000Y-103544000D01*
X150607000Y-103925000D02*
X149214000Y-103925000D01*
X148687000Y-90189000D02*
X148198000Y-89700000D01*
D41*
X144896200Y-68432000D02*
X144002200Y-69326000D01*
D39*
X146226900Y-114562000D02*
X146226900Y-115803000D01*
X142508000Y-75911000D02*
X142508000Y-74020000D01*
X147887000Y-100300000D02*
X147887000Y-98850000D01*
X148687000Y-99440250D02*
X149061750Y-99065500D01*
D41*
X152893000Y-78207000D02*
X151358000Y-78207000D01*
X137183000Y-119614000D02*
X135998402Y-119614000D01*
D39*
X150287000Y-100300000D02*
X150287000Y-94156000D01*
D41*
X151358000Y-81183000D02*
X151358000Y-78207000D01*
D39*
X151087000Y-93356000D02*
X151087000Y-91800000D01*
D40*
X148808000Y-78211000D02*
X151354000Y-78211000D01*
D39*
X151087000Y-91800000D02*
X151087000Y-89700000D01*
X150287000Y-99425000D02*
X150287000Y-100300000D01*
X150287000Y-94156000D02*
X151087000Y-93356000D01*
D41*
X153659000Y-78973000D02*
X152893000Y-78207000D01*
D39*
X148687000Y-102400000D02*
X148687000Y-100300000D01*
D41*
X146964000Y-85577000D02*
X151087000Y-89700000D01*
X135998402Y-119614000D02*
X135977201Y-119592799D01*
D42*
X148808000Y-78211000D02*
X142508000Y-78211000D01*
D41*
X146964000Y-85577000D02*
X151358000Y-81183000D01*
D39*
X148687000Y-100300000D02*
X148687000Y-99440250D01*
D41*
X140863000Y-85577000D02*
X143563000Y-85577000D01*
D39*
X149061750Y-99065500D02*
X149927500Y-99065500D01*
D41*
X143626000Y-85577000D02*
X146964000Y-85577000D01*
D39*
X149927500Y-99065500D02*
X150287000Y-99425000D01*
X151087000Y-100300000D02*
X151087000Y-101895000D01*
X151500000Y-104500000D02*
X151500000Y-103268000D01*
X151087000Y-101895000D02*
X150607000Y-102375000D01*
X151881000Y-104881000D02*
X151500000Y-104500000D01*
X151881000Y-104881000D02*
X156437000Y-104881000D01*
X156437000Y-104881000D02*
X159313000Y-107757000D01*
X151500000Y-103268000D02*
X150607000Y-102375000D01*
X156195000Y-102375000D02*
X159313000Y-99257000D01*
X151887000Y-100300000D02*
X151887000Y-101895000D01*
X152367000Y-102375000D02*
X156195000Y-102375000D01*
X151887000Y-101895000D02*
X152367000Y-102375000D01*
D41*
X131942000Y-68305000D02*
X137211500Y-68305000D01*
X127563000Y-73757000D02*
X127563000Y-72684000D01*
X137211500Y-68305000D02*
X139132500Y-70226000D01*
X139132500Y-70226000D02*
X142077200Y-70226000D01*
X142077200Y-70226000D02*
X142127200Y-70276000D01*
X127563000Y-72684000D02*
X131942000Y-68305000D01*
X155293500Y-70226000D02*
X150473800Y-70226000D01*
X155293500Y-70226000D02*
X157214500Y-68305000D01*
X162168000Y-68305000D02*
X165343000Y-71480000D01*
X169661000Y-73004000D02*
X169661000Y-75163000D01*
X168137000Y-71480000D02*
X169661000Y-73004000D01*
X165343000Y-71480000D02*
X168137000Y-71480000D01*
X169661000Y-75163000D02*
X168567000Y-76257000D01*
X157214500Y-68305000D02*
X162168000Y-68305000D01*
X168567000Y-76257000D02*
X167563000Y-76257000D01*
X150473800Y-70226000D02*
X150423800Y-70276000D01*
X135813000Y-117757000D02*
X139132500Y-114437500D01*
X139132500Y-114007000D02*
X143952200Y-114007000D01*
X139132500Y-114437500D02*
X139132500Y-114007000D01*
X143952200Y-114007000D02*
X144002200Y-113957000D01*
X127563000Y-117757000D02*
X135813000Y-117757000D01*
X164063000Y-115507000D02*
X168349000Y-115507000D01*
X168255000Y-120257000D02*
X167563000Y-120257000D01*
X169534000Y-118978000D02*
X168255000Y-120257000D01*
X155243500Y-113957000D02*
X155293500Y-114007000D01*
X169534000Y-116692000D02*
X169534000Y-118978000D01*
X156707000Y-111866000D02*
X160422000Y-111866000D01*
X155293500Y-114007000D02*
X155293500Y-113279500D01*
X168349000Y-115507000D02*
X169534000Y-116692000D01*
X155293500Y-113279500D02*
X156707000Y-111866000D01*
X152298800Y-113957000D02*
X155243500Y-113957000D01*
X160422000Y-111866000D02*
X164063000Y-115507000D01*
D39*
X138833000Y-123043000D02*
X138833000Y-119614000D01*
D40*
X145563000Y-120543000D02*
X145563000Y-121423000D01*
X146147000Y-122007000D02*
X157704000Y-122007000D01*
X158833000Y-123136000D02*
X158833000Y-123932000D01*
X157704000Y-122007000D02*
X158833000Y-123136000D01*
X145563000Y-121423000D02*
X146147000Y-122007000D01*
D39*
X153786000Y-91673000D02*
X153786000Y-92801000D01*
X153786000Y-92801000D02*
X153337000Y-93250000D01*
X151887000Y-90329000D02*
X151887000Y-91800000D01*
X151887000Y-90329000D02*
X152516000Y-89700000D01*
X154744000Y-93377620D02*
X154744000Y-78015000D01*
X153337000Y-94050000D02*
X154071620Y-94050000D01*
X154744000Y-78015000D02*
X156612000Y-76147000D01*
X156612000Y-76147000D02*
X157990500Y-76147000D01*
X154071620Y-94050000D02*
X154744000Y-93377620D01*
X144837000Y-96450000D02*
X143704000Y-96450000D01*
X143704000Y-96450000D02*
X142991000Y-95737000D01*
X142991000Y-95737000D02*
X142991000Y-87862000D01*
X157063000Y-96524000D02*
X157063000Y-93507000D01*
X144837000Y-96450000D02*
X146420000Y-96450000D01*
X155691000Y-97896000D02*
X157063000Y-96524000D01*
X142991000Y-87862000D02*
X143626000Y-87227000D01*
X157063000Y-85507000D02*
X157063000Y-93507000D01*
X142864000Y-98785000D02*
X143599000Y-98050000D01*
X137403000Y-90911000D02*
X138165000Y-91673000D01*
X142864000Y-109453000D02*
X142864000Y-98785000D01*
X141594000Y-110723000D02*
X142864000Y-109453000D01*
X143599000Y-98050000D02*
X144837000Y-98050000D01*
X139816000Y-110723000D02*
X141594000Y-110723000D01*
X136489000Y-90911000D02*
X137403000Y-90911000D01*
X138165000Y-109072000D02*
X139816000Y-110723000D01*
X138165000Y-91673000D02*
X138165000Y-109072000D01*
X143637000Y-97250000D02*
X144837000Y-97250000D01*
X142414000Y-109266604D02*
X142414000Y-98473000D01*
X137403000Y-88371000D02*
X138800000Y-89768000D01*
X136489000Y-88371000D02*
X137403000Y-88371000D01*
X140128000Y-110273000D02*
X141407604Y-110273000D01*
X138800000Y-108945000D02*
X140128000Y-110273000D01*
X142414000Y-98473000D02*
X143637000Y-97250000D01*
X138800000Y-89768000D02*
X138800000Y-108945000D01*
X141407604Y-110273000D02*
X142414000Y-109266604D01*
X151754000Y-97267000D02*
X151754000Y-97007000D01*
X146131900Y-71226000D02*
X146226900Y-71321000D01*
X146226900Y-71321000D02*
X146226900Y-72623000D01*
X144002200Y-71226000D02*
X146131900Y-71226000D01*
X153337000Y-98050000D02*
X152537000Y-98050000D01*
X152537000Y-98050000D02*
X151754000Y-97267000D01*
X152203800Y-71321000D02*
X152298800Y-71226000D01*
X153337000Y-94850000D02*
X151754000Y-94850000D01*
X148199100Y-71321000D02*
X148199100Y-72623000D01*
X148199100Y-71321000D02*
X152203800Y-71321000D01*
X144763000Y-111448100D02*
X144763000Y-101824000D01*
X142127200Y-113007000D02*
X146131900Y-113007000D01*
X146131900Y-113007000D02*
X146226900Y-112912000D01*
X144763000Y-101824000D02*
X146287000Y-100300000D01*
X146226900Y-112912000D02*
X144763000Y-111448100D01*
X148199100Y-112912000D02*
X150328800Y-112912000D01*
X153337000Y-98850000D02*
X151946000Y-98850000D01*
X150423800Y-113007000D02*
X150423800Y-111612000D01*
X150328800Y-112912000D02*
X150423800Y-113007000D01*
X151946000Y-98850000D02*
X151754000Y-98658000D01*
X153337000Y-96450000D02*
X154137000Y-96450000D01*
X160898000Y-83545000D02*
X162295000Y-82148000D01*
X155644000Y-84688000D02*
X156787000Y-83545000D01*
X161628000Y-78687000D02*
X160530500Y-78687000D01*
X155644000Y-94943000D02*
X155644000Y-84688000D01*
X162295000Y-79354000D02*
X161628000Y-78687000D01*
X154137000Y-96450000D02*
X155644000Y-94943000D01*
X156787000Y-83545000D02*
X160898000Y-83545000D01*
X162295000Y-82148000D02*
X162295000Y-79354000D01*
X155194000Y-94593000D02*
X155194000Y-80232000D01*
X154137000Y-95650000D02*
X155194000Y-94593000D01*
X155194000Y-80232000D02*
X156739000Y-78687000D01*
X156739000Y-78687000D02*
X157990500Y-78687000D01*
X153337000Y-95650000D02*
X154137000Y-95650000D01*
X144837000Y-94850000D02*
X146420000Y-94850000D01*
X144837000Y-95650000D02*
X147182000Y-95650000D01*
G04 #@! TA.AperFunction,Conductor*
G36*
X163087817Y-67019132D02*
G01*
X170490938Y-70473922D01*
X170543364Y-70520110D01*
X170562500Y-70586289D01*
X170562500Y-72594709D01*
X170542815Y-72661748D01*
X170490011Y-72707503D01*
X170420853Y-72717447D01*
X170357297Y-72688422D01*
X170334900Y-72662849D01*
X170294023Y-72600700D01*
X170253709Y-72535341D01*
X170249233Y-72529681D01*
X170249280Y-72529643D01*
X170244519Y-72523799D01*
X170244474Y-72523838D01*
X170239834Y-72518309D01*
X170239832Y-72518307D01*
X170239830Y-72518304D01*
X170198679Y-72479480D01*
X170183965Y-72465597D01*
X168712729Y-70994361D01*
X168700949Y-70980730D01*
X168693482Y-70970701D01*
X168686612Y-70961472D01*
X168686610Y-70961470D01*
X168646587Y-70927886D01*
X168642612Y-70924244D01*
X168639690Y-70921322D01*
X168636780Y-70918411D01*
X168611040Y-70898059D01*
X168552209Y-70848694D01*
X168546180Y-70844729D01*
X168546212Y-70844680D01*
X168539853Y-70840628D01*
X168539822Y-70840679D01*
X168533680Y-70836891D01*
X168533678Y-70836890D01*
X168533677Y-70836889D01*
X168486531Y-70814904D01*
X168464058Y-70804424D01*
X168429894Y-70787267D01*
X168395433Y-70769960D01*
X168395431Y-70769959D01*
X168395430Y-70769959D01*
X168388645Y-70767489D01*
X168388665Y-70767433D01*
X168381549Y-70764959D01*
X168381531Y-70765015D01*
X168374671Y-70762742D01*
X168346841Y-70756996D01*
X168299434Y-70747207D01*
X168250472Y-70735603D01*
X168224719Y-70729499D01*
X168217547Y-70728661D01*
X168217553Y-70728601D01*
X168210055Y-70727835D01*
X168210050Y-70727895D01*
X168202860Y-70727265D01*
X168126083Y-70729500D01*
X165705230Y-70729500D01*
X165638191Y-70709815D01*
X165617549Y-70693181D01*
X162743729Y-67819361D01*
X162731949Y-67805730D01*
X162724482Y-67795701D01*
X162717612Y-67786472D01*
X162685006Y-67759112D01*
X162677587Y-67752886D01*
X162673612Y-67749244D01*
X162667777Y-67743409D01*
X162642040Y-67723059D01*
X162583214Y-67673698D01*
X162583213Y-67673697D01*
X162583209Y-67673694D01*
X162577180Y-67669729D01*
X162577212Y-67669680D01*
X162570853Y-67665628D01*
X162570822Y-67665679D01*
X162564680Y-67661891D01*
X162564678Y-67661890D01*
X162564677Y-67661889D01*
X162525474Y-67643608D01*
X162495058Y-67629424D01*
X162460894Y-67612267D01*
X162426433Y-67594960D01*
X162426431Y-67594959D01*
X162426430Y-67594959D01*
X162419645Y-67592489D01*
X162419665Y-67592433D01*
X162412549Y-67589959D01*
X162412531Y-67590015D01*
X162405671Y-67587742D01*
X162377841Y-67581996D01*
X162330434Y-67572207D01*
X162281472Y-67560603D01*
X162255719Y-67554499D01*
X162248547Y-67553661D01*
X162248553Y-67553601D01*
X162241055Y-67552835D01*
X162241050Y-67552895D01*
X162233860Y-67552265D01*
X162157083Y-67554500D01*
X157278205Y-67554500D01*
X157260235Y-67553191D01*
X157236472Y-67549710D01*
X157191390Y-67553655D01*
X157184433Y-67554264D01*
X157179032Y-67554500D01*
X157170787Y-67554500D01*
X157144722Y-67557546D01*
X157138205Y-67558308D01*
X157132903Y-67558771D01*
X157061701Y-67565001D01*
X157054634Y-67566461D01*
X157054622Y-67566404D01*
X157047253Y-67568038D01*
X157047267Y-67568095D01*
X157040239Y-67569760D01*
X156971005Y-67594959D01*
X156968068Y-67596028D01*
X156895165Y-67620186D01*
X156895163Y-67620186D01*
X156895160Y-67620188D01*
X156888623Y-67623236D01*
X156888598Y-67623184D01*
X156881810Y-67626470D01*
X156881836Y-67626521D01*
X156875385Y-67629761D01*
X156811223Y-67671961D01*
X156745846Y-67712285D01*
X156740182Y-67716765D01*
X156740146Y-67716719D01*
X156734298Y-67721484D01*
X156734335Y-67721528D01*
X156728810Y-67726164D01*
X156728804Y-67726169D01*
X156728804Y-67726170D01*
X156697725Y-67759111D01*
X156676114Y-67782017D01*
X155668949Y-68789181D01*
X155607626Y-68822666D01*
X155581268Y-68825500D01*
X154243498Y-68825500D01*
X154243481Y-68825501D01*
X154140703Y-68836000D01*
X154140700Y-68836001D01*
X153974168Y-68891185D01*
X153974163Y-68891187D01*
X153824845Y-68983287D01*
X153727364Y-69080768D01*
X153666041Y-69114252D01*
X153596349Y-69109268D01*
X153540416Y-69067396D01*
X153520607Y-69027681D01*
X153488046Y-68915606D01*
X153488044Y-68915603D01*
X153488044Y-68915602D01*
X153404381Y-68774135D01*
X153404379Y-68774133D01*
X153404376Y-68774129D01*
X153288170Y-68657923D01*
X153288162Y-68657917D01*
X153146696Y-68574255D01*
X153146693Y-68574254D01*
X152988873Y-68528402D01*
X152988867Y-68528401D01*
X152951996Y-68525500D01*
X152951994Y-68525500D01*
X152611029Y-68525500D01*
X152543990Y-68505815D01*
X152523348Y-68489181D01*
X151980529Y-67946361D01*
X151968749Y-67932730D01*
X151961282Y-67922701D01*
X151954412Y-67913472D01*
X151949123Y-67909034D01*
X151914387Y-67879886D01*
X151910412Y-67876244D01*
X151907490Y-67873322D01*
X151904580Y-67870411D01*
X151878840Y-67850059D01*
X151866000Y-67839285D01*
X151820014Y-67800698D01*
X151820013Y-67800697D01*
X151820009Y-67800694D01*
X151813980Y-67796729D01*
X151814012Y-67796680D01*
X151807653Y-67792628D01*
X151807622Y-67792679D01*
X151801480Y-67788891D01*
X151801478Y-67788890D01*
X151801477Y-67788889D01*
X151762274Y-67770608D01*
X151731858Y-67756424D01*
X151697694Y-67739267D01*
X151663233Y-67721960D01*
X151663231Y-67721959D01*
X151663230Y-67721959D01*
X151656445Y-67719489D01*
X151656465Y-67719433D01*
X151649349Y-67716959D01*
X151649331Y-67717015D01*
X151642471Y-67714742D01*
X151614641Y-67708996D01*
X151567234Y-67699207D01*
X151518272Y-67687603D01*
X151492519Y-67681499D01*
X151485347Y-67680661D01*
X151485353Y-67680601D01*
X151477855Y-67679835D01*
X151477850Y-67679895D01*
X151470660Y-67679265D01*
X151393883Y-67681500D01*
X148738437Y-67681500D01*
X148671398Y-67661815D01*
X148665552Y-67657818D01*
X148651834Y-67647851D01*
X148651829Y-67647848D01*
X148478907Y-67570857D01*
X148478902Y-67570855D01*
X148333101Y-67539865D01*
X148293746Y-67531500D01*
X148104454Y-67531500D01*
X148071997Y-67538398D01*
X147919297Y-67570855D01*
X147919292Y-67570857D01*
X147746370Y-67647848D01*
X147746365Y-67647851D01*
X147593229Y-67759111D01*
X147466566Y-67899785D01*
X147371921Y-68063715D01*
X147371918Y-68063722D01*
X147330931Y-68189869D01*
X147291493Y-68247545D01*
X147227135Y-68274743D01*
X147158289Y-68262828D01*
X147106813Y-68215584D01*
X147095069Y-68189869D01*
X147054081Y-68063722D01*
X147054080Y-68063721D01*
X147054079Y-68063716D01*
X146959433Y-67899784D01*
X146832771Y-67759112D01*
X146832770Y-67759111D01*
X146679634Y-67647851D01*
X146679629Y-67647848D01*
X146506707Y-67570857D01*
X146506702Y-67570855D01*
X146360901Y-67539865D01*
X146321546Y-67531500D01*
X146132254Y-67531500D01*
X146099797Y-67538398D01*
X145947097Y-67570855D01*
X145947092Y-67570857D01*
X145774170Y-67647848D01*
X145774165Y-67647851D01*
X145760448Y-67657818D01*
X145694642Y-67681298D01*
X145687563Y-67681500D01*
X144959905Y-67681500D01*
X144941935Y-67680191D01*
X144918172Y-67676710D01*
X144873712Y-67680601D01*
X144866131Y-67681264D01*
X144860730Y-67681500D01*
X144852489Y-67681500D01*
X144830779Y-67684037D01*
X144819924Y-67685306D01*
X144804619Y-67686645D01*
X144743399Y-67692001D01*
X144736332Y-67693460D01*
X144736320Y-67693404D01*
X144728963Y-67695035D01*
X144728977Y-67695092D01*
X144721943Y-67696759D01*
X144649775Y-67723025D01*
X144576875Y-67747181D01*
X144570326Y-67750236D01*
X144570301Y-67750183D01*
X144563508Y-67753471D01*
X144563534Y-67753523D01*
X144557080Y-67756764D01*
X144492908Y-67798971D01*
X144427547Y-67839285D01*
X144421883Y-67843765D01*
X144421847Y-67843719D01*
X144415998Y-67848484D01*
X144416035Y-67848528D01*
X144410510Y-67853164D01*
X144357798Y-67909034D01*
X143777651Y-68489181D01*
X143716328Y-68522666D01*
X143689970Y-68525500D01*
X143349004Y-68525500D01*
X143312132Y-68528401D01*
X143312126Y-68528402D01*
X143154306Y-68574254D01*
X143154303Y-68574255D01*
X143012837Y-68657917D01*
X143012829Y-68657923D01*
X142896623Y-68774129D01*
X142896617Y-68774137D01*
X142812955Y-68915603D01*
X142812954Y-68915606D01*
X142767102Y-69073426D01*
X142767101Y-69073432D01*
X142764200Y-69110304D01*
X142764200Y-69351500D01*
X142744515Y-69418539D01*
X142691711Y-69464294D01*
X142640200Y-69475500D01*
X142166545Y-69475500D01*
X142150255Y-69473835D01*
X142150250Y-69473895D01*
X142143060Y-69473265D01*
X142066283Y-69475500D01*
X140979370Y-69475500D01*
X140912331Y-69455815D01*
X140866576Y-69403011D01*
X140861664Y-69390505D01*
X140848739Y-69351500D01*
X140817314Y-69256666D01*
X140725212Y-69107344D01*
X140601156Y-68983288D01*
X140491425Y-68915606D01*
X140451836Y-68891187D01*
X140451831Y-68891185D01*
X140429487Y-68883781D01*
X140285297Y-68836001D01*
X140285295Y-68836000D01*
X140182516Y-68825500D01*
X140182509Y-68825500D01*
X138844730Y-68825500D01*
X138777691Y-68805815D01*
X138757049Y-68789181D01*
X137787229Y-67819361D01*
X137775449Y-67805730D01*
X137767982Y-67795701D01*
X137761112Y-67786472D01*
X137728506Y-67759112D01*
X137721087Y-67752886D01*
X137717112Y-67749244D01*
X137711277Y-67743409D01*
X137685540Y-67723059D01*
X137626714Y-67673698D01*
X137626713Y-67673697D01*
X137626709Y-67673694D01*
X137620680Y-67669729D01*
X137620712Y-67669680D01*
X137614353Y-67665628D01*
X137614322Y-67665679D01*
X137608180Y-67661891D01*
X137608178Y-67661890D01*
X137608177Y-67661889D01*
X137568974Y-67643608D01*
X137538558Y-67629424D01*
X137504394Y-67612267D01*
X137469933Y-67594960D01*
X137469931Y-67594959D01*
X137469930Y-67594959D01*
X137463145Y-67592489D01*
X137463165Y-67592433D01*
X137456049Y-67589959D01*
X137456031Y-67590015D01*
X137449171Y-67587742D01*
X137421341Y-67581996D01*
X137373934Y-67572207D01*
X137324972Y-67560603D01*
X137299219Y-67554499D01*
X137292047Y-67553661D01*
X137292053Y-67553601D01*
X137284555Y-67552835D01*
X137284550Y-67552895D01*
X137277360Y-67552265D01*
X137200583Y-67554500D01*
X132005705Y-67554500D01*
X131987735Y-67553191D01*
X131963972Y-67549710D01*
X131918890Y-67553655D01*
X131911933Y-67554264D01*
X131906532Y-67554500D01*
X131898287Y-67554500D01*
X131872222Y-67557546D01*
X131865705Y-67558308D01*
X131860403Y-67558771D01*
X131789201Y-67565001D01*
X131782134Y-67566461D01*
X131782122Y-67566404D01*
X131774753Y-67568038D01*
X131774767Y-67568095D01*
X131767739Y-67569760D01*
X131698505Y-67594959D01*
X131695568Y-67596028D01*
X131622665Y-67620186D01*
X131622663Y-67620186D01*
X131622660Y-67620188D01*
X131616123Y-67623236D01*
X131616098Y-67623184D01*
X131609310Y-67626470D01*
X131609336Y-67626521D01*
X131602885Y-67629761D01*
X131538723Y-67671961D01*
X131473346Y-67712285D01*
X131467682Y-67716765D01*
X131467646Y-67716719D01*
X131461798Y-67721484D01*
X131461835Y-67721528D01*
X131456310Y-67726164D01*
X131456304Y-67726169D01*
X131456304Y-67726170D01*
X131425225Y-67759111D01*
X131403614Y-67782017D01*
X127077358Y-72108272D01*
X127063729Y-72120051D01*
X127044468Y-72134390D01*
X127010898Y-72174397D01*
X127007253Y-72178376D01*
X127001409Y-72184222D01*
X126981059Y-72209959D01*
X126931695Y-72268789D01*
X126927729Y-72274819D01*
X126927682Y-72274788D01*
X126923630Y-72281147D01*
X126923679Y-72281177D01*
X126919889Y-72287321D01*
X126887424Y-72356941D01*
X126852960Y-72425566D01*
X126850488Y-72432357D01*
X126850432Y-72432336D01*
X126847960Y-72439450D01*
X126848015Y-72439469D01*
X126845742Y-72446326D01*
X126838897Y-72479480D01*
X126806062Y-72541154D01*
X126769865Y-72566785D01*
X126735177Y-72582960D01*
X126735172Y-72582963D01*
X126541597Y-72718505D01*
X126374506Y-72885597D01*
X126374501Y-72885604D01*
X126238967Y-73079165D01*
X126238965Y-73079169D01*
X126139098Y-73293335D01*
X126139094Y-73293344D01*
X126077938Y-73521586D01*
X126077936Y-73521596D01*
X126057341Y-73756999D01*
X126057341Y-73757000D01*
X126077936Y-73992403D01*
X126077938Y-73992413D01*
X126139094Y-74220655D01*
X126139096Y-74220659D01*
X126139097Y-74220663D01*
X126163757Y-74273546D01*
X126238964Y-74434828D01*
X126238965Y-74434830D01*
X126374505Y-74628402D01*
X126522067Y-74775964D01*
X126555552Y-74837287D01*
X126550568Y-74906979D01*
X126508696Y-74962912D01*
X126499483Y-74969183D01*
X126344659Y-75064680D01*
X126344655Y-75064683D01*
X126220684Y-75188654D01*
X126128643Y-75337875D01*
X126128641Y-75337880D01*
X126073494Y-75504302D01*
X126073493Y-75504309D01*
X126063000Y-75607013D01*
X126063000Y-76007000D01*
X127129314Y-76007000D01*
X127103507Y-76047156D01*
X127063000Y-76185111D01*
X127063000Y-76328889D01*
X127103507Y-76466844D01*
X127129314Y-76507000D01*
X126063001Y-76507000D01*
X126063001Y-76906986D01*
X126073494Y-77009697D01*
X126128641Y-77176119D01*
X126128643Y-77176124D01*
X126220684Y-77325345D01*
X126344654Y-77449315D01*
X126493875Y-77541356D01*
X126493880Y-77541358D01*
X126660302Y-77596505D01*
X126660309Y-77596506D01*
X126763019Y-77606999D01*
X127312999Y-77606999D01*
X127313000Y-77606998D01*
X127313000Y-76692501D01*
X127420685Y-76741680D01*
X127527237Y-76757000D01*
X127598763Y-76757000D01*
X127705315Y-76741680D01*
X127813000Y-76692501D01*
X127813000Y-77606999D01*
X128362972Y-77606999D01*
X128362986Y-77606998D01*
X128465697Y-77596505D01*
X128632119Y-77541358D01*
X128632124Y-77541356D01*
X128781345Y-77449315D01*
X128905315Y-77325345D01*
X128997356Y-77176124D01*
X128997358Y-77176119D01*
X129052505Y-77009697D01*
X129052506Y-77009690D01*
X129062999Y-76906986D01*
X129063000Y-76906973D01*
X129063000Y-76507000D01*
X127996686Y-76507000D01*
X128022493Y-76466844D01*
X128063000Y-76328889D01*
X128063000Y-76185111D01*
X128022493Y-76047156D01*
X127996686Y-76007000D01*
X129062999Y-76007000D01*
X129062999Y-75607028D01*
X129062998Y-75607013D01*
X129052505Y-75504302D01*
X128997358Y-75337880D01*
X128997356Y-75337875D01*
X128905315Y-75188654D01*
X128781344Y-75064683D01*
X128781340Y-75064680D01*
X128626516Y-74969183D01*
X128579791Y-74917235D01*
X128568570Y-74848273D01*
X128596413Y-74784191D01*
X128603932Y-74775964D01*
X128662694Y-74717202D01*
X128751495Y-74628401D01*
X128887035Y-74434830D01*
X128986903Y-74220663D01*
X129048063Y-73992408D01*
X129068659Y-73757000D01*
X129048063Y-73521592D01*
X128986903Y-73293337D01*
X128887035Y-73079171D01*
X128887034Y-73079169D01*
X128751494Y-72885597D01*
X128674812Y-72808915D01*
X128641327Y-72747592D01*
X128646311Y-72677900D01*
X128674810Y-72633555D01*
X130832366Y-70476000D01*
X133382501Y-70476000D01*
X133382501Y-70925986D01*
X133392994Y-71028697D01*
X133448141Y-71195119D01*
X133448143Y-71195124D01*
X133540184Y-71344345D01*
X133664154Y-71468315D01*
X133813375Y-71560356D01*
X133813380Y-71560358D01*
X133979802Y-71615505D01*
X133979809Y-71615506D01*
X134082519Y-71625999D01*
X134882499Y-71625999D01*
X134882500Y-71625998D01*
X134882500Y-70476000D01*
X135382500Y-70476000D01*
X135382500Y-71625999D01*
X136182472Y-71625999D01*
X136182486Y-71625998D01*
X136285197Y-71615505D01*
X136451619Y-71560358D01*
X136451624Y-71560356D01*
X136600845Y-71468315D01*
X136724815Y-71344345D01*
X136816856Y-71195124D01*
X136816858Y-71195119D01*
X136872005Y-71028697D01*
X136872006Y-71028690D01*
X136882499Y-70925986D01*
X136882500Y-70925973D01*
X136882500Y-70476000D01*
X135382500Y-70476000D01*
X134882500Y-70476000D01*
X133382501Y-70476000D01*
X130832366Y-70476000D01*
X132216548Y-69091819D01*
X132277871Y-69058334D01*
X132304229Y-69055500D01*
X133350178Y-69055500D01*
X133417217Y-69075185D01*
X133462972Y-69127989D01*
X133472916Y-69197147D01*
X133455718Y-69244595D01*
X133448145Y-69256873D01*
X133448141Y-69256880D01*
X133392994Y-69423302D01*
X133392993Y-69423309D01*
X133382500Y-69526013D01*
X133382500Y-69976000D01*
X136882499Y-69976000D01*
X136882499Y-69526028D01*
X136882498Y-69526013D01*
X136872006Y-69423304D01*
X136840110Y-69327051D01*
X136837708Y-69257222D01*
X136873439Y-69197180D01*
X136935959Y-69165987D01*
X137005419Y-69173547D01*
X137045497Y-69200365D01*
X137345681Y-69500548D01*
X137379166Y-69561871D01*
X137382000Y-69588229D01*
X137382000Y-70926001D01*
X137382001Y-70926018D01*
X137392500Y-71028796D01*
X137392501Y-71028799D01*
X137408308Y-71076500D01*
X137447686Y-71195334D01*
X137539788Y-71344656D01*
X137663844Y-71468712D01*
X137813166Y-71560814D01*
X137979703Y-71615999D01*
X138082491Y-71626500D01*
X140182508Y-71626499D01*
X140285297Y-71615999D01*
X140451834Y-71560814D01*
X140601156Y-71468712D01*
X140725212Y-71344656D01*
X140817314Y-71195334D01*
X140861664Y-71061494D01*
X140901436Y-71004051D01*
X140965951Y-70977228D01*
X140979369Y-70976500D01*
X141158731Y-70976500D01*
X141221851Y-70993767D01*
X141279302Y-71027744D01*
X141320924Y-71039836D01*
X141437126Y-71073597D01*
X141437129Y-71073597D01*
X141437131Y-71073598D01*
X141449422Y-71074565D01*
X141474004Y-71076500D01*
X141474006Y-71076500D01*
X142640200Y-71076500D01*
X142707239Y-71096185D01*
X142752994Y-71148989D01*
X142764200Y-71200500D01*
X142764200Y-71441696D01*
X142767101Y-71478567D01*
X142767102Y-71478573D01*
X142812954Y-71636393D01*
X142812955Y-71636396D01*
X142896617Y-71777862D01*
X142896623Y-71777870D01*
X143012829Y-71894076D01*
X143012833Y-71894079D01*
X143012835Y-71894081D01*
X143154302Y-71977744D01*
X143171760Y-71982816D01*
X143312126Y-72023597D01*
X143312129Y-72023597D01*
X143312131Y-72023598D01*
X143324422Y-72024565D01*
X143349004Y-72026500D01*
X143349006Y-72026500D01*
X144655396Y-72026500D01*
X144673831Y-72025049D01*
X144692269Y-72023598D01*
X144692271Y-72023597D01*
X144692273Y-72023597D01*
X144733891Y-72011505D01*
X144850098Y-71977744D01*
X144991565Y-71894081D01*
X144991570Y-71894076D01*
X144997828Y-71887819D01*
X145059151Y-71854334D01*
X145085509Y-71851500D01*
X145263207Y-71851500D01*
X145330246Y-71871185D01*
X145369323Y-71911349D01*
X145396428Y-71956185D01*
X145396431Y-71956189D01*
X145440504Y-72000261D01*
X145473990Y-72061584D01*
X145469006Y-72131275D01*
X145460212Y-72149942D01*
X145456960Y-72155575D01*
X145412776Y-72232105D01*
X145399720Y-72254718D01*
X145399718Y-72254722D01*
X145341804Y-72432964D01*
X145341226Y-72434744D01*
X145321440Y-72623000D01*
X145341226Y-72811256D01*
X145341227Y-72811259D01*
X145399718Y-72991277D01*
X145399721Y-72991284D01*
X145494367Y-73155216D01*
X145586014Y-73257000D01*
X145621029Y-73295888D01*
X145774165Y-73407148D01*
X145774170Y-73407151D01*
X145947092Y-73484142D01*
X145947097Y-73484144D01*
X146132254Y-73523500D01*
X146132255Y-73523500D01*
X146321544Y-73523500D01*
X146321546Y-73523500D01*
X146506703Y-73484144D01*
X146679630Y-73407151D01*
X146832771Y-73295888D01*
X146959433Y-73155216D01*
X147054079Y-72991284D01*
X147095069Y-72865129D01*
X147134506Y-72807455D01*
X147198865Y-72780256D01*
X147267711Y-72792171D01*
X147319187Y-72839415D01*
X147330931Y-72865130D01*
X147371918Y-72991278D01*
X147371921Y-72991284D01*
X147466567Y-73155216D01*
X147558214Y-73257000D01*
X147593229Y-73295888D01*
X147746365Y-73407148D01*
X147746370Y-73407151D01*
X147919292Y-73484142D01*
X147919297Y-73484144D01*
X148104454Y-73523500D01*
X148104455Y-73523500D01*
X148293744Y-73523500D01*
X148293746Y-73523500D01*
X148478903Y-73484144D01*
X148651830Y-73407151D01*
X148804971Y-73295888D01*
X148931633Y-73155216D01*
X149026279Y-72991284D01*
X149084774Y-72811256D01*
X149104560Y-72623000D01*
X149084774Y-72434744D01*
X149026279Y-72254716D01*
X148965787Y-72149941D01*
X148949315Y-72082043D01*
X148972168Y-72016016D01*
X148985487Y-72000269D01*
X149002941Y-71982815D01*
X149064264Y-71949333D01*
X149090619Y-71946500D01*
X151364149Y-71946500D01*
X151427269Y-71963767D01*
X151450902Y-71977744D01*
X151468360Y-71982816D01*
X151608726Y-72023597D01*
X151608729Y-72023597D01*
X151608731Y-72023598D01*
X151621022Y-72024565D01*
X151645604Y-72026500D01*
X151645606Y-72026500D01*
X152951996Y-72026500D01*
X152970431Y-72025049D01*
X152988869Y-72023598D01*
X152988871Y-72023597D01*
X152988873Y-72023597D01*
X153030491Y-72011505D01*
X153146698Y-71977744D01*
X153288165Y-71894081D01*
X153404381Y-71777865D01*
X153488044Y-71636398D01*
X153533898Y-71478569D01*
X153534740Y-71467864D01*
X153559620Y-71402576D01*
X153615848Y-71361102D01*
X153685574Y-71356612D01*
X153746039Y-71389907D01*
X153824844Y-71468712D01*
X153974166Y-71560814D01*
X154140703Y-71615999D01*
X154243491Y-71626500D01*
X156343508Y-71626499D01*
X156446297Y-71615999D01*
X156612834Y-71560814D01*
X156762156Y-71468712D01*
X156886212Y-71344656D01*
X156978314Y-71195334D01*
X157033499Y-71028797D01*
X157044000Y-70926009D01*
X157044000Y-70476000D01*
X157543501Y-70476000D01*
X157543501Y-70925986D01*
X157553994Y-71028697D01*
X157609141Y-71195119D01*
X157609143Y-71195124D01*
X157701184Y-71344345D01*
X157825154Y-71468315D01*
X157974375Y-71560356D01*
X157974380Y-71560358D01*
X158140802Y-71615505D01*
X158140809Y-71615506D01*
X158243519Y-71625999D01*
X159043499Y-71625999D01*
X159043500Y-71625998D01*
X159043500Y-70476000D01*
X159543500Y-70476000D01*
X159543500Y-71625999D01*
X160343472Y-71625999D01*
X160343486Y-71625998D01*
X160446197Y-71615505D01*
X160612619Y-71560358D01*
X160612624Y-71560356D01*
X160761845Y-71468315D01*
X160885815Y-71344345D01*
X160977856Y-71195124D01*
X160977858Y-71195119D01*
X161033005Y-71028697D01*
X161033006Y-71028690D01*
X161043499Y-70925986D01*
X161043500Y-70925973D01*
X161043500Y-70476000D01*
X159543500Y-70476000D01*
X159043500Y-70476000D01*
X157543501Y-70476000D01*
X157044000Y-70476000D01*
X157043999Y-69588228D01*
X157063684Y-69521190D01*
X157080313Y-69500553D01*
X157380505Y-69200361D01*
X157441826Y-69166878D01*
X157511518Y-69171862D01*
X157567451Y-69213734D01*
X157591868Y-69279198D01*
X157585890Y-69327047D01*
X157553995Y-69423299D01*
X157553993Y-69423309D01*
X157543500Y-69526013D01*
X157543500Y-69976000D01*
X161043499Y-69976000D01*
X161043499Y-69526028D01*
X161043498Y-69526013D01*
X161033005Y-69423302D01*
X160977858Y-69256880D01*
X160977854Y-69256873D01*
X160970282Y-69244595D01*
X160951843Y-69177202D01*
X160972767Y-69110539D01*
X161026410Y-69065770D01*
X161075822Y-69055500D01*
X161805770Y-69055500D01*
X161872809Y-69075185D01*
X161893451Y-69091819D01*
X164767270Y-71965638D01*
X164779051Y-71979270D01*
X164793388Y-71998528D01*
X164833409Y-72032111D01*
X164837397Y-72035766D01*
X164843216Y-72041585D01*
X164843220Y-72041588D01*
X164843223Y-72041591D01*
X164868959Y-72061940D01*
X164927786Y-72111302D01*
X164927787Y-72111302D01*
X164927789Y-72111304D01*
X164933818Y-72115270D01*
X164933785Y-72115319D01*
X164940147Y-72119372D01*
X164940179Y-72119321D01*
X164946319Y-72123108D01*
X164946323Y-72123111D01*
X164963831Y-72131275D01*
X165015941Y-72155575D01*
X165053419Y-72174397D01*
X165084567Y-72190040D01*
X165084569Y-72190040D01*
X165091357Y-72192511D01*
X165091336Y-72192567D01*
X165098457Y-72195043D01*
X165098476Y-72194986D01*
X165105322Y-72197254D01*
X165105327Y-72197257D01*
X165105332Y-72197258D01*
X165105335Y-72197259D01*
X165166844Y-72209959D01*
X165180565Y-72212792D01*
X165255279Y-72230500D01*
X165255282Y-72230500D01*
X165255286Y-72230501D01*
X165262453Y-72231339D01*
X165262446Y-72231398D01*
X165269944Y-72232164D01*
X165269950Y-72232105D01*
X165277139Y-72232734D01*
X165277143Y-72232733D01*
X165277144Y-72232734D01*
X165353917Y-72230500D01*
X166456191Y-72230500D01*
X166523230Y-72250185D01*
X166568985Y-72302989D01*
X166578929Y-72372147D01*
X166549904Y-72435703D01*
X166500110Y-72468926D01*
X166500421Y-72469592D01*
X166496080Y-72471615D01*
X166495196Y-72472206D01*
X166493878Y-72472642D01*
X166493875Y-72472643D01*
X166344654Y-72564684D01*
X166220684Y-72688654D01*
X166128643Y-72837875D01*
X166128641Y-72837880D01*
X166073494Y-73004302D01*
X166073493Y-73004309D01*
X166063000Y-73107013D01*
X166063000Y-73507000D01*
X167129314Y-73507000D01*
X167103507Y-73547156D01*
X167063000Y-73685111D01*
X167063000Y-73828889D01*
X167103507Y-73966844D01*
X167129314Y-74007000D01*
X166063001Y-74007000D01*
X166063001Y-74406986D01*
X166073494Y-74509697D01*
X166128641Y-74676119D01*
X166128643Y-74676124D01*
X166220684Y-74825345D01*
X166344654Y-74949315D01*
X166499484Y-75044815D01*
X166546208Y-75096763D01*
X166557431Y-75165726D01*
X166529587Y-75229808D01*
X166522069Y-75238035D01*
X166374501Y-75385603D01*
X166374501Y-75385604D01*
X166238967Y-75579165D01*
X166238965Y-75579169D01*
X166139098Y-75793335D01*
X166139094Y-75793344D01*
X166077938Y-76021586D01*
X166077936Y-76021596D01*
X166057341Y-76256999D01*
X166057341Y-76257000D01*
X166077936Y-76492403D01*
X166077938Y-76492413D01*
X166139094Y-76720655D01*
X166139096Y-76720659D01*
X166139097Y-76720663D01*
X166182409Y-76813546D01*
X166238964Y-76934828D01*
X166238965Y-76934830D01*
X166374505Y-77128402D01*
X166541597Y-77295494D01*
X166735169Y-77431034D01*
X166735171Y-77431035D01*
X166949337Y-77530903D01*
X166949343Y-77530904D01*
X166949344Y-77530905D01*
X166988356Y-77541358D01*
X167177592Y-77592063D01*
X167354034Y-77607500D01*
X167771966Y-77607500D01*
X167948408Y-77592063D01*
X168176663Y-77530903D01*
X168390829Y-77431035D01*
X168584401Y-77295495D01*
X168751495Y-77128401D01*
X168861534Y-76971248D01*
X168900811Y-76937312D01*
X168900083Y-76936205D01*
X168906114Y-76932237D01*
X168906117Y-76932237D01*
X168970283Y-76890034D01*
X169035656Y-76849712D01*
X169035662Y-76849705D01*
X169041325Y-76845229D01*
X169041362Y-76845277D01*
X169047204Y-76840518D01*
X169047164Y-76840471D01*
X169052686Y-76835836D01*
X169052696Y-76835830D01*
X169074398Y-76812825D01*
X169105386Y-76779982D01*
X169878387Y-76006980D01*
X170146642Y-75738724D01*
X170160257Y-75726958D01*
X170179530Y-75712610D01*
X170213123Y-75672574D01*
X170216757Y-75668608D01*
X170222591Y-75662776D01*
X170242930Y-75637052D01*
X170292302Y-75578214D01*
X170292306Y-75578205D01*
X170296274Y-75572175D01*
X170296325Y-75572208D01*
X170300369Y-75565860D01*
X170300317Y-75565828D01*
X170304106Y-75559682D01*
X170304111Y-75559677D01*
X170326118Y-75512481D01*
X170372289Y-75460043D01*
X170439482Y-75440890D01*
X170506364Y-75461105D01*
X170551699Y-75514270D01*
X170562500Y-75564886D01*
X170562500Y-83927709D01*
X170542815Y-83994748D01*
X170490938Y-84040076D01*
X166834258Y-85746527D01*
X163062806Y-87506538D01*
X163062695Y-87506584D01*
X163062616Y-87506617D01*
X163062532Y-87506702D01*
X163062464Y-87506888D01*
X163062500Y-87508423D01*
X163062500Y-106505568D01*
X163062464Y-106507113D01*
X163062531Y-106507298D01*
X163062669Y-106507435D01*
X163064059Y-106508046D01*
X165662568Y-107720683D01*
X170490938Y-109973922D01*
X170543364Y-110020110D01*
X170562500Y-110086289D01*
X170562500Y-123427709D01*
X170542815Y-123494748D01*
X170490938Y-123540076D01*
X163087818Y-126994867D01*
X163035380Y-127006500D01*
X149874582Y-127006500D01*
X149807543Y-126986815D01*
X149761788Y-126934011D01*
X149751844Y-126864853D01*
X149780869Y-126801297D01*
X149839647Y-126763523D01*
X149842489Y-126762725D01*
X149913630Y-126743662D01*
X149992330Y-126722575D01*
X150190639Y-126630102D01*
X150369877Y-126504598D01*
X150524598Y-126349877D01*
X150650102Y-126170639D01*
X150742575Y-125972330D01*
X150799207Y-125760977D01*
X150818277Y-125543000D01*
X150799207Y-125325023D01*
X150742575Y-125113670D01*
X150650102Y-124915362D01*
X150650100Y-124915359D01*
X150650099Y-124915357D01*
X150524599Y-124736124D01*
X150475318Y-124686843D01*
X150369877Y-124581402D01*
X150190639Y-124455898D01*
X150190640Y-124455898D01*
X150190638Y-124455897D01*
X150042449Y-124386796D01*
X149992330Y-124363425D01*
X149992326Y-124363424D01*
X149992322Y-124363422D01*
X149780977Y-124306793D01*
X149563002Y-124287723D01*
X149562998Y-124287723D01*
X149417682Y-124300436D01*
X149345023Y-124306793D01*
X149345020Y-124306793D01*
X149133677Y-124363422D01*
X149133668Y-124363426D01*
X148935361Y-124455898D01*
X148935357Y-124455900D01*
X148756124Y-124581400D01*
X148650680Y-124686844D01*
X148589357Y-124720328D01*
X148519665Y-124715344D01*
X148475318Y-124686843D01*
X148369881Y-124581406D01*
X148369877Y-124581402D01*
X148190639Y-124455898D01*
X148190640Y-124455898D01*
X148190638Y-124455897D01*
X148042449Y-124386796D01*
X147992330Y-124363425D01*
X147992326Y-124363424D01*
X147992322Y-124363422D01*
X147780977Y-124306793D01*
X147563002Y-124287723D01*
X147562998Y-124287723D01*
X147417682Y-124300436D01*
X147345023Y-124306793D01*
X147345020Y-124306793D01*
X147133677Y-124363422D01*
X147133668Y-124363426D01*
X146935361Y-124455898D01*
X146935357Y-124455900D01*
X146756124Y-124581400D01*
X146650680Y-124686844D01*
X146589357Y-124720328D01*
X146519665Y-124715344D01*
X146475318Y-124686843D01*
X146369881Y-124581406D01*
X146369877Y-124581402D01*
X146190639Y-124455898D01*
X146190640Y-124455898D01*
X146190638Y-124455897D01*
X146042449Y-124386796D01*
X145992330Y-124363425D01*
X145992326Y-124363424D01*
X145992322Y-124363422D01*
X145780977Y-124306793D01*
X145563002Y-124287723D01*
X145562998Y-124287723D01*
X145417682Y-124300436D01*
X145345023Y-124306793D01*
X145345020Y-124306793D01*
X145133677Y-124363422D01*
X145133668Y-124363426D01*
X144935361Y-124455898D01*
X144935357Y-124455900D01*
X144756121Y-124581402D01*
X144601402Y-124736121D01*
X144475900Y-124915357D01*
X144475898Y-124915361D01*
X144383426Y-125113668D01*
X144383422Y-125113677D01*
X144326793Y-125325020D01*
X144326793Y-125325024D01*
X144307723Y-125542997D01*
X144307723Y-125543002D01*
X144326793Y-125760975D01*
X144326793Y-125760979D01*
X144383422Y-125972322D01*
X144383424Y-125972326D01*
X144383425Y-125972330D01*
X144429661Y-126071484D01*
X144475897Y-126170638D01*
X144475898Y-126170639D01*
X144601402Y-126349877D01*
X144756123Y-126504598D01*
X144935361Y-126630102D01*
X145133670Y-126722575D01*
X145133676Y-126722576D01*
X145133677Y-126722577D01*
X145283511Y-126762725D01*
X145343172Y-126799090D01*
X145373701Y-126861937D01*
X145365406Y-126931313D01*
X145320921Y-126985190D01*
X145254369Y-127006465D01*
X145251418Y-127006500D01*
X132090620Y-127006500D01*
X132038182Y-126994867D01*
X124635062Y-123540076D01*
X124582636Y-123493888D01*
X124563500Y-123427709D01*
X124563500Y-117757000D01*
X126057341Y-117757000D01*
X126077936Y-117992403D01*
X126077938Y-117992413D01*
X126139094Y-118220655D01*
X126139096Y-118220659D01*
X126139097Y-118220663D01*
X126166758Y-118279982D01*
X126238964Y-118434828D01*
X126238965Y-118434830D01*
X126374505Y-118628402D01*
X126522067Y-118775964D01*
X126555552Y-118837287D01*
X126550568Y-118906979D01*
X126508696Y-118962912D01*
X126499483Y-118969183D01*
X126344659Y-119064680D01*
X126344655Y-119064683D01*
X126220684Y-119188654D01*
X126128643Y-119337875D01*
X126128641Y-119337880D01*
X126073494Y-119504302D01*
X126073493Y-119504309D01*
X126063000Y-119607013D01*
X126063000Y-120007000D01*
X127129314Y-120007000D01*
X127103507Y-120047156D01*
X127063000Y-120185111D01*
X127063000Y-120328889D01*
X127103507Y-120466844D01*
X127129314Y-120507000D01*
X126063001Y-120507000D01*
X126063001Y-120906986D01*
X126073494Y-121009697D01*
X126128641Y-121176119D01*
X126128643Y-121176124D01*
X126220684Y-121325345D01*
X126344654Y-121449315D01*
X126493875Y-121541356D01*
X126493880Y-121541358D01*
X126660302Y-121596505D01*
X126660309Y-121596506D01*
X126763019Y-121606999D01*
X127312999Y-121606999D01*
X127313000Y-121606998D01*
X127313000Y-120692501D01*
X127420685Y-120741680D01*
X127527237Y-120757000D01*
X127598763Y-120757000D01*
X127705315Y-120741680D01*
X127813000Y-120692501D01*
X127813000Y-121606999D01*
X128362972Y-121606999D01*
X128362986Y-121606998D01*
X128465697Y-121596505D01*
X128632119Y-121541358D01*
X128632124Y-121541356D01*
X128781345Y-121449315D01*
X128905315Y-121325345D01*
X128997356Y-121176124D01*
X128997358Y-121176119D01*
X129052505Y-121009697D01*
X129052506Y-121009690D01*
X129062999Y-120906986D01*
X129063000Y-120906973D01*
X129063000Y-120507000D01*
X127996686Y-120507000D01*
X128022493Y-120466844D01*
X128063000Y-120328889D01*
X128063000Y-120185111D01*
X128022493Y-120047156D01*
X127996686Y-120007000D01*
X129062999Y-120007000D01*
X129062999Y-119607028D01*
X129062998Y-119607013D01*
X129052505Y-119504302D01*
X128997358Y-119337880D01*
X128997356Y-119337875D01*
X128905315Y-119188654D01*
X128781344Y-119064683D01*
X128781340Y-119064680D01*
X128626516Y-118969183D01*
X128579791Y-118917235D01*
X128568570Y-118848273D01*
X128596413Y-118784191D01*
X128603932Y-118775964D01*
X128667193Y-118712703D01*
X128751495Y-118628401D01*
X128799127Y-118560376D01*
X128853704Y-118516751D01*
X128900701Y-118507500D01*
X135617484Y-118507500D01*
X135684523Y-118527185D01*
X135730278Y-118579989D01*
X135740222Y-118649147D01*
X135711197Y-118712703D01*
X135667920Y-118744779D01*
X135524471Y-118808647D01*
X135524466Y-118808650D01*
X135371330Y-118919910D01*
X135244667Y-119060584D01*
X135150022Y-119224514D01*
X135150019Y-119224521D01*
X135097169Y-119387179D01*
X135091527Y-119404543D01*
X135071741Y-119592799D01*
X135091527Y-119781055D01*
X135091528Y-119781058D01*
X135150019Y-119961076D01*
X135150022Y-119961083D01*
X135244668Y-120125015D01*
X135292922Y-120178606D01*
X135371330Y-120265687D01*
X135524466Y-120376947D01*
X135524471Y-120376950D01*
X135697393Y-120453941D01*
X135697398Y-120453943D01*
X135882555Y-120493299D01*
X135882556Y-120493299D01*
X136071845Y-120493299D01*
X136071847Y-120493299D01*
X136257004Y-120453943D01*
X136386922Y-120396098D01*
X136456172Y-120386814D01*
X136519448Y-120416442D01*
X136525039Y-120421697D01*
X136547811Y-120444469D01*
X136547813Y-120444470D01*
X136547815Y-120444472D01*
X136693394Y-120532478D01*
X136855804Y-120583086D01*
X136926384Y-120589500D01*
X136926387Y-120589500D01*
X137439613Y-120589500D01*
X137439616Y-120589500D01*
X137510196Y-120583086D01*
X137672606Y-120532478D01*
X137818185Y-120444472D01*
X137920320Y-120342336D01*
X137981641Y-120308853D01*
X138051333Y-120313837D01*
X138095681Y-120342338D01*
X138171181Y-120417838D01*
X138204666Y-120479161D01*
X138207500Y-120505519D01*
X138207500Y-121715185D01*
X138187815Y-121782224D01*
X138142518Y-121824239D01*
X138064380Y-121866525D01*
X138064365Y-121866535D01*
X137881222Y-122009081D01*
X137881218Y-122009085D01*
X137872866Y-122018158D01*
X137812979Y-122054148D01*
X137743141Y-122052047D01*
X137685525Y-122012522D01*
X137665455Y-121977507D01*
X137636797Y-121900671D01*
X137636793Y-121900664D01*
X137550547Y-121785455D01*
X137550544Y-121785452D01*
X137435335Y-121699206D01*
X137435328Y-121699202D01*
X137300482Y-121648908D01*
X137300483Y-121648908D01*
X137240883Y-121642501D01*
X137240881Y-121642500D01*
X137240873Y-121642500D01*
X137240864Y-121642500D01*
X135345129Y-121642500D01*
X135345123Y-121642501D01*
X135285516Y-121648908D01*
X135150671Y-121699202D01*
X135150664Y-121699206D01*
X135035455Y-121785452D01*
X135035452Y-121785455D01*
X134949206Y-121900664D01*
X134949202Y-121900671D01*
X134898908Y-122035517D01*
X134892501Y-122095116D01*
X134892500Y-122095135D01*
X134892500Y-123990870D01*
X134892501Y-123990876D01*
X134898908Y-124050483D01*
X134949202Y-124185328D01*
X134949206Y-124185335D01*
X135035452Y-124300544D01*
X135035455Y-124300547D01*
X135150664Y-124386793D01*
X135150671Y-124386797D01*
X135285517Y-124437091D01*
X135285516Y-124437091D01*
X135292444Y-124437835D01*
X135345127Y-124443500D01*
X137240872Y-124443499D01*
X137300483Y-124437091D01*
X137435331Y-124386796D01*
X137550546Y-124300546D01*
X137636796Y-124185331D01*
X137665455Y-124108493D01*
X137707326Y-124052559D01*
X137772790Y-124028141D01*
X137841063Y-124042992D01*
X137872866Y-124067843D01*
X137880302Y-124075920D01*
X137881215Y-124076912D01*
X137881222Y-124076918D01*
X138064365Y-124219464D01*
X138064371Y-124219468D01*
X138064374Y-124219470D01*
X138190494Y-124287723D01*
X138245356Y-124317413D01*
X138268497Y-124329936D01*
X138366047Y-124363425D01*
X138488015Y-124405297D01*
X138488017Y-124405297D01*
X138488019Y-124405298D01*
X138716951Y-124443500D01*
X138716952Y-124443500D01*
X138949048Y-124443500D01*
X138949049Y-124443500D01*
X139177981Y-124405298D01*
X139397503Y-124329936D01*
X139601626Y-124219470D01*
X139784784Y-124076913D01*
X139941979Y-123906153D01*
X140068924Y-123711849D01*
X140162157Y-123499300D01*
X140219134Y-123274305D01*
X140230926Y-123131998D01*
X140238300Y-123043006D01*
X140238300Y-123042993D01*
X140219135Y-122811702D01*
X140219133Y-122811691D01*
X140162157Y-122586699D01*
X140068924Y-122374151D01*
X139941983Y-122179852D01*
X139941980Y-122179849D01*
X139941979Y-122179847D01*
X139784784Y-122009087D01*
X139784779Y-122009083D01*
X139784777Y-122009081D01*
X139601634Y-121866535D01*
X139601619Y-121866525D01*
X139523482Y-121824239D01*
X139473891Y-121775020D01*
X139458500Y-121715185D01*
X139458500Y-121340870D01*
X144312500Y-121340870D01*
X144312501Y-121340876D01*
X144318908Y-121400483D01*
X144369202Y-121535328D01*
X144369206Y-121535335D01*
X144455452Y-121650544D01*
X144455455Y-121650547D01*
X144570664Y-121736793D01*
X144570671Y-121736797D01*
X144615618Y-121753561D01*
X144705517Y-121787091D01*
X144705525Y-121787091D01*
X144713061Y-121788873D01*
X144712489Y-121791290D01*
X144765783Y-121813351D01*
X144792479Y-121843139D01*
X144807434Y-121866535D01*
X144818940Y-121884536D01*
X144861911Y-121955954D01*
X144862042Y-121956092D01*
X144876495Y-121974579D01*
X144876602Y-121974747D01*
X144910937Y-122009081D01*
X144935552Y-122033696D01*
X144992871Y-122094207D01*
X144993028Y-122094314D01*
X145011121Y-122109265D01*
X145500992Y-122599136D01*
X145504396Y-122602829D01*
X145541362Y-122646350D01*
X145541363Y-122646351D01*
X145541365Y-122646352D01*
X145541369Y-122646357D01*
X145607737Y-122696808D01*
X145672699Y-122749027D01*
X145672701Y-122749029D01*
X145672872Y-122749114D01*
X145692814Y-122761483D01*
X145692971Y-122761602D01*
X145768640Y-122796610D01*
X145843307Y-122833641D01*
X145843481Y-122833684D01*
X145865626Y-122841480D01*
X145865803Y-122841562D01*
X145865806Y-122841562D01*
X145865807Y-122841563D01*
X145865806Y-122841563D01*
X145947228Y-122859485D01*
X145960020Y-122862666D01*
X146028111Y-122879600D01*
X146028284Y-122879604D01*
X146051602Y-122882460D01*
X146051784Y-122882500D01*
X146051787Y-122882500D01*
X146135160Y-122882500D01*
X146218473Y-122884757D01*
X146218655Y-122884721D01*
X146242023Y-122882500D01*
X155075979Y-122882500D01*
X155143018Y-122902185D01*
X155188773Y-122954989D01*
X155198717Y-123024147D01*
X155177554Y-123077621D01*
X155167748Y-123091626D01*
X155158963Y-123104173D01*
X155059098Y-123318335D01*
X155059094Y-123318344D01*
X154997938Y-123546586D01*
X154997936Y-123546596D01*
X154982500Y-123723034D01*
X154982500Y-124140966D01*
X154997936Y-124317403D01*
X154997938Y-124317413D01*
X155059094Y-124545655D01*
X155059096Y-124545659D01*
X155059097Y-124545663D01*
X155109031Y-124652746D01*
X155158964Y-124759828D01*
X155158965Y-124759830D01*
X155294505Y-124953402D01*
X155454772Y-125113668D01*
X155461599Y-125120495D01*
X155504675Y-125150657D01*
X155655165Y-125256032D01*
X155655167Y-125256033D01*
X155655170Y-125256035D01*
X155869337Y-125355903D01*
X156097592Y-125417063D01*
X156274034Y-125432500D01*
X156332999Y-125437659D01*
X156333000Y-125437659D01*
X156333001Y-125437659D01*
X156391966Y-125432500D01*
X156568408Y-125417063D01*
X156796663Y-125355903D01*
X157010829Y-125256035D01*
X157204401Y-125120495D01*
X157351602Y-124973293D01*
X157412924Y-124939810D01*
X157482615Y-124944794D01*
X157538549Y-124986665D01*
X157544821Y-124995879D01*
X157548186Y-125001334D01*
X157640288Y-125150656D01*
X157764344Y-125274712D01*
X157913666Y-125366814D01*
X158080203Y-125421999D01*
X158182991Y-125432500D01*
X159483008Y-125432499D01*
X159585797Y-125421999D01*
X159752334Y-125366814D01*
X159901656Y-125274712D01*
X160025712Y-125150656D01*
X160117814Y-125001334D01*
X160172999Y-124834797D01*
X160183500Y-124732009D01*
X160183499Y-123131992D01*
X160172999Y-123029203D01*
X160117814Y-122862666D01*
X160025712Y-122713344D01*
X159901656Y-122589288D01*
X159752334Y-122497186D01*
X159585797Y-122442001D01*
X159585795Y-122442000D01*
X159483016Y-122431500D01*
X159483009Y-122431500D01*
X159418006Y-122431500D01*
X159350967Y-122411815D01*
X159330325Y-122395181D01*
X158891097Y-121955953D01*
X158349999Y-121414855D01*
X158346608Y-121411176D01*
X158309631Y-121367643D01*
X158274411Y-121340870D01*
X158243262Y-121317191D01*
X158178297Y-121264970D01*
X158178294Y-121264968D01*
X158178120Y-121264882D01*
X158158182Y-121252514D01*
X158158029Y-121252397D01*
X158158027Y-121252396D01*
X158082359Y-121217389D01*
X158007693Y-121180359D01*
X158007689Y-121180358D01*
X158007680Y-121180355D01*
X158007488Y-121180307D01*
X157985385Y-121172525D01*
X157985198Y-121172438D01*
X157985194Y-121172437D01*
X157903771Y-121154514D01*
X157822885Y-121134399D01*
X157822689Y-121134394D01*
X157799413Y-121131543D01*
X157799222Y-121131501D01*
X157799219Y-121131500D01*
X157799216Y-121131500D01*
X157799212Y-121131500D01*
X157715840Y-121131500D01*
X157632527Y-121129243D01*
X157632526Y-121129243D01*
X157632345Y-121129278D01*
X157608977Y-121131500D01*
X150861008Y-121131500D01*
X150793969Y-121111815D01*
X150748214Y-121059011D01*
X150738270Y-120989853D01*
X150741233Y-120975407D01*
X150798710Y-120760894D01*
X150798712Y-120760884D01*
X150817775Y-120543000D01*
X150817775Y-120542999D01*
X150798712Y-120325115D01*
X150798710Y-120325105D01*
X150742105Y-120113849D01*
X150742101Y-120113840D01*
X150649668Y-119915615D01*
X150606123Y-119853428D01*
X150007449Y-120452101D01*
X150006673Y-120441735D01*
X149957113Y-120315459D01*
X149872535Y-120209401D01*
X149760453Y-120132984D01*
X149652700Y-120099747D01*
X150252572Y-119499875D01*
X150252571Y-119499873D01*
X150190391Y-119456335D01*
X149992159Y-119363898D01*
X149992150Y-119363894D01*
X149780894Y-119307289D01*
X149780884Y-119307287D01*
X149563001Y-119288225D01*
X149562999Y-119288225D01*
X149345115Y-119307287D01*
X149345105Y-119307289D01*
X149133849Y-119363894D01*
X149133840Y-119363898D01*
X148935614Y-119456332D01*
X148935612Y-119456333D01*
X148873428Y-119499875D01*
X148873427Y-119499875D01*
X149474768Y-120101215D01*
X149428862Y-120108135D01*
X149306643Y-120166993D01*
X149207202Y-120259260D01*
X149139375Y-120376740D01*
X149121500Y-120455053D01*
X148725233Y-120058786D01*
X148700532Y-120023510D01*
X148699639Y-120021596D01*
X148650102Y-119915362D01*
X148587350Y-119825742D01*
X148524599Y-119736124D01*
X148473992Y-119685517D01*
X148369877Y-119581402D01*
X148221887Y-119477778D01*
X148190638Y-119455897D01*
X148080499Y-119404539D01*
X147992330Y-119363425D01*
X147992326Y-119363424D01*
X147992322Y-119363422D01*
X147780977Y-119306793D01*
X147563002Y-119287723D01*
X147562998Y-119287723D01*
X147435151Y-119298908D01*
X147345023Y-119306793D01*
X147345020Y-119306793D01*
X147133677Y-119363422D01*
X147133668Y-119363426D01*
X146935363Y-119455897D01*
X146935357Y-119455901D01*
X146870057Y-119501623D01*
X146803851Y-119523950D01*
X146736084Y-119506938D01*
X146699670Y-119474359D01*
X146670546Y-119435454D01*
X146647709Y-119418358D01*
X146555335Y-119349206D01*
X146555328Y-119349202D01*
X146420482Y-119298908D01*
X146420483Y-119298908D01*
X146360883Y-119292501D01*
X146360881Y-119292500D01*
X146360873Y-119292500D01*
X146360864Y-119292500D01*
X144765129Y-119292500D01*
X144765123Y-119292501D01*
X144705516Y-119298908D01*
X144570671Y-119349202D01*
X144570664Y-119349206D01*
X144455455Y-119435452D01*
X144455452Y-119435455D01*
X144369206Y-119550664D01*
X144369202Y-119550671D01*
X144318908Y-119685517D01*
X144312501Y-119745116D01*
X144312500Y-119745135D01*
X144312500Y-121340870D01*
X139458500Y-121340870D01*
X139458500Y-120505519D01*
X139478185Y-120438480D01*
X139494814Y-120417842D01*
X139588472Y-120324185D01*
X139676478Y-120178606D01*
X139727086Y-120016196D01*
X139733500Y-119945616D01*
X139733500Y-119282384D01*
X139727086Y-119211804D01*
X139676478Y-119049394D01*
X139588472Y-118903815D01*
X139588470Y-118903813D01*
X139588469Y-118903811D01*
X139468188Y-118783530D01*
X139455672Y-118775964D01*
X139322606Y-118695522D01*
X139160196Y-118644914D01*
X139160194Y-118644913D01*
X139160192Y-118644913D01*
X139110778Y-118640423D01*
X139089616Y-118638500D01*
X138576384Y-118638500D01*
X138557145Y-118640248D01*
X138505807Y-118644913D01*
X138343393Y-118695522D01*
X138197811Y-118783530D01*
X138197810Y-118783531D01*
X138095681Y-118885661D01*
X138034358Y-118919146D01*
X137964666Y-118914162D01*
X137920319Y-118885661D01*
X137818188Y-118783530D01*
X137805672Y-118775964D01*
X137672606Y-118695522D01*
X137510196Y-118644914D01*
X137510194Y-118644913D01*
X137510192Y-118644913D01*
X137460778Y-118640423D01*
X137439616Y-118638500D01*
X136926384Y-118638500D01*
X136907145Y-118640248D01*
X136855807Y-118644913D01*
X136693393Y-118695522D01*
X136547811Y-118783529D01*
X136543388Y-118786995D01*
X136478475Y-118812841D01*
X136416483Y-118802660D01*
X136257008Y-118731656D01*
X136257003Y-118731654D01*
X136095629Y-118697354D01*
X136034147Y-118664162D01*
X136000371Y-118602999D01*
X136005023Y-118533284D01*
X136046628Y-118477152D01*
X136082404Y-118458358D01*
X136132334Y-118441814D01*
X136132343Y-118441808D01*
X136138882Y-118438760D01*
X136138908Y-118438816D01*
X136145690Y-118435532D01*
X136145663Y-118435478D01*
X136152106Y-118432240D01*
X136152117Y-118432237D01*
X136216283Y-118390034D01*
X136281656Y-118349712D01*
X136281662Y-118349705D01*
X136287325Y-118345229D01*
X136287363Y-118345277D01*
X136293200Y-118340522D01*
X136293161Y-118340475D01*
X136298696Y-118335830D01*
X136351385Y-118279982D01*
X139187549Y-115443818D01*
X139248872Y-115410333D01*
X139275230Y-115407499D01*
X140182502Y-115407499D01*
X140182508Y-115407499D01*
X140285297Y-115396999D01*
X140451834Y-115341814D01*
X140601156Y-115249712D01*
X140698638Y-115152229D01*
X140759957Y-115118747D01*
X140829649Y-115123731D01*
X140885583Y-115165602D01*
X140905392Y-115205317D01*
X140937954Y-115317395D01*
X140937955Y-115317396D01*
X141021617Y-115458862D01*
X141021623Y-115458870D01*
X141137829Y-115575076D01*
X141137833Y-115575079D01*
X141137835Y-115575081D01*
X141279302Y-115658744D01*
X141320924Y-115670836D01*
X141437126Y-115704597D01*
X141437129Y-115704597D01*
X141437131Y-115704598D01*
X141449422Y-115705565D01*
X141474004Y-115707500D01*
X141474006Y-115707500D01*
X141814970Y-115707500D01*
X141882009Y-115727185D01*
X141902651Y-115743819D01*
X142447469Y-116288637D01*
X142459249Y-116302268D01*
X142473589Y-116321530D01*
X142473591Y-116321532D01*
X142513609Y-116355110D01*
X142517599Y-116358766D01*
X142523420Y-116364587D01*
X142523422Y-116364590D01*
X142545221Y-116381825D01*
X142549144Y-116384927D01*
X142607986Y-116434302D01*
X142607994Y-116434306D01*
X142614024Y-116438273D01*
X142613990Y-116438323D01*
X142620337Y-116442366D01*
X142620369Y-116442316D01*
X142626518Y-116446108D01*
X142626520Y-116446109D01*
X142626523Y-116446111D01*
X142696130Y-116478569D01*
X142764767Y-116513040D01*
X142764776Y-116513042D01*
X142771555Y-116515510D01*
X142771534Y-116515567D01*
X142778651Y-116518040D01*
X142778670Y-116517984D01*
X142785530Y-116520257D01*
X142842967Y-116532116D01*
X142860732Y-116535784D01*
X142935479Y-116553500D01*
X142935488Y-116553500D01*
X142942652Y-116554338D01*
X142942645Y-116554397D01*
X142950146Y-116555163D01*
X142950152Y-116555104D01*
X142957340Y-116555733D01*
X142957343Y-116555732D01*
X142957344Y-116555733D01*
X143034098Y-116553500D01*
X145687563Y-116553500D01*
X145754602Y-116573185D01*
X145760448Y-116577182D01*
X145774165Y-116587148D01*
X145774170Y-116587151D01*
X145947092Y-116664142D01*
X145947097Y-116664144D01*
X146132254Y-116703500D01*
X146132255Y-116703500D01*
X146321544Y-116703500D01*
X146321546Y-116703500D01*
X146506703Y-116664144D01*
X146679630Y-116587151D01*
X146832771Y-116475888D01*
X146959433Y-116335216D01*
X147054079Y-116171284D01*
X147095069Y-116045129D01*
X147134506Y-115987455D01*
X147198865Y-115960256D01*
X147267711Y-115972171D01*
X147319187Y-116019415D01*
X147330931Y-116045130D01*
X147371918Y-116171278D01*
X147371921Y-116171284D01*
X147466567Y-116335216D01*
X147544651Y-116421937D01*
X147593229Y-116475888D01*
X147746365Y-116587148D01*
X147746370Y-116587151D01*
X147919292Y-116664142D01*
X147919297Y-116664144D01*
X148104454Y-116703500D01*
X148104455Y-116703500D01*
X148293744Y-116703500D01*
X148293746Y-116703500D01*
X148478903Y-116664144D01*
X148651830Y-116587151D01*
X148657593Y-116582964D01*
X148665552Y-116577182D01*
X148731358Y-116553702D01*
X148738437Y-116553500D01*
X149464095Y-116553500D01*
X149482065Y-116554809D01*
X149505823Y-116558289D01*
X149557868Y-116553735D01*
X149563270Y-116553500D01*
X149571504Y-116553500D01*
X149571509Y-116553500D01*
X149583127Y-116552141D01*
X149604076Y-116549693D01*
X149616828Y-116548577D01*
X149680597Y-116542999D01*
X149680605Y-116542996D01*
X149687666Y-116541539D01*
X149687678Y-116541598D01*
X149695043Y-116539965D01*
X149695029Y-116539906D01*
X149702046Y-116538241D01*
X149702055Y-116538241D01*
X149774223Y-116511974D01*
X149847134Y-116487814D01*
X149847143Y-116487807D01*
X149853682Y-116484760D01*
X149853708Y-116484816D01*
X149860490Y-116481532D01*
X149860463Y-116481478D01*
X149866906Y-116478240D01*
X149866917Y-116478237D01*
X149931083Y-116436034D01*
X149996456Y-116395712D01*
X149996462Y-116395705D01*
X150002125Y-116391229D01*
X150002162Y-116391277D01*
X150008004Y-116386518D01*
X150007964Y-116386471D01*
X150013491Y-116381832D01*
X150013496Y-116381830D01*
X150022145Y-116372663D01*
X150066187Y-116325980D01*
X150648348Y-115743819D01*
X150709671Y-115710334D01*
X150736029Y-115707500D01*
X151076996Y-115707500D01*
X151095431Y-115706049D01*
X151113869Y-115704598D01*
X151113871Y-115704597D01*
X151113873Y-115704597D01*
X151155491Y-115692505D01*
X151271698Y-115658744D01*
X151413165Y-115575081D01*
X151529381Y-115458865D01*
X151613044Y-115317398D01*
X151658898Y-115159569D01*
X151661567Y-115125656D01*
X151661800Y-115122696D01*
X151661800Y-114881500D01*
X151681485Y-114814461D01*
X151734289Y-114768706D01*
X151785800Y-114757500D01*
X152951996Y-114757500D01*
X152970431Y-114756049D01*
X152988869Y-114754598D01*
X152988871Y-114754597D01*
X152988873Y-114754597D01*
X153134033Y-114712424D01*
X153168628Y-114707500D01*
X153431337Y-114707500D01*
X153498376Y-114727185D01*
X153544131Y-114779989D01*
X153552589Y-114805541D01*
X153553499Y-114809792D01*
X153608685Y-114976331D01*
X153608687Y-114976336D01*
X153616173Y-114988472D01*
X153700788Y-115125656D01*
X153824844Y-115249712D01*
X153974166Y-115341814D01*
X154140703Y-115396999D01*
X154243491Y-115407500D01*
X156343508Y-115407499D01*
X156446297Y-115396999D01*
X156612834Y-115341814D01*
X156762156Y-115249712D01*
X156886212Y-115125656D01*
X156978314Y-114976334D01*
X157033499Y-114809797D01*
X157044000Y-114707009D01*
X157044000Y-114257000D01*
X157543501Y-114257000D01*
X157543501Y-114706986D01*
X157553994Y-114809697D01*
X157609141Y-114976119D01*
X157609143Y-114976124D01*
X157701184Y-115125345D01*
X157825154Y-115249315D01*
X157974375Y-115341356D01*
X157974380Y-115341358D01*
X158140802Y-115396505D01*
X158140809Y-115396506D01*
X158243519Y-115406999D01*
X159043499Y-115406999D01*
X159043500Y-115406998D01*
X159043500Y-114257000D01*
X159543500Y-114257000D01*
X159543500Y-115406999D01*
X160343472Y-115406999D01*
X160343486Y-115406998D01*
X160446197Y-115396505D01*
X160612619Y-115341358D01*
X160612624Y-115341356D01*
X160761845Y-115249315D01*
X160885815Y-115125345D01*
X160977856Y-114976124D01*
X160977858Y-114976119D01*
X161033005Y-114809697D01*
X161033006Y-114809690D01*
X161043499Y-114706986D01*
X161043500Y-114706973D01*
X161043500Y-114257000D01*
X159543500Y-114257000D01*
X159043500Y-114257000D01*
X157543501Y-114257000D01*
X157044000Y-114257000D01*
X157043999Y-113306992D01*
X157033499Y-113204203D01*
X156978314Y-113037666D01*
X156886212Y-112888344D01*
X156886208Y-112888340D01*
X156884201Y-112885086D01*
X156865761Y-112817694D01*
X156886683Y-112751030D01*
X156902049Y-112732318D01*
X156981551Y-112652816D01*
X157042873Y-112619334D01*
X157069230Y-112616500D01*
X157673977Y-112616500D01*
X157741016Y-112636185D01*
X157786771Y-112688989D01*
X157796715Y-112758147D01*
X157767690Y-112821703D01*
X157761658Y-112828181D01*
X157701184Y-112888654D01*
X157609143Y-113037875D01*
X157609141Y-113037880D01*
X157553994Y-113204302D01*
X157553993Y-113204309D01*
X157543500Y-113307013D01*
X157543500Y-113757000D01*
X161043499Y-113757000D01*
X161059885Y-113740614D01*
X161121208Y-113707129D01*
X161190900Y-113712113D01*
X161235245Y-113740612D01*
X161819404Y-114324771D01*
X163487267Y-115992634D01*
X163499048Y-116006266D01*
X163513390Y-116025530D01*
X163553420Y-116059119D01*
X163557392Y-116062759D01*
X163563224Y-116068591D01*
X163563227Y-116068594D01*
X163588947Y-116088931D01*
X163647788Y-116138304D01*
X163653818Y-116142270D01*
X163653785Y-116142319D01*
X163660143Y-116146369D01*
X163660175Y-116146319D01*
X163666320Y-116150109D01*
X163666323Y-116150111D01*
X163735936Y-116182572D01*
X163804567Y-116217040D01*
X163804572Y-116217041D01*
X163811361Y-116219513D01*
X163811340Y-116219570D01*
X163818455Y-116222043D01*
X163818475Y-116221986D01*
X163825330Y-116224258D01*
X163900558Y-116239790D01*
X163975279Y-116257500D01*
X163975289Y-116257500D01*
X163982452Y-116258338D01*
X163982444Y-116258397D01*
X163989945Y-116259164D01*
X163989951Y-116259105D01*
X163997140Y-116259734D01*
X163997144Y-116259733D01*
X163997145Y-116259734D01*
X164073918Y-116257500D01*
X166405441Y-116257500D01*
X166472480Y-116277185D01*
X166518235Y-116329989D01*
X166528179Y-116399147D01*
X166499154Y-116462703D01*
X166470538Y-116487039D01*
X166344654Y-116564684D01*
X166220684Y-116688654D01*
X166128643Y-116837875D01*
X166128641Y-116837880D01*
X166073494Y-117004302D01*
X166073493Y-117004309D01*
X166063000Y-117107013D01*
X166063000Y-117507000D01*
X167129314Y-117507000D01*
X167103507Y-117547156D01*
X167063000Y-117685111D01*
X167063000Y-117828889D01*
X167103507Y-117966844D01*
X167129314Y-118007000D01*
X166063001Y-118007000D01*
X166063001Y-118406986D01*
X166073494Y-118509697D01*
X166128641Y-118676119D01*
X166128643Y-118676124D01*
X166220684Y-118825345D01*
X166344654Y-118949315D01*
X166499484Y-119044815D01*
X166546208Y-119096763D01*
X166557431Y-119165726D01*
X166529587Y-119229808D01*
X166522069Y-119238035D01*
X166374501Y-119385603D01*
X166374501Y-119385604D01*
X166238967Y-119579165D01*
X166238965Y-119579169D01*
X166139098Y-119793335D01*
X166139094Y-119793344D01*
X166077938Y-120021586D01*
X166077936Y-120021596D01*
X166057341Y-120256999D01*
X166057341Y-120257000D01*
X166077936Y-120492403D01*
X166077938Y-120492413D01*
X166139094Y-120720655D01*
X166139096Y-120720659D01*
X166139097Y-120720663D01*
X166157853Y-120760884D01*
X166238964Y-120934828D01*
X166238965Y-120934830D01*
X166374505Y-121128402D01*
X166541597Y-121295494D01*
X166735169Y-121431034D01*
X166735171Y-121431035D01*
X166949337Y-121530903D01*
X166949343Y-121530904D01*
X166949344Y-121530905D01*
X166988356Y-121541358D01*
X167177592Y-121592063D01*
X167354034Y-121607500D01*
X167771966Y-121607500D01*
X167948408Y-121592063D01*
X168176663Y-121530903D01*
X168390829Y-121431035D01*
X168584401Y-121295495D01*
X168751495Y-121128401D01*
X168887035Y-120934830D01*
X168986903Y-120720663D01*
X168989959Y-120709260D01*
X169022503Y-120587798D01*
X169027423Y-120569437D01*
X169059514Y-120513852D01*
X170019638Y-119553727D01*
X170033267Y-119541950D01*
X170052530Y-119527610D01*
X170052532Y-119527606D01*
X170052534Y-119527606D01*
X170075802Y-119499875D01*
X170086113Y-119487585D01*
X170089767Y-119483599D01*
X170095589Y-119477778D01*
X170115928Y-119452054D01*
X170129859Y-119435452D01*
X170165302Y-119393214D01*
X170165304Y-119393209D01*
X170169272Y-119387179D01*
X170169323Y-119387212D01*
X170173369Y-119380860D01*
X170173317Y-119380828D01*
X170177109Y-119374679D01*
X170177111Y-119374677D01*
X170209569Y-119305069D01*
X170244040Y-119236433D01*
X170244043Y-119236417D01*
X170246510Y-119229644D01*
X170246568Y-119229665D01*
X170249043Y-119222546D01*
X170248985Y-119222527D01*
X170251256Y-119215672D01*
X170266784Y-119140467D01*
X170274598Y-119107500D01*
X170284500Y-119065721D01*
X170284500Y-119065720D01*
X170285339Y-119058548D01*
X170285397Y-119058554D01*
X170286164Y-119051056D01*
X170286104Y-119051051D01*
X170286733Y-119043860D01*
X170284500Y-118967103D01*
X170284500Y-116755705D01*
X170285809Y-116737735D01*
X170286129Y-116735547D01*
X170289289Y-116713977D01*
X170288372Y-116703500D01*
X170284736Y-116661930D01*
X170284500Y-116656524D01*
X170284500Y-116648297D01*
X170284500Y-116648291D01*
X170280693Y-116615724D01*
X170273999Y-116539201D01*
X170272539Y-116532129D01*
X170272597Y-116532116D01*
X170270965Y-116524757D01*
X170270906Y-116524772D01*
X170269241Y-116517751D01*
X170269241Y-116517745D01*
X170254982Y-116478569D01*
X170242974Y-116445575D01*
X170218813Y-116372663D01*
X170215764Y-116366124D01*
X170215817Y-116366099D01*
X170212531Y-116359311D01*
X170212479Y-116359338D01*
X170209236Y-116352882D01*
X170167034Y-116288716D01*
X170126714Y-116223347D01*
X170122234Y-116217681D01*
X170122280Y-116217643D01*
X170117519Y-116211799D01*
X170117474Y-116211838D01*
X170112834Y-116206308D01*
X170056982Y-116153613D01*
X168924729Y-115021361D01*
X168912949Y-115007730D01*
X168905482Y-114997701D01*
X168898612Y-114988472D01*
X168884149Y-114976336D01*
X168858587Y-114954886D01*
X168854612Y-114951244D01*
X168851690Y-114948322D01*
X168848780Y-114945411D01*
X168823040Y-114925059D01*
X168764214Y-114875698D01*
X168764213Y-114875697D01*
X168764209Y-114875694D01*
X168758180Y-114871729D01*
X168758212Y-114871680D01*
X168751853Y-114867628D01*
X168751822Y-114867679D01*
X168745680Y-114863891D01*
X168745678Y-114863890D01*
X168745677Y-114863889D01*
X168706474Y-114845608D01*
X168676058Y-114831424D01*
X168641894Y-114814267D01*
X168607433Y-114796960D01*
X168607431Y-114796959D01*
X168607430Y-114796959D01*
X168600645Y-114794489D01*
X168600665Y-114794433D01*
X168593549Y-114791959D01*
X168593531Y-114792015D01*
X168586671Y-114789742D01*
X168558841Y-114783996D01*
X168511434Y-114774207D01*
X168461143Y-114762288D01*
X168436719Y-114756499D01*
X168429547Y-114755661D01*
X168429553Y-114755601D01*
X168422055Y-114754835D01*
X168422050Y-114754895D01*
X168414860Y-114754265D01*
X168338083Y-114756500D01*
X164425229Y-114756500D01*
X164358190Y-114736815D01*
X164337548Y-114720181D01*
X161124368Y-111507000D01*
X164457551Y-111507000D01*
X164477317Y-111758151D01*
X164536126Y-112003110D01*
X164632533Y-112235859D01*
X164764160Y-112450653D01*
X164764161Y-112450656D01*
X164819604Y-112515571D01*
X164927776Y-112642224D01*
X165059155Y-112754432D01*
X165119343Y-112805838D01*
X165119346Y-112805839D01*
X165334140Y-112937466D01*
X165563574Y-113032500D01*
X165566889Y-113033873D01*
X165811852Y-113092683D01*
X165967950Y-113104968D01*
X166000116Y-113107500D01*
X166000118Y-113107500D01*
X166125884Y-113107500D01*
X166155518Y-113105167D01*
X166314148Y-113092683D01*
X166559111Y-113033873D01*
X166791859Y-112937466D01*
X167006659Y-112805836D01*
X167198224Y-112642224D01*
X167361836Y-112450659D01*
X167493466Y-112235859D01*
X167589873Y-112003111D01*
X167648683Y-111758148D01*
X167668449Y-111507000D01*
X167648683Y-111255852D01*
X167589873Y-111010889D01*
X167560142Y-110939111D01*
X167493466Y-110778140D01*
X167361839Y-110563346D01*
X167361838Y-110563343D01*
X167314142Y-110507499D01*
X167198224Y-110371776D01*
X167054856Y-110249328D01*
X167006656Y-110208161D01*
X167006653Y-110208160D01*
X166791859Y-110076533D01*
X166559110Y-109980126D01*
X166314150Y-109921317D01*
X166125884Y-109906500D01*
X166125882Y-109906500D01*
X166000118Y-109906500D01*
X166000116Y-109906500D01*
X165811849Y-109921317D01*
X165566889Y-109980126D01*
X165334140Y-110076533D01*
X165119346Y-110208160D01*
X165119343Y-110208161D01*
X164927776Y-110371776D01*
X164764161Y-110563343D01*
X164764160Y-110563346D01*
X164632533Y-110778140D01*
X164536126Y-111010889D01*
X164477317Y-111255848D01*
X164457551Y-111507000D01*
X161124368Y-111507000D01*
X160997729Y-111380361D01*
X160985949Y-111366730D01*
X160973994Y-111350672D01*
X160971612Y-111347472D01*
X160971364Y-111347264D01*
X160931587Y-111313886D01*
X160927612Y-111310244D01*
X160924690Y-111307322D01*
X160921780Y-111304411D01*
X160896040Y-111284059D01*
X160888484Y-111277719D01*
X160837214Y-111234698D01*
X160837213Y-111234697D01*
X160837209Y-111234694D01*
X160831180Y-111230729D01*
X160831212Y-111230680D01*
X160824853Y-111226628D01*
X160824822Y-111226679D01*
X160818680Y-111222891D01*
X160818678Y-111222890D01*
X160818677Y-111222889D01*
X160767789Y-111199159D01*
X160749058Y-111190424D01*
X160712849Y-111172240D01*
X160680433Y-111155960D01*
X160680431Y-111155959D01*
X160680430Y-111155959D01*
X160673645Y-111153489D01*
X160673665Y-111153433D01*
X160666549Y-111150959D01*
X160666531Y-111151015D01*
X160659671Y-111148742D01*
X160628785Y-111142365D01*
X160584434Y-111133207D01*
X160535472Y-111121603D01*
X160509719Y-111115499D01*
X160502547Y-111114661D01*
X160502553Y-111114601D01*
X160495055Y-111113835D01*
X160495050Y-111113895D01*
X160487860Y-111113265D01*
X160411083Y-111115500D01*
X156770705Y-111115500D01*
X156752735Y-111114191D01*
X156728972Y-111110710D01*
X156684512Y-111114601D01*
X156676931Y-111115264D01*
X156671530Y-111115500D01*
X156663289Y-111115500D01*
X156641579Y-111118037D01*
X156630724Y-111119306D01*
X156615419Y-111120645D01*
X156554199Y-111126001D01*
X156547132Y-111127460D01*
X156547120Y-111127404D01*
X156539763Y-111129035D01*
X156539777Y-111129092D01*
X156532743Y-111130759D01*
X156460575Y-111157025D01*
X156387675Y-111181181D01*
X156381126Y-111184236D01*
X156381101Y-111184183D01*
X156374308Y-111187471D01*
X156374334Y-111187523D01*
X156367880Y-111190764D01*
X156303708Y-111232971D01*
X156238347Y-111273285D01*
X156232683Y-111277765D01*
X156232647Y-111277719D01*
X156226798Y-111282484D01*
X156226835Y-111282528D01*
X156221310Y-111287164D01*
X156168598Y-111343034D01*
X154941449Y-112570181D01*
X154880126Y-112603666D01*
X154853768Y-112606500D01*
X154243498Y-112606500D01*
X154243480Y-112606501D01*
X154140703Y-112617000D01*
X154140700Y-112617001D01*
X153974168Y-112672185D01*
X153974163Y-112672187D01*
X153824842Y-112764289D01*
X153700789Y-112888342D01*
X153608687Y-113037663D01*
X153608685Y-113037668D01*
X153580905Y-113121504D01*
X153541132Y-113178949D01*
X153476616Y-113205772D01*
X153463199Y-113206500D01*
X153168628Y-113206500D01*
X153134033Y-113201576D01*
X152988873Y-113159402D01*
X152988867Y-113159401D01*
X152951996Y-113156500D01*
X152951994Y-113156500D01*
X151785800Y-113156500D01*
X151718761Y-113136815D01*
X151673006Y-113084011D01*
X151661800Y-113032500D01*
X151661800Y-112791304D01*
X151658898Y-112754432D01*
X151658897Y-112754426D01*
X151619113Y-112617493D01*
X151613044Y-112596602D01*
X151529381Y-112455135D01*
X151529379Y-112455133D01*
X151529376Y-112455129D01*
X151413170Y-112338923D01*
X151413162Y-112338917D01*
X151271696Y-112255255D01*
X151271694Y-112255254D01*
X151269862Y-112254722D01*
X151268596Y-112253913D01*
X151264535Y-112252156D01*
X151264818Y-112251500D01*
X151210978Y-112217113D01*
X151181774Y-112153639D01*
X151191523Y-112084453D01*
X151197067Y-112073661D01*
X151250979Y-111980284D01*
X151309474Y-111800256D01*
X151329260Y-111612000D01*
X151309474Y-111423744D01*
X151250979Y-111243716D01*
X151156333Y-111079784D01*
X151029671Y-110939112D01*
X151029670Y-110939111D01*
X150876534Y-110827851D01*
X150876529Y-110827848D01*
X150703607Y-110750857D01*
X150703602Y-110750855D01*
X150557801Y-110719865D01*
X150518446Y-110711500D01*
X150329154Y-110711500D01*
X150296697Y-110718398D01*
X150143997Y-110750855D01*
X150143992Y-110750857D01*
X149971070Y-110827848D01*
X149971065Y-110827851D01*
X149817929Y-110939111D01*
X149691266Y-111079785D01*
X149596621Y-111243715D01*
X149596618Y-111243722D01*
X149538127Y-111423740D01*
X149538126Y-111423744D01*
X149518340Y-111612000D01*
X149538126Y-111800256D01*
X149538127Y-111800259D01*
X149596618Y-111980277D01*
X149596621Y-111980284D01*
X149650524Y-112073647D01*
X149666997Y-112141548D01*
X149644144Y-112207574D01*
X149589223Y-112250765D01*
X149577740Y-112254721D01*
X149575908Y-112255253D01*
X149575903Y-112255255D01*
X149552270Y-112269232D01*
X149489149Y-112286500D01*
X149090620Y-112286500D01*
X149023581Y-112266815D01*
X149002939Y-112250181D01*
X148909288Y-112156530D01*
X148888918Y-112144216D01*
X148763706Y-112068522D01*
X148601296Y-112017914D01*
X148601294Y-112017913D01*
X148601292Y-112017913D01*
X148551878Y-112013423D01*
X148530716Y-112011500D01*
X147867484Y-112011500D01*
X147848245Y-112013248D01*
X147796907Y-112017913D01*
X147634493Y-112068522D01*
X147488911Y-112156530D01*
X147368632Y-112276809D01*
X147368628Y-112276814D01*
X147368628Y-112276815D01*
X147319115Y-112358718D01*
X147267589Y-112405904D01*
X147198729Y-112417742D01*
X147134401Y-112390473D01*
X147106885Y-112358719D01*
X147057372Y-112276815D01*
X147057368Y-112276811D01*
X147057367Y-112276809D01*
X146937088Y-112156530D01*
X146916718Y-112144216D01*
X146791506Y-112068522D01*
X146629096Y-112017914D01*
X146629094Y-112017913D01*
X146629092Y-112017913D01*
X146579678Y-112013423D01*
X146558516Y-112011500D01*
X146558513Y-112011500D01*
X146262353Y-112011500D01*
X146195314Y-111991815D01*
X146174672Y-111975181D01*
X145424819Y-111225328D01*
X145391334Y-111164005D01*
X145388500Y-111137647D01*
X145388500Y-103389466D01*
X145408185Y-103322427D01*
X145460989Y-103276672D01*
X145530147Y-103266728D01*
X145538276Y-103268175D01*
X145690354Y-103300500D01*
X145690355Y-103300500D01*
X145879644Y-103300500D01*
X145879646Y-103300500D01*
X146064803Y-103261144D01*
X146237730Y-103184151D01*
X146257698Y-103169643D01*
X146323501Y-103146162D01*
X146391556Y-103161984D01*
X146418266Y-103182278D01*
X146458955Y-103222967D01*
X146458959Y-103222970D01*
X146603294Y-103311998D01*
X146603297Y-103311999D01*
X146603303Y-103312003D01*
X146764292Y-103365349D01*
X146863655Y-103375500D01*
X147410344Y-103375499D01*
X147410352Y-103375498D01*
X147410355Y-103375498D01*
X147488856Y-103367479D01*
X147509708Y-103365349D01*
X147670697Y-103312003D01*
X147815044Y-103222968D01*
X147824319Y-103213693D01*
X147885642Y-103180208D01*
X147955334Y-103185192D01*
X147999681Y-103213693D01*
X148008955Y-103222967D01*
X148008959Y-103222970D01*
X148153294Y-103311998D01*
X148153297Y-103311999D01*
X148153303Y-103312003D01*
X148265983Y-103349341D01*
X148320719Y-103367479D01*
X148319991Y-103369673D01*
X148371951Y-103397805D01*
X148405654Y-103459009D01*
X148400917Y-103528718D01*
X148391973Y-103547792D01*
X148386821Y-103556716D01*
X148386818Y-103556722D01*
X148328327Y-103736740D01*
X148328326Y-103736744D01*
X148308540Y-103925000D01*
X148328326Y-104113256D01*
X148328327Y-104113259D01*
X148386818Y-104293277D01*
X148386821Y-104293284D01*
X148481467Y-104457216D01*
X148592024Y-104580002D01*
X148608129Y-104597888D01*
X148761265Y-104709148D01*
X148761270Y-104709151D01*
X148934192Y-104786142D01*
X148934197Y-104786144D01*
X149119354Y-104825500D01*
X149119355Y-104825500D01*
X149308644Y-104825500D01*
X149308646Y-104825500D01*
X149493803Y-104786144D01*
X149666730Y-104709151D01*
X149710447Y-104677388D01*
X149776251Y-104653908D01*
X149844305Y-104669733D01*
X149871013Y-104690025D01*
X149903955Y-104722967D01*
X149903959Y-104722970D01*
X150048294Y-104811998D01*
X150048297Y-104811999D01*
X150048303Y-104812003D01*
X150209292Y-104865349D01*
X150308655Y-104875500D01*
X150905344Y-104875499D01*
X150922157Y-104873781D01*
X150990848Y-104886549D01*
X151035076Y-104924251D01*
X151040406Y-104931587D01*
X151076308Y-104961288D01*
X151080630Y-104965221D01*
X151380194Y-105264784D01*
X151390017Y-105277045D01*
X151390239Y-105276863D01*
X151395212Y-105282875D01*
X151445636Y-105330227D01*
X151466523Y-105351115D01*
X151466527Y-105351118D01*
X151466529Y-105351120D01*
X151472011Y-105355373D01*
X151476443Y-105359157D01*
X151510418Y-105391062D01*
X151510422Y-105391064D01*
X151516730Y-105395647D01*
X151515973Y-105396688D01*
X151559596Y-105440563D01*
X151574251Y-105508879D01*
X151549645Y-105574273D01*
X151493591Y-105615982D01*
X151490857Y-105616957D01*
X151458194Y-105628170D01*
X151458183Y-105628175D01*
X151373062Y-105674240D01*
X151368458Y-105676491D01*
X151347854Y-105685529D01*
X151347845Y-105685534D01*
X151329023Y-105697831D01*
X151324621Y-105700455D01*
X151239492Y-105746524D01*
X151239489Y-105746527D01*
X151163106Y-105805977D01*
X151158938Y-105808954D01*
X151140099Y-105821263D01*
X151123542Y-105836503D01*
X151119635Y-105839812D01*
X151043255Y-105899262D01*
X150977697Y-105970476D01*
X150974075Y-105974098D01*
X150957529Y-105989330D01*
X150957514Y-105989346D01*
X150943699Y-106007094D01*
X150940390Y-106011001D01*
X150874836Y-106082215D01*
X150821901Y-106163236D01*
X150818925Y-106167404D01*
X150805099Y-106185170D01*
X150805094Y-106185177D01*
X150794386Y-106204964D01*
X150791763Y-106209365D01*
X150738828Y-106290390D01*
X150699953Y-106379015D01*
X150697704Y-106383615D01*
X150686985Y-106403424D01*
X150679676Y-106424714D01*
X150677814Y-106429487D01*
X150666027Y-106456360D01*
X150638939Y-106518116D01*
X150638936Y-106518122D01*
X150615177Y-106611942D01*
X150613716Y-106616850D01*
X150606408Y-106638140D01*
X150602705Y-106660327D01*
X150601654Y-106665342D01*
X150577891Y-106759178D01*
X150577891Y-106759182D01*
X150569898Y-106855634D01*
X150569265Y-106860714D01*
X150565562Y-106882919D01*
X150565562Y-106905419D01*
X150565350Y-106910535D01*
X150557357Y-107007000D01*
X150565029Y-107099589D01*
X150565350Y-107103456D01*
X150565562Y-107108579D01*
X150565562Y-107131081D01*
X150569265Y-107153282D01*
X150569899Y-107158365D01*
X150577891Y-107254816D01*
X150577891Y-107254818D01*
X150601654Y-107348657D01*
X150602705Y-107353672D01*
X150606407Y-107375854D01*
X150606409Y-107375862D01*
X150613714Y-107397141D01*
X150615176Y-107402053D01*
X150638935Y-107495874D01*
X150638939Y-107495887D01*
X150677815Y-107584515D01*
X150679677Y-107589286D01*
X150686986Y-107610576D01*
X150686988Y-107610579D01*
X150697698Y-107630371D01*
X150699948Y-107634975D01*
X150738827Y-107723608D01*
X150791764Y-107804634D01*
X150794388Y-107809038D01*
X150805095Y-107828823D01*
X150805098Y-107828828D01*
X150818926Y-107846595D01*
X150821903Y-107850765D01*
X150874834Y-107931782D01*
X150874838Y-107931787D01*
X150940393Y-108003000D01*
X150943706Y-108006911D01*
X150957522Y-108024662D01*
X150974080Y-108039905D01*
X150977694Y-108043519D01*
X151043256Y-108114738D01*
X151119651Y-108174199D01*
X151123547Y-108177499D01*
X151129913Y-108183360D01*
X151140099Y-108192737D01*
X151158936Y-108205044D01*
X151163102Y-108208018D01*
X151239491Y-108267474D01*
X151324640Y-108313554D01*
X151329001Y-108316153D01*
X151347855Y-108328471D01*
X151368494Y-108337524D01*
X151373033Y-108339743D01*
X151458190Y-108385828D01*
X151549754Y-108417262D01*
X151554489Y-108419109D01*
X151575116Y-108428157D01*
X151596932Y-108433681D01*
X151601816Y-108435135D01*
X151673089Y-108459603D01*
X151693385Y-108466571D01*
X151727189Y-108472211D01*
X151788866Y-108482503D01*
X151793879Y-108483555D01*
X151815676Y-108489075D01*
X151815678Y-108489075D01*
X151815685Y-108489077D01*
X151838125Y-108490936D01*
X151843169Y-108491564D01*
X151938665Y-108507500D01*
X151938666Y-108507500D01*
X152035448Y-108507500D01*
X152040561Y-108507711D01*
X152056415Y-108509025D01*
X152062998Y-108509571D01*
X152063000Y-108509571D01*
X152063002Y-108509571D01*
X152069584Y-108509025D01*
X152085438Y-108507711D01*
X152090552Y-108507500D01*
X152187330Y-108507500D01*
X152187335Y-108507500D01*
X152282851Y-108491561D01*
X152287862Y-108490937D01*
X152310315Y-108489077D01*
X152332153Y-108483546D01*
X152337105Y-108482508D01*
X152432614Y-108466571D01*
X152524198Y-108435129D01*
X152529042Y-108433688D01*
X152550884Y-108428157D01*
X152571500Y-108419113D01*
X152576234Y-108417265D01*
X152667810Y-108385828D01*
X152752975Y-108339738D01*
X152757505Y-108337524D01*
X152778145Y-108328471D01*
X152797008Y-108316146D01*
X152801337Y-108313566D01*
X152886509Y-108267474D01*
X152962931Y-108207992D01*
X152967018Y-108205073D01*
X152985898Y-108192739D01*
X153002466Y-108177487D01*
X153006341Y-108174204D01*
X153082744Y-108114738D01*
X153148313Y-108043510D01*
X153151897Y-108039925D01*
X153168477Y-108024663D01*
X153182320Y-108006876D01*
X153185581Y-108003026D01*
X153251164Y-107931785D01*
X153304127Y-107850718D01*
X153307053Y-107846620D01*
X153320902Y-107828828D01*
X153331623Y-107809016D01*
X153334233Y-107804636D01*
X153387173Y-107723607D01*
X153426061Y-107634950D01*
X153428299Y-107630375D01*
X153428301Y-107630371D01*
X153439014Y-107610576D01*
X153446336Y-107589246D01*
X153448162Y-107584564D01*
X153487063Y-107495881D01*
X153510826Y-107402041D01*
X153512278Y-107397162D01*
X153519592Y-107375859D01*
X153523296Y-107353658D01*
X153524340Y-107348677D01*
X153548108Y-107254821D01*
X153556104Y-107158321D01*
X153556733Y-107153282D01*
X153560438Y-107131081D01*
X153561088Y-107099589D01*
X153561283Y-107095812D01*
X153568643Y-107007000D01*
X153561284Y-106918190D01*
X153561088Y-106914407D01*
X153560438Y-106882919D01*
X153556733Y-106860714D01*
X153556103Y-106855666D01*
X153548108Y-106759179D01*
X153524341Y-106665327D01*
X153523295Y-106660334D01*
X153519592Y-106638143D01*
X153519591Y-106638140D01*
X153512283Y-106616850D01*
X153510825Y-106611952D01*
X153487062Y-106518116D01*
X153476493Y-106494022D01*
X153448174Y-106429461D01*
X153446329Y-106424734D01*
X153439014Y-106403424D01*
X153428298Y-106383622D01*
X153426052Y-106379029D01*
X153387173Y-106290393D01*
X153387173Y-106290392D01*
X153334231Y-106209358D01*
X153331607Y-106204954D01*
X153320904Y-106185177D01*
X153320902Y-106185172D01*
X153307080Y-106167413D01*
X153304102Y-106163242D01*
X153251166Y-106082218D01*
X153251165Y-106082217D01*
X153251164Y-106082215D01*
X153206621Y-106033828D01*
X153185606Y-106010999D01*
X153182295Y-106007090D01*
X153168477Y-105989337D01*
X153168473Y-105989332D01*
X153151919Y-105974093D01*
X153148301Y-105970476D01*
X153082744Y-105899262D01*
X153006352Y-105839804D01*
X153002444Y-105836493D01*
X152985898Y-105821261D01*
X152967063Y-105808955D01*
X152962897Y-105805981D01*
X152886509Y-105746526D01*
X152886508Y-105746525D01*
X152886505Y-105746523D01*
X152886503Y-105746522D01*
X152873628Y-105739555D01*
X152824037Y-105690336D01*
X152808929Y-105622119D01*
X152833099Y-105556563D01*
X152888875Y-105514482D01*
X152932645Y-105506500D01*
X156126548Y-105506500D01*
X156193587Y-105526185D01*
X156214229Y-105542819D01*
X157776181Y-107104771D01*
X157809666Y-107166094D01*
X157812500Y-107192452D01*
X157812500Y-110054870D01*
X157812501Y-110054876D01*
X157818908Y-110114483D01*
X157869202Y-110249328D01*
X157869206Y-110249335D01*
X157955452Y-110364544D01*
X157955455Y-110364547D01*
X158070664Y-110450793D01*
X158070671Y-110450797D01*
X158205517Y-110501091D01*
X158205516Y-110501091D01*
X158212444Y-110501835D01*
X158265127Y-110507500D01*
X160360872Y-110507499D01*
X160420483Y-110501091D01*
X160555331Y-110450796D01*
X160670546Y-110364546D01*
X160756796Y-110249331D01*
X160807091Y-110114483D01*
X160813500Y-110054873D01*
X160813499Y-105459128D01*
X160807091Y-105399517D01*
X160803937Y-105391062D01*
X160756797Y-105264671D01*
X160756793Y-105264664D01*
X160670547Y-105149455D01*
X160670544Y-105149452D01*
X160555335Y-105063206D01*
X160555328Y-105063202D01*
X160420482Y-105012908D01*
X160420483Y-105012908D01*
X160360883Y-105006501D01*
X160360881Y-105006500D01*
X160360873Y-105006500D01*
X160360864Y-105006500D01*
X158265129Y-105006500D01*
X158265123Y-105006501D01*
X158205516Y-105012908D01*
X158070671Y-105063202D01*
X158070664Y-105063206D01*
X157955455Y-105149452D01*
X157884775Y-105243868D01*
X157828841Y-105285738D01*
X157759149Y-105290722D01*
X157697828Y-105257237D01*
X156937803Y-104497212D01*
X156927980Y-104484950D01*
X156927759Y-104485134D01*
X156922786Y-104479123D01*
X156872364Y-104431773D01*
X156861919Y-104421328D01*
X156851475Y-104410883D01*
X156845986Y-104406625D01*
X156841561Y-104402847D01*
X156807582Y-104370938D01*
X156807580Y-104370936D01*
X156807577Y-104370935D01*
X156790029Y-104361288D01*
X156773763Y-104350604D01*
X156757936Y-104338327D01*
X156757935Y-104338326D01*
X156757933Y-104338325D01*
X156715168Y-104319818D01*
X156709922Y-104317248D01*
X156669093Y-104294803D01*
X156669092Y-104294802D01*
X156649693Y-104289822D01*
X156631281Y-104283518D01*
X156612898Y-104275562D01*
X156612892Y-104275560D01*
X156566874Y-104268272D01*
X156561152Y-104267087D01*
X156516021Y-104255500D01*
X156516019Y-104255500D01*
X156495984Y-104255500D01*
X156476586Y-104253973D01*
X156469162Y-104252797D01*
X156456805Y-104250840D01*
X156456804Y-104250840D01*
X156410416Y-104255225D01*
X156404578Y-104255500D01*
X154667439Y-104255500D01*
X154600400Y-104235815D01*
X154554645Y-104183011D01*
X154544118Y-104118539D01*
X154544672Y-104113259D01*
X154544674Y-104113256D01*
X154564460Y-103925000D01*
X154544674Y-103736744D01*
X154486179Y-103556716D01*
X154391533Y-103392784D01*
X154264871Y-103252112D01*
X154227304Y-103224818D01*
X154184638Y-103169488D01*
X154178659Y-103099875D01*
X154211264Y-103038080D01*
X154272103Y-103003723D01*
X154300189Y-103000500D01*
X156112257Y-103000500D01*
X156127877Y-103002224D01*
X156127904Y-103001939D01*
X156135660Y-103002671D01*
X156135667Y-103002673D01*
X156204814Y-103000500D01*
X156234350Y-103000500D01*
X156241228Y-102999630D01*
X156247041Y-102999172D01*
X156293627Y-102997709D01*
X156312869Y-102992117D01*
X156331912Y-102988174D01*
X156351792Y-102985664D01*
X156395122Y-102968507D01*
X156400646Y-102966617D01*
X156404396Y-102965527D01*
X156445390Y-102953618D01*
X156462629Y-102943422D01*
X156480103Y-102934862D01*
X156498727Y-102927488D01*
X156498727Y-102927487D01*
X156498732Y-102927486D01*
X156536449Y-102900082D01*
X156541305Y-102896892D01*
X156581420Y-102873170D01*
X156595589Y-102858999D01*
X156610379Y-102846368D01*
X156626587Y-102834594D01*
X156656299Y-102798676D01*
X156660212Y-102794376D01*
X157697829Y-101756759D01*
X157759150Y-101723276D01*
X157828842Y-101728260D01*
X157884774Y-101770131D01*
X157955452Y-101864544D01*
X157955455Y-101864547D01*
X158070664Y-101950793D01*
X158070671Y-101950797D01*
X158205517Y-102001091D01*
X158205516Y-102001091D01*
X158212444Y-102001835D01*
X158265127Y-102007500D01*
X160360872Y-102007499D01*
X160420483Y-102001091D01*
X160555331Y-101950796D01*
X160670546Y-101864546D01*
X160756796Y-101749331D01*
X160807091Y-101614483D01*
X160813500Y-101554873D01*
X160813499Y-96959128D01*
X160807091Y-96899517D01*
X160805941Y-96896435D01*
X160756797Y-96764671D01*
X160756793Y-96764664D01*
X160670547Y-96649455D01*
X160670544Y-96649452D01*
X160555335Y-96563206D01*
X160555328Y-96563202D01*
X160420482Y-96512908D01*
X160420483Y-96512908D01*
X160360883Y-96506501D01*
X160360881Y-96506500D01*
X160360873Y-96506500D01*
X160360864Y-96506500D01*
X158265129Y-96506500D01*
X158265123Y-96506501D01*
X158205516Y-96512908D01*
X158070671Y-96563202D01*
X158070664Y-96563206D01*
X157955456Y-96649451D01*
X157905974Y-96715550D01*
X157850039Y-96757420D01*
X157780347Y-96762403D01*
X157719025Y-96728916D01*
X157685541Y-96667593D01*
X157686605Y-96610395D01*
X157688500Y-96603019D01*
X157688500Y-96582983D01*
X157690027Y-96563582D01*
X157690087Y-96563204D01*
X157693160Y-96543804D01*
X157688775Y-96497415D01*
X157688500Y-96491577D01*
X157688500Y-94931499D01*
X157708185Y-94864460D01*
X157760989Y-94818705D01*
X157807611Y-94808562D01*
X157807576Y-94807900D01*
X157807571Y-94807854D01*
X157807573Y-94807853D01*
X157807564Y-94807676D01*
X157810857Y-94807499D01*
X157810872Y-94807499D01*
X157870483Y-94801091D01*
X158005331Y-94750796D01*
X158120546Y-94664546D01*
X158206796Y-94549331D01*
X158257091Y-94414483D01*
X158263500Y-94354873D01*
X158263499Y-93507000D01*
X159103540Y-93507000D01*
X159123326Y-93695256D01*
X159123327Y-93695259D01*
X159181818Y-93875277D01*
X159181821Y-93875284D01*
X159276467Y-94039216D01*
X159395008Y-94170869D01*
X159403129Y-94179888D01*
X159556265Y-94291148D01*
X159556270Y-94291151D01*
X159729192Y-94368142D01*
X159729197Y-94368144D01*
X159914354Y-94407500D01*
X159914355Y-94407500D01*
X160103644Y-94407500D01*
X160103646Y-94407500D01*
X160242418Y-94378003D01*
X160312082Y-94383319D01*
X160367815Y-94425456D01*
X160384378Y-94455959D01*
X160419203Y-94549330D01*
X160419206Y-94549335D01*
X160505452Y-94664544D01*
X160505455Y-94664547D01*
X160620664Y-94750793D01*
X160620671Y-94750797D01*
X160755517Y-94801091D01*
X160755516Y-94801091D01*
X160762444Y-94801835D01*
X160815127Y-94807500D01*
X162310872Y-94807499D01*
X162370483Y-94801091D01*
X162505331Y-94750796D01*
X162620546Y-94664546D01*
X162706796Y-94549331D01*
X162757091Y-94414483D01*
X162763500Y-94354873D01*
X162763499Y-92659128D01*
X162757091Y-92599517D01*
X162756056Y-92596743D01*
X162706797Y-92464671D01*
X162706793Y-92464664D01*
X162620547Y-92349455D01*
X162620544Y-92349452D01*
X162505335Y-92263206D01*
X162505328Y-92263202D01*
X162370482Y-92212908D01*
X162370483Y-92212908D01*
X162310883Y-92206501D01*
X162310881Y-92206500D01*
X162310873Y-92206500D01*
X162310864Y-92206500D01*
X160815129Y-92206500D01*
X160815123Y-92206501D01*
X160755516Y-92212908D01*
X160620671Y-92263202D01*
X160620664Y-92263206D01*
X160505455Y-92349452D01*
X160505452Y-92349455D01*
X160419206Y-92464664D01*
X160419203Y-92464669D01*
X160384378Y-92558040D01*
X160342506Y-92613973D01*
X160277042Y-92638390D01*
X160242415Y-92635996D01*
X160236049Y-92634643D01*
X160103646Y-92606500D01*
X159914354Y-92606500D01*
X159881897Y-92613398D01*
X159729197Y-92645855D01*
X159729192Y-92645857D01*
X159556270Y-92722848D01*
X159556265Y-92722851D01*
X159403129Y-92834111D01*
X159276466Y-92974785D01*
X159181821Y-93138715D01*
X159181818Y-93138722D01*
X159123327Y-93318740D01*
X159123326Y-93318744D01*
X159103540Y-93507000D01*
X158263499Y-93507000D01*
X158263499Y-92659128D01*
X158257091Y-92599517D01*
X158256056Y-92596743D01*
X158206797Y-92464671D01*
X158206793Y-92464664D01*
X158120547Y-92349455D01*
X158120544Y-92349452D01*
X158005335Y-92263206D01*
X158005328Y-92263202D01*
X157870482Y-92212908D01*
X157870483Y-92212908D01*
X157810883Y-92206501D01*
X157810881Y-92206500D01*
X157810873Y-92206500D01*
X157810864Y-92206500D01*
X157807548Y-92206322D01*
X157807615Y-92205065D01*
X157745461Y-92186815D01*
X157699706Y-92134011D01*
X157688500Y-92082500D01*
X157688500Y-86931499D01*
X157708185Y-86864460D01*
X157760989Y-86818705D01*
X157807611Y-86808562D01*
X157807576Y-86807900D01*
X157807571Y-86807854D01*
X157807573Y-86807853D01*
X157807564Y-86807676D01*
X157810857Y-86807499D01*
X157810872Y-86807499D01*
X157870483Y-86801091D01*
X158005331Y-86750796D01*
X158120546Y-86664546D01*
X158206796Y-86549331D01*
X158257091Y-86414483D01*
X158263500Y-86354873D01*
X158263499Y-84659128D01*
X158257091Y-84599517D01*
X158241269Y-84557097D01*
X158206797Y-84464671D01*
X158206793Y-84464664D01*
X158135037Y-84368811D01*
X158110619Y-84303347D01*
X158125470Y-84235074D01*
X158174875Y-84185668D01*
X158234303Y-84170500D01*
X160391697Y-84170500D01*
X160458736Y-84190185D01*
X160504491Y-84242989D01*
X160514435Y-84312147D01*
X160490963Y-84368811D01*
X160419206Y-84464664D01*
X160419203Y-84464669D01*
X160384378Y-84558040D01*
X160342506Y-84613973D01*
X160277042Y-84638390D01*
X160242415Y-84635996D01*
X160236049Y-84634643D01*
X160103646Y-84606500D01*
X159914354Y-84606500D01*
X159881897Y-84613398D01*
X159729197Y-84645855D01*
X159729192Y-84645857D01*
X159556270Y-84722848D01*
X159556265Y-84722851D01*
X159403129Y-84834111D01*
X159276466Y-84974785D01*
X159181821Y-85138715D01*
X159181818Y-85138722D01*
X159123327Y-85318740D01*
X159123326Y-85318744D01*
X159103540Y-85507000D01*
X159123326Y-85695256D01*
X159123327Y-85695259D01*
X159181818Y-85875277D01*
X159181821Y-85875284D01*
X159276467Y-86039216D01*
X159388138Y-86163239D01*
X159403129Y-86179888D01*
X159556265Y-86291148D01*
X159556270Y-86291151D01*
X159729192Y-86368142D01*
X159729197Y-86368144D01*
X159914354Y-86407500D01*
X159914355Y-86407500D01*
X160103644Y-86407500D01*
X160103646Y-86407500D01*
X160242418Y-86378003D01*
X160312082Y-86383319D01*
X160367815Y-86425456D01*
X160384378Y-86455959D01*
X160419203Y-86549330D01*
X160419206Y-86549335D01*
X160505452Y-86664544D01*
X160505455Y-86664547D01*
X160620664Y-86750793D01*
X160620671Y-86750797D01*
X160755517Y-86801091D01*
X160755516Y-86801091D01*
X160762444Y-86801835D01*
X160815127Y-86807500D01*
X162310872Y-86807499D01*
X162370483Y-86801091D01*
X162505331Y-86750796D01*
X162620546Y-86664546D01*
X162706796Y-86549331D01*
X162757091Y-86414483D01*
X162763500Y-86354873D01*
X162763499Y-84659128D01*
X162757091Y-84599517D01*
X162741269Y-84557097D01*
X162706797Y-84464671D01*
X162706793Y-84464664D01*
X162620547Y-84349455D01*
X162620544Y-84349452D01*
X162505335Y-84263206D01*
X162505328Y-84263202D01*
X162370482Y-84212908D01*
X162370483Y-84212908D01*
X162310883Y-84206501D01*
X162310881Y-84206500D01*
X162310873Y-84206500D01*
X162310865Y-84206500D01*
X161426069Y-84206500D01*
X161359030Y-84186815D01*
X161313275Y-84134011D01*
X161303331Y-84064853D01*
X161330523Y-84003462D01*
X161359299Y-83968676D01*
X161363212Y-83964376D01*
X162678787Y-82648802D01*
X162691042Y-82638986D01*
X162690859Y-82638764D01*
X162696866Y-82633792D01*
X162696877Y-82633786D01*
X162731249Y-82597183D01*
X162744227Y-82583364D01*
X162754671Y-82572918D01*
X162765120Y-82562471D01*
X162769379Y-82556978D01*
X162773152Y-82552561D01*
X162805062Y-82518582D01*
X162811428Y-82507000D01*
X164457551Y-82507000D01*
X164477317Y-82758151D01*
X164536126Y-83003110D01*
X164632533Y-83235859D01*
X164764160Y-83450653D01*
X164764161Y-83450656D01*
X164764164Y-83450659D01*
X164927776Y-83642224D01*
X165076066Y-83768875D01*
X165119343Y-83805838D01*
X165119346Y-83805839D01*
X165334140Y-83937466D01*
X165538478Y-84022105D01*
X165566889Y-84033873D01*
X165811852Y-84092683D01*
X165967950Y-84104968D01*
X166000116Y-84107500D01*
X166000118Y-84107500D01*
X166125884Y-84107500D01*
X166155518Y-84105167D01*
X166314148Y-84092683D01*
X166559111Y-84033873D01*
X166791859Y-83937466D01*
X167006659Y-83805836D01*
X167198224Y-83642224D01*
X167361836Y-83450659D01*
X167493466Y-83235859D01*
X167589873Y-83003111D01*
X167648683Y-82758148D01*
X167668449Y-82507000D01*
X167648683Y-82255852D01*
X167589873Y-82010889D01*
X167493466Y-81778141D01*
X167493466Y-81778140D01*
X167361839Y-81563346D01*
X167361838Y-81563343D01*
X167275631Y-81462408D01*
X167198224Y-81371776D01*
X167062733Y-81256056D01*
X167006656Y-81208161D01*
X167006653Y-81208160D01*
X166791859Y-81076533D01*
X166559110Y-80980126D01*
X166314150Y-80921317D01*
X166125884Y-80906500D01*
X166125882Y-80906500D01*
X166000118Y-80906500D01*
X166000116Y-80906500D01*
X165811849Y-80921317D01*
X165566889Y-80980126D01*
X165334140Y-81076533D01*
X165119346Y-81208160D01*
X165119343Y-81208161D01*
X164927776Y-81371776D01*
X164764161Y-81563343D01*
X164764160Y-81563346D01*
X164632533Y-81778140D01*
X164536126Y-82010889D01*
X164477317Y-82255848D01*
X164457551Y-82507000D01*
X162811428Y-82507000D01*
X162814713Y-82501024D01*
X162825396Y-82484761D01*
X162837673Y-82468936D01*
X162856185Y-82426153D01*
X162858738Y-82420941D01*
X162881197Y-82380092D01*
X162886180Y-82360680D01*
X162892481Y-82342280D01*
X162900437Y-82323896D01*
X162907729Y-82277852D01*
X162908906Y-82272171D01*
X162920500Y-82227019D01*
X162920500Y-82206983D01*
X162922027Y-82187582D01*
X162922518Y-82184483D01*
X162925160Y-82167804D01*
X162920775Y-82121415D01*
X162920500Y-82115577D01*
X162920500Y-79436737D01*
X162922224Y-79421123D01*
X162921938Y-79421096D01*
X162922672Y-79413333D01*
X162920500Y-79344202D01*
X162920500Y-79314651D01*
X162920500Y-79314650D01*
X162919629Y-79307759D01*
X162919172Y-79301945D01*
X162917709Y-79255374D01*
X162917709Y-79255372D01*
X162912120Y-79236137D01*
X162908174Y-79217084D01*
X162905664Y-79197208D01*
X162888501Y-79153859D01*
X162886614Y-79148346D01*
X162886286Y-79147218D01*
X162873617Y-79103610D01*
X162873616Y-79103608D01*
X162863421Y-79086369D01*
X162854860Y-79068893D01*
X162847486Y-79050269D01*
X162847486Y-79050267D01*
X162835853Y-79034256D01*
X162820083Y-79012550D01*
X162816900Y-79007705D01*
X162793170Y-78967579D01*
X162793165Y-78967573D01*
X162779005Y-78953413D01*
X162766370Y-78938620D01*
X162754593Y-78922412D01*
X162718693Y-78892713D01*
X162714381Y-78888790D01*
X162128803Y-78303212D01*
X162118980Y-78290950D01*
X162118759Y-78291134D01*
X162113786Y-78285123D01*
X162095159Y-78267631D01*
X162063364Y-78237773D01*
X162052919Y-78227328D01*
X162042475Y-78216883D01*
X162036986Y-78212625D01*
X162032561Y-78208847D01*
X161998582Y-78176938D01*
X161998580Y-78176936D01*
X161998577Y-78176935D01*
X161981029Y-78167288D01*
X161964763Y-78156604D01*
X161948933Y-78144325D01*
X161906168Y-78125818D01*
X161900922Y-78123248D01*
X161860093Y-78100803D01*
X161860092Y-78100802D01*
X161840693Y-78095822D01*
X161822281Y-78089518D01*
X161803898Y-78081562D01*
X161803889Y-78081559D01*
X161798172Y-78080654D01*
X161735039Y-78050721D01*
X161707513Y-78013705D01*
X161707243Y-78013862D01*
X161705897Y-78011532D01*
X161705195Y-78010587D01*
X161704535Y-78009172D01*
X161704534Y-78009170D01*
X161699978Y-78002664D01*
X161585454Y-77839105D01*
X161568994Y-77815597D01*
X161401902Y-77648506D01*
X161401896Y-77648501D01*
X161216342Y-77518575D01*
X161172717Y-77463998D01*
X161165523Y-77394500D01*
X161197046Y-77332145D01*
X161216342Y-77315425D01*
X161244806Y-77295494D01*
X161401901Y-77185495D01*
X161568995Y-77018401D01*
X161704535Y-76824830D01*
X161804403Y-76610663D01*
X161865563Y-76382408D01*
X161886159Y-76147000D01*
X161865563Y-75911592D01*
X161804403Y-75683337D01*
X161704535Y-75469171D01*
X161704152Y-75468623D01*
X161568994Y-75275597D01*
X161401902Y-75108506D01*
X161401896Y-75108501D01*
X161216342Y-74978575D01*
X161172717Y-74923998D01*
X161165523Y-74854500D01*
X161197046Y-74792145D01*
X161216342Y-74775425D01*
X161358165Y-74676119D01*
X161401901Y-74645495D01*
X161568995Y-74478401D01*
X161704535Y-74284830D01*
X161804403Y-74070663D01*
X161865563Y-73842408D01*
X161886159Y-73607000D01*
X161865563Y-73371592D01*
X161804403Y-73143337D01*
X161704535Y-72929171D01*
X161698925Y-72921158D01*
X161568994Y-72735597D01*
X161401902Y-72568506D01*
X161401895Y-72568501D01*
X161399444Y-72566785D01*
X161330207Y-72518304D01*
X161208334Y-72432967D01*
X161208330Y-72432965D01*
X161151756Y-72406584D01*
X160994163Y-72333097D01*
X160994159Y-72333096D01*
X160994155Y-72333094D01*
X160765913Y-72271938D01*
X160765903Y-72271936D01*
X160530501Y-72251341D01*
X160530499Y-72251341D01*
X160295096Y-72271936D01*
X160295086Y-72271938D01*
X160066844Y-72333094D01*
X160066835Y-72333098D01*
X159852671Y-72432964D01*
X159852669Y-72432965D01*
X159659097Y-72568505D01*
X159492005Y-72735597D01*
X159362075Y-72921158D01*
X159307498Y-72964783D01*
X159238000Y-72971977D01*
X159175645Y-72940454D01*
X159158925Y-72921158D01*
X159028994Y-72735597D01*
X158861902Y-72568506D01*
X158861895Y-72568501D01*
X158859444Y-72566785D01*
X158790207Y-72518304D01*
X158668334Y-72432967D01*
X158668330Y-72432965D01*
X158611756Y-72406584D01*
X158454163Y-72333097D01*
X158454159Y-72333096D01*
X158454155Y-72333094D01*
X158225913Y-72271938D01*
X158225903Y-72271936D01*
X157990501Y-72251341D01*
X157990499Y-72251341D01*
X157755096Y-72271936D01*
X157755086Y-72271938D01*
X157526844Y-72333094D01*
X157526835Y-72333098D01*
X157312671Y-72432964D01*
X157312669Y-72432965D01*
X157119097Y-72568505D01*
X156952005Y-72735597D01*
X156816465Y-72929169D01*
X156816464Y-72929171D01*
X156716598Y-73143335D01*
X156716594Y-73143344D01*
X156655438Y-73371586D01*
X156655436Y-73371596D01*
X156634841Y-73606999D01*
X156634841Y-73607000D01*
X156655436Y-73842403D01*
X156655438Y-73842413D01*
X156716594Y-74070655D01*
X156716596Y-74070659D01*
X156716597Y-74070663D01*
X156786544Y-74220664D01*
X156816465Y-74284830D01*
X156816467Y-74284834D01*
X156921495Y-74434828D01*
X156952001Y-74478396D01*
X156952006Y-74478402D01*
X157119097Y-74645493D01*
X157119103Y-74645498D01*
X157304658Y-74775425D01*
X157348283Y-74830002D01*
X157355477Y-74899500D01*
X157323954Y-74961855D01*
X157304658Y-74978575D01*
X157119097Y-75108505D01*
X156952005Y-75275597D01*
X156816848Y-75468623D01*
X156762271Y-75512248D01*
X156715273Y-75521500D01*
X156694743Y-75521500D01*
X156679122Y-75519775D01*
X156679096Y-75520061D01*
X156671334Y-75519327D01*
X156671333Y-75519327D01*
X156602186Y-75521500D01*
X156572649Y-75521500D01*
X156565766Y-75522369D01*
X156559949Y-75522826D01*
X156513373Y-75524290D01*
X156494129Y-75529881D01*
X156475079Y-75533825D01*
X156455211Y-75536334D01*
X156411884Y-75553488D01*
X156406358Y-75555379D01*
X156361614Y-75568379D01*
X156361610Y-75568381D01*
X156344366Y-75578579D01*
X156326905Y-75587133D01*
X156308274Y-75594510D01*
X156308262Y-75594517D01*
X156270570Y-75621902D01*
X156265687Y-75625109D01*
X156225580Y-75648829D01*
X156211414Y-75662995D01*
X156196624Y-75675627D01*
X156180414Y-75687404D01*
X156180411Y-75687407D01*
X156150710Y-75723309D01*
X156146777Y-75727631D01*
X154360208Y-77514199D01*
X154347951Y-77524020D01*
X154348134Y-77524241D01*
X154342123Y-77529213D01*
X154294772Y-77579636D01*
X154273889Y-77600519D01*
X154273877Y-77600532D01*
X154269621Y-77606017D01*
X154265837Y-77610447D01*
X154233937Y-77644418D01*
X154233936Y-77644420D01*
X154224284Y-77661976D01*
X154213610Y-77678226D01*
X154201329Y-77694061D01*
X154201324Y-77694068D01*
X154182815Y-77736838D01*
X154180245Y-77742084D01*
X154157803Y-77782906D01*
X154152822Y-77802307D01*
X154146521Y-77820710D01*
X154138562Y-77839102D01*
X154138561Y-77839105D01*
X154131271Y-77885127D01*
X154130087Y-77890846D01*
X154118501Y-77935972D01*
X154118500Y-77935982D01*
X154118500Y-77956016D01*
X154116973Y-77975415D01*
X154113839Y-77995195D01*
X154113605Y-78002664D01*
X154091822Y-78069051D01*
X154037606Y-78113124D01*
X153968169Y-78120888D01*
X153945004Y-78113811D01*
X153944987Y-78113865D01*
X153941926Y-78112870D01*
X153939237Y-78112049D01*
X153938803Y-78111856D01*
X153938802Y-78111855D01*
X153873669Y-78098011D01*
X153812187Y-78064818D01*
X153811769Y-78064402D01*
X153468729Y-77721361D01*
X153456949Y-77707730D01*
X153446775Y-77694064D01*
X153442612Y-77688472D01*
X153442610Y-77688470D01*
X153402587Y-77654886D01*
X153398612Y-77651244D01*
X153395690Y-77648322D01*
X153392780Y-77645411D01*
X153367040Y-77625059D01*
X153327717Y-77592063D01*
X153308214Y-77575698D01*
X153308213Y-77575697D01*
X153308209Y-77575694D01*
X153302180Y-77571729D01*
X153302212Y-77571680D01*
X153295853Y-77567628D01*
X153295822Y-77567679D01*
X153289680Y-77563891D01*
X153289678Y-77563890D01*
X153289677Y-77563889D01*
X153241356Y-77541356D01*
X153220058Y-77531424D01*
X153183302Y-77512965D01*
X153151433Y-77496960D01*
X153151431Y-77496959D01*
X153151430Y-77496959D01*
X153144645Y-77494489D01*
X153144665Y-77494433D01*
X153137549Y-77491959D01*
X153137531Y-77492015D01*
X153130671Y-77489742D01*
X153102841Y-77483996D01*
X153055434Y-77474207D01*
X153006472Y-77462603D01*
X152980719Y-77456499D01*
X152973547Y-77455661D01*
X152973553Y-77455601D01*
X152966055Y-77454835D01*
X152966050Y-77454895D01*
X152958860Y-77454265D01*
X152882083Y-77456500D01*
X152445230Y-77456500D01*
X152378191Y-77436815D01*
X152357549Y-77420181D01*
X152301658Y-77364290D01*
X152301656Y-77364288D01*
X152298819Y-77362538D01*
X152297283Y-77360830D01*
X152295989Y-77359807D01*
X152296163Y-77359585D01*
X152252096Y-77310594D01*
X152240872Y-77241632D01*
X152268713Y-77177549D01*
X152298817Y-77151462D01*
X152301656Y-77149712D01*
X152425712Y-77025656D01*
X152517814Y-76876334D01*
X152572999Y-76709797D01*
X152583500Y-76607009D01*
X152583499Y-76006992D01*
X152572999Y-75904203D01*
X152517814Y-75737666D01*
X152425712Y-75588344D01*
X152301656Y-75464288D01*
X152236958Y-75424382D01*
X152190235Y-75372435D01*
X152179012Y-75303472D01*
X152184125Y-75280525D01*
X152185176Y-75277287D01*
X152185179Y-75277284D01*
X152243674Y-75097256D01*
X152263460Y-74909000D01*
X152243674Y-74720744D01*
X152185179Y-74540716D01*
X152090533Y-74376784D01*
X151963871Y-74236112D01*
X151942609Y-74220664D01*
X151810734Y-74124851D01*
X151810729Y-74124848D01*
X151637807Y-74047857D01*
X151637802Y-74047855D01*
X151492001Y-74016865D01*
X151452646Y-74008500D01*
X151263354Y-74008500D01*
X151230897Y-74015398D01*
X151078197Y-74047855D01*
X151078192Y-74047857D01*
X150905270Y-74124848D01*
X150905265Y-74124851D01*
X150752129Y-74236111D01*
X150625466Y-74376785D01*
X150530821Y-74540715D01*
X150530818Y-74540722D01*
X150472327Y-74720740D01*
X150472326Y-74720744D01*
X150452540Y-74909000D01*
X150472326Y-75097256D01*
X150472327Y-75097259D01*
X150531874Y-75280526D01*
X150533869Y-75350367D01*
X150497789Y-75410200D01*
X150479041Y-75424382D01*
X150414344Y-75464287D01*
X150290289Y-75588342D01*
X150198187Y-75737663D01*
X150198183Y-75737672D01*
X150184193Y-75779891D01*
X150144419Y-75837335D01*
X150079903Y-75864157D01*
X150023156Y-75857067D01*
X149915485Y-75816909D01*
X149915483Y-75816908D01*
X149855883Y-75810501D01*
X149855881Y-75810500D01*
X149855873Y-75810500D01*
X149855864Y-75810500D01*
X147760129Y-75810500D01*
X147760123Y-75810501D01*
X147700516Y-75816908D01*
X147565671Y-75867202D01*
X147565664Y-75867206D01*
X147450455Y-75953452D01*
X147450452Y-75953455D01*
X147364206Y-76068664D01*
X147364202Y-76068671D01*
X147313908Y-76203517D01*
X147307501Y-76263116D01*
X147307500Y-76263135D01*
X147307500Y-77086500D01*
X147287815Y-77153539D01*
X147235011Y-77199294D01*
X147183500Y-77210500D01*
X144007751Y-77210500D01*
X143940712Y-77190815D01*
X143908484Y-77160811D01*
X143889394Y-77135310D01*
X143864977Y-77069846D01*
X143879829Y-77001573D01*
X143889394Y-76986689D01*
X143951796Y-76903331D01*
X144002091Y-76768483D01*
X144008500Y-76708873D01*
X144008499Y-75113128D01*
X144002091Y-75053517D01*
X143998845Y-75044815D01*
X143951797Y-74918671D01*
X143951793Y-74918664D01*
X143865547Y-74803455D01*
X143865544Y-74803452D01*
X143750335Y-74717206D01*
X143750328Y-74717202D01*
X143615482Y-74666908D01*
X143615483Y-74666908D01*
X143555883Y-74660501D01*
X143555881Y-74660500D01*
X143555873Y-74660500D01*
X143555865Y-74660500D01*
X143392789Y-74660500D01*
X143325750Y-74640815D01*
X143279995Y-74588011D01*
X143270051Y-74518853D01*
X143285402Y-74474500D01*
X143308303Y-74434834D01*
X143335179Y-74388284D01*
X143393674Y-74208256D01*
X143413460Y-74020000D01*
X143393674Y-73831744D01*
X143335179Y-73651716D01*
X143240533Y-73487784D01*
X143113871Y-73347112D01*
X143113870Y-73347111D01*
X142960734Y-73235851D01*
X142960729Y-73235848D01*
X142787807Y-73158857D01*
X142787802Y-73158855D01*
X142642001Y-73127865D01*
X142602646Y-73119500D01*
X142413354Y-73119500D01*
X142380897Y-73126398D01*
X142228197Y-73158855D01*
X142228192Y-73158857D01*
X142055270Y-73235848D01*
X142055265Y-73235851D01*
X141902129Y-73347111D01*
X141775466Y-73487785D01*
X141680821Y-73651715D01*
X141680818Y-73651722D01*
X141622327Y-73831740D01*
X141622326Y-73831744D01*
X141602540Y-74020000D01*
X141622326Y-74208256D01*
X141622327Y-74208259D01*
X141680818Y-74388277D01*
X141680821Y-74388284D01*
X141730598Y-74474500D01*
X141747071Y-74542400D01*
X141724218Y-74608427D01*
X141669297Y-74651618D01*
X141623212Y-74660500D01*
X141460130Y-74660500D01*
X141460123Y-74660501D01*
X141400516Y-74666908D01*
X141265671Y-74717202D01*
X141265664Y-74717206D01*
X141150455Y-74803452D01*
X141150452Y-74803455D01*
X141064206Y-74918664D01*
X141064202Y-74918671D01*
X141013908Y-75053517D01*
X141009259Y-75096763D01*
X141007501Y-75113123D01*
X141007500Y-75113135D01*
X141007500Y-76708870D01*
X141007501Y-76708876D01*
X141013908Y-76768483D01*
X141064202Y-76903328D01*
X141064203Y-76903330D01*
X141097067Y-76947230D01*
X141126604Y-76986687D01*
X141126606Y-76986689D01*
X141151023Y-77052153D01*
X141136172Y-77120426D01*
X141126606Y-77135311D01*
X141064203Y-77218669D01*
X141064202Y-77218671D01*
X141013908Y-77353517D01*
X141007501Y-77413116D01*
X141007500Y-77413135D01*
X141007500Y-79008870D01*
X141007501Y-79008876D01*
X141013908Y-79068483D01*
X141064202Y-79203328D01*
X141064204Y-79203331D01*
X141126092Y-79286003D01*
X141126917Y-79287104D01*
X141151335Y-79352569D01*
X141136484Y-79420842D01*
X141126918Y-79435727D01*
X141064647Y-79518910D01*
X141064645Y-79518914D01*
X141059236Y-79533416D01*
X141017363Y-79589349D01*
X140951898Y-79613764D01*
X140883626Y-79598911D01*
X140851978Y-79572210D01*
X140851424Y-79572765D01*
X140722345Y-79443686D01*
X140573124Y-79351645D01*
X140573119Y-79351643D01*
X140406697Y-79296496D01*
X140406690Y-79296495D01*
X140303986Y-79286002D01*
X140254000Y-79286002D01*
X140254000Y-80261002D01*
X141019345Y-80261002D01*
X141019364Y-80261000D01*
X144008000Y-80261000D01*
X144008000Y-79713172D01*
X144007999Y-79713155D01*
X144001598Y-79653627D01*
X144001596Y-79653620D01*
X143951354Y-79518913D01*
X143951353Y-79518911D01*
X143889082Y-79435728D01*
X143864665Y-79370264D01*
X143879516Y-79301991D01*
X143889083Y-79287105D01*
X143908485Y-79261188D01*
X143964420Y-79219317D01*
X144007751Y-79211500D01*
X147183501Y-79211500D01*
X147250540Y-79231185D01*
X147296295Y-79283989D01*
X147307501Y-79335500D01*
X147307501Y-80158876D01*
X147313908Y-80218483D01*
X147364202Y-80353328D01*
X147364206Y-80353335D01*
X147450452Y-80468544D01*
X147450455Y-80468547D01*
X147565664Y-80554793D01*
X147565671Y-80554797D01*
X147700517Y-80605091D01*
X147700516Y-80605091D01*
X147707444Y-80605835D01*
X147760127Y-80611500D01*
X149855872Y-80611499D01*
X149915483Y-80605091D01*
X150050331Y-80554796D01*
X150165546Y-80468546D01*
X150251796Y-80353331D01*
X150302091Y-80218483D01*
X150308500Y-80158873D01*
X150308500Y-79210500D01*
X150328185Y-79143461D01*
X150380989Y-79097706D01*
X150432500Y-79086500D01*
X150438821Y-79086500D01*
X150503915Y-79104959D01*
X150548597Y-79132519D01*
X150595320Y-79184464D01*
X150607500Y-79238057D01*
X150607500Y-80820770D01*
X150587815Y-80887809D01*
X150571181Y-80908451D01*
X146689451Y-84790181D01*
X146628128Y-84823666D01*
X146601770Y-84826500D01*
X144378977Y-84826500D01*
X144314828Y-84808617D01*
X144190606Y-84733522D01*
X144028196Y-84682914D01*
X144028194Y-84682913D01*
X144028192Y-84682913D01*
X143978778Y-84678423D01*
X143957616Y-84676500D01*
X143294384Y-84676500D01*
X143275145Y-84678248D01*
X143223807Y-84682913D01*
X143061393Y-84733522D01*
X143027501Y-84754011D01*
X142937171Y-84808617D01*
X142873023Y-84826500D01*
X142337499Y-84826500D01*
X142270460Y-84806815D01*
X142224705Y-84754011D01*
X142213499Y-84702500D01*
X142213499Y-84679129D01*
X142213498Y-84679123D01*
X142213497Y-84679116D01*
X142207091Y-84619517D01*
X142205023Y-84613973D01*
X142156797Y-84484671D01*
X142156793Y-84484664D01*
X142070547Y-84369455D01*
X142070544Y-84369452D01*
X141955335Y-84283206D01*
X141955328Y-84283202D01*
X141820482Y-84232908D01*
X141820483Y-84232908D01*
X141760883Y-84226501D01*
X141760881Y-84226500D01*
X141760873Y-84226500D01*
X141760864Y-84226500D01*
X139965129Y-84226500D01*
X139965123Y-84226501D01*
X139905516Y-84232908D01*
X139770671Y-84283202D01*
X139770664Y-84283206D01*
X139655455Y-84369452D01*
X139655452Y-84369455D01*
X139569206Y-84484664D01*
X139569202Y-84484671D01*
X139518908Y-84619517D01*
X139514650Y-84659127D01*
X139512501Y-84679123D01*
X139512500Y-84679135D01*
X139512500Y-86474870D01*
X139512501Y-86474876D01*
X139518908Y-86534483D01*
X139569202Y-86669328D01*
X139569206Y-86669335D01*
X139655452Y-86784544D01*
X139655455Y-86784547D01*
X139770664Y-86870793D01*
X139770671Y-86870797D01*
X139902081Y-86919810D01*
X139958015Y-86961681D01*
X139982432Y-87027145D01*
X139967580Y-87095418D01*
X139946430Y-87123673D01*
X139824503Y-87245600D01*
X139688965Y-87439169D01*
X139688964Y-87439171D01*
X139589098Y-87653335D01*
X139589094Y-87653344D01*
X139527938Y-87881586D01*
X139527936Y-87881596D01*
X139507341Y-88116999D01*
X139507341Y-88117000D01*
X139527936Y-88352403D01*
X139527938Y-88352413D01*
X139589094Y-88580655D01*
X139589096Y-88580659D01*
X139589097Y-88580663D01*
X139660903Y-88734651D01*
X139688965Y-88794830D01*
X139688967Y-88794834D01*
X139824501Y-88988395D01*
X139824506Y-88988402D01*
X139991597Y-89155493D01*
X139991603Y-89155498D01*
X140177158Y-89285425D01*
X140220783Y-89340002D01*
X140227977Y-89409500D01*
X140196454Y-89471855D01*
X140177158Y-89488575D01*
X139991597Y-89618505D01*
X139824505Y-89785597D01*
X139688965Y-89979169D01*
X139688964Y-89979171D01*
X139661882Y-90037250D01*
X139615710Y-90089689D01*
X139548516Y-90108841D01*
X139481635Y-90088625D01*
X139436300Y-90035460D01*
X139425500Y-89984845D01*
X139425500Y-89850737D01*
X139427224Y-89835123D01*
X139426938Y-89835096D01*
X139427672Y-89827333D01*
X139425500Y-89758203D01*
X139425500Y-89728651D01*
X139425500Y-89728650D01*
X139424629Y-89721759D01*
X139424172Y-89715945D01*
X139423671Y-89700000D01*
X139422709Y-89669373D01*
X139417121Y-89650139D01*
X139413174Y-89631081D01*
X139410664Y-89611208D01*
X139393507Y-89567875D01*
X139391614Y-89562346D01*
X139378618Y-89517614D01*
X139378617Y-89517610D01*
X139368420Y-89500368D01*
X139359863Y-89482902D01*
X139352486Y-89464268D01*
X139325083Y-89426550D01*
X139321900Y-89421705D01*
X139298170Y-89381579D01*
X139298165Y-89381573D01*
X139284005Y-89367413D01*
X139271370Y-89352620D01*
X139259593Y-89336412D01*
X139223693Y-89306713D01*
X139219381Y-89302790D01*
X137903803Y-87987212D01*
X137893980Y-87974950D01*
X137893759Y-87975134D01*
X137888786Y-87969123D01*
X137838364Y-87921773D01*
X137823926Y-87907335D01*
X137817475Y-87900883D01*
X137811986Y-87896625D01*
X137807561Y-87892847D01*
X137773582Y-87860938D01*
X137773580Y-87860936D01*
X137765644Y-87856574D01*
X137716379Y-87807028D01*
X137712998Y-87800316D01*
X137704914Y-87782981D01*
X137663035Y-87693171D01*
X137663000Y-87693120D01*
X137527494Y-87499597D01*
X137360402Y-87332506D01*
X137360396Y-87332501D01*
X137174842Y-87202575D01*
X137131217Y-87147998D01*
X137124023Y-87078500D01*
X137155546Y-87016145D01*
X137174842Y-86999425D01*
X137255475Y-86942965D01*
X137360401Y-86869495D01*
X137527495Y-86702401D01*
X137663035Y-86508830D01*
X137762903Y-86294663D01*
X137824063Y-86066408D01*
X137844659Y-85831000D01*
X137824063Y-85595592D01*
X137762903Y-85367337D01*
X137663035Y-85153171D01*
X137538129Y-84974785D01*
X137527494Y-84959597D01*
X137360402Y-84792506D01*
X137360395Y-84792501D01*
X137166834Y-84656967D01*
X137166830Y-84656965D01*
X137143007Y-84645856D01*
X136952663Y-84557097D01*
X136952659Y-84557096D01*
X136952655Y-84557094D01*
X136724413Y-84495938D01*
X136724403Y-84495936D01*
X136489001Y-84475341D01*
X136488999Y-84475341D01*
X136253596Y-84495936D01*
X136253586Y-84495938D01*
X136025344Y-84557094D01*
X136025335Y-84557098D01*
X135811171Y-84656964D01*
X135811169Y-84656965D01*
X135617597Y-84792505D01*
X135450505Y-84959597D01*
X135314965Y-85153169D01*
X135314964Y-85153171D01*
X135215098Y-85367335D01*
X135215094Y-85367344D01*
X135153938Y-85595586D01*
X135153936Y-85595596D01*
X135133341Y-85830999D01*
X135133341Y-85831000D01*
X135153936Y-86066403D01*
X135153938Y-86066413D01*
X135215094Y-86294655D01*
X135215096Y-86294659D01*
X135215097Y-86294663D01*
X135314965Y-86508830D01*
X135314967Y-86508834D01*
X135450501Y-86702395D01*
X135450506Y-86702402D01*
X135617597Y-86869493D01*
X135617603Y-86869498D01*
X135803158Y-86999425D01*
X135846783Y-87054002D01*
X135853977Y-87123500D01*
X135822454Y-87185855D01*
X135803158Y-87202575D01*
X135617597Y-87332505D01*
X135450505Y-87499597D01*
X135314965Y-87693169D01*
X135314964Y-87693171D01*
X135215098Y-87907335D01*
X135215094Y-87907344D01*
X135153938Y-88135586D01*
X135153936Y-88135596D01*
X135133341Y-88370999D01*
X135133341Y-88371000D01*
X135153936Y-88606403D01*
X135153938Y-88606413D01*
X135215094Y-88834655D01*
X135215096Y-88834659D01*
X135215097Y-88834663D01*
X135286787Y-88988402D01*
X135314965Y-89048830D01*
X135314967Y-89048834D01*
X135450501Y-89242395D01*
X135450506Y-89242402D01*
X135617597Y-89409493D01*
X135617603Y-89409498D01*
X135803158Y-89539425D01*
X135846783Y-89594002D01*
X135853977Y-89663500D01*
X135822454Y-89725855D01*
X135803158Y-89742575D01*
X135617597Y-89872505D01*
X135450505Y-90039597D01*
X135314965Y-90233169D01*
X135314964Y-90233171D01*
X135215098Y-90447335D01*
X135215094Y-90447344D01*
X135153938Y-90675586D01*
X135153936Y-90675596D01*
X135133341Y-90910999D01*
X135133341Y-90911000D01*
X135153936Y-91146403D01*
X135153938Y-91146413D01*
X135215094Y-91374655D01*
X135215096Y-91374659D01*
X135215097Y-91374663D01*
X135286787Y-91528402D01*
X135314965Y-91588830D01*
X135314967Y-91588834D01*
X135450501Y-91782395D01*
X135450506Y-91782402D01*
X135617597Y-91949493D01*
X135617603Y-91949498D01*
X135803158Y-92079425D01*
X135846783Y-92134002D01*
X135853977Y-92203500D01*
X135822454Y-92265855D01*
X135803158Y-92282575D01*
X135617597Y-92412505D01*
X135450505Y-92579597D01*
X135314965Y-92773169D01*
X135314964Y-92773171D01*
X135215098Y-92987335D01*
X135215094Y-92987344D01*
X135153938Y-93215586D01*
X135153936Y-93215596D01*
X135133341Y-93450999D01*
X135133341Y-93451000D01*
X135153936Y-93686403D01*
X135153938Y-93686413D01*
X135215094Y-93914655D01*
X135215096Y-93914659D01*
X135215097Y-93914663D01*
X135286787Y-94068402D01*
X135314965Y-94128830D01*
X135314967Y-94128834D01*
X135389655Y-94235498D01*
X135428623Y-94291151D01*
X135450501Y-94322395D01*
X135450506Y-94322402D01*
X135617597Y-94489493D01*
X135617603Y-94489498D01*
X135803158Y-94619425D01*
X135846783Y-94674002D01*
X135853977Y-94743500D01*
X135822454Y-94805855D01*
X135803158Y-94822575D01*
X135617597Y-94952505D01*
X135450505Y-95119597D01*
X135314965Y-95313169D01*
X135314964Y-95313171D01*
X135215098Y-95527335D01*
X135215094Y-95527344D01*
X135153938Y-95755586D01*
X135153936Y-95755596D01*
X135133341Y-95990999D01*
X135133341Y-95991000D01*
X135153936Y-96226403D01*
X135153938Y-96226413D01*
X135215094Y-96454655D01*
X135215096Y-96454659D01*
X135215097Y-96454663D01*
X135297692Y-96631788D01*
X135314965Y-96668830D01*
X135314967Y-96668834D01*
X135450501Y-96862395D01*
X135450506Y-96862402D01*
X135572430Y-96984326D01*
X135605915Y-97045649D01*
X135600931Y-97115341D01*
X135559059Y-97171274D01*
X135528083Y-97188189D01*
X135396669Y-97237203D01*
X135396664Y-97237206D01*
X135281455Y-97323452D01*
X135281452Y-97323455D01*
X135195206Y-97438664D01*
X135195202Y-97438671D01*
X135144908Y-97573517D01*
X135138501Y-97633116D01*
X135138500Y-97633135D01*
X135138500Y-99428870D01*
X135138501Y-99428876D01*
X135144908Y-99488483D01*
X135195202Y-99623328D01*
X135195206Y-99623335D01*
X135281452Y-99738544D01*
X135281455Y-99738547D01*
X135396664Y-99824793D01*
X135396671Y-99824797D01*
X135531517Y-99875091D01*
X135531516Y-99875091D01*
X135538444Y-99875835D01*
X135591127Y-99881500D01*
X137386872Y-99881499D01*
X137386874Y-99881498D01*
X137386887Y-99881498D01*
X137402244Y-99879847D01*
X137471004Y-99892252D01*
X137522141Y-99939862D01*
X137539500Y-100003136D01*
X137539500Y-108989255D01*
X137537775Y-109004872D01*
X137538061Y-109004899D01*
X137537326Y-109012665D01*
X137539500Y-109081814D01*
X137539500Y-109111343D01*
X137539501Y-109111360D01*
X137540368Y-109118231D01*
X137540826Y-109124050D01*
X137542290Y-109170624D01*
X137542291Y-109170627D01*
X137547880Y-109189867D01*
X137551824Y-109208911D01*
X137554336Y-109228791D01*
X137571490Y-109272119D01*
X137573382Y-109277647D01*
X137586381Y-109322388D01*
X137596580Y-109339634D01*
X137605138Y-109357103D01*
X137612514Y-109375732D01*
X137639898Y-109413423D01*
X137643106Y-109418307D01*
X137666827Y-109458416D01*
X137666833Y-109458424D01*
X137680990Y-109472580D01*
X137693628Y-109487376D01*
X137705405Y-109503586D01*
X137705406Y-109503587D01*
X137741309Y-109533288D01*
X137745620Y-109537210D01*
X138572954Y-110364544D01*
X139315194Y-111106784D01*
X139325019Y-111119048D01*
X139325240Y-111118866D01*
X139330210Y-111124873D01*
X139330213Y-111124876D01*
X139330214Y-111124877D01*
X139380651Y-111172241D01*
X139401530Y-111193120D01*
X139407004Y-111197366D01*
X139411442Y-111201156D01*
X139445418Y-111233062D01*
X139445422Y-111233064D01*
X139462973Y-111242713D01*
X139479231Y-111253392D01*
X139495064Y-111265674D01*
X139512653Y-111273285D01*
X139537837Y-111284183D01*
X139543081Y-111286752D01*
X139583908Y-111309197D01*
X139603312Y-111314179D01*
X139621710Y-111320478D01*
X139640105Y-111328438D01*
X139686129Y-111335726D01*
X139691832Y-111336907D01*
X139736981Y-111348500D01*
X139757016Y-111348500D01*
X139776413Y-111350026D01*
X139796196Y-111353160D01*
X139842584Y-111348775D01*
X139848422Y-111348500D01*
X141511257Y-111348500D01*
X141526877Y-111350224D01*
X141526904Y-111349939D01*
X141534660Y-111350671D01*
X141534667Y-111350673D01*
X141603814Y-111348500D01*
X141633350Y-111348500D01*
X141640228Y-111347630D01*
X141646041Y-111347172D01*
X141692627Y-111345709D01*
X141711869Y-111340117D01*
X141730912Y-111336174D01*
X141750792Y-111333664D01*
X141794122Y-111316507D01*
X141799646Y-111314617D01*
X141808127Y-111312153D01*
X141844390Y-111301618D01*
X141861629Y-111291422D01*
X141879103Y-111282862D01*
X141897727Y-111275488D01*
X141897727Y-111275487D01*
X141897732Y-111275486D01*
X141935449Y-111248082D01*
X141940305Y-111244892D01*
X141980420Y-111221170D01*
X141994589Y-111206999D01*
X142009379Y-111194368D01*
X142025587Y-111182594D01*
X142055299Y-111146676D01*
X142059212Y-111142376D01*
X143247787Y-109953802D01*
X143260042Y-109943986D01*
X143259859Y-109943764D01*
X143265866Y-109938792D01*
X143265877Y-109938786D01*
X143296775Y-109905882D01*
X143313227Y-109888364D01*
X143323671Y-109877918D01*
X143334120Y-109867471D01*
X143338379Y-109861978D01*
X143342152Y-109857561D01*
X143374062Y-109823582D01*
X143383713Y-109806024D01*
X143394396Y-109789761D01*
X143406673Y-109773936D01*
X143425185Y-109731153D01*
X143427738Y-109725941D01*
X143450197Y-109685092D01*
X143455180Y-109665680D01*
X143461481Y-109647280D01*
X143469437Y-109628896D01*
X143476729Y-109582852D01*
X143477906Y-109577171D01*
X143489500Y-109532019D01*
X143489500Y-109511983D01*
X143491027Y-109492582D01*
X143494160Y-109472804D01*
X143489775Y-109426415D01*
X143489500Y-109420577D01*
X143489500Y-99588068D01*
X143509185Y-99521029D01*
X143561989Y-99475274D01*
X143631147Y-99465330D01*
X143687809Y-99488801D01*
X143794665Y-99568793D01*
X143794668Y-99568795D01*
X143794671Y-99568797D01*
X143929517Y-99619091D01*
X143929516Y-99619091D01*
X143936444Y-99619835D01*
X143989127Y-99625500D01*
X145387500Y-99625499D01*
X145454539Y-99645184D01*
X145500294Y-99697987D01*
X145511500Y-99749499D01*
X145511500Y-100139546D01*
X145491815Y-100206585D01*
X145475181Y-100227227D01*
X144379208Y-101323199D01*
X144366951Y-101333020D01*
X144367134Y-101333241D01*
X144361123Y-101338213D01*
X144313772Y-101388636D01*
X144292889Y-101409519D01*
X144292877Y-101409532D01*
X144288621Y-101415017D01*
X144284837Y-101419447D01*
X144252937Y-101453418D01*
X144252936Y-101453420D01*
X144243284Y-101470976D01*
X144232610Y-101487226D01*
X144220329Y-101503061D01*
X144220324Y-101503068D01*
X144201815Y-101545838D01*
X144199245Y-101551084D01*
X144176803Y-101591906D01*
X144171822Y-101611307D01*
X144165521Y-101629710D01*
X144157562Y-101648102D01*
X144157561Y-101648105D01*
X144150271Y-101694127D01*
X144149087Y-101699846D01*
X144137501Y-101744972D01*
X144137500Y-101744982D01*
X144137500Y-101765016D01*
X144135973Y-101784415D01*
X144132840Y-101804194D01*
X144132840Y-101804195D01*
X144137225Y-101850583D01*
X144137500Y-101856421D01*
X144137500Y-111365355D01*
X144135775Y-111380972D01*
X144136061Y-111380999D01*
X144135326Y-111388765D01*
X144137500Y-111457914D01*
X144137500Y-111487443D01*
X144137501Y-111487460D01*
X144138368Y-111494331D01*
X144138826Y-111500150D01*
X144140290Y-111546724D01*
X144140291Y-111546727D01*
X144145880Y-111565967D01*
X144149824Y-111585011D01*
X144152336Y-111604892D01*
X144169490Y-111648219D01*
X144171382Y-111653747D01*
X144184381Y-111698488D01*
X144194580Y-111715734D01*
X144203138Y-111733203D01*
X144210514Y-111751832D01*
X144237898Y-111789523D01*
X144241106Y-111794407D01*
X144264827Y-111834516D01*
X144264833Y-111834524D01*
X144278990Y-111848680D01*
X144291628Y-111863476D01*
X144303405Y-111879686D01*
X144303406Y-111879687D01*
X144339309Y-111909388D01*
X144343620Y-111913310D01*
X144498832Y-112068522D01*
X144600129Y-112169819D01*
X144633614Y-112231142D01*
X144628630Y-112300834D01*
X144586758Y-112356767D01*
X144521294Y-112381184D01*
X144512448Y-112381500D01*
X143210509Y-112381500D01*
X143143470Y-112361815D01*
X143122828Y-112345181D01*
X143116570Y-112338923D01*
X143116562Y-112338917D01*
X142975096Y-112255255D01*
X142975093Y-112255254D01*
X142817273Y-112209402D01*
X142817267Y-112209401D01*
X142780396Y-112206500D01*
X142780394Y-112206500D01*
X141474006Y-112206500D01*
X141474004Y-112206500D01*
X141437132Y-112209401D01*
X141437126Y-112209402D01*
X141279306Y-112255254D01*
X141279303Y-112255255D01*
X141137837Y-112338917D01*
X141137829Y-112338923D01*
X141021623Y-112455129D01*
X141021617Y-112455137D01*
X140937955Y-112596603D01*
X140937954Y-112596606D01*
X140892102Y-112754426D01*
X140892101Y-112754431D01*
X140891259Y-112765141D01*
X140866375Y-112830429D01*
X140810143Y-112871899D01*
X140740418Y-112876386D01*
X140679960Y-112843092D01*
X140601157Y-112764289D01*
X140601156Y-112764288D01*
X140451834Y-112672186D01*
X140285297Y-112617001D01*
X140285295Y-112617000D01*
X140182510Y-112606500D01*
X138082498Y-112606500D01*
X138082481Y-112606501D01*
X137979703Y-112617000D01*
X137979700Y-112617001D01*
X137813168Y-112672185D01*
X137813163Y-112672187D01*
X137663842Y-112764289D01*
X137539789Y-112888342D01*
X137447687Y-113037663D01*
X137447685Y-113037668D01*
X137447615Y-113037880D01*
X137392501Y-113204203D01*
X137392501Y-113204204D01*
X137392500Y-113204204D01*
X137382000Y-113306983D01*
X137382000Y-114707001D01*
X137382001Y-114707018D01*
X137392500Y-114809796D01*
X137392501Y-114809799D01*
X137444687Y-114967284D01*
X137447089Y-115037112D01*
X137414662Y-115093969D01*
X135538451Y-116970181D01*
X135477128Y-117003666D01*
X135450770Y-117006500D01*
X128900701Y-117006500D01*
X128833662Y-116986815D01*
X128799126Y-116953623D01*
X128751493Y-116885596D01*
X128584402Y-116718505D01*
X128390830Y-116582965D01*
X128390828Y-116582964D01*
X128274486Y-116528713D01*
X128176663Y-116483097D01*
X128176659Y-116483096D01*
X128176655Y-116483094D01*
X127948413Y-116421938D01*
X127948403Y-116421936D01*
X127771966Y-116406500D01*
X127354034Y-116406500D01*
X127177596Y-116421936D01*
X127177586Y-116421938D01*
X126949344Y-116483094D01*
X126949335Y-116483098D01*
X126735171Y-116582964D01*
X126735169Y-116582965D01*
X126541597Y-116718505D01*
X126374506Y-116885597D01*
X126374501Y-116885604D01*
X126238967Y-117079165D01*
X126238965Y-117079169D01*
X126139098Y-117293335D01*
X126139094Y-117293344D01*
X126077938Y-117521586D01*
X126077936Y-117521596D01*
X126057341Y-117756999D01*
X126057341Y-117757000D01*
X124563500Y-117757000D01*
X124563500Y-114257000D01*
X133382501Y-114257000D01*
X133382501Y-114706986D01*
X133392994Y-114809697D01*
X133448141Y-114976119D01*
X133448143Y-114976124D01*
X133540184Y-115125345D01*
X133664154Y-115249315D01*
X133813375Y-115341356D01*
X133813380Y-115341358D01*
X133979802Y-115396505D01*
X133979809Y-115396506D01*
X134082519Y-115406999D01*
X134882499Y-115406999D01*
X134882500Y-115406998D01*
X134882500Y-114257000D01*
X135382500Y-114257000D01*
X135382500Y-115406999D01*
X136182472Y-115406999D01*
X136182486Y-115406998D01*
X136285197Y-115396505D01*
X136451619Y-115341358D01*
X136451624Y-115341356D01*
X136600845Y-115249315D01*
X136724815Y-115125345D01*
X136816856Y-114976124D01*
X136816858Y-114976119D01*
X136872005Y-114809697D01*
X136872006Y-114809690D01*
X136882499Y-114706986D01*
X136882500Y-114706973D01*
X136882500Y-114257000D01*
X135382500Y-114257000D01*
X134882500Y-114257000D01*
X133382501Y-114257000D01*
X124563500Y-114257000D01*
X124563500Y-113757000D01*
X133382500Y-113757000D01*
X134882500Y-113757000D01*
X134882500Y-112607000D01*
X135382500Y-112607000D01*
X135382500Y-113757000D01*
X136882499Y-113757000D01*
X136882499Y-113307028D01*
X136882498Y-113307013D01*
X136872005Y-113204302D01*
X136816858Y-113037880D01*
X136816856Y-113037875D01*
X136724815Y-112888654D01*
X136600845Y-112764684D01*
X136451624Y-112672643D01*
X136451619Y-112672641D01*
X136285197Y-112617494D01*
X136285190Y-112617493D01*
X136182486Y-112607000D01*
X135382500Y-112607000D01*
X134882500Y-112607000D01*
X134082528Y-112607000D01*
X134082512Y-112607001D01*
X133979802Y-112617494D01*
X133813380Y-112672641D01*
X133813375Y-112672643D01*
X133664154Y-112764684D01*
X133540184Y-112888654D01*
X133448143Y-113037875D01*
X133448141Y-113037880D01*
X133392994Y-113204302D01*
X133392993Y-113204309D01*
X133382500Y-113307013D01*
X133382500Y-113757000D01*
X124563500Y-113757000D01*
X124563500Y-111507000D01*
X127457551Y-111507000D01*
X127477317Y-111758151D01*
X127536126Y-112003110D01*
X127632533Y-112235859D01*
X127764160Y-112450653D01*
X127764161Y-112450656D01*
X127819604Y-112515571D01*
X127927776Y-112642224D01*
X128059155Y-112754432D01*
X128119343Y-112805838D01*
X128119346Y-112805839D01*
X128334140Y-112937466D01*
X128563574Y-113032500D01*
X128566889Y-113033873D01*
X128811852Y-113092683D01*
X128967950Y-113104968D01*
X129000116Y-113107500D01*
X129000118Y-113107500D01*
X129125884Y-113107500D01*
X129155518Y-113105167D01*
X129314148Y-113092683D01*
X129559111Y-113033873D01*
X129791859Y-112937466D01*
X130006659Y-112805836D01*
X130198224Y-112642224D01*
X130361836Y-112450659D01*
X130493466Y-112235859D01*
X130589873Y-112003111D01*
X130648683Y-111758148D01*
X130668449Y-111507000D01*
X130648683Y-111255852D01*
X130589873Y-111010889D01*
X130560142Y-110939111D01*
X130493466Y-110778140D01*
X130361839Y-110563346D01*
X130361838Y-110563343D01*
X130314142Y-110507499D01*
X130198224Y-110371776D01*
X130054856Y-110249328D01*
X130006656Y-110208161D01*
X130006653Y-110208160D01*
X129791859Y-110076533D01*
X129559110Y-109980126D01*
X129314150Y-109921317D01*
X129125884Y-109906500D01*
X129125882Y-109906500D01*
X129000118Y-109906500D01*
X129000116Y-109906500D01*
X128811849Y-109921317D01*
X128566889Y-109980126D01*
X128334140Y-110076533D01*
X128119346Y-110208160D01*
X128119343Y-110208161D01*
X127927776Y-110371776D01*
X127764161Y-110563343D01*
X127764160Y-110563346D01*
X127632533Y-110778140D01*
X127536126Y-111010889D01*
X127477317Y-111255848D01*
X127457551Y-111507000D01*
X124563500Y-111507000D01*
X124563500Y-110086289D01*
X124583185Y-110019250D01*
X124635061Y-109973922D01*
X132061926Y-106508052D01*
X132063328Y-106507437D01*
X132063381Y-106507383D01*
X132063383Y-106507383D01*
X132063383Y-106507381D01*
X132063466Y-106507299D01*
X132063506Y-106507188D01*
X132063509Y-106507185D01*
X132063500Y-106506978D01*
X132063500Y-105007000D01*
X133532341Y-105007000D01*
X133552936Y-105242403D01*
X133552938Y-105242413D01*
X133614094Y-105470655D01*
X133614096Y-105470659D01*
X133614097Y-105470663D01*
X133639988Y-105526185D01*
X133713964Y-105684828D01*
X133713965Y-105684830D01*
X133849505Y-105878402D01*
X133996704Y-106025601D01*
X134030189Y-106086924D01*
X134025205Y-106156616D01*
X133983333Y-106212549D01*
X133974120Y-106218820D01*
X133819347Y-106314285D01*
X133819343Y-106314288D01*
X133695289Y-106438342D01*
X133603187Y-106587663D01*
X133603185Y-106587668D01*
X133579108Y-106660327D01*
X133548001Y-106754203D01*
X133548001Y-106754204D01*
X133548000Y-106754204D01*
X133537500Y-106856983D01*
X133537500Y-108157001D01*
X133537501Y-108157018D01*
X133548000Y-108259796D01*
X133548001Y-108259799D01*
X133603185Y-108426331D01*
X133603187Y-108426336D01*
X133607722Y-108433688D01*
X133695288Y-108575656D01*
X133819344Y-108699712D01*
X133968666Y-108791814D01*
X134135203Y-108846999D01*
X134237991Y-108857500D01*
X135838008Y-108857499D01*
X135940797Y-108846999D01*
X136107334Y-108791814D01*
X136256656Y-108699712D01*
X136380712Y-108575656D01*
X136472814Y-108426334D01*
X136527999Y-108259797D01*
X136538500Y-108157009D01*
X136538499Y-106856992D01*
X136527999Y-106754203D01*
X136472814Y-106587666D01*
X136380712Y-106438344D01*
X136256656Y-106314288D01*
X136175658Y-106264328D01*
X136101879Y-106218821D01*
X136055155Y-106166873D01*
X136043932Y-106097910D01*
X136071776Y-106033828D01*
X136079295Y-106025601D01*
X136134427Y-105970469D01*
X136226495Y-105878401D01*
X136362035Y-105684830D01*
X136461903Y-105470663D01*
X136523063Y-105242408D01*
X136543659Y-105007000D01*
X136523063Y-104771592D01*
X136461903Y-104543337D01*
X136362035Y-104329171D01*
X136362034Y-104329169D01*
X136226494Y-104135597D01*
X136059402Y-103968505D01*
X135865830Y-103832965D01*
X135865828Y-103832964D01*
X135758746Y-103783031D01*
X135651663Y-103733097D01*
X135651659Y-103733096D01*
X135651655Y-103733094D01*
X135423413Y-103671938D01*
X135423403Y-103671936D01*
X135246966Y-103656500D01*
X134829034Y-103656500D01*
X134652596Y-103671936D01*
X134652586Y-103671938D01*
X134424344Y-103733094D01*
X134424335Y-103733098D01*
X134210171Y-103832964D01*
X134210169Y-103832965D01*
X134016597Y-103968505D01*
X133849506Y-104135597D01*
X133849501Y-104135604D01*
X133713967Y-104329165D01*
X133713965Y-104329169D01*
X133614098Y-104543335D01*
X133614094Y-104543344D01*
X133552938Y-104771586D01*
X133552936Y-104771596D01*
X133532341Y-105006999D01*
X133532341Y-105007000D01*
X132063500Y-105007000D01*
X132063500Y-87507022D01*
X132063509Y-87506815D01*
X132063507Y-87506813D01*
X132063467Y-87506701D01*
X132063383Y-87506617D01*
X132063193Y-87506538D01*
X128291733Y-85746523D01*
X124635062Y-84040076D01*
X124582636Y-83993888D01*
X124563500Y-83927709D01*
X124563500Y-82507000D01*
X127457551Y-82507000D01*
X127477317Y-82758151D01*
X127536126Y-83003110D01*
X127632533Y-83235859D01*
X127764160Y-83450653D01*
X127764161Y-83450656D01*
X127764164Y-83450659D01*
X127927776Y-83642224D01*
X128076066Y-83768875D01*
X128119343Y-83805838D01*
X128119346Y-83805839D01*
X128334140Y-83937466D01*
X128538478Y-84022105D01*
X128566889Y-84033873D01*
X128811852Y-84092683D01*
X128967950Y-84104968D01*
X129000116Y-84107500D01*
X129000118Y-84107500D01*
X129125884Y-84107500D01*
X129155518Y-84105167D01*
X129314148Y-84092683D01*
X129559111Y-84033873D01*
X129791859Y-83937466D01*
X130006659Y-83805836D01*
X130198224Y-83642224D01*
X130361836Y-83450659D01*
X130493466Y-83235859D01*
X130589873Y-83003111D01*
X130648683Y-82758148D01*
X130668449Y-82507000D01*
X130648683Y-82255852D01*
X130589873Y-82010889D01*
X130493466Y-81778141D01*
X130493466Y-81778140D01*
X130361839Y-81563346D01*
X130361838Y-81563343D01*
X130275631Y-81462408D01*
X130198224Y-81371776D01*
X130062733Y-81256056D01*
X130006656Y-81208161D01*
X130006653Y-81208160D01*
X129791859Y-81076533D01*
X129694010Y-81036003D01*
X137103500Y-81036003D01*
X137103501Y-81036021D01*
X137114000Y-81138798D01*
X137114001Y-81138801D01*
X137152856Y-81256056D01*
X137169186Y-81305336D01*
X137261288Y-81454658D01*
X137385344Y-81578714D01*
X137534666Y-81670816D01*
X137701203Y-81726001D01*
X137803991Y-81736502D01*
X138404008Y-81736501D01*
X138404016Y-81736500D01*
X138404019Y-81736500D01*
X138460302Y-81730750D01*
X138506797Y-81726001D01*
X138673334Y-81670816D01*
X138822656Y-81578714D01*
X138946712Y-81454658D01*
X138948752Y-81451349D01*
X138950745Y-81449557D01*
X138951193Y-81448991D01*
X138951289Y-81449067D01*
X139000694Y-81404625D01*
X139069656Y-81393397D01*
X139133740Y-81421236D01*
X139159829Y-81451341D01*
X139161681Y-81454343D01*
X139161683Y-81454346D01*
X139285654Y-81578317D01*
X139434875Y-81670358D01*
X139434880Y-81670360D01*
X139601302Y-81725507D01*
X139601309Y-81725508D01*
X139704019Y-81736001D01*
X140254000Y-81736001D01*
X140303972Y-81736001D01*
X140303986Y-81736000D01*
X140406697Y-81725507D01*
X140573119Y-81670360D01*
X140573124Y-81670358D01*
X140722345Y-81578317D01*
X140851424Y-81449239D01*
X140852470Y-81450285D01*
X140902797Y-81414640D01*
X140972595Y-81411492D01*
X141033015Y-81446580D01*
X141059237Y-81488587D01*
X141064644Y-81503083D01*
X141064649Y-81503093D01*
X141150809Y-81618187D01*
X141150812Y-81618190D01*
X141265906Y-81704350D01*
X141265913Y-81704354D01*
X141400620Y-81754596D01*
X141400627Y-81754598D01*
X141460155Y-81760999D01*
X141460172Y-81761000D01*
X142258000Y-81761000D01*
X142258000Y-80761000D01*
X142758000Y-80761000D01*
X142758000Y-81761000D01*
X143555828Y-81761000D01*
X143555844Y-81760999D01*
X143615372Y-81754598D01*
X143615379Y-81754596D01*
X143750086Y-81704354D01*
X143750093Y-81704350D01*
X143865187Y-81618190D01*
X143865190Y-81618187D01*
X143951350Y-81503093D01*
X143951354Y-81503086D01*
X144001596Y-81368379D01*
X144001598Y-81368372D01*
X144007999Y-81308844D01*
X144008000Y-81308827D01*
X144008000Y-80761000D01*
X142758000Y-80761000D01*
X142258000Y-80761000D01*
X140992655Y-80761000D01*
X140992636Y-80761002D01*
X140254000Y-80761002D01*
X140254000Y-81736001D01*
X139704019Y-81736001D01*
X139753999Y-81736000D01*
X139754000Y-81736000D01*
X139754000Y-79286002D01*
X139753999Y-79286001D01*
X139704029Y-79286002D01*
X139704011Y-79286003D01*
X139601302Y-79296496D01*
X139434880Y-79351643D01*
X139434875Y-79351645D01*
X139285654Y-79443686D01*
X139161683Y-79567657D01*
X139161679Y-79567662D01*
X139159826Y-79570667D01*
X139158018Y-79572292D01*
X139157202Y-79573325D01*
X139157025Y-79573185D01*
X139107874Y-79617387D01*
X139038911Y-79628603D01*
X138974831Y-79600754D01*
X138948753Y-79570655D01*
X138948737Y-79570630D01*
X138946712Y-79567346D01*
X138874915Y-79495549D01*
X138841430Y-79434226D01*
X138846414Y-79364534D01*
X138855209Y-79345868D01*
X138861195Y-79335500D01*
X138931179Y-79214284D01*
X138989674Y-79034256D01*
X139009460Y-78846000D01*
X138989674Y-78657744D01*
X138931179Y-78477716D01*
X138836533Y-78313784D01*
X138709871Y-78173112D01*
X138698856Y-78165109D01*
X138556734Y-78061851D01*
X138556729Y-78061848D01*
X138383807Y-77984857D01*
X138383802Y-77984855D01*
X138238001Y-77953865D01*
X138198646Y-77945500D01*
X138009354Y-77945500D01*
X137976897Y-77952398D01*
X137824197Y-77984855D01*
X137824192Y-77984857D01*
X137651270Y-78061848D01*
X137651265Y-78061851D01*
X137498129Y-78173111D01*
X137371466Y-78313785D01*
X137276821Y-78477715D01*
X137276818Y-78477722D01*
X137218327Y-78657740D01*
X137218326Y-78657744D01*
X137198540Y-78846000D01*
X137218326Y-79034256D01*
X137218327Y-79034259D01*
X137276818Y-79214277D01*
X137276821Y-79214284D01*
X137352790Y-79345867D01*
X137369263Y-79413768D01*
X137346410Y-79479795D01*
X137333085Y-79495547D01*
X137261289Y-79567344D01*
X137169187Y-79716665D01*
X137169185Y-79716670D01*
X137166261Y-79725495D01*
X137114001Y-79883205D01*
X137114001Y-79883206D01*
X137114000Y-79883206D01*
X137103500Y-79985985D01*
X137103500Y-81036003D01*
X129694010Y-81036003D01*
X129559110Y-80980126D01*
X129314150Y-80921317D01*
X129125884Y-80906500D01*
X129125882Y-80906500D01*
X129000118Y-80906500D01*
X129000116Y-80906500D01*
X128811849Y-80921317D01*
X128566889Y-80980126D01*
X128334140Y-81076533D01*
X128119346Y-81208160D01*
X128119343Y-81208161D01*
X127927776Y-81371776D01*
X127764161Y-81563343D01*
X127764160Y-81563346D01*
X127632533Y-81778140D01*
X127536126Y-82010889D01*
X127477317Y-82255848D01*
X127457551Y-82507000D01*
X124563500Y-82507000D01*
X124563500Y-70586289D01*
X124583185Y-70519250D01*
X124635061Y-70473922D01*
X132038182Y-67019132D01*
X132090620Y-67007500D01*
X163035380Y-67007500D01*
X163087817Y-67019132D01*
G37*
G04 #@! TD.AperFunction*
M02*
