%TF.GenerationSoftware,KiCad,Pcbnew,7.0.8*%
%TF.CreationDate,2024-02-21T14:18:44-03:00*%
%TF.ProjectId,Drone PCB,44726f6e-6520-4504-9342-2e6b69636164,1.0*%
%TF.SameCoordinates,Original*%
%TF.FileFunction,Drillmap*%
%TF.FilePolarity,Positive*%
%FSLAX45Y45*%
G04 Gerber Fmt 4.5, Leading zero omitted, Abs format (unit mm)*
G04 Created by KiCad (PCBNEW 7.0.8) date 2024-02-21 14:18:44*
%MOMM*%
%LPD*%
G01*
G04 APERTURE LIST*
%ADD10C,0.100000*%
%ADD11C,0.200000*%
%ADD12C,0.270000*%
G04 APERTURE END LIST*
D10*
X17056300Y-7050700D02*
X17056300Y-8400700D01*
X12456300Y-7050700D02*
X13206300Y-6700700D01*
X16306300Y-10650700D02*
X17056300Y-11000700D01*
X13206300Y-8750700D02*
X12456300Y-8400700D01*
X17056300Y-7050700D02*
X16306300Y-6700700D01*
X16306300Y-8750700D02*
X17056300Y-8400700D01*
X17056300Y-12350700D02*
X16306300Y-12700700D01*
X17056300Y-11000700D02*
X17056300Y-12350700D01*
X16306300Y-8750700D02*
X16306300Y-10650700D01*
X13206300Y-12700700D02*
X16306300Y-12700700D01*
X13206300Y-10650700D02*
X12456300Y-11000700D01*
X12456300Y-7050700D02*
X12456300Y-8400700D01*
X12456300Y-11000700D02*
X12456300Y-12350700D01*
X12456300Y-12350700D02*
X13206300Y-12700700D01*
X13206300Y-6700700D02*
X16306300Y-6700700D01*
X13206300Y-8750700D02*
X13206300Y-10650700D01*
D11*
D12*
X12771300Y-8115700D02*
X13041300Y-8385700D01*
X13041300Y-8115700D02*
X12771300Y-8385700D01*
X12771300Y-11015700D02*
X13041300Y-11285700D01*
X13041300Y-11015700D02*
X12771300Y-11285700D01*
X16471300Y-8115700D02*
X16741300Y-8385700D01*
X16741300Y-8115700D02*
X16471300Y-8385700D01*
X16471300Y-11015700D02*
X16741300Y-11285700D01*
X16741300Y-11015700D02*
X16471300Y-11285700D01*
D11*
X12712077Y-13017184D02*
X12712077Y-12817184D01*
X12712077Y-12817184D02*
X12759696Y-12817184D01*
X12759696Y-12817184D02*
X12788267Y-12826708D01*
X12788267Y-12826708D02*
X12807315Y-12845755D01*
X12807315Y-12845755D02*
X12816839Y-12864803D01*
X12816839Y-12864803D02*
X12826362Y-12902898D01*
X12826362Y-12902898D02*
X12826362Y-12931469D01*
X12826362Y-12931469D02*
X12816839Y-12969565D01*
X12816839Y-12969565D02*
X12807315Y-12988612D01*
X12807315Y-12988612D02*
X12788267Y-13007660D01*
X12788267Y-13007660D02*
X12759696Y-13017184D01*
X12759696Y-13017184D02*
X12712077Y-13017184D01*
X12912077Y-13017184D02*
X12912077Y-12883850D01*
X12912077Y-12921946D02*
X12921601Y-12902898D01*
X12921601Y-12902898D02*
X12931124Y-12893374D01*
X12931124Y-12893374D02*
X12950172Y-12883850D01*
X12950172Y-12883850D02*
X12969220Y-12883850D01*
X13035886Y-13017184D02*
X13035886Y-12883850D01*
X13035886Y-12817184D02*
X13026362Y-12826708D01*
X13026362Y-12826708D02*
X13035886Y-12836231D01*
X13035886Y-12836231D02*
X13045410Y-12826708D01*
X13045410Y-12826708D02*
X13035886Y-12817184D01*
X13035886Y-12817184D02*
X13035886Y-12836231D01*
X13159696Y-13017184D02*
X13140648Y-13007660D01*
X13140648Y-13007660D02*
X13131124Y-12988612D01*
X13131124Y-12988612D02*
X13131124Y-12817184D01*
X13264458Y-13017184D02*
X13245410Y-13007660D01*
X13245410Y-13007660D02*
X13235886Y-12988612D01*
X13235886Y-12988612D02*
X13235886Y-12817184D01*
X13493029Y-13017184D02*
X13493029Y-12817184D01*
X13493029Y-12817184D02*
X13559696Y-12960041D01*
X13559696Y-12960041D02*
X13626362Y-12817184D01*
X13626362Y-12817184D02*
X13626362Y-13017184D01*
X13807315Y-13017184D02*
X13807315Y-12912422D01*
X13807315Y-12912422D02*
X13797791Y-12893374D01*
X13797791Y-12893374D02*
X13778743Y-12883850D01*
X13778743Y-12883850D02*
X13740648Y-12883850D01*
X13740648Y-12883850D02*
X13721601Y-12893374D01*
X13807315Y-13007660D02*
X13788267Y-13017184D01*
X13788267Y-13017184D02*
X13740648Y-13017184D01*
X13740648Y-13017184D02*
X13721601Y-13007660D01*
X13721601Y-13007660D02*
X13712077Y-12988612D01*
X13712077Y-12988612D02*
X13712077Y-12969565D01*
X13712077Y-12969565D02*
X13721601Y-12950517D01*
X13721601Y-12950517D02*
X13740648Y-12940993D01*
X13740648Y-12940993D02*
X13788267Y-12940993D01*
X13788267Y-12940993D02*
X13807315Y-12931469D01*
X13902553Y-12883850D02*
X13902553Y-13083850D01*
X13902553Y-12893374D02*
X13921601Y-12883850D01*
X13921601Y-12883850D02*
X13959696Y-12883850D01*
X13959696Y-12883850D02*
X13978743Y-12893374D01*
X13978743Y-12893374D02*
X13988267Y-12902898D01*
X13988267Y-12902898D02*
X13997791Y-12921946D01*
X13997791Y-12921946D02*
X13997791Y-12979088D01*
X13997791Y-12979088D02*
X13988267Y-12998136D01*
X13988267Y-12998136D02*
X13978743Y-13007660D01*
X13978743Y-13007660D02*
X13959696Y-13017184D01*
X13959696Y-13017184D02*
X13921601Y-13017184D01*
X13921601Y-13017184D02*
X13902553Y-13007660D01*
X14083505Y-12998136D02*
X14093029Y-13007660D01*
X14093029Y-13007660D02*
X14083505Y-13017184D01*
X14083505Y-13017184D02*
X14073982Y-13007660D01*
X14073982Y-13007660D02*
X14083505Y-12998136D01*
X14083505Y-12998136D02*
X14083505Y-13017184D01*
X14083505Y-12893374D02*
X14093029Y-12902898D01*
X14093029Y-12902898D02*
X14083505Y-12912422D01*
X14083505Y-12912422D02*
X14073982Y-12902898D01*
X14073982Y-12902898D02*
X14083505Y-12893374D01*
X14083505Y-12893374D02*
X14083505Y-12912422D01*
X12251300Y-13245700D02*
X12451300Y-13445700D01*
X12451300Y-13245700D02*
X12251300Y-13445700D01*
X12702553Y-13256231D02*
X12712077Y-13246708D01*
X12712077Y-13246708D02*
X12731124Y-13237184D01*
X12731124Y-13237184D02*
X12778743Y-13237184D01*
X12778743Y-13237184D02*
X12797791Y-13246708D01*
X12797791Y-13246708D02*
X12807315Y-13256231D01*
X12807315Y-13256231D02*
X12816839Y-13275279D01*
X12816839Y-13275279D02*
X12816839Y-13294327D01*
X12816839Y-13294327D02*
X12807315Y-13322898D01*
X12807315Y-13322898D02*
X12693029Y-13437184D01*
X12693029Y-13437184D02*
X12816839Y-13437184D01*
X12902553Y-13418136D02*
X12912077Y-13427660D01*
X12912077Y-13427660D02*
X12902553Y-13437184D01*
X12902553Y-13437184D02*
X12893029Y-13427660D01*
X12893029Y-13427660D02*
X12902553Y-13418136D01*
X12902553Y-13418136D02*
X12902553Y-13437184D01*
X12978743Y-13237184D02*
X13112077Y-13237184D01*
X13112077Y-13237184D02*
X13026362Y-13437184D01*
X13226362Y-13237184D02*
X13245410Y-13237184D01*
X13245410Y-13237184D02*
X13264458Y-13246708D01*
X13264458Y-13246708D02*
X13273982Y-13256231D01*
X13273982Y-13256231D02*
X13283505Y-13275279D01*
X13283505Y-13275279D02*
X13293029Y-13313374D01*
X13293029Y-13313374D02*
X13293029Y-13360993D01*
X13293029Y-13360993D02*
X13283505Y-13399088D01*
X13283505Y-13399088D02*
X13273982Y-13418136D01*
X13273982Y-13418136D02*
X13264458Y-13427660D01*
X13264458Y-13427660D02*
X13245410Y-13437184D01*
X13245410Y-13437184D02*
X13226362Y-13437184D01*
X13226362Y-13437184D02*
X13207315Y-13427660D01*
X13207315Y-13427660D02*
X13197791Y-13418136D01*
X13197791Y-13418136D02*
X13188267Y-13399088D01*
X13188267Y-13399088D02*
X13178743Y-13360993D01*
X13178743Y-13360993D02*
X13178743Y-13313374D01*
X13178743Y-13313374D02*
X13188267Y-13275279D01*
X13188267Y-13275279D02*
X13197791Y-13256231D01*
X13197791Y-13256231D02*
X13207315Y-13246708D01*
X13207315Y-13246708D02*
X13226362Y-13237184D01*
X13416839Y-13237184D02*
X13435886Y-13237184D01*
X13435886Y-13237184D02*
X13454934Y-13246708D01*
X13454934Y-13246708D02*
X13464458Y-13256231D01*
X13464458Y-13256231D02*
X13473982Y-13275279D01*
X13473982Y-13275279D02*
X13483505Y-13313374D01*
X13483505Y-13313374D02*
X13483505Y-13360993D01*
X13483505Y-13360993D02*
X13473982Y-13399088D01*
X13473982Y-13399088D02*
X13464458Y-13418136D01*
X13464458Y-13418136D02*
X13454934Y-13427660D01*
X13454934Y-13427660D02*
X13435886Y-13437184D01*
X13435886Y-13437184D02*
X13416839Y-13437184D01*
X13416839Y-13437184D02*
X13397791Y-13427660D01*
X13397791Y-13427660D02*
X13388267Y-13418136D01*
X13388267Y-13418136D02*
X13378743Y-13399088D01*
X13378743Y-13399088D02*
X13369220Y-13360993D01*
X13369220Y-13360993D02*
X13369220Y-13313374D01*
X13369220Y-13313374D02*
X13378743Y-13275279D01*
X13378743Y-13275279D02*
X13388267Y-13256231D01*
X13388267Y-13256231D02*
X13397791Y-13246708D01*
X13397791Y-13246708D02*
X13416839Y-13237184D01*
X13569220Y-13437184D02*
X13569220Y-13303850D01*
X13569220Y-13322898D02*
X13578743Y-13313374D01*
X13578743Y-13313374D02*
X13597791Y-13303850D01*
X13597791Y-13303850D02*
X13626363Y-13303850D01*
X13626363Y-13303850D02*
X13645410Y-13313374D01*
X13645410Y-13313374D02*
X13654934Y-13332422D01*
X13654934Y-13332422D02*
X13654934Y-13437184D01*
X13654934Y-13332422D02*
X13664458Y-13313374D01*
X13664458Y-13313374D02*
X13683505Y-13303850D01*
X13683505Y-13303850D02*
X13712077Y-13303850D01*
X13712077Y-13303850D02*
X13731124Y-13313374D01*
X13731124Y-13313374D02*
X13740648Y-13332422D01*
X13740648Y-13332422D02*
X13740648Y-13437184D01*
X13835886Y-13437184D02*
X13835886Y-13303850D01*
X13835886Y-13322898D02*
X13845410Y-13313374D01*
X13845410Y-13313374D02*
X13864458Y-13303850D01*
X13864458Y-13303850D02*
X13893029Y-13303850D01*
X13893029Y-13303850D02*
X13912077Y-13313374D01*
X13912077Y-13313374D02*
X13921601Y-13332422D01*
X13921601Y-13332422D02*
X13921601Y-13437184D01*
X13921601Y-13332422D02*
X13931124Y-13313374D01*
X13931124Y-13313374D02*
X13950172Y-13303850D01*
X13950172Y-13303850D02*
X13978743Y-13303850D01*
X13978743Y-13303850D02*
X13997791Y-13313374D01*
X13997791Y-13313374D02*
X14007315Y-13332422D01*
X14007315Y-13332422D02*
X14007315Y-13437184D01*
X14397791Y-13227660D02*
X14226363Y-13484803D01*
X14654934Y-13237184D02*
X14673982Y-13237184D01*
X14673982Y-13237184D02*
X14693029Y-13246708D01*
X14693029Y-13246708D02*
X14702553Y-13256231D01*
X14702553Y-13256231D02*
X14712077Y-13275279D01*
X14712077Y-13275279D02*
X14721601Y-13313374D01*
X14721601Y-13313374D02*
X14721601Y-13360993D01*
X14721601Y-13360993D02*
X14712077Y-13399088D01*
X14712077Y-13399088D02*
X14702553Y-13418136D01*
X14702553Y-13418136D02*
X14693029Y-13427660D01*
X14693029Y-13427660D02*
X14673982Y-13437184D01*
X14673982Y-13437184D02*
X14654934Y-13437184D01*
X14654934Y-13437184D02*
X14635886Y-13427660D01*
X14635886Y-13427660D02*
X14626363Y-13418136D01*
X14626363Y-13418136D02*
X14616839Y-13399088D01*
X14616839Y-13399088D02*
X14607315Y-13360993D01*
X14607315Y-13360993D02*
X14607315Y-13313374D01*
X14607315Y-13313374D02*
X14616839Y-13275279D01*
X14616839Y-13275279D02*
X14626363Y-13256231D01*
X14626363Y-13256231D02*
X14635886Y-13246708D01*
X14635886Y-13246708D02*
X14654934Y-13237184D01*
X14807315Y-13418136D02*
X14816839Y-13427660D01*
X14816839Y-13427660D02*
X14807315Y-13437184D01*
X14807315Y-13437184D02*
X14797791Y-13427660D01*
X14797791Y-13427660D02*
X14807315Y-13418136D01*
X14807315Y-13418136D02*
X14807315Y-13437184D01*
X15007315Y-13437184D02*
X14893029Y-13437184D01*
X14950172Y-13437184D02*
X14950172Y-13237184D01*
X14950172Y-13237184D02*
X14931125Y-13265755D01*
X14931125Y-13265755D02*
X14912077Y-13284803D01*
X14912077Y-13284803D02*
X14893029Y-13294327D01*
X15131125Y-13237184D02*
X15150172Y-13237184D01*
X15150172Y-13237184D02*
X15169220Y-13246708D01*
X15169220Y-13246708D02*
X15178744Y-13256231D01*
X15178744Y-13256231D02*
X15188267Y-13275279D01*
X15188267Y-13275279D02*
X15197791Y-13313374D01*
X15197791Y-13313374D02*
X15197791Y-13360993D01*
X15197791Y-13360993D02*
X15188267Y-13399088D01*
X15188267Y-13399088D02*
X15178744Y-13418136D01*
X15178744Y-13418136D02*
X15169220Y-13427660D01*
X15169220Y-13427660D02*
X15150172Y-13437184D01*
X15150172Y-13437184D02*
X15131125Y-13437184D01*
X15131125Y-13437184D02*
X15112077Y-13427660D01*
X15112077Y-13427660D02*
X15102553Y-13418136D01*
X15102553Y-13418136D02*
X15093029Y-13399088D01*
X15093029Y-13399088D02*
X15083506Y-13360993D01*
X15083506Y-13360993D02*
X15083506Y-13313374D01*
X15083506Y-13313374D02*
X15093029Y-13275279D01*
X15093029Y-13275279D02*
X15102553Y-13256231D01*
X15102553Y-13256231D02*
X15112077Y-13246708D01*
X15112077Y-13246708D02*
X15131125Y-13237184D01*
X15369220Y-13237184D02*
X15331125Y-13237184D01*
X15331125Y-13237184D02*
X15312077Y-13246708D01*
X15312077Y-13246708D02*
X15302553Y-13256231D01*
X15302553Y-13256231D02*
X15283506Y-13284803D01*
X15283506Y-13284803D02*
X15273982Y-13322898D01*
X15273982Y-13322898D02*
X15273982Y-13399088D01*
X15273982Y-13399088D02*
X15283506Y-13418136D01*
X15283506Y-13418136D02*
X15293029Y-13427660D01*
X15293029Y-13427660D02*
X15312077Y-13437184D01*
X15312077Y-13437184D02*
X15350172Y-13437184D01*
X15350172Y-13437184D02*
X15369220Y-13427660D01*
X15369220Y-13427660D02*
X15378744Y-13418136D01*
X15378744Y-13418136D02*
X15388267Y-13399088D01*
X15388267Y-13399088D02*
X15388267Y-13351469D01*
X15388267Y-13351469D02*
X15378744Y-13332422D01*
X15378744Y-13332422D02*
X15369220Y-13322898D01*
X15369220Y-13322898D02*
X15350172Y-13313374D01*
X15350172Y-13313374D02*
X15312077Y-13313374D01*
X15312077Y-13313374D02*
X15293029Y-13322898D01*
X15293029Y-13322898D02*
X15283506Y-13332422D01*
X15283506Y-13332422D02*
X15273982Y-13351469D01*
X15454934Y-13237184D02*
X15578744Y-13237184D01*
X15578744Y-13237184D02*
X15512077Y-13313374D01*
X15512077Y-13313374D02*
X15540648Y-13313374D01*
X15540648Y-13313374D02*
X15559696Y-13322898D01*
X15559696Y-13322898D02*
X15569220Y-13332422D01*
X15569220Y-13332422D02*
X15578744Y-13351469D01*
X15578744Y-13351469D02*
X15578744Y-13399088D01*
X15578744Y-13399088D02*
X15569220Y-13418136D01*
X15569220Y-13418136D02*
X15559696Y-13427660D01*
X15559696Y-13427660D02*
X15540648Y-13437184D01*
X15540648Y-13437184D02*
X15483506Y-13437184D01*
X15483506Y-13437184D02*
X15464458Y-13427660D01*
X15464458Y-13427660D02*
X15454934Y-13418136D01*
X15654934Y-13237184D02*
X15654934Y-13275279D01*
X15731125Y-13237184D02*
X15731125Y-13275279D01*
X16026363Y-13513374D02*
X16016839Y-13503850D01*
X16016839Y-13503850D02*
X15997791Y-13475279D01*
X15997791Y-13475279D02*
X15988268Y-13456231D01*
X15988268Y-13456231D02*
X15978744Y-13427660D01*
X15978744Y-13427660D02*
X15969220Y-13380041D01*
X15969220Y-13380041D02*
X15969220Y-13341946D01*
X15969220Y-13341946D02*
X15978744Y-13294327D01*
X15978744Y-13294327D02*
X15988268Y-13265755D01*
X15988268Y-13265755D02*
X15997791Y-13246708D01*
X15997791Y-13246708D02*
X16016839Y-13218136D01*
X16016839Y-13218136D02*
X16026363Y-13208612D01*
X16188268Y-13303850D02*
X16188268Y-13437184D01*
X16140648Y-13227660D02*
X16093029Y-13370517D01*
X16093029Y-13370517D02*
X16216839Y-13370517D01*
X16445410Y-13437184D02*
X16445410Y-13237184D01*
X16531125Y-13437184D02*
X16531125Y-13332422D01*
X16531125Y-13332422D02*
X16521601Y-13313374D01*
X16521601Y-13313374D02*
X16502553Y-13303850D01*
X16502553Y-13303850D02*
X16473982Y-13303850D01*
X16473982Y-13303850D02*
X16454934Y-13313374D01*
X16454934Y-13313374D02*
X16445410Y-13322898D01*
X16654934Y-13437184D02*
X16635887Y-13427660D01*
X16635887Y-13427660D02*
X16626363Y-13418136D01*
X16626363Y-13418136D02*
X16616839Y-13399088D01*
X16616839Y-13399088D02*
X16616839Y-13341946D01*
X16616839Y-13341946D02*
X16626363Y-13322898D01*
X16626363Y-13322898D02*
X16635887Y-13313374D01*
X16635887Y-13313374D02*
X16654934Y-13303850D01*
X16654934Y-13303850D02*
X16683506Y-13303850D01*
X16683506Y-13303850D02*
X16702553Y-13313374D01*
X16702553Y-13313374D02*
X16712077Y-13322898D01*
X16712077Y-13322898D02*
X16721601Y-13341946D01*
X16721601Y-13341946D02*
X16721601Y-13399088D01*
X16721601Y-13399088D02*
X16712077Y-13418136D01*
X16712077Y-13418136D02*
X16702553Y-13427660D01*
X16702553Y-13427660D02*
X16683506Y-13437184D01*
X16683506Y-13437184D02*
X16654934Y-13437184D01*
X16835887Y-13437184D02*
X16816839Y-13427660D01*
X16816839Y-13427660D02*
X16807315Y-13408612D01*
X16807315Y-13408612D02*
X16807315Y-13237184D01*
X16988268Y-13427660D02*
X16969220Y-13437184D01*
X16969220Y-13437184D02*
X16931125Y-13437184D01*
X16931125Y-13437184D02*
X16912077Y-13427660D01*
X16912077Y-13427660D02*
X16902553Y-13408612D01*
X16902553Y-13408612D02*
X16902553Y-13332422D01*
X16902553Y-13332422D02*
X16912077Y-13313374D01*
X16912077Y-13313374D02*
X16931125Y-13303850D01*
X16931125Y-13303850D02*
X16969220Y-13303850D01*
X16969220Y-13303850D02*
X16988268Y-13313374D01*
X16988268Y-13313374D02*
X16997792Y-13332422D01*
X16997792Y-13332422D02*
X16997792Y-13351469D01*
X16997792Y-13351469D02*
X16902553Y-13370517D01*
X17073982Y-13427660D02*
X17093030Y-13437184D01*
X17093030Y-13437184D02*
X17131125Y-13437184D01*
X17131125Y-13437184D02*
X17150173Y-13427660D01*
X17150173Y-13427660D02*
X17159696Y-13408612D01*
X17159696Y-13408612D02*
X17159696Y-13399088D01*
X17159696Y-13399088D02*
X17150173Y-13380041D01*
X17150173Y-13380041D02*
X17131125Y-13370517D01*
X17131125Y-13370517D02*
X17102553Y-13370517D01*
X17102553Y-13370517D02*
X17083506Y-13360993D01*
X17083506Y-13360993D02*
X17073982Y-13341946D01*
X17073982Y-13341946D02*
X17073982Y-13332422D01*
X17073982Y-13332422D02*
X17083506Y-13313374D01*
X17083506Y-13313374D02*
X17102553Y-13303850D01*
X17102553Y-13303850D02*
X17131125Y-13303850D01*
X17131125Y-13303850D02*
X17150173Y-13313374D01*
X17226363Y-13513374D02*
X17235887Y-13503850D01*
X17235887Y-13503850D02*
X17254934Y-13475279D01*
X17254934Y-13475279D02*
X17264458Y-13456231D01*
X17264458Y-13456231D02*
X17273982Y-13427660D01*
X17273982Y-13427660D02*
X17283506Y-13380041D01*
X17283506Y-13380041D02*
X17283506Y-13341946D01*
X17283506Y-13341946D02*
X17273982Y-13294327D01*
X17273982Y-13294327D02*
X17264458Y-13265755D01*
X17264458Y-13265755D02*
X17254934Y-13246708D01*
X17254934Y-13246708D02*
X17235887Y-13218136D01*
X17235887Y-13218136D02*
X17226363Y-13208612D01*
X17588268Y-13513374D02*
X17578744Y-13503850D01*
X17578744Y-13503850D02*
X17559696Y-13475279D01*
X17559696Y-13475279D02*
X17550173Y-13456231D01*
X17550173Y-13456231D02*
X17540649Y-13427660D01*
X17540649Y-13427660D02*
X17531125Y-13380041D01*
X17531125Y-13380041D02*
X17531125Y-13341946D01*
X17531125Y-13341946D02*
X17540649Y-13294327D01*
X17540649Y-13294327D02*
X17550173Y-13265755D01*
X17550173Y-13265755D02*
X17559696Y-13246708D01*
X17559696Y-13246708D02*
X17578744Y-13218136D01*
X17578744Y-13218136D02*
X17588268Y-13208612D01*
X17664458Y-13303850D02*
X17664458Y-13437184D01*
X17664458Y-13322898D02*
X17673982Y-13313374D01*
X17673982Y-13313374D02*
X17693030Y-13303850D01*
X17693030Y-13303850D02*
X17721601Y-13303850D01*
X17721601Y-13303850D02*
X17740649Y-13313374D01*
X17740649Y-13313374D02*
X17750173Y-13332422D01*
X17750173Y-13332422D02*
X17750173Y-13437184D01*
X17873982Y-13437184D02*
X17854934Y-13427660D01*
X17854934Y-13427660D02*
X17845411Y-13418136D01*
X17845411Y-13418136D02*
X17835887Y-13399088D01*
X17835887Y-13399088D02*
X17835887Y-13341946D01*
X17835887Y-13341946D02*
X17845411Y-13322898D01*
X17845411Y-13322898D02*
X17854934Y-13313374D01*
X17854934Y-13313374D02*
X17873982Y-13303850D01*
X17873982Y-13303850D02*
X17902554Y-13303850D01*
X17902554Y-13303850D02*
X17921601Y-13313374D01*
X17921601Y-13313374D02*
X17931125Y-13322898D01*
X17931125Y-13322898D02*
X17940649Y-13341946D01*
X17940649Y-13341946D02*
X17940649Y-13399088D01*
X17940649Y-13399088D02*
X17931125Y-13418136D01*
X17931125Y-13418136D02*
X17921601Y-13427660D01*
X17921601Y-13427660D02*
X17902554Y-13437184D01*
X17902554Y-13437184D02*
X17873982Y-13437184D01*
X17997792Y-13303850D02*
X18073982Y-13303850D01*
X18026363Y-13237184D02*
X18026363Y-13408612D01*
X18026363Y-13408612D02*
X18035887Y-13427660D01*
X18035887Y-13427660D02*
X18054934Y-13437184D01*
X18054934Y-13437184D02*
X18073982Y-13437184D01*
X18293030Y-13303850D02*
X18293030Y-13503850D01*
X18293030Y-13313374D02*
X18312077Y-13303850D01*
X18312077Y-13303850D02*
X18350173Y-13303850D01*
X18350173Y-13303850D02*
X18369220Y-13313374D01*
X18369220Y-13313374D02*
X18378744Y-13322898D01*
X18378744Y-13322898D02*
X18388268Y-13341946D01*
X18388268Y-13341946D02*
X18388268Y-13399088D01*
X18388268Y-13399088D02*
X18378744Y-13418136D01*
X18378744Y-13418136D02*
X18369220Y-13427660D01*
X18369220Y-13427660D02*
X18350173Y-13437184D01*
X18350173Y-13437184D02*
X18312077Y-13437184D01*
X18312077Y-13437184D02*
X18293030Y-13427660D01*
X18502554Y-13437184D02*
X18483506Y-13427660D01*
X18483506Y-13427660D02*
X18473982Y-13408612D01*
X18473982Y-13408612D02*
X18473982Y-13237184D01*
X18664458Y-13437184D02*
X18664458Y-13332422D01*
X18664458Y-13332422D02*
X18654935Y-13313374D01*
X18654935Y-13313374D02*
X18635887Y-13303850D01*
X18635887Y-13303850D02*
X18597792Y-13303850D01*
X18597792Y-13303850D02*
X18578744Y-13313374D01*
X18664458Y-13427660D02*
X18645411Y-13437184D01*
X18645411Y-13437184D02*
X18597792Y-13437184D01*
X18597792Y-13437184D02*
X18578744Y-13427660D01*
X18578744Y-13427660D02*
X18569220Y-13408612D01*
X18569220Y-13408612D02*
X18569220Y-13389565D01*
X18569220Y-13389565D02*
X18578744Y-13370517D01*
X18578744Y-13370517D02*
X18597792Y-13360993D01*
X18597792Y-13360993D02*
X18645411Y-13360993D01*
X18645411Y-13360993D02*
X18664458Y-13351469D01*
X18731125Y-13303850D02*
X18807315Y-13303850D01*
X18759696Y-13237184D02*
X18759696Y-13408612D01*
X18759696Y-13408612D02*
X18769220Y-13427660D01*
X18769220Y-13427660D02*
X18788268Y-13437184D01*
X18788268Y-13437184D02*
X18807315Y-13437184D01*
X18950173Y-13427660D02*
X18931125Y-13437184D01*
X18931125Y-13437184D02*
X18893030Y-13437184D01*
X18893030Y-13437184D02*
X18873982Y-13427660D01*
X18873982Y-13427660D02*
X18864458Y-13408612D01*
X18864458Y-13408612D02*
X18864458Y-13332422D01*
X18864458Y-13332422D02*
X18873982Y-13313374D01*
X18873982Y-13313374D02*
X18893030Y-13303850D01*
X18893030Y-13303850D02*
X18931125Y-13303850D01*
X18931125Y-13303850D02*
X18950173Y-13313374D01*
X18950173Y-13313374D02*
X18959696Y-13332422D01*
X18959696Y-13332422D02*
X18959696Y-13351469D01*
X18959696Y-13351469D02*
X18864458Y-13370517D01*
X19131125Y-13437184D02*
X19131125Y-13237184D01*
X19131125Y-13427660D02*
X19112077Y-13437184D01*
X19112077Y-13437184D02*
X19073982Y-13437184D01*
X19073982Y-13437184D02*
X19054935Y-13427660D01*
X19054935Y-13427660D02*
X19045411Y-13418136D01*
X19045411Y-13418136D02*
X19035887Y-13399088D01*
X19035887Y-13399088D02*
X19035887Y-13341946D01*
X19035887Y-13341946D02*
X19045411Y-13322898D01*
X19045411Y-13322898D02*
X19054935Y-13313374D01*
X19054935Y-13313374D02*
X19073982Y-13303850D01*
X19073982Y-13303850D02*
X19112077Y-13303850D01*
X19112077Y-13303850D02*
X19131125Y-13313374D01*
X19207316Y-13513374D02*
X19216839Y-13503850D01*
X19216839Y-13503850D02*
X19235887Y-13475279D01*
X19235887Y-13475279D02*
X19245411Y-13456231D01*
X19245411Y-13456231D02*
X19254935Y-13427660D01*
X19254935Y-13427660D02*
X19264458Y-13380041D01*
X19264458Y-13380041D02*
X19264458Y-13341946D01*
X19264458Y-13341946D02*
X19254935Y-13294327D01*
X19254935Y-13294327D02*
X19245411Y-13265755D01*
X19245411Y-13265755D02*
X19235887Y-13246708D01*
X19235887Y-13246708D02*
X19216839Y-13218136D01*
X19216839Y-13218136D02*
X19207316Y-13208612D01*
M02*
