G04 #@! TF.GenerationSoftware,KiCad,Pcbnew,7.0.8*
G04 #@! TF.CreationDate,2024-02-21T14:18:38-03:00*
G04 #@! TF.ProjectId,Drone PCB,44726f6e-6520-4504-9342-2e6b69636164,1.0*
G04 #@! TF.SameCoordinates,Original*
G04 #@! TF.FileFunction,Copper,L2,Bot*
G04 #@! TF.FilePolarity,Positive*
%FSLAX46Y46*%
G04 Gerber Fmt 4.6, Leading zero omitted, Abs format (unit mm)*
G04 Created by KiCad (PCBNEW 7.0.8) date 2024-02-21 14:18:38*
%MOMM*%
%LPD*%
G01*
G04 APERTURE LIST*
G04 Aperture macros list*
%AMRoundRect*
0 Rectangle with rounded corners*
0 $1 Rounding radius*
0 $2 $3 $4 $5 $6 $7 $8 $9 X,Y pos of 4 corners*
0 Add a 4 corners polygon primitive as box body*
4,1,4,$2,$3,$4,$5,$6,$7,$8,$9,$2,$3,0*
0 Add four circle primitives for the rounded corners*
1,1,$1+$1,$2,$3*
1,1,$1+$1,$4,$5*
1,1,$1+$1,$6,$7*
1,1,$1+$1,$8,$9*
0 Add four rect primitives between the rounded corners*
20,1,$1+$1,$2,$3,$4,$5,0*
20,1,$1+$1,$4,$5,$6,$7,0*
20,1,$1+$1,$6,$7,$8,$9,0*
20,1,$1+$1,$8,$9,$2,$3,0*%
G04 Aperture macros list end*
G04 #@! TA.AperFunction,ComponentPad*
%ADD10RoundRect,0.250000X0.750000X-0.600000X0.750000X0.600000X-0.750000X0.600000X-0.750000X-0.600000X0*%
G04 #@! TD*
G04 #@! TA.AperFunction,ComponentPad*
%ADD11O,2.000000X1.700000*%
G04 #@! TD*
G04 #@! TA.AperFunction,ComponentPad*
%ADD12R,1.800000X1.800000*%
G04 #@! TD*
G04 #@! TA.AperFunction,ComponentPad*
%ADD13C,1.800000*%
G04 #@! TD*
G04 #@! TA.AperFunction,ComponentPad*
%ADD14RoundRect,0.250000X-0.750000X0.600000X-0.750000X-0.600000X0.750000X-0.600000X0.750000X0.600000X0*%
G04 #@! TD*
G04 #@! TA.AperFunction,ComponentPad*
%ADD15R,1.700000X1.700000*%
G04 #@! TD*
G04 #@! TA.AperFunction,ComponentPad*
%ADD16O,1.700000X1.700000*%
G04 #@! TD*
G04 #@! TA.AperFunction,ComponentPad*
%ADD17R,1.500000X1.500000*%
G04 #@! TD*
G04 #@! TA.AperFunction,ComponentPad*
%ADD18C,1.500000*%
G04 #@! TD*
G04 #@! TA.AperFunction,ComponentPad*
%ADD19RoundRect,0.250000X0.600000X0.750000X-0.600000X0.750000X-0.600000X-0.750000X0.600000X-0.750000X0*%
G04 #@! TD*
G04 #@! TA.AperFunction,ComponentPad*
%ADD20O,1.700000X2.000000*%
G04 #@! TD*
G04 #@! TA.AperFunction,ViaPad*
%ADD21C,0.800000*%
G04 #@! TD*
G04 #@! TA.AperFunction,Conductor*
%ADD22C,0.500000*%
G04 #@! TD*
G04 #@! TA.AperFunction,Conductor*
%ADD23C,0.750000*%
G04 #@! TD*
G04 #@! TA.AperFunction,Conductor*
%ADD24C,0.250000*%
G04 #@! TD*
G04 APERTURE END LIST*
D10*
X127563000Y-120257000D03*
D11*
X127563000Y-117757000D03*
D12*
X136293000Y-123043000D03*
D13*
X138833000Y-123043000D03*
D14*
X167563000Y-117757000D03*
D11*
X167563000Y-120257000D03*
D10*
X127563000Y-76257000D03*
D11*
X127563000Y-73757000D03*
D10*
X135038000Y-107507000D03*
D11*
X135038000Y-105007000D03*
D15*
X160530500Y-81227000D03*
D16*
X157990500Y-81227000D03*
X160530500Y-78687000D03*
X157990500Y-78687000D03*
X160530500Y-76147000D03*
X157990500Y-76147000D03*
X160530500Y-73607000D03*
X157990500Y-73607000D03*
D14*
X167563000Y-73757000D03*
D11*
X167563000Y-76257000D03*
D15*
X136489000Y-98531000D03*
D16*
X136489000Y-95991000D03*
X136489000Y-93451000D03*
X136489000Y-90911000D03*
X136489000Y-88371000D03*
X136489000Y-85831000D03*
D15*
X140863000Y-85577000D03*
D16*
X140863000Y-88117000D03*
X140863000Y-90657000D03*
X140863000Y-93197000D03*
X140863000Y-95737000D03*
X140863000Y-98277000D03*
X140863000Y-100817000D03*
X140863000Y-103357000D03*
X140863000Y-105897000D03*
X140863000Y-108437000D03*
D17*
X145563000Y-120543000D03*
D18*
X147563000Y-120543000D03*
X149563000Y-120543000D03*
X145563000Y-125543000D03*
X147563000Y-125543000D03*
X149563000Y-125543000D03*
D19*
X158833000Y-123932000D03*
D20*
X156333000Y-123932000D03*
D21*
X160009000Y-85507000D03*
X142508000Y-74020000D03*
X151358000Y-74909000D03*
X145785000Y-102400000D03*
X149214000Y-103925000D03*
X138104000Y-78846000D03*
X146226900Y-115803000D03*
X153659000Y-103925000D03*
X146226900Y-68432000D03*
X160009000Y-93507000D03*
X148198000Y-89700000D03*
X147887000Y-98850000D03*
X148199100Y-115803000D03*
X148199100Y-68432000D03*
X135977201Y-119592799D03*
X153659000Y-78973000D03*
X153786000Y-91673000D03*
X152516000Y-89700000D03*
X155691000Y-97896000D03*
X146420000Y-96450000D03*
X146226900Y-72623000D03*
X151754000Y-97007000D03*
X148199100Y-72623000D03*
X151754000Y-94850000D03*
X151754000Y-98658000D03*
X150423800Y-111612000D03*
X146420000Y-94850000D03*
X147182000Y-95650000D03*
D22*
X153663000Y-78973000D02*
X155917000Y-81227000D01*
X134990000Y-93451000D02*
X136489000Y-93451000D01*
X138563000Y-92672000D02*
X138563000Y-86449000D01*
X139435000Y-85577000D02*
X140863000Y-85577000D01*
X135977201Y-119592799D02*
X134969799Y-119592799D01*
X137784000Y-93451000D02*
X138563000Y-92672000D01*
X136489000Y-93451000D02*
X137784000Y-93451000D01*
X133085000Y-117708000D02*
X133085000Y-95356000D01*
X134969799Y-119592799D02*
X133085000Y-117708000D01*
X138563000Y-86449000D02*
X139435000Y-85577000D01*
X155917000Y-81227000D02*
X157990500Y-81227000D01*
X133085000Y-95356000D02*
X134990000Y-93451000D01*
X153659000Y-78973000D02*
X153663000Y-78973000D01*
D23*
X146039000Y-117835000D02*
X147563000Y-119359000D01*
X135038000Y-110390000D02*
X142483000Y-117835000D01*
X147563000Y-119359000D02*
X147563000Y-120543000D01*
X135038000Y-107507000D02*
X135038000Y-110390000D01*
X142483000Y-117835000D02*
X146039000Y-117835000D01*
D24*
X162491000Y-82588396D02*
X162491000Y-74724000D01*
X153786000Y-89642396D02*
X159179396Y-84249000D01*
X160830396Y-84249000D02*
X162491000Y-82588396D01*
X153786000Y-91673000D02*
X153786000Y-89642396D01*
X162491000Y-74724000D02*
X161374000Y-73607000D01*
X161374000Y-73607000D02*
X160530500Y-73607000D01*
X159179396Y-84249000D02*
X160830396Y-84249000D01*
X152516000Y-89700000D02*
X153092000Y-89700000D01*
X158993000Y-83799000D02*
X160644000Y-83799000D01*
X153092000Y-89700000D02*
X158993000Y-83799000D01*
X160644000Y-83799000D02*
X162041000Y-82402000D01*
X162041000Y-82402000D02*
X162041000Y-76814000D01*
X161374000Y-76147000D02*
X160530500Y-76147000D01*
X162041000Y-76814000D02*
X161374000Y-76147000D01*
X155691000Y-97896000D02*
X147866000Y-97896000D01*
X147866000Y-97896000D02*
X146420000Y-96450000D01*
X146226900Y-92522900D02*
X150711000Y-97007000D01*
X150711000Y-97007000D02*
X151754000Y-97007000D01*
X146226900Y-92522900D02*
X146226900Y-72623000D01*
X147309000Y-73513100D02*
X148199100Y-72623000D01*
X149978000Y-94850000D02*
X147309000Y-92181000D01*
X147309000Y-92181000D02*
X147309000Y-73513100D01*
X151754000Y-94850000D02*
X149978000Y-94850000D01*
X151754000Y-102976000D02*
X151754000Y-98658000D01*
X151754000Y-102976000D02*
X149722000Y-105008000D01*
X149722000Y-110910200D02*
X150423800Y-111612000D01*
X149722000Y-105008000D02*
X149722000Y-110910200D01*
X144767000Y-93197000D02*
X140863000Y-93197000D01*
X146420000Y-94850000D02*
X144767000Y-93197000D01*
X143252305Y-90657000D02*
X140863000Y-90657000D01*
X147182000Y-95650000D02*
X147182000Y-94586695D01*
X147182000Y-94586695D02*
X143252305Y-90657000D01*
G04 #@! TA.AperFunction,Conductor*
G36*
X163087817Y-67019132D02*
G01*
X170490938Y-70473922D01*
X170543364Y-70520110D01*
X170562500Y-70586289D01*
X170562500Y-83927709D01*
X170542815Y-83994748D01*
X170490938Y-84040076D01*
X166834258Y-85746527D01*
X163062806Y-87506538D01*
X163062695Y-87506584D01*
X163062616Y-87506617D01*
X163062532Y-87506702D01*
X163062464Y-87506888D01*
X163062500Y-87508423D01*
X163062500Y-106505568D01*
X163062464Y-106507113D01*
X163062531Y-106507298D01*
X163062669Y-106507435D01*
X163064059Y-106508046D01*
X165662568Y-107720683D01*
X170490938Y-109973922D01*
X170543364Y-110020110D01*
X170562500Y-110086289D01*
X170562500Y-123427709D01*
X170542815Y-123494748D01*
X170490938Y-123540076D01*
X163087818Y-126994867D01*
X163035380Y-127006500D01*
X149874582Y-127006500D01*
X149807543Y-126986815D01*
X149761788Y-126934011D01*
X149751844Y-126864853D01*
X149780869Y-126801297D01*
X149839647Y-126763523D01*
X149842489Y-126762725D01*
X149913630Y-126743662D01*
X149992330Y-126722575D01*
X150190639Y-126630102D01*
X150369877Y-126504598D01*
X150524598Y-126349877D01*
X150650102Y-126170639D01*
X150742575Y-125972330D01*
X150799207Y-125760977D01*
X150818277Y-125543000D01*
X150799207Y-125325023D01*
X150752485Y-125150656D01*
X150742577Y-125113677D01*
X150742576Y-125113676D01*
X150742575Y-125113670D01*
X150650102Y-124915362D01*
X150650100Y-124915359D01*
X150650099Y-124915357D01*
X150524599Y-124736124D01*
X150475318Y-124686843D01*
X150369877Y-124581402D01*
X150190639Y-124455898D01*
X150190640Y-124455898D01*
X150190638Y-124455897D01*
X150041501Y-124386354D01*
X149992330Y-124363425D01*
X149992326Y-124363424D01*
X149992322Y-124363422D01*
X149780977Y-124306793D01*
X149563002Y-124287723D01*
X149562998Y-124287723D01*
X149420532Y-124300187D01*
X149345023Y-124306793D01*
X149345020Y-124306793D01*
X149133677Y-124363422D01*
X149133668Y-124363426D01*
X148935361Y-124455898D01*
X148935357Y-124455900D01*
X148756124Y-124581400D01*
X148650680Y-124686844D01*
X148589357Y-124720328D01*
X148519665Y-124715344D01*
X148475318Y-124686843D01*
X148369881Y-124581406D01*
X148369877Y-124581402D01*
X148190639Y-124455898D01*
X148190640Y-124455898D01*
X148190638Y-124455897D01*
X148041501Y-124386354D01*
X147992330Y-124363425D01*
X147992326Y-124363424D01*
X147992322Y-124363422D01*
X147780977Y-124306793D01*
X147563002Y-124287723D01*
X147562998Y-124287723D01*
X147420532Y-124300187D01*
X147345023Y-124306793D01*
X147345020Y-124306793D01*
X147133677Y-124363422D01*
X147133668Y-124363426D01*
X146935361Y-124455898D01*
X146935357Y-124455900D01*
X146756124Y-124581400D01*
X146650680Y-124686844D01*
X146589357Y-124720328D01*
X146519665Y-124715344D01*
X146475318Y-124686843D01*
X146369881Y-124581406D01*
X146369877Y-124581402D01*
X146190639Y-124455898D01*
X146190640Y-124455898D01*
X146190638Y-124455897D01*
X146041501Y-124386354D01*
X145992330Y-124363425D01*
X145992326Y-124363424D01*
X145992322Y-124363422D01*
X145780977Y-124306793D01*
X145563002Y-124287723D01*
X145562998Y-124287723D01*
X145420532Y-124300187D01*
X145345023Y-124306793D01*
X145345020Y-124306793D01*
X145133677Y-124363422D01*
X145133668Y-124363426D01*
X144935361Y-124455898D01*
X144935357Y-124455900D01*
X144756121Y-124581402D01*
X144601402Y-124736121D01*
X144475900Y-124915357D01*
X144475898Y-124915361D01*
X144383426Y-125113668D01*
X144383422Y-125113677D01*
X144326793Y-125325020D01*
X144326793Y-125325024D01*
X144307723Y-125542997D01*
X144307723Y-125543002D01*
X144326793Y-125760975D01*
X144326793Y-125760979D01*
X144383422Y-125972322D01*
X144383424Y-125972326D01*
X144383425Y-125972330D01*
X144429661Y-126071484D01*
X144475897Y-126170638D01*
X144475898Y-126170639D01*
X144601402Y-126349877D01*
X144756123Y-126504598D01*
X144935361Y-126630102D01*
X145133670Y-126722575D01*
X145133676Y-126722576D01*
X145133677Y-126722577D01*
X145283511Y-126762725D01*
X145343172Y-126799090D01*
X145373701Y-126861937D01*
X145365406Y-126931313D01*
X145320921Y-126985190D01*
X145254369Y-127006465D01*
X145251418Y-127006500D01*
X132090620Y-127006500D01*
X132038182Y-126994867D01*
X125600993Y-123990844D01*
X134893000Y-123990844D01*
X134899401Y-124050372D01*
X134899403Y-124050379D01*
X134949645Y-124185086D01*
X134949649Y-124185093D01*
X135035809Y-124300187D01*
X135035812Y-124300190D01*
X135150906Y-124386350D01*
X135150913Y-124386354D01*
X135285620Y-124436596D01*
X135285627Y-124436598D01*
X135345155Y-124442999D01*
X135345172Y-124443000D01*
X136043000Y-124443000D01*
X136043000Y-123417189D01*
X136095547Y-123453016D01*
X136225173Y-123493000D01*
X136326724Y-123493000D01*
X136427138Y-123477865D01*
X136543000Y-123422068D01*
X136543000Y-124443000D01*
X137240828Y-124443000D01*
X137240844Y-124442999D01*
X137300372Y-124436598D01*
X137300379Y-124436596D01*
X137435086Y-124386354D01*
X137435093Y-124386350D01*
X137550187Y-124300190D01*
X137550190Y-124300187D01*
X137636350Y-124185093D01*
X137636355Y-124185084D01*
X137665075Y-124108081D01*
X137706945Y-124052147D01*
X137772409Y-124027729D01*
X137840682Y-124042580D01*
X137872484Y-124067428D01*
X137881216Y-124076913D01*
X137881219Y-124076915D01*
X137881222Y-124076918D01*
X138064365Y-124219464D01*
X138064371Y-124219468D01*
X138064374Y-124219470D01*
X138268497Y-124329936D01*
X138366047Y-124363425D01*
X138488015Y-124405297D01*
X138488017Y-124405297D01*
X138488019Y-124405298D01*
X138716951Y-124443500D01*
X138716952Y-124443500D01*
X138949048Y-124443500D01*
X138949049Y-124443500D01*
X139177981Y-124405298D01*
X139397503Y-124329936D01*
X139601626Y-124219470D01*
X139649768Y-124182000D01*
X154986592Y-124182000D01*
X154998430Y-124317315D01*
X154998432Y-124317326D01*
X155059566Y-124545483D01*
X155059570Y-124545492D01*
X155159399Y-124759577D01*
X155159400Y-124759579D01*
X155294886Y-124953073D01*
X155294891Y-124953079D01*
X155461917Y-125120105D01*
X155655421Y-125255600D01*
X155869507Y-125355429D01*
X155869516Y-125355433D01*
X156083000Y-125412634D01*
X156083000Y-124367501D01*
X156190685Y-124416680D01*
X156297237Y-124432000D01*
X156368763Y-124432000D01*
X156475315Y-124416680D01*
X156583000Y-124367501D01*
X156583000Y-125412633D01*
X156796483Y-125355433D01*
X156796492Y-125355429D01*
X157010577Y-125255600D01*
X157010579Y-125255599D01*
X157204073Y-125120113D01*
X157204079Y-125120108D01*
X157351331Y-124972857D01*
X157412654Y-124939372D01*
X157482346Y-124944356D01*
X157538279Y-124986228D01*
X157544551Y-124995441D01*
X157548186Y-125001334D01*
X157640288Y-125150656D01*
X157764344Y-125274712D01*
X157913666Y-125366814D01*
X158080203Y-125421999D01*
X158182991Y-125432500D01*
X159483008Y-125432499D01*
X159585797Y-125421999D01*
X159752334Y-125366814D01*
X159901656Y-125274712D01*
X160025712Y-125150656D01*
X160117814Y-125001334D01*
X160172999Y-124834797D01*
X160183500Y-124732009D01*
X160183499Y-123131992D01*
X160180682Y-123104420D01*
X160172999Y-123029203D01*
X160172998Y-123029200D01*
X160144015Y-122941735D01*
X160117814Y-122862666D01*
X160025712Y-122713344D01*
X159901656Y-122589288D01*
X159752334Y-122497186D01*
X159585797Y-122442001D01*
X159585795Y-122442000D01*
X159483010Y-122431500D01*
X158182998Y-122431500D01*
X158182981Y-122431501D01*
X158080203Y-122442000D01*
X158080200Y-122442001D01*
X157913668Y-122497185D01*
X157913663Y-122497187D01*
X157764342Y-122589289D01*
X157640288Y-122713343D01*
X157640285Y-122713347D01*
X157544550Y-122868558D01*
X157492602Y-122915283D01*
X157423640Y-122926504D01*
X157359558Y-122898661D01*
X157351331Y-122891143D01*
X157204078Y-122743891D01*
X157010578Y-122608399D01*
X156796492Y-122508570D01*
X156796486Y-122508567D01*
X156583000Y-122451364D01*
X156583000Y-123496498D01*
X156475315Y-123447320D01*
X156368763Y-123432000D01*
X156297237Y-123432000D01*
X156190685Y-123447320D01*
X156083000Y-123496498D01*
X156083000Y-122451364D01*
X156082999Y-122451364D01*
X155869513Y-122508567D01*
X155869507Y-122508570D01*
X155655422Y-122608399D01*
X155655420Y-122608400D01*
X155461926Y-122743886D01*
X155461920Y-122743891D01*
X155294891Y-122910920D01*
X155294886Y-122910926D01*
X155159400Y-123104420D01*
X155159399Y-123104422D01*
X155059570Y-123318507D01*
X155059566Y-123318516D01*
X154998432Y-123546673D01*
X154998430Y-123546684D01*
X154986592Y-123681999D01*
X154986593Y-123682000D01*
X155899314Y-123682000D01*
X155873507Y-123722156D01*
X155833000Y-123860111D01*
X155833000Y-124003889D01*
X155873507Y-124141844D01*
X155899314Y-124182000D01*
X154986592Y-124182000D01*
X139649768Y-124182000D01*
X139784784Y-124076913D01*
X139941979Y-123906153D01*
X140068924Y-123711849D01*
X140162157Y-123499300D01*
X140219134Y-123274305D01*
X140224524Y-123209260D01*
X140238300Y-123043006D01*
X140238300Y-123042993D01*
X140219135Y-122811702D01*
X140219133Y-122811691D01*
X140162157Y-122586699D01*
X140068924Y-122374151D01*
X139941983Y-122179852D01*
X139941980Y-122179849D01*
X139941979Y-122179847D01*
X139784784Y-122009087D01*
X139784779Y-122009083D01*
X139784777Y-122009081D01*
X139601634Y-121866535D01*
X139601628Y-121866531D01*
X139397504Y-121756064D01*
X139397495Y-121756061D01*
X139177984Y-121680702D01*
X138990404Y-121649401D01*
X138949049Y-121642500D01*
X138716951Y-121642500D01*
X138675596Y-121649401D01*
X138488015Y-121680702D01*
X138268504Y-121756061D01*
X138268495Y-121756064D01*
X138064371Y-121866531D01*
X138064365Y-121866535D01*
X137881222Y-122009081D01*
X137881215Y-122009087D01*
X137872484Y-122018572D01*
X137812595Y-122054561D01*
X137742757Y-122052458D01*
X137685143Y-122012932D01*
X137665075Y-121977918D01*
X137636355Y-121900915D01*
X137636350Y-121900906D01*
X137550190Y-121785812D01*
X137550187Y-121785809D01*
X137435093Y-121699649D01*
X137435086Y-121699645D01*
X137300379Y-121649403D01*
X137300372Y-121649401D01*
X137240844Y-121643000D01*
X136543000Y-121643000D01*
X136543000Y-122668810D01*
X136490453Y-122632984D01*
X136360827Y-122593000D01*
X136259276Y-122593000D01*
X136158862Y-122608135D01*
X136043000Y-122663931D01*
X136043000Y-121643000D01*
X135345155Y-121643000D01*
X135285627Y-121649401D01*
X135285620Y-121649403D01*
X135150913Y-121699645D01*
X135150906Y-121699649D01*
X135035812Y-121785809D01*
X135035809Y-121785812D01*
X134949649Y-121900906D01*
X134949645Y-121900913D01*
X134899403Y-122035620D01*
X134899401Y-122035627D01*
X134893000Y-122095155D01*
X134893000Y-122793000D01*
X135917722Y-122793000D01*
X135869375Y-122876740D01*
X135839190Y-123008992D01*
X135849327Y-123144265D01*
X135898887Y-123270541D01*
X135916797Y-123293000D01*
X134893000Y-123293000D01*
X134893000Y-123990844D01*
X125600993Y-123990844D01*
X124635062Y-123540076D01*
X124582636Y-123493888D01*
X124563500Y-123427709D01*
X124563500Y-117757000D01*
X126057341Y-117757000D01*
X126077936Y-117992403D01*
X126077938Y-117992413D01*
X126139094Y-118220655D01*
X126139096Y-118220659D01*
X126139097Y-118220663D01*
X126151092Y-118246386D01*
X126238964Y-118434828D01*
X126238965Y-118434830D01*
X126374505Y-118628402D01*
X126521704Y-118775601D01*
X126555189Y-118836924D01*
X126550205Y-118906616D01*
X126508333Y-118962549D01*
X126499120Y-118968820D01*
X126344347Y-119064285D01*
X126344343Y-119064288D01*
X126220289Y-119188342D01*
X126128187Y-119337663D01*
X126128185Y-119337668D01*
X126109328Y-119394576D01*
X126073001Y-119504203D01*
X126073001Y-119504204D01*
X126073000Y-119504204D01*
X126062500Y-119606983D01*
X126062500Y-120907001D01*
X126062501Y-120907018D01*
X126073000Y-121009796D01*
X126073001Y-121009799D01*
X126112303Y-121128402D01*
X126128186Y-121176334D01*
X126220288Y-121325656D01*
X126344344Y-121449712D01*
X126493666Y-121541814D01*
X126660203Y-121596999D01*
X126762991Y-121607500D01*
X128363008Y-121607499D01*
X128465797Y-121596999D01*
X128632334Y-121541814D01*
X128781656Y-121449712D01*
X128905712Y-121325656D01*
X128997814Y-121176334D01*
X129052999Y-121009797D01*
X129063500Y-120907009D01*
X129063499Y-119606992D01*
X129060656Y-119579165D01*
X129052999Y-119504203D01*
X129052998Y-119504200D01*
X129030217Y-119435452D01*
X128997814Y-119337666D01*
X128905712Y-119188344D01*
X128781656Y-119064288D01*
X128659951Y-118989220D01*
X128626879Y-118968821D01*
X128580155Y-118916873D01*
X128568932Y-118847910D01*
X128596776Y-118783828D01*
X128604295Y-118775601D01*
X128672297Y-118707599D01*
X128751495Y-118628401D01*
X128887035Y-118434830D01*
X128986903Y-118220663D01*
X129048063Y-117992408D01*
X129068659Y-117757000D01*
X129062449Y-117686025D01*
X132329710Y-117686025D01*
X132334264Y-117738064D01*
X132334500Y-117743470D01*
X132334500Y-117751709D01*
X132338306Y-117784274D01*
X132345000Y-117860791D01*
X132346461Y-117867867D01*
X132346403Y-117867878D01*
X132348034Y-117875237D01*
X132348092Y-117875224D01*
X132349757Y-117882250D01*
X132376025Y-117954424D01*
X132400185Y-118027331D01*
X132403236Y-118033874D01*
X132403182Y-118033898D01*
X132406470Y-118040688D01*
X132406521Y-118040663D01*
X132409761Y-118047113D01*
X132409762Y-118047114D01*
X132409763Y-118047117D01*
X132451965Y-118111283D01*
X132492287Y-118176655D01*
X132496766Y-118182319D01*
X132496719Y-118182356D01*
X132501482Y-118188202D01*
X132501528Y-118188164D01*
X132506173Y-118193700D01*
X132562018Y-118246386D01*
X134394066Y-120078433D01*
X134405847Y-120092065D01*
X134420189Y-120111329D01*
X134460219Y-120144918D01*
X134464191Y-120148558D01*
X134470022Y-120154389D01*
X134470021Y-120154389D01*
X134495743Y-120174726D01*
X134554585Y-120224101D01*
X134554593Y-120224105D01*
X134560623Y-120228072D01*
X134560589Y-120228122D01*
X134566936Y-120232165D01*
X134566968Y-120232115D01*
X134573117Y-120235907D01*
X134573119Y-120235908D01*
X134573122Y-120235910D01*
X134642729Y-120268368D01*
X134711366Y-120302839D01*
X134711375Y-120302841D01*
X134718154Y-120305309D01*
X134718133Y-120305366D01*
X134725250Y-120307839D01*
X134725269Y-120307783D01*
X134732129Y-120310056D01*
X134804604Y-120325020D01*
X134807331Y-120325583D01*
X134882078Y-120343299D01*
X134882087Y-120343299D01*
X134889251Y-120344137D01*
X134889244Y-120344196D01*
X134896745Y-120344962D01*
X134896751Y-120344903D01*
X134903939Y-120345532D01*
X134903942Y-120345531D01*
X134903943Y-120345532D01*
X134980697Y-120343299D01*
X135437864Y-120343299D01*
X135504903Y-120362984D01*
X135510749Y-120366981D01*
X135524466Y-120376947D01*
X135524471Y-120376950D01*
X135697393Y-120453941D01*
X135697398Y-120453943D01*
X135882555Y-120493299D01*
X135882556Y-120493299D01*
X136071845Y-120493299D01*
X136071847Y-120493299D01*
X136257004Y-120453943D01*
X136429931Y-120376950D01*
X136583072Y-120265687D01*
X136709734Y-120125015D01*
X136804380Y-119961083D01*
X136862875Y-119781055D01*
X136882661Y-119592799D01*
X136862875Y-119404543D01*
X136804380Y-119224515D01*
X136709734Y-119060583D01*
X136583072Y-118919911D01*
X136564773Y-118906616D01*
X136429935Y-118808650D01*
X136429930Y-118808647D01*
X136257008Y-118731656D01*
X136257003Y-118731654D01*
X136111202Y-118700664D01*
X136071847Y-118692299D01*
X135882555Y-118692299D01*
X135850098Y-118699197D01*
X135697398Y-118731654D01*
X135697393Y-118731656D01*
X135524471Y-118808647D01*
X135524466Y-118808650D01*
X135510749Y-118818617D01*
X135444943Y-118842097D01*
X135437864Y-118842299D01*
X135332029Y-118842299D01*
X135264990Y-118822614D01*
X135244348Y-118805980D01*
X133871819Y-117433451D01*
X133838334Y-117372128D01*
X133835500Y-117345770D01*
X133835500Y-108919407D01*
X133855185Y-108852368D01*
X133907989Y-108806613D01*
X133977147Y-108796669D01*
X133998500Y-108801700D01*
X134077505Y-108827879D01*
X134134949Y-108867652D01*
X134161772Y-108932167D01*
X134162500Y-108945585D01*
X134162500Y-110351897D01*
X134162295Y-110356931D01*
X134157660Y-110413843D01*
X134168914Y-110496441D01*
X134177927Y-110579316D01*
X134177929Y-110579327D01*
X134177990Y-110579506D01*
X134183340Y-110602331D01*
X134183366Y-110602525D01*
X134183369Y-110602536D01*
X134212119Y-110680794D01*
X134238730Y-110759774D01*
X134238734Y-110759782D01*
X134238832Y-110759945D01*
X134248969Y-110781099D01*
X134249036Y-110781283D01*
X134249038Y-110781286D01*
X134249039Y-110781288D01*
X134293940Y-110851536D01*
X134336911Y-110922954D01*
X134337042Y-110923092D01*
X134351495Y-110941579D01*
X134351602Y-110941747D01*
X134410552Y-111000696D01*
X134467871Y-111061207D01*
X134468028Y-111061314D01*
X134486121Y-111076265D01*
X141836992Y-118427136D01*
X141840396Y-118430829D01*
X141877362Y-118474350D01*
X141877363Y-118474351D01*
X141877365Y-118474352D01*
X141877369Y-118474357D01*
X141923993Y-118509799D01*
X141943737Y-118524808D01*
X142008699Y-118577027D01*
X142008701Y-118577029D01*
X142008872Y-118577114D01*
X142028814Y-118589483D01*
X142028971Y-118589602D01*
X142104640Y-118624610D01*
X142179307Y-118661641D01*
X142179481Y-118661684D01*
X142201626Y-118669480D01*
X142201803Y-118669562D01*
X142201806Y-118669562D01*
X142201807Y-118669563D01*
X142201806Y-118669563D01*
X142283228Y-118687485D01*
X142284463Y-118687792D01*
X142364111Y-118707600D01*
X142364284Y-118707604D01*
X142387602Y-118710460D01*
X142387784Y-118710500D01*
X142387787Y-118710500D01*
X142471160Y-118710500D01*
X142554473Y-118712757D01*
X142554655Y-118712721D01*
X142578023Y-118710500D01*
X145624994Y-118710500D01*
X145692033Y-118730185D01*
X145712675Y-118746819D01*
X146046675Y-119080819D01*
X146080160Y-119142142D01*
X146075176Y-119211834D01*
X146033304Y-119267767D01*
X145967840Y-119292184D01*
X145958994Y-119292500D01*
X144765129Y-119292500D01*
X144765123Y-119292501D01*
X144705516Y-119298908D01*
X144570671Y-119349202D01*
X144570664Y-119349206D01*
X144455455Y-119435452D01*
X144455452Y-119435455D01*
X144369206Y-119550664D01*
X144369202Y-119550671D01*
X144318908Y-119685517D01*
X144312501Y-119745116D01*
X144312500Y-119745135D01*
X144312500Y-121340870D01*
X144312501Y-121340876D01*
X144318908Y-121400483D01*
X144369202Y-121535328D01*
X144369206Y-121535335D01*
X144455452Y-121650544D01*
X144455455Y-121650547D01*
X144570664Y-121736793D01*
X144570671Y-121736797D01*
X144705517Y-121787091D01*
X144705516Y-121787091D01*
X144712444Y-121787835D01*
X144765127Y-121793500D01*
X146360872Y-121793499D01*
X146420483Y-121787091D01*
X146555331Y-121736796D01*
X146670546Y-121650546D01*
X146699670Y-121611641D01*
X146755602Y-121569770D01*
X146825294Y-121564786D01*
X146870058Y-121584376D01*
X146935361Y-121630102D01*
X147133670Y-121722575D01*
X147345023Y-121779207D01*
X147527926Y-121795208D01*
X147562998Y-121798277D01*
X147563000Y-121798277D01*
X147563002Y-121798277D01*
X147591254Y-121795805D01*
X147780977Y-121779207D01*
X147992330Y-121722575D01*
X148190639Y-121630102D01*
X148369877Y-121504598D01*
X148475319Y-121399156D01*
X148536642Y-121365671D01*
X148606334Y-121370655D01*
X148650681Y-121399156D01*
X148756123Y-121504598D01*
X148935361Y-121630102D01*
X149133670Y-121722575D01*
X149345023Y-121779207D01*
X149527926Y-121795208D01*
X149562998Y-121798277D01*
X149563000Y-121798277D01*
X149563002Y-121798277D01*
X149591254Y-121795805D01*
X149780977Y-121779207D01*
X149992330Y-121722575D01*
X150190639Y-121630102D01*
X150369877Y-121504598D01*
X150524598Y-121349877D01*
X150650102Y-121170639D01*
X150742575Y-120972330D01*
X150799207Y-120760977D01*
X150818277Y-120543000D01*
X150799207Y-120325023D01*
X150780980Y-120257000D01*
X166057341Y-120257000D01*
X166077936Y-120492403D01*
X166077938Y-120492413D01*
X166139094Y-120720655D01*
X166139096Y-120720659D01*
X166139097Y-120720663D01*
X166157895Y-120760975D01*
X166238964Y-120934828D01*
X166238965Y-120934830D01*
X166374505Y-121128402D01*
X166541597Y-121295494D01*
X166735169Y-121431034D01*
X166735171Y-121431035D01*
X166949337Y-121530903D01*
X166949343Y-121530904D01*
X166949344Y-121530905D01*
X166990050Y-121541812D01*
X167177592Y-121592063D01*
X167354034Y-121607500D01*
X167771966Y-121607500D01*
X167948408Y-121592063D01*
X168176663Y-121530903D01*
X168390829Y-121431035D01*
X168584401Y-121295495D01*
X168751495Y-121128401D01*
X168887035Y-120934830D01*
X168986903Y-120720663D01*
X169048063Y-120492408D01*
X169068659Y-120257000D01*
X169048063Y-120021592D01*
X168986903Y-119793337D01*
X168887035Y-119579171D01*
X168887034Y-119579169D01*
X168751494Y-119385597D01*
X168604295Y-119238398D01*
X168570810Y-119177075D01*
X168575794Y-119107383D01*
X168617666Y-119051450D01*
X168626880Y-119045178D01*
X168632334Y-119041814D01*
X168781656Y-118949712D01*
X168905712Y-118825656D01*
X168997814Y-118676334D01*
X169052999Y-118509797D01*
X169063500Y-118407009D01*
X169063499Y-117106992D01*
X169062066Y-117092968D01*
X169052999Y-117004203D01*
X169052998Y-117004200D01*
X169039147Y-116962400D01*
X168997814Y-116837666D01*
X168905712Y-116688344D01*
X168781656Y-116564288D01*
X168688888Y-116507069D01*
X168632336Y-116472187D01*
X168632331Y-116472185D01*
X168630862Y-116471698D01*
X168465797Y-116417001D01*
X168465795Y-116417000D01*
X168363010Y-116406500D01*
X166762998Y-116406500D01*
X166762981Y-116406501D01*
X166660203Y-116417000D01*
X166660200Y-116417001D01*
X166493668Y-116472185D01*
X166493663Y-116472187D01*
X166344342Y-116564289D01*
X166220289Y-116688342D01*
X166128187Y-116837663D01*
X166128185Y-116837668D01*
X166112301Y-116885604D01*
X166073001Y-117004203D01*
X166073001Y-117004204D01*
X166073000Y-117004204D01*
X166062500Y-117106983D01*
X166062500Y-118407001D01*
X166062501Y-118407018D01*
X166073000Y-118509796D01*
X166073001Y-118509799D01*
X166128185Y-118676331D01*
X166128187Y-118676336D01*
X166149260Y-118710500D01*
X166215946Y-118818617D01*
X166220289Y-118825657D01*
X166344344Y-118949712D01*
X166499120Y-119045178D01*
X166545845Y-119097126D01*
X166557068Y-119166088D01*
X166529224Y-119230171D01*
X166521706Y-119238398D01*
X166374501Y-119385603D01*
X166374501Y-119385604D01*
X166238967Y-119579165D01*
X166238965Y-119579169D01*
X166139098Y-119793335D01*
X166139094Y-119793344D01*
X166077938Y-120021586D01*
X166077936Y-120021596D01*
X166057341Y-120256999D01*
X166057341Y-120257000D01*
X150780980Y-120257000D01*
X150742575Y-120113670D01*
X150650102Y-119915362D01*
X150650100Y-119915359D01*
X150650099Y-119915357D01*
X150524599Y-119736124D01*
X150473992Y-119685517D01*
X150369877Y-119581402D01*
X150190639Y-119455898D01*
X150190640Y-119455898D01*
X150190638Y-119455897D01*
X150064542Y-119397098D01*
X149992330Y-119363425D01*
X149992326Y-119363424D01*
X149992322Y-119363422D01*
X149780977Y-119306793D01*
X149563002Y-119287723D01*
X149562998Y-119287723D01*
X149435151Y-119298908D01*
X149345023Y-119306793D01*
X149345020Y-119306793D01*
X149133677Y-119363422D01*
X149133668Y-119363426D01*
X148935361Y-119455898D01*
X148935357Y-119455900D01*
X148756124Y-119581400D01*
X148650680Y-119686844D01*
X148589357Y-119720328D01*
X148519665Y-119715344D01*
X148475318Y-119686843D01*
X148474819Y-119686344D01*
X148441334Y-119625021D01*
X148438500Y-119598663D01*
X148438500Y-119397098D01*
X148438705Y-119392063D01*
X148440205Y-119373630D01*
X148443339Y-119335152D01*
X148432085Y-119252556D01*
X148423073Y-119169684D01*
X148423015Y-119169512D01*
X148417655Y-119146641D01*
X148417631Y-119146462D01*
X148388883Y-119068213D01*
X148362267Y-118989220D01*
X148362168Y-118989055D01*
X148352022Y-118967879D01*
X148351961Y-118967715D01*
X148351960Y-118967712D01*
X148307068Y-118897478D01*
X148264089Y-118826046D01*
X148263955Y-118825904D01*
X148249504Y-118807419D01*
X148249400Y-118807256D01*
X148190447Y-118748303D01*
X148133129Y-118687793D01*
X148132970Y-118687685D01*
X148114877Y-118672733D01*
X147434547Y-117992403D01*
X146684999Y-117242855D01*
X146681608Y-117239176D01*
X146644631Y-117195643D01*
X146578262Y-117145191D01*
X146513297Y-117092970D01*
X146513294Y-117092968D01*
X146513120Y-117092882D01*
X146493182Y-117080514D01*
X146493029Y-117080397D01*
X146493027Y-117080396D01*
X146417359Y-117045389D01*
X146342693Y-117008359D01*
X146342689Y-117008358D01*
X146342680Y-117008355D01*
X146342488Y-117008307D01*
X146320385Y-117000525D01*
X146320198Y-117000438D01*
X146320194Y-117000437D01*
X146238771Y-116982514D01*
X146157885Y-116962399D01*
X146157689Y-116962394D01*
X146134413Y-116959543D01*
X146134222Y-116959501D01*
X146134219Y-116959500D01*
X146134216Y-116959500D01*
X146134212Y-116959500D01*
X146050840Y-116959500D01*
X145967527Y-116957243D01*
X145967526Y-116957243D01*
X145967345Y-116957278D01*
X145943977Y-116959500D01*
X142897006Y-116959500D01*
X142829967Y-116939815D01*
X142809325Y-116923181D01*
X135949819Y-110063675D01*
X135916334Y-110002352D01*
X135913500Y-109975994D01*
X135913500Y-108945585D01*
X135933185Y-108878546D01*
X135985989Y-108832791D01*
X135998489Y-108827881D01*
X136107334Y-108791814D01*
X136256656Y-108699712D01*
X136380712Y-108575656D01*
X136472814Y-108426334D01*
X136527999Y-108259797D01*
X136538500Y-108157009D01*
X136538499Y-106856992D01*
X136532286Y-106796175D01*
X136527999Y-106754203D01*
X136527998Y-106754200D01*
X136498553Y-106665342D01*
X136472814Y-106587666D01*
X136380712Y-106438344D01*
X136256656Y-106314288D01*
X136107334Y-106222186D01*
X136101441Y-106218551D01*
X136054717Y-106166603D01*
X136043494Y-106097640D01*
X136071338Y-106033558D01*
X136078857Y-106025331D01*
X136226105Y-105878082D01*
X136361600Y-105684578D01*
X136461429Y-105470492D01*
X136461432Y-105470486D01*
X136518636Y-105257000D01*
X135471686Y-105257000D01*
X135497493Y-105216844D01*
X135538000Y-105078889D01*
X135538000Y-104935111D01*
X135497493Y-104797156D01*
X135471686Y-104757000D01*
X136518636Y-104757000D01*
X136518635Y-104756999D01*
X136461432Y-104543513D01*
X136461429Y-104543507D01*
X136361600Y-104329422D01*
X136361599Y-104329420D01*
X136226113Y-104135926D01*
X136226108Y-104135920D01*
X136059079Y-103968891D01*
X136059073Y-103968886D01*
X135865579Y-103833400D01*
X135865577Y-103833399D01*
X135651492Y-103733570D01*
X135651483Y-103733566D01*
X135423326Y-103672432D01*
X135423316Y-103672430D01*
X135288000Y-103660590D01*
X135288000Y-104571498D01*
X135180315Y-104522320D01*
X135073763Y-104507000D01*
X135002237Y-104507000D01*
X134895685Y-104522320D01*
X134788000Y-104571498D01*
X134788000Y-103660591D01*
X134787999Y-103660590D01*
X134652683Y-103672430D01*
X134652673Y-103672432D01*
X134424516Y-103733566D01*
X134424507Y-103733570D01*
X134210422Y-103833399D01*
X134210420Y-103833400D01*
X134030623Y-103959296D01*
X133964417Y-103981623D01*
X133896650Y-103964613D01*
X133848837Y-103913665D01*
X133835500Y-103857721D01*
X133835500Y-95718230D01*
X133855185Y-95651191D01*
X133871819Y-95630549D01*
X134551710Y-94950658D01*
X135234595Y-94267772D01*
X135295916Y-94234289D01*
X135365608Y-94239273D01*
X135421541Y-94281145D01*
X135423848Y-94284331D01*
X135450505Y-94322401D01*
X135617597Y-94489493D01*
X135617603Y-94489498D01*
X135803158Y-94619425D01*
X135846783Y-94674002D01*
X135853977Y-94743500D01*
X135822454Y-94805855D01*
X135803158Y-94822575D01*
X135617597Y-94952505D01*
X135450505Y-95119597D01*
X135314965Y-95313169D01*
X135314964Y-95313171D01*
X135215098Y-95527335D01*
X135215094Y-95527344D01*
X135153938Y-95755586D01*
X135153936Y-95755596D01*
X135133341Y-95990999D01*
X135133341Y-95991000D01*
X135153936Y-96226403D01*
X135153938Y-96226413D01*
X135215094Y-96454655D01*
X135215096Y-96454659D01*
X135215097Y-96454663D01*
X135300922Y-96638715D01*
X135314965Y-96668830D01*
X135314967Y-96668834D01*
X135389655Y-96775498D01*
X135450501Y-96862396D01*
X135450506Y-96862402D01*
X135572430Y-96984326D01*
X135605915Y-97045649D01*
X135600931Y-97115341D01*
X135559059Y-97171274D01*
X135528083Y-97188189D01*
X135396669Y-97237203D01*
X135396664Y-97237206D01*
X135281455Y-97323452D01*
X135281452Y-97323455D01*
X135195206Y-97438664D01*
X135195202Y-97438671D01*
X135144908Y-97573517D01*
X135138501Y-97633116D01*
X135138501Y-97633123D01*
X135138500Y-97633135D01*
X135138500Y-99428870D01*
X135138501Y-99428876D01*
X135144908Y-99488483D01*
X135195202Y-99623328D01*
X135195206Y-99623335D01*
X135281452Y-99738544D01*
X135281455Y-99738547D01*
X135396664Y-99824793D01*
X135396671Y-99824797D01*
X135531517Y-99875091D01*
X135531516Y-99875091D01*
X135538444Y-99875835D01*
X135591127Y-99881500D01*
X137386872Y-99881499D01*
X137446483Y-99875091D01*
X137581331Y-99824796D01*
X137696546Y-99738546D01*
X137782796Y-99623331D01*
X137833091Y-99488483D01*
X137839500Y-99428873D01*
X137839499Y-97633128D01*
X137833091Y-97573517D01*
X137816008Y-97527716D01*
X137782797Y-97438671D01*
X137782793Y-97438664D01*
X137696547Y-97323455D01*
X137696544Y-97323452D01*
X137581335Y-97237206D01*
X137581328Y-97237202D01*
X137449917Y-97188189D01*
X137393983Y-97146318D01*
X137369566Y-97080853D01*
X137384418Y-97012580D01*
X137405563Y-96984332D01*
X137527495Y-96862401D01*
X137663035Y-96668830D01*
X137762903Y-96454663D01*
X137824063Y-96226408D01*
X137844659Y-95991000D01*
X137824063Y-95755592D01*
X137762903Y-95527337D01*
X137663035Y-95313171D01*
X137646912Y-95290144D01*
X137527494Y-95119597D01*
X137360402Y-94952506D01*
X137360396Y-94952501D01*
X137174842Y-94822575D01*
X137131217Y-94767998D01*
X137124023Y-94698500D01*
X137155546Y-94636145D01*
X137174842Y-94619425D01*
X137255475Y-94562965D01*
X137360401Y-94489495D01*
X137527495Y-94322401D01*
X137575127Y-94254376D01*
X137629704Y-94210751D01*
X137676701Y-94201500D01*
X137720295Y-94201500D01*
X137738265Y-94202809D01*
X137762023Y-94206289D01*
X137814068Y-94201735D01*
X137819470Y-94201500D01*
X137827704Y-94201500D01*
X137827709Y-94201500D01*
X137839327Y-94200141D01*
X137860276Y-94197693D01*
X137873028Y-94196577D01*
X137936797Y-94190999D01*
X137936805Y-94190996D01*
X137943866Y-94189539D01*
X137943878Y-94189598D01*
X137951243Y-94187965D01*
X137951229Y-94187906D01*
X137958246Y-94186241D01*
X137958255Y-94186241D01*
X138030423Y-94159974D01*
X138103334Y-94135814D01*
X138103343Y-94135807D01*
X138109882Y-94132760D01*
X138109908Y-94132816D01*
X138116690Y-94129532D01*
X138116663Y-94129478D01*
X138123106Y-94126240D01*
X138123117Y-94126237D01*
X138187283Y-94084034D01*
X138252656Y-94043712D01*
X138252662Y-94043705D01*
X138258325Y-94039229D01*
X138258362Y-94039277D01*
X138264204Y-94034518D01*
X138264164Y-94034471D01*
X138269686Y-94029836D01*
X138269696Y-94029830D01*
X138291399Y-94006825D01*
X138322387Y-93973981D01*
X138863963Y-93432403D01*
X139048641Y-93247724D01*
X139062260Y-93235954D01*
X139081530Y-93221610D01*
X139115123Y-93181574D01*
X139118757Y-93177608D01*
X139124590Y-93171777D01*
X139144927Y-93146055D01*
X139194302Y-93087214D01*
X139194304Y-93087209D01*
X139198272Y-93081179D01*
X139198323Y-93081212D01*
X139202369Y-93074860D01*
X139202317Y-93074828D01*
X139206109Y-93068679D01*
X139206111Y-93068677D01*
X139238569Y-92999069D01*
X139273040Y-92930433D01*
X139273043Y-92930417D01*
X139275510Y-92923644D01*
X139275568Y-92923665D01*
X139278043Y-92916546D01*
X139277985Y-92916527D01*
X139280256Y-92909672D01*
X139288001Y-92872164D01*
X139295784Y-92834467D01*
X139313500Y-92759721D01*
X139313500Y-92759720D01*
X139314339Y-92752548D01*
X139314397Y-92752554D01*
X139315164Y-92745056D01*
X139315104Y-92745051D01*
X139315733Y-92737860D01*
X139315601Y-92733337D01*
X139313500Y-92661102D01*
X139313500Y-91033993D01*
X139333185Y-90966954D01*
X139385989Y-90921199D01*
X139455147Y-90911255D01*
X139518703Y-90940280D01*
X139556477Y-90999058D01*
X139557275Y-91001900D01*
X139589094Y-91120655D01*
X139589096Y-91120659D01*
X139589097Y-91120663D01*
X139664563Y-91282500D01*
X139688965Y-91334830D01*
X139688967Y-91334834D01*
X139793933Y-91484740D01*
X139824501Y-91528396D01*
X139824506Y-91528402D01*
X139991597Y-91695493D01*
X139991603Y-91695498D01*
X140177158Y-91825425D01*
X140220783Y-91880002D01*
X140227977Y-91949500D01*
X140196454Y-92011855D01*
X140177158Y-92028575D01*
X139991597Y-92158505D01*
X139824505Y-92325597D01*
X139688965Y-92519169D01*
X139688964Y-92519171D01*
X139589098Y-92733335D01*
X139589094Y-92733344D01*
X139527938Y-92961586D01*
X139527936Y-92961596D01*
X139507341Y-93196999D01*
X139507341Y-93197000D01*
X139527936Y-93432403D01*
X139527938Y-93432413D01*
X139589094Y-93660655D01*
X139589096Y-93660659D01*
X139589097Y-93660663D01*
X139664563Y-93822500D01*
X139688965Y-93874830D01*
X139688967Y-93874834D01*
X139797281Y-94029521D01*
X139824501Y-94068396D01*
X139824506Y-94068402D01*
X139991597Y-94235493D01*
X139991603Y-94235498D01*
X140177158Y-94365425D01*
X140220783Y-94420002D01*
X140227977Y-94489500D01*
X140196454Y-94551855D01*
X140177158Y-94568575D01*
X139991597Y-94698505D01*
X139824505Y-94865597D01*
X139688965Y-95059169D01*
X139688964Y-95059171D01*
X139589098Y-95273335D01*
X139589094Y-95273344D01*
X139527938Y-95501586D01*
X139527936Y-95501596D01*
X139507341Y-95736999D01*
X139507341Y-95737000D01*
X139527936Y-95972403D01*
X139527938Y-95972413D01*
X139589094Y-96200655D01*
X139589096Y-96200659D01*
X139589097Y-96200663D01*
X139654292Y-96340474D01*
X139688965Y-96414830D01*
X139688967Y-96414834D01*
X139824501Y-96608395D01*
X139824506Y-96608402D01*
X139991597Y-96775493D01*
X139991603Y-96775498D01*
X140177158Y-96905425D01*
X140220783Y-96960002D01*
X140227977Y-97029500D01*
X140196454Y-97091855D01*
X140177158Y-97108575D01*
X139991597Y-97238505D01*
X139824505Y-97405597D01*
X139688965Y-97599169D01*
X139688964Y-97599171D01*
X139589098Y-97813335D01*
X139589094Y-97813344D01*
X139527938Y-98041586D01*
X139527936Y-98041596D01*
X139507341Y-98276999D01*
X139507341Y-98277000D01*
X139527936Y-98512403D01*
X139527938Y-98512413D01*
X139589094Y-98740655D01*
X139589096Y-98740659D01*
X139589097Y-98740663D01*
X139688965Y-98954830D01*
X139688967Y-98954834D01*
X139824501Y-99148395D01*
X139824506Y-99148402D01*
X139991597Y-99315493D01*
X139991603Y-99315498D01*
X140177158Y-99445425D01*
X140220783Y-99500002D01*
X140227977Y-99569500D01*
X140196454Y-99631855D01*
X140177158Y-99648575D01*
X139991597Y-99778505D01*
X139824505Y-99945597D01*
X139688965Y-100139169D01*
X139688964Y-100139171D01*
X139589098Y-100353335D01*
X139589094Y-100353344D01*
X139527938Y-100581586D01*
X139527936Y-100581596D01*
X139507341Y-100816999D01*
X139507341Y-100817000D01*
X139527936Y-101052403D01*
X139527938Y-101052413D01*
X139589094Y-101280655D01*
X139589096Y-101280659D01*
X139589097Y-101280663D01*
X139688965Y-101494830D01*
X139688967Y-101494834D01*
X139824501Y-101688395D01*
X139824506Y-101688402D01*
X139991597Y-101855493D01*
X139991603Y-101855498D01*
X140177158Y-101985425D01*
X140220783Y-102040002D01*
X140227977Y-102109500D01*
X140196454Y-102171855D01*
X140177158Y-102188575D01*
X139991597Y-102318505D01*
X139824505Y-102485597D01*
X139688965Y-102679169D01*
X139688964Y-102679171D01*
X139589098Y-102893335D01*
X139589094Y-102893344D01*
X139527938Y-103121586D01*
X139527936Y-103121596D01*
X139507341Y-103356999D01*
X139507341Y-103357000D01*
X139527936Y-103592403D01*
X139527938Y-103592413D01*
X139589094Y-103820655D01*
X139589096Y-103820659D01*
X139589097Y-103820663D01*
X139632465Y-103913665D01*
X139688965Y-104034830D01*
X139688967Y-104034834D01*
X139824501Y-104228395D01*
X139824506Y-104228402D01*
X139991597Y-104395493D01*
X139991603Y-104395498D01*
X140177158Y-104525425D01*
X140220783Y-104580002D01*
X140227977Y-104649500D01*
X140196454Y-104711855D01*
X140177158Y-104728575D01*
X139991597Y-104858505D01*
X139824505Y-105025597D01*
X139688965Y-105219169D01*
X139688964Y-105219171D01*
X139589098Y-105433335D01*
X139589094Y-105433344D01*
X139527938Y-105661586D01*
X139527936Y-105661596D01*
X139507341Y-105896999D01*
X139507341Y-105897000D01*
X139527936Y-106132403D01*
X139527938Y-106132413D01*
X139589094Y-106360655D01*
X139589096Y-106360659D01*
X139589097Y-106360663D01*
X139656668Y-106505568D01*
X139688965Y-106574830D01*
X139688967Y-106574834D01*
X139779849Y-106704626D01*
X139818041Y-106759170D01*
X139824501Y-106768395D01*
X139824506Y-106768402D01*
X139991597Y-106935493D01*
X139991603Y-106935498D01*
X140177158Y-107065425D01*
X140220783Y-107120002D01*
X140227977Y-107189500D01*
X140196454Y-107251855D01*
X140177158Y-107268575D01*
X139991597Y-107398505D01*
X139824505Y-107565597D01*
X139688965Y-107759169D01*
X139688964Y-107759171D01*
X139589098Y-107973335D01*
X139589094Y-107973344D01*
X139527938Y-108201586D01*
X139527936Y-108201596D01*
X139507341Y-108436999D01*
X139507341Y-108437000D01*
X139527936Y-108672403D01*
X139527938Y-108672413D01*
X139589094Y-108900655D01*
X139589096Y-108900659D01*
X139589097Y-108900663D01*
X139603788Y-108932167D01*
X139688965Y-109114830D01*
X139688967Y-109114834D01*
X139797281Y-109269521D01*
X139824505Y-109308401D01*
X139991599Y-109475495D01*
X140088384Y-109543265D01*
X140185165Y-109611032D01*
X140185167Y-109611033D01*
X140185170Y-109611035D01*
X140399337Y-109710903D01*
X140627592Y-109772063D01*
X140815918Y-109788539D01*
X140862999Y-109792659D01*
X140863000Y-109792659D01*
X140863001Y-109792659D01*
X140902234Y-109789226D01*
X141098408Y-109772063D01*
X141326663Y-109710903D01*
X141540830Y-109611035D01*
X141734401Y-109475495D01*
X141901495Y-109308401D01*
X142037035Y-109114830D01*
X142136903Y-108900663D01*
X142198063Y-108672408D01*
X142218659Y-108437000D01*
X142218496Y-108435142D01*
X142203155Y-108259795D01*
X142198063Y-108201592D01*
X142136903Y-107973337D01*
X142037035Y-107759171D01*
X141950078Y-107634982D01*
X141901494Y-107565597D01*
X141734402Y-107398506D01*
X141734396Y-107398501D01*
X141548842Y-107268575D01*
X141505217Y-107213998D01*
X141498023Y-107144500D01*
X141529546Y-107082145D01*
X141548842Y-107065425D01*
X141571026Y-107049891D01*
X141734401Y-106935495D01*
X141901495Y-106768401D01*
X142037035Y-106574830D01*
X142136903Y-106360663D01*
X142198063Y-106132408D01*
X142218659Y-105897000D01*
X142198063Y-105661592D01*
X142136903Y-105433337D01*
X142037035Y-105219171D01*
X141911874Y-105040421D01*
X141901494Y-105025597D01*
X141734402Y-104858506D01*
X141734396Y-104858501D01*
X141548842Y-104728575D01*
X141505217Y-104673998D01*
X141498023Y-104604500D01*
X141529546Y-104542145D01*
X141548842Y-104525425D01*
X141574871Y-104507199D01*
X141734401Y-104395495D01*
X141901495Y-104228401D01*
X142037035Y-104034830D01*
X142136903Y-103820663D01*
X142198063Y-103592408D01*
X142218659Y-103357000D01*
X142198063Y-103121592D01*
X142136903Y-102893337D01*
X142037035Y-102679171D01*
X141901495Y-102485599D01*
X141901494Y-102485597D01*
X141734402Y-102318506D01*
X141734396Y-102318501D01*
X141548842Y-102188575D01*
X141505217Y-102133998D01*
X141498023Y-102064500D01*
X141529546Y-102002145D01*
X141548842Y-101985425D01*
X141571026Y-101969891D01*
X141734401Y-101855495D01*
X141901495Y-101688401D01*
X142037035Y-101494830D01*
X142136903Y-101280663D01*
X142198063Y-101052408D01*
X142218659Y-100817000D01*
X142198063Y-100581592D01*
X142136903Y-100353337D01*
X142037035Y-100139171D01*
X141901495Y-99945599D01*
X141901494Y-99945597D01*
X141734402Y-99778506D01*
X141734396Y-99778501D01*
X141548842Y-99648575D01*
X141505217Y-99593998D01*
X141498023Y-99524500D01*
X141529546Y-99462145D01*
X141548842Y-99445425D01*
X141572493Y-99428864D01*
X141734401Y-99315495D01*
X141901495Y-99148401D01*
X142037035Y-98954830D01*
X142136903Y-98740663D01*
X142198063Y-98512408D01*
X142218659Y-98277000D01*
X142217546Y-98264284D01*
X142201796Y-98084259D01*
X142198063Y-98041592D01*
X142136903Y-97813337D01*
X142037035Y-97599171D01*
X142019072Y-97573516D01*
X141901494Y-97405597D01*
X141734402Y-97238506D01*
X141734396Y-97238501D01*
X141548842Y-97108575D01*
X141505217Y-97053998D01*
X141498023Y-96984500D01*
X141529546Y-96922145D01*
X141548842Y-96905425D01*
X141610286Y-96862401D01*
X141734401Y-96775495D01*
X141901495Y-96608401D01*
X142037035Y-96414830D01*
X142136903Y-96200663D01*
X142198063Y-95972408D01*
X142218659Y-95737000D01*
X142198063Y-95501592D01*
X142139479Y-95282951D01*
X142136905Y-95273344D01*
X142136904Y-95273343D01*
X142136903Y-95273337D01*
X142037035Y-95059171D01*
X142022393Y-95038259D01*
X141901494Y-94865597D01*
X141734402Y-94698506D01*
X141734396Y-94698501D01*
X141548842Y-94568575D01*
X141505217Y-94513998D01*
X141498023Y-94444500D01*
X141529546Y-94382145D01*
X141548842Y-94365425D01*
X141669206Y-94281145D01*
X141734401Y-94235495D01*
X141901495Y-94068401D01*
X142036652Y-93875377D01*
X142091229Y-93831752D01*
X142138227Y-93822500D01*
X144456548Y-93822500D01*
X144523587Y-93842185D01*
X144544229Y-93858819D01*
X145481038Y-94795629D01*
X145514523Y-94856952D01*
X145516678Y-94870348D01*
X145524082Y-94940786D01*
X145534326Y-95038256D01*
X145534327Y-95038259D01*
X145592818Y-95218277D01*
X145592821Y-95218284D01*
X145687467Y-95382216D01*
X145750016Y-95451683D01*
X145808400Y-95516526D01*
X145814129Y-95522888D01*
X145851008Y-95549682D01*
X145893673Y-95605013D01*
X145899652Y-95674626D01*
X145867046Y-95736421D01*
X145851008Y-95750318D01*
X145814127Y-95777113D01*
X145687466Y-95917785D01*
X145592821Y-96081715D01*
X145592818Y-96081722D01*
X145534327Y-96261740D01*
X145534326Y-96261744D01*
X145514540Y-96450000D01*
X145534326Y-96638256D01*
X145534327Y-96638259D01*
X145592818Y-96818277D01*
X145592821Y-96818284D01*
X145687467Y-96982216D01*
X145804189Y-97111848D01*
X145814129Y-97122888D01*
X145967265Y-97234148D01*
X145967270Y-97234151D01*
X146140192Y-97311142D01*
X146140197Y-97311144D01*
X146325354Y-97350500D01*
X146384548Y-97350500D01*
X146451587Y-97370185D01*
X146472229Y-97386819D01*
X147365197Y-98279788D01*
X147375022Y-98292051D01*
X147375243Y-98291869D01*
X147380214Y-98297878D01*
X147406217Y-98322295D01*
X147430635Y-98345226D01*
X147451529Y-98366120D01*
X147457011Y-98370373D01*
X147461443Y-98374157D01*
X147495418Y-98406062D01*
X147512976Y-98415714D01*
X147529233Y-98426393D01*
X147545064Y-98438673D01*
X147564737Y-98447186D01*
X147587833Y-98457182D01*
X147593077Y-98459750D01*
X147633908Y-98482197D01*
X147646523Y-98485435D01*
X147653305Y-98487177D01*
X147671719Y-98493481D01*
X147690104Y-98501438D01*
X147736157Y-98508732D01*
X147741826Y-98509906D01*
X147786981Y-98521500D01*
X147807016Y-98521500D01*
X147826413Y-98523026D01*
X147846196Y-98526160D01*
X147892584Y-98521775D01*
X147898422Y-98521500D01*
X150725171Y-98521500D01*
X150792210Y-98541185D01*
X150837965Y-98593989D01*
X150847354Y-98651502D01*
X150848540Y-98651502D01*
X150848540Y-98657997D01*
X150848540Y-98658000D01*
X150868326Y-98846256D01*
X150868327Y-98846259D01*
X150926818Y-99026277D01*
X150926821Y-99026284D01*
X151021467Y-99190216D01*
X151064772Y-99238310D01*
X151096650Y-99273715D01*
X151126880Y-99336706D01*
X151128500Y-99356687D01*
X151128500Y-102665546D01*
X151108815Y-102732585D01*
X151092181Y-102753227D01*
X149338208Y-104507199D01*
X149325951Y-104517020D01*
X149326134Y-104517241D01*
X149320123Y-104522213D01*
X149272772Y-104572636D01*
X149251889Y-104593519D01*
X149251877Y-104593532D01*
X149247621Y-104599017D01*
X149243837Y-104603447D01*
X149211937Y-104637418D01*
X149211936Y-104637420D01*
X149202284Y-104654976D01*
X149191610Y-104671226D01*
X149179329Y-104687061D01*
X149179324Y-104687068D01*
X149160815Y-104729838D01*
X149158245Y-104735084D01*
X149135803Y-104775906D01*
X149130822Y-104795307D01*
X149124521Y-104813710D01*
X149116562Y-104832102D01*
X149116561Y-104832105D01*
X149109271Y-104878127D01*
X149108087Y-104883846D01*
X149096501Y-104928972D01*
X149096500Y-104928982D01*
X149096500Y-104949016D01*
X149094973Y-104968415D01*
X149091840Y-104988194D01*
X149091840Y-104988195D01*
X149096225Y-105034583D01*
X149096500Y-105040421D01*
X149096500Y-110827455D01*
X149094775Y-110843072D01*
X149095061Y-110843099D01*
X149094326Y-110850865D01*
X149096500Y-110920014D01*
X149096500Y-110949543D01*
X149096501Y-110949560D01*
X149097368Y-110956431D01*
X149097826Y-110962250D01*
X149099290Y-111008824D01*
X149099291Y-111008827D01*
X149104880Y-111028067D01*
X149108824Y-111047111D01*
X149111336Y-111066992D01*
X149116401Y-111079784D01*
X149128490Y-111110319D01*
X149130382Y-111115847D01*
X149143381Y-111160588D01*
X149153580Y-111177834D01*
X149162136Y-111195300D01*
X149169514Y-111213932D01*
X149191152Y-111243715D01*
X149196898Y-111251623D01*
X149200106Y-111256507D01*
X149223827Y-111296616D01*
X149223833Y-111296624D01*
X149237990Y-111310780D01*
X149250628Y-111325576D01*
X149262405Y-111341786D01*
X149262406Y-111341787D01*
X149298309Y-111371488D01*
X149302632Y-111375422D01*
X149484838Y-111557629D01*
X149518323Y-111618952D01*
X149520478Y-111632348D01*
X149528768Y-111711227D01*
X149538126Y-111800256D01*
X149538127Y-111800259D01*
X149596618Y-111980277D01*
X149596621Y-111980284D01*
X149691267Y-112144216D01*
X149773783Y-112235859D01*
X149817929Y-112284888D01*
X149971065Y-112396148D01*
X149971070Y-112396151D01*
X150143992Y-112473142D01*
X150143997Y-112473144D01*
X150329154Y-112512500D01*
X150329155Y-112512500D01*
X150518444Y-112512500D01*
X150518446Y-112512500D01*
X150703603Y-112473144D01*
X150876530Y-112396151D01*
X151029671Y-112284888D01*
X151156333Y-112144216D01*
X151250979Y-111980284D01*
X151309474Y-111800256D01*
X151329260Y-111612000D01*
X151318224Y-111507000D01*
X164457551Y-111507000D01*
X164477317Y-111758151D01*
X164536126Y-112003110D01*
X164632533Y-112235859D01*
X164764160Y-112450653D01*
X164764161Y-112450656D01*
X164764164Y-112450659D01*
X164927776Y-112642224D01*
X165076066Y-112768875D01*
X165119343Y-112805838D01*
X165119346Y-112805839D01*
X165334140Y-112937466D01*
X165566889Y-113033873D01*
X165811852Y-113092683D01*
X165967950Y-113104968D01*
X166000116Y-113107500D01*
X166000118Y-113107500D01*
X166125884Y-113107500D01*
X166155518Y-113105167D01*
X166314148Y-113092683D01*
X166559111Y-113033873D01*
X166791859Y-112937466D01*
X167006659Y-112805836D01*
X167198224Y-112642224D01*
X167361836Y-112450659D01*
X167493466Y-112235859D01*
X167589873Y-112003111D01*
X167648683Y-111758148D01*
X167668449Y-111507000D01*
X167648683Y-111255852D01*
X167589873Y-111010889D01*
X167557051Y-110931649D01*
X167493466Y-110778140D01*
X167361839Y-110563346D01*
X167361838Y-110563343D01*
X167304698Y-110496441D01*
X167198224Y-110371776D01*
X167071571Y-110263604D01*
X167006656Y-110208161D01*
X167006653Y-110208160D01*
X166791859Y-110076533D01*
X166559110Y-109980126D01*
X166314150Y-109921317D01*
X166125884Y-109906500D01*
X166125882Y-109906500D01*
X166000118Y-109906500D01*
X166000116Y-109906500D01*
X165811849Y-109921317D01*
X165566889Y-109980126D01*
X165334140Y-110076533D01*
X165119346Y-110208160D01*
X165119343Y-110208161D01*
X164927776Y-110371776D01*
X164764161Y-110563343D01*
X164764160Y-110563346D01*
X164632533Y-110778140D01*
X164536126Y-111010889D01*
X164477317Y-111255848D01*
X164457551Y-111507000D01*
X151318224Y-111507000D01*
X151309474Y-111423744D01*
X151250979Y-111243716D01*
X151156333Y-111079784D01*
X151029671Y-110939112D01*
X151019399Y-110931649D01*
X150876534Y-110827851D01*
X150876529Y-110827848D01*
X150703607Y-110750857D01*
X150703602Y-110750855D01*
X150557801Y-110719865D01*
X150518446Y-110711500D01*
X150518445Y-110711500D01*
X150471500Y-110711500D01*
X150404461Y-110691815D01*
X150358706Y-110639011D01*
X150347500Y-110587500D01*
X150347500Y-107339811D01*
X150367185Y-107272772D01*
X150419989Y-107227017D01*
X150489147Y-107217073D01*
X150552703Y-107246098D01*
X150590477Y-107304876D01*
X150591706Y-107309372D01*
X150601654Y-107348658D01*
X150602705Y-107353673D01*
X150606407Y-107375854D01*
X150606409Y-107375862D01*
X150613714Y-107397141D01*
X150615176Y-107402053D01*
X150638935Y-107495874D01*
X150638939Y-107495887D01*
X150677815Y-107584515D01*
X150679677Y-107589286D01*
X150686986Y-107610576D01*
X150686988Y-107610579D01*
X150697698Y-107630371D01*
X150699948Y-107634975D01*
X150738827Y-107723608D01*
X150791764Y-107804634D01*
X150794388Y-107809038D01*
X150805095Y-107828823D01*
X150805098Y-107828828D01*
X150818926Y-107846595D01*
X150821903Y-107850765D01*
X150874834Y-107931782D01*
X150874838Y-107931787D01*
X150940393Y-108003000D01*
X150943706Y-108006911D01*
X150957522Y-108024662D01*
X150974080Y-108039905D01*
X150977694Y-108043519D01*
X151043256Y-108114738D01*
X151119651Y-108174199D01*
X151123547Y-108177499D01*
X151129913Y-108183360D01*
X151140099Y-108192737D01*
X151158936Y-108205044D01*
X151163102Y-108208018D01*
X151239491Y-108267474D01*
X151324640Y-108313554D01*
X151329001Y-108316153D01*
X151347855Y-108328471D01*
X151368494Y-108337524D01*
X151373033Y-108339743D01*
X151458190Y-108385828D01*
X151549754Y-108417262D01*
X151554489Y-108419109D01*
X151575116Y-108428157D01*
X151596932Y-108433681D01*
X151601816Y-108435135D01*
X151673089Y-108459603D01*
X151693385Y-108466571D01*
X151727189Y-108472211D01*
X151788866Y-108482503D01*
X151793879Y-108483555D01*
X151815676Y-108489075D01*
X151815678Y-108489075D01*
X151815685Y-108489077D01*
X151838125Y-108490936D01*
X151843169Y-108491564D01*
X151938665Y-108507500D01*
X151938666Y-108507500D01*
X152035448Y-108507500D01*
X152040561Y-108507711D01*
X152056415Y-108509025D01*
X152062998Y-108509571D01*
X152063000Y-108509571D01*
X152063002Y-108509571D01*
X152069584Y-108509025D01*
X152085438Y-108507711D01*
X152090552Y-108507500D01*
X152187330Y-108507500D01*
X152187335Y-108507500D01*
X152282851Y-108491561D01*
X152287862Y-108490937D01*
X152310315Y-108489077D01*
X152332153Y-108483546D01*
X152337105Y-108482508D01*
X152432614Y-108466571D01*
X152524198Y-108435129D01*
X152529042Y-108433688D01*
X152550884Y-108428157D01*
X152571500Y-108419113D01*
X152576234Y-108417265D01*
X152667810Y-108385828D01*
X152752975Y-108339738D01*
X152757505Y-108337524D01*
X152778145Y-108328471D01*
X152797008Y-108316146D01*
X152801337Y-108313566D01*
X152886509Y-108267474D01*
X152962931Y-108207992D01*
X152967018Y-108205073D01*
X152985898Y-108192739D01*
X153002466Y-108177487D01*
X153006341Y-108174204D01*
X153082744Y-108114738D01*
X153148313Y-108043510D01*
X153151897Y-108039925D01*
X153168477Y-108024663D01*
X153182320Y-108006876D01*
X153185581Y-108003026D01*
X153251164Y-107931785D01*
X153304127Y-107850718D01*
X153307053Y-107846620D01*
X153320902Y-107828828D01*
X153331623Y-107809016D01*
X153334233Y-107804636D01*
X153387173Y-107723607D01*
X153426061Y-107634950D01*
X153428299Y-107630375D01*
X153428301Y-107630371D01*
X153439014Y-107610576D01*
X153446336Y-107589246D01*
X153448162Y-107584564D01*
X153487063Y-107495881D01*
X153510826Y-107402041D01*
X153512278Y-107397162D01*
X153519592Y-107375859D01*
X153523296Y-107353658D01*
X153524340Y-107348677D01*
X153548108Y-107254821D01*
X153556104Y-107158321D01*
X153556732Y-107153289D01*
X153560438Y-107131081D01*
X153561088Y-107099589D01*
X153561283Y-107095812D01*
X153568643Y-107007000D01*
X153561284Y-106918190D01*
X153561088Y-106914407D01*
X153560438Y-106882919D01*
X153556733Y-106860719D01*
X153556103Y-106855666D01*
X153548108Y-106759179D01*
X153544542Y-106745099D01*
X153534293Y-106704626D01*
X153524341Y-106665327D01*
X153523295Y-106660334D01*
X153519592Y-106638143D01*
X153519591Y-106638140D01*
X153512283Y-106616850D01*
X153510825Y-106611952D01*
X153487062Y-106518116D01*
X153452070Y-106438344D01*
X153448174Y-106429461D01*
X153446329Y-106424734D01*
X153439014Y-106403424D01*
X153428298Y-106383622D01*
X153426052Y-106379029D01*
X153387173Y-106290393D01*
X153387173Y-106290392D01*
X153334231Y-106209358D01*
X153331607Y-106204954D01*
X153320904Y-106185177D01*
X153320902Y-106185172D01*
X153307080Y-106167413D01*
X153304102Y-106163242D01*
X153251166Y-106082218D01*
X153251165Y-106082217D01*
X153251164Y-106082215D01*
X153198799Y-106025331D01*
X153185606Y-106010999D01*
X153182295Y-106007090D01*
X153168477Y-105989337D01*
X153168473Y-105989332D01*
X153151919Y-105974093D01*
X153148301Y-105970476D01*
X153082744Y-105899262D01*
X153006352Y-105839804D01*
X153002444Y-105836493D01*
X152985898Y-105821261D01*
X152967063Y-105808955D01*
X152962897Y-105805981D01*
X152886509Y-105746526D01*
X152886508Y-105746525D01*
X152886505Y-105746523D01*
X152886503Y-105746522D01*
X152801385Y-105700459D01*
X152796981Y-105697835D01*
X152778145Y-105685529D01*
X152757547Y-105676494D01*
X152752940Y-105674242D01*
X152667811Y-105628172D01*
X152667802Y-105628169D01*
X152576259Y-105596742D01*
X152571484Y-105594879D01*
X152571312Y-105594803D01*
X152550884Y-105585843D01*
X152550880Y-105585842D01*
X152550878Y-105585841D01*
X152529076Y-105580319D01*
X152524166Y-105578858D01*
X152432614Y-105547429D01*
X152337138Y-105531496D01*
X152332123Y-105530444D01*
X152310312Y-105524922D01*
X152310316Y-105524922D01*
X152287895Y-105523065D01*
X152282810Y-105522431D01*
X152187336Y-105506500D01*
X152187335Y-105506500D01*
X152090541Y-105506500D01*
X152085427Y-105506288D01*
X152069555Y-105504973D01*
X152063002Y-105504430D01*
X152062998Y-105504430D01*
X152056444Y-105504973D01*
X152040572Y-105506288D01*
X152035459Y-105506500D01*
X151938665Y-105506500D01*
X151843188Y-105522431D01*
X151838103Y-105523065D01*
X151815688Y-105524922D01*
X151815683Y-105524923D01*
X151793880Y-105530444D01*
X151788866Y-105531495D01*
X151693382Y-105547429D01*
X151601834Y-105578856D01*
X151596927Y-105580317D01*
X151575126Y-105585839D01*
X151575116Y-105585843D01*
X151554510Y-105594881D01*
X151549738Y-105596742D01*
X151458194Y-105628170D01*
X151458183Y-105628175D01*
X151373062Y-105674240D01*
X151368458Y-105676491D01*
X151347854Y-105685529D01*
X151347845Y-105685534D01*
X151329023Y-105697831D01*
X151324621Y-105700455D01*
X151239492Y-105746524D01*
X151239489Y-105746527D01*
X151163106Y-105805977D01*
X151158938Y-105808954D01*
X151140099Y-105821263D01*
X151123542Y-105836503D01*
X151119635Y-105839812D01*
X151043255Y-105899262D01*
X150977697Y-105970476D01*
X150974075Y-105974098D01*
X150957529Y-105989330D01*
X150957514Y-105989346D01*
X150943699Y-106007094D01*
X150940390Y-106011001D01*
X150874836Y-106082215D01*
X150821901Y-106163236D01*
X150818925Y-106167404D01*
X150805099Y-106185170D01*
X150805094Y-106185177D01*
X150794386Y-106204964D01*
X150791763Y-106209365D01*
X150738828Y-106290390D01*
X150699953Y-106379015D01*
X150697704Y-106383615D01*
X150686985Y-106403424D01*
X150679676Y-106424714D01*
X150677814Y-106429487D01*
X150651724Y-106488967D01*
X150638939Y-106518116D01*
X150638936Y-106518122D01*
X150615177Y-106611942D01*
X150613716Y-106616850D01*
X150606408Y-106638140D01*
X150602705Y-106660327D01*
X150601654Y-106665342D01*
X150591706Y-106704626D01*
X150556167Y-106764782D01*
X150493747Y-106796175D01*
X150424263Y-106788837D01*
X150369777Y-106745099D01*
X150347588Y-106678847D01*
X150347500Y-106674187D01*
X150347500Y-105318452D01*
X150367185Y-105251413D01*
X150383819Y-105230771D01*
X151219097Y-104395493D01*
X152137788Y-103476801D01*
X152150042Y-103466986D01*
X152149859Y-103466764D01*
X152155866Y-103461792D01*
X152155877Y-103461786D01*
X152186775Y-103428882D01*
X152203227Y-103411364D01*
X152213671Y-103400918D01*
X152224120Y-103390471D01*
X152228379Y-103384978D01*
X152232152Y-103380561D01*
X152264062Y-103346582D01*
X152273715Y-103329020D01*
X152284389Y-103312770D01*
X152296673Y-103296936D01*
X152315180Y-103254167D01*
X152317749Y-103248924D01*
X152340196Y-103208093D01*
X152340197Y-103208092D01*
X152345177Y-103188691D01*
X152351478Y-103170288D01*
X152359438Y-103151896D01*
X152366730Y-103105849D01*
X152367911Y-103100152D01*
X152379500Y-103055019D01*
X152379500Y-103034983D01*
X152381027Y-103015582D01*
X152384160Y-102995804D01*
X152379775Y-102949415D01*
X152379500Y-102943577D01*
X152379500Y-99356687D01*
X152399185Y-99289648D01*
X152411350Y-99273715D01*
X152429891Y-99253122D01*
X152486533Y-99190216D01*
X152581179Y-99026284D01*
X152639674Y-98846256D01*
X152659460Y-98658000D01*
X152659460Y-98657997D01*
X152659460Y-98651502D01*
X152660782Y-98651502D01*
X152672076Y-98589735D01*
X152719807Y-98538710D01*
X152782829Y-98521500D01*
X154987252Y-98521500D01*
X155054291Y-98541185D01*
X155079400Y-98562526D01*
X155085126Y-98568885D01*
X155085130Y-98568889D01*
X155238265Y-98680148D01*
X155238270Y-98680151D01*
X155411192Y-98757142D01*
X155411197Y-98757144D01*
X155596354Y-98796500D01*
X155596355Y-98796500D01*
X155785644Y-98796500D01*
X155785646Y-98796500D01*
X155970803Y-98757144D01*
X156143730Y-98680151D01*
X156296871Y-98568888D01*
X156423533Y-98428216D01*
X156518179Y-98264284D01*
X156576674Y-98084256D01*
X156596460Y-97896000D01*
X156576674Y-97707744D01*
X156518179Y-97527716D01*
X156423533Y-97363784D01*
X156296871Y-97223112D01*
X156296870Y-97223111D01*
X156143734Y-97111851D01*
X156143729Y-97111848D01*
X155970807Y-97034857D01*
X155970802Y-97034855D01*
X155825001Y-97003865D01*
X155785646Y-96995500D01*
X155596354Y-96995500D01*
X155563897Y-97002398D01*
X155411197Y-97034855D01*
X155411192Y-97034857D01*
X155238270Y-97111848D01*
X155238265Y-97111851D01*
X155085130Y-97223110D01*
X155085126Y-97223114D01*
X155079400Y-97229474D01*
X155019913Y-97266121D01*
X154987252Y-97270500D01*
X152769481Y-97270500D01*
X152702442Y-97250815D01*
X152656687Y-97198011D01*
X152646160Y-97133541D01*
X152659460Y-97007000D01*
X152639674Y-96818744D01*
X152581179Y-96638716D01*
X152486533Y-96474784D01*
X152359871Y-96334112D01*
X152359870Y-96334111D01*
X152206734Y-96222851D01*
X152206729Y-96222848D01*
X152033807Y-96145857D01*
X152033802Y-96145855D01*
X151888001Y-96114865D01*
X151848646Y-96106500D01*
X151659354Y-96106500D01*
X151626897Y-96113398D01*
X151474197Y-96145855D01*
X151474192Y-96145857D01*
X151301270Y-96222848D01*
X151301265Y-96222851D01*
X151148130Y-96334110D01*
X151148126Y-96334114D01*
X151142400Y-96340474D01*
X151082913Y-96377121D01*
X151050252Y-96381500D01*
X151021452Y-96381500D01*
X150954413Y-96361815D01*
X150933771Y-96345181D01*
X150275771Y-95687181D01*
X150242286Y-95625858D01*
X150247270Y-95556166D01*
X150289142Y-95500233D01*
X150354606Y-95475816D01*
X150363452Y-95475500D01*
X151050252Y-95475500D01*
X151117291Y-95495185D01*
X151142400Y-95516526D01*
X151148126Y-95522885D01*
X151148130Y-95522889D01*
X151301265Y-95634148D01*
X151301270Y-95634151D01*
X151474192Y-95711142D01*
X151474197Y-95711144D01*
X151659354Y-95750500D01*
X151659355Y-95750500D01*
X151848644Y-95750500D01*
X151848646Y-95750500D01*
X152033803Y-95711144D01*
X152206730Y-95634151D01*
X152359871Y-95522888D01*
X152486533Y-95382216D01*
X152581179Y-95218284D01*
X152639674Y-95038256D01*
X152659460Y-94850000D01*
X152639674Y-94661744D01*
X152581179Y-94481716D01*
X152486533Y-94317784D01*
X152359871Y-94177112D01*
X152359870Y-94177111D01*
X152206734Y-94065851D01*
X152206729Y-94065848D01*
X152033807Y-93988857D01*
X152033802Y-93988855D01*
X151888001Y-93957865D01*
X151848646Y-93949500D01*
X151659354Y-93949500D01*
X151626897Y-93956398D01*
X151474197Y-93988855D01*
X151474192Y-93988857D01*
X151301270Y-94065848D01*
X151301265Y-94065851D01*
X151148130Y-94177110D01*
X151148126Y-94177114D01*
X151142400Y-94183474D01*
X151082913Y-94220121D01*
X151050252Y-94224500D01*
X150288452Y-94224500D01*
X150221413Y-94204815D01*
X150200771Y-94188181D01*
X147970819Y-91958228D01*
X147937334Y-91896905D01*
X147934500Y-91870547D01*
X147934500Y-89700000D01*
X151610540Y-89700000D01*
X151630326Y-89888256D01*
X151630327Y-89888259D01*
X151688818Y-90068277D01*
X151688821Y-90068284D01*
X151783467Y-90232216D01*
X151909113Y-90371760D01*
X151910129Y-90372888D01*
X152063265Y-90484148D01*
X152063270Y-90484151D01*
X152236192Y-90561142D01*
X152236197Y-90561144D01*
X152421354Y-90600500D01*
X152421355Y-90600500D01*
X152610644Y-90600500D01*
X152610646Y-90600500D01*
X152795803Y-90561144D01*
X152968730Y-90484151D01*
X152968733Y-90484148D01*
X152974363Y-90480899D01*
X152975904Y-90483569D01*
X153028948Y-90464415D01*
X153097062Y-90479980D01*
X153145948Y-90529900D01*
X153160500Y-90588185D01*
X153160500Y-90974312D01*
X153140815Y-91041351D01*
X153128650Y-91057284D01*
X153053466Y-91140784D01*
X152958821Y-91304715D01*
X152958818Y-91304722D01*
X152936093Y-91374664D01*
X152900326Y-91484744D01*
X152880540Y-91673000D01*
X152900326Y-91861256D01*
X152900327Y-91861259D01*
X152958818Y-92041277D01*
X152958821Y-92041284D01*
X153053467Y-92205216D01*
X153123122Y-92282575D01*
X153180129Y-92345888D01*
X153333265Y-92457148D01*
X153333270Y-92457151D01*
X153506192Y-92534142D01*
X153506197Y-92534144D01*
X153691354Y-92573500D01*
X153691355Y-92573500D01*
X153880644Y-92573500D01*
X153880646Y-92573500D01*
X154065803Y-92534144D01*
X154238730Y-92457151D01*
X154391871Y-92345888D01*
X154518533Y-92205216D01*
X154613179Y-92041284D01*
X154671674Y-91861256D01*
X154691460Y-91673000D01*
X154671674Y-91484744D01*
X154613179Y-91304716D01*
X154518533Y-91140784D01*
X154500409Y-91120655D01*
X154443350Y-91057284D01*
X154413120Y-90994292D01*
X154411500Y-90974312D01*
X154411500Y-89952848D01*
X154431185Y-89885809D01*
X154447819Y-89865167D01*
X159402167Y-84910819D01*
X159463490Y-84877334D01*
X159489848Y-84874500D01*
X160747653Y-84874500D01*
X160763273Y-84876224D01*
X160763300Y-84875939D01*
X160771056Y-84876671D01*
X160771063Y-84876673D01*
X160840210Y-84874500D01*
X160869746Y-84874500D01*
X160876624Y-84873630D01*
X160882437Y-84873172D01*
X160929023Y-84871709D01*
X160948265Y-84866117D01*
X160967308Y-84862174D01*
X160987188Y-84859664D01*
X161030518Y-84842507D01*
X161036042Y-84840617D01*
X161048485Y-84837002D01*
X161080786Y-84827618D01*
X161098025Y-84817422D01*
X161115499Y-84808862D01*
X161134123Y-84801488D01*
X161134123Y-84801487D01*
X161134128Y-84801486D01*
X161171845Y-84774082D01*
X161176701Y-84770892D01*
X161216816Y-84747170D01*
X161230985Y-84732999D01*
X161245775Y-84720368D01*
X161261983Y-84708594D01*
X161291695Y-84672676D01*
X161295608Y-84668376D01*
X162874786Y-83089198D01*
X162887048Y-83079376D01*
X162886865Y-83079155D01*
X162892867Y-83074188D01*
X162892877Y-83074182D01*
X162940241Y-83023744D01*
X162961120Y-83002866D01*
X162965373Y-82997382D01*
X162969150Y-82992959D01*
X163001062Y-82958978D01*
X163010714Y-82941419D01*
X163021389Y-82925168D01*
X163033674Y-82909332D01*
X163052186Y-82866548D01*
X163054742Y-82861331D01*
X163077197Y-82820488D01*
X163082180Y-82801076D01*
X163088477Y-82782687D01*
X163096438Y-82764291D01*
X163103729Y-82718249D01*
X163104908Y-82712558D01*
X163116500Y-82667415D01*
X163116500Y-82647379D01*
X163118027Y-82627978D01*
X163121160Y-82608200D01*
X163116775Y-82561811D01*
X163116500Y-82555973D01*
X163116500Y-82507000D01*
X164457551Y-82507000D01*
X164477317Y-82758151D01*
X164536126Y-83003110D01*
X164632533Y-83235859D01*
X164764160Y-83450653D01*
X164764161Y-83450656D01*
X164764164Y-83450659D01*
X164927776Y-83642224D01*
X165076066Y-83768875D01*
X165119343Y-83805838D01*
X165119346Y-83805839D01*
X165334140Y-83937466D01*
X165566889Y-84033873D01*
X165811852Y-84092683D01*
X165967950Y-84104968D01*
X166000116Y-84107500D01*
X166000118Y-84107500D01*
X166125884Y-84107500D01*
X166155518Y-84105167D01*
X166314148Y-84092683D01*
X166559111Y-84033873D01*
X166791859Y-83937466D01*
X167006659Y-83805836D01*
X167198224Y-83642224D01*
X167361836Y-83450659D01*
X167493466Y-83235859D01*
X167589873Y-83003111D01*
X167648683Y-82758148D01*
X167668449Y-82507000D01*
X167648683Y-82255852D01*
X167589873Y-82010889D01*
X167529989Y-81866316D01*
X167493466Y-81778140D01*
X167361839Y-81563346D01*
X167361838Y-81563343D01*
X167253797Y-81436844D01*
X167198224Y-81371776D01*
X167028713Y-81227000D01*
X167006656Y-81208161D01*
X167006653Y-81208160D01*
X166791859Y-81076533D01*
X166559110Y-80980126D01*
X166314150Y-80921317D01*
X166125884Y-80906500D01*
X166125882Y-80906500D01*
X166000118Y-80906500D01*
X166000116Y-80906500D01*
X165811849Y-80921317D01*
X165566889Y-80980126D01*
X165334140Y-81076533D01*
X165119346Y-81208160D01*
X165119343Y-81208161D01*
X164927776Y-81371776D01*
X164764161Y-81563343D01*
X164764160Y-81563346D01*
X164632533Y-81778140D01*
X164536126Y-82010889D01*
X164477317Y-82255848D01*
X164457551Y-82507000D01*
X163116500Y-82507000D01*
X163116500Y-76257000D01*
X166057341Y-76257000D01*
X166077936Y-76492403D01*
X166077938Y-76492413D01*
X166139094Y-76720655D01*
X166139096Y-76720659D01*
X166139097Y-76720663D01*
X166182409Y-76813546D01*
X166238964Y-76934828D01*
X166238965Y-76934830D01*
X166374505Y-77128402D01*
X166541597Y-77295494D01*
X166735169Y-77431034D01*
X166735171Y-77431035D01*
X166949337Y-77530903D01*
X167177592Y-77592063D01*
X167354034Y-77607500D01*
X167771966Y-77607500D01*
X167948408Y-77592063D01*
X168176663Y-77530903D01*
X168390829Y-77431035D01*
X168584401Y-77295495D01*
X168751495Y-77128401D01*
X168887035Y-76934830D01*
X168986903Y-76720663D01*
X169048063Y-76492408D01*
X169068659Y-76257000D01*
X169048063Y-76021592D01*
X168986903Y-75793337D01*
X168887035Y-75579171D01*
X168887034Y-75579169D01*
X168751494Y-75385597D01*
X168604295Y-75238398D01*
X168570810Y-75177075D01*
X168575794Y-75107383D01*
X168617666Y-75051450D01*
X168626880Y-75045178D01*
X168734861Y-74978575D01*
X168781656Y-74949712D01*
X168905712Y-74825656D01*
X168997814Y-74676334D01*
X169052999Y-74509797D01*
X169063500Y-74407009D01*
X169063499Y-73106992D01*
X169060656Y-73079165D01*
X169052999Y-73004203D01*
X169052998Y-73004200D01*
X169039936Y-72964783D01*
X168997814Y-72837666D01*
X168905712Y-72688344D01*
X168781656Y-72564288D01*
X168688888Y-72507069D01*
X168632336Y-72472187D01*
X168632331Y-72472185D01*
X168576933Y-72453828D01*
X168465797Y-72417001D01*
X168465795Y-72417000D01*
X168363010Y-72406500D01*
X166762998Y-72406500D01*
X166762981Y-72406501D01*
X166660203Y-72417000D01*
X166660200Y-72417001D01*
X166493668Y-72472185D01*
X166493663Y-72472187D01*
X166344342Y-72564289D01*
X166220289Y-72688342D01*
X166128187Y-72837663D01*
X166128185Y-72837668D01*
X166112301Y-72885604D01*
X166073001Y-73004203D01*
X166073001Y-73004204D01*
X166073000Y-73004204D01*
X166062500Y-73106983D01*
X166062500Y-74407001D01*
X166062501Y-74407018D01*
X166073000Y-74509796D01*
X166073001Y-74509799D01*
X166128185Y-74676331D01*
X166128187Y-74676336D01*
X166163069Y-74732888D01*
X166199618Y-74792145D01*
X166220289Y-74825657D01*
X166344344Y-74949712D01*
X166499120Y-75045178D01*
X166545845Y-75097126D01*
X166557068Y-75166088D01*
X166529224Y-75230171D01*
X166521706Y-75238398D01*
X166374501Y-75385603D01*
X166374501Y-75385604D01*
X166238967Y-75579165D01*
X166238965Y-75579169D01*
X166139098Y-75793335D01*
X166139094Y-75793344D01*
X166077938Y-76021586D01*
X166077936Y-76021596D01*
X166057341Y-76256999D01*
X166057341Y-76257000D01*
X163116500Y-76257000D01*
X163116500Y-74806742D01*
X163118224Y-74791122D01*
X163117939Y-74791095D01*
X163118673Y-74783333D01*
X163116500Y-74714172D01*
X163116500Y-74684656D01*
X163116500Y-74684650D01*
X163115631Y-74677779D01*
X163115173Y-74671952D01*
X163115023Y-74667175D01*
X163113710Y-74625373D01*
X163108119Y-74606130D01*
X163104173Y-74587078D01*
X163101664Y-74567208D01*
X163084504Y-74523867D01*
X163082624Y-74518379D01*
X163069618Y-74473610D01*
X163059422Y-74456370D01*
X163050861Y-74438894D01*
X163043487Y-74420270D01*
X163043486Y-74420268D01*
X163016079Y-74382545D01*
X163012888Y-74377686D01*
X162989172Y-74337583D01*
X162989165Y-74337574D01*
X162975006Y-74323415D01*
X162962368Y-74308619D01*
X162950594Y-74292413D01*
X162914688Y-74262709D01*
X162910376Y-74258786D01*
X161874803Y-73223212D01*
X161864980Y-73210950D01*
X161864759Y-73211134D01*
X161859786Y-73205123D01*
X161829921Y-73177078D01*
X161802423Y-73139092D01*
X161704535Y-72929171D01*
X161698925Y-72921158D01*
X161568994Y-72735597D01*
X161401902Y-72568506D01*
X161401895Y-72568501D01*
X161395878Y-72564288D01*
X161363021Y-72541281D01*
X161208334Y-72432967D01*
X161208330Y-72432965D01*
X161208328Y-72432964D01*
X160994163Y-72333097D01*
X160994159Y-72333096D01*
X160994155Y-72333094D01*
X160765913Y-72271938D01*
X160765903Y-72271936D01*
X160530501Y-72251341D01*
X160530499Y-72251341D01*
X160295096Y-72271936D01*
X160295086Y-72271938D01*
X160066844Y-72333094D01*
X160066835Y-72333098D01*
X159852671Y-72432964D01*
X159852669Y-72432965D01*
X159659097Y-72568505D01*
X159492005Y-72735597D01*
X159362075Y-72921158D01*
X159307498Y-72964783D01*
X159238000Y-72971977D01*
X159175645Y-72940454D01*
X159158925Y-72921158D01*
X159028994Y-72735597D01*
X158861902Y-72568506D01*
X158861895Y-72568501D01*
X158855878Y-72564288D01*
X158823021Y-72541281D01*
X158668334Y-72432967D01*
X158668330Y-72432965D01*
X158668328Y-72432964D01*
X158454163Y-72333097D01*
X158454159Y-72333096D01*
X158454155Y-72333094D01*
X158225913Y-72271938D01*
X158225903Y-72271936D01*
X157990501Y-72251341D01*
X157990499Y-72251341D01*
X157755096Y-72271936D01*
X157755086Y-72271938D01*
X157526844Y-72333094D01*
X157526835Y-72333098D01*
X157312671Y-72432964D01*
X157312669Y-72432965D01*
X157119097Y-72568505D01*
X156952005Y-72735597D01*
X156816465Y-72929169D01*
X156816464Y-72929171D01*
X156716598Y-73143335D01*
X156716594Y-73143344D01*
X156655438Y-73371586D01*
X156655436Y-73371596D01*
X156634841Y-73606999D01*
X156634841Y-73607000D01*
X156655436Y-73842403D01*
X156655438Y-73842413D01*
X156716594Y-74070655D01*
X156716596Y-74070659D01*
X156716597Y-74070663D01*
X156786544Y-74220664D01*
X156816465Y-74284830D01*
X156816467Y-74284834D01*
X156902022Y-74407018D01*
X156952001Y-74478396D01*
X156952006Y-74478402D01*
X157119097Y-74645493D01*
X157119103Y-74645498D01*
X157304658Y-74775425D01*
X157348283Y-74830002D01*
X157355477Y-74899500D01*
X157323954Y-74961855D01*
X157304658Y-74978575D01*
X157119097Y-75108505D01*
X156952005Y-75275597D01*
X156816465Y-75469169D01*
X156816464Y-75469171D01*
X156716598Y-75683335D01*
X156716594Y-75683344D01*
X156655438Y-75911586D01*
X156655436Y-75911596D01*
X156634841Y-76146999D01*
X156634841Y-76147000D01*
X156655436Y-76382403D01*
X156655438Y-76382413D01*
X156716594Y-76610655D01*
X156716596Y-76610659D01*
X156716597Y-76610663D01*
X156796504Y-76782023D01*
X156816465Y-76824830D01*
X156816467Y-76824834D01*
X156924781Y-76979521D01*
X156952001Y-77018396D01*
X156952006Y-77018402D01*
X157119097Y-77185493D01*
X157119103Y-77185498D01*
X157304658Y-77315425D01*
X157348283Y-77370002D01*
X157355477Y-77439500D01*
X157323954Y-77501855D01*
X157304658Y-77518575D01*
X157119097Y-77648505D01*
X156952005Y-77815597D01*
X156816465Y-78009169D01*
X156816464Y-78009171D01*
X156716598Y-78223335D01*
X156716594Y-78223344D01*
X156655438Y-78451586D01*
X156655436Y-78451596D01*
X156634841Y-78686999D01*
X156634841Y-78687000D01*
X156655436Y-78922403D01*
X156655438Y-78922413D01*
X156716594Y-79150655D01*
X156716596Y-79150659D01*
X156716597Y-79150663D01*
X156796504Y-79322023D01*
X156816465Y-79364830D01*
X156816467Y-79364834D01*
X156914763Y-79505214D01*
X156952001Y-79558396D01*
X156952006Y-79558402D01*
X157119097Y-79725493D01*
X157119103Y-79725498D01*
X157304658Y-79855425D01*
X157348283Y-79910002D01*
X157355477Y-79979500D01*
X157323954Y-80041855D01*
X157304658Y-80058575D01*
X157119097Y-80188505D01*
X156952006Y-80355596D01*
X156904374Y-80423623D01*
X156849797Y-80467248D01*
X156802799Y-80476500D01*
X156279229Y-80476500D01*
X156212190Y-80456815D01*
X156191548Y-80440181D01*
X154569846Y-78818478D01*
X154539596Y-78769115D01*
X154486181Y-78604722D01*
X154486180Y-78604721D01*
X154486179Y-78604716D01*
X154391533Y-78440784D01*
X154264871Y-78300112D01*
X154264870Y-78300111D01*
X154111734Y-78188851D01*
X154111729Y-78188848D01*
X153938807Y-78111857D01*
X153938802Y-78111855D01*
X153793001Y-78080865D01*
X153753646Y-78072500D01*
X153564354Y-78072500D01*
X153531897Y-78079398D01*
X153379197Y-78111855D01*
X153379192Y-78111857D01*
X153206270Y-78188848D01*
X153206265Y-78188851D01*
X153053129Y-78300111D01*
X152926466Y-78440785D01*
X152831821Y-78604715D01*
X152831818Y-78604722D01*
X152778404Y-78769115D01*
X152773326Y-78784744D01*
X152753540Y-78973000D01*
X152773326Y-79161256D01*
X152773327Y-79161259D01*
X152831818Y-79341277D01*
X152831821Y-79341284D01*
X152926467Y-79505216D01*
X153053129Y-79645888D01*
X153206265Y-79757148D01*
X153206270Y-79757151D01*
X153379197Y-79834144D01*
X153449410Y-79849068D01*
X153510889Y-79882259D01*
X153511308Y-79882676D01*
X155341267Y-81712634D01*
X155353048Y-81726266D01*
X155358356Y-81733396D01*
X155367390Y-81745530D01*
X155407420Y-81779119D01*
X155411392Y-81782759D01*
X155417223Y-81788590D01*
X155417222Y-81788590D01*
X155442944Y-81808927D01*
X155501786Y-81858302D01*
X155501794Y-81858306D01*
X155507824Y-81862273D01*
X155507790Y-81862323D01*
X155514137Y-81866366D01*
X155514169Y-81866316D01*
X155520318Y-81870108D01*
X155520320Y-81870109D01*
X155520323Y-81870111D01*
X155589930Y-81902569D01*
X155658567Y-81937040D01*
X155658576Y-81937042D01*
X155665355Y-81939510D01*
X155665334Y-81939567D01*
X155672451Y-81942040D01*
X155672470Y-81941984D01*
X155679330Y-81944257D01*
X155754532Y-81959784D01*
X155829279Y-81977500D01*
X155829288Y-81977500D01*
X155836452Y-81978338D01*
X155836445Y-81978397D01*
X155843946Y-81979163D01*
X155843952Y-81979104D01*
X155851140Y-81979733D01*
X155851143Y-81979732D01*
X155851144Y-81979733D01*
X155927898Y-81977500D01*
X156802799Y-81977500D01*
X156869838Y-81997185D01*
X156904373Y-82030376D01*
X156952005Y-82098401D01*
X157119099Y-82265495D01*
X157195638Y-82319088D01*
X157312665Y-82401032D01*
X157312667Y-82401033D01*
X157312670Y-82401035D01*
X157526837Y-82500903D01*
X157526843Y-82500904D01*
X157526844Y-82500905D01*
X157581785Y-82515626D01*
X157755092Y-82562063D01*
X157925819Y-82577000D01*
X157990499Y-82582659D01*
X157990500Y-82582659D01*
X157990501Y-82582659D01*
X158055181Y-82577000D01*
X158225908Y-82562063D01*
X158454163Y-82500903D01*
X158668330Y-82401035D01*
X158861901Y-82265495D01*
X158984217Y-82143178D01*
X159045536Y-82109696D01*
X159115228Y-82114680D01*
X159171162Y-82156551D01*
X159188077Y-82187528D01*
X159237146Y-82319088D01*
X159237149Y-82319093D01*
X159323309Y-82434187D01*
X159323312Y-82434190D01*
X159438406Y-82520350D01*
X159438413Y-82520354D01*
X159573120Y-82570596D01*
X159573127Y-82570598D01*
X159632655Y-82576999D01*
X159632672Y-82577000D01*
X160280500Y-82577000D01*
X160280500Y-81662501D01*
X160388185Y-81711680D01*
X160494737Y-81727000D01*
X160566263Y-81727000D01*
X160672815Y-81711680D01*
X160780500Y-81662501D01*
X160780500Y-82577000D01*
X160793273Y-82589773D01*
X160826758Y-82651096D01*
X160821774Y-82720788D01*
X160793273Y-82765135D01*
X160421228Y-83137181D01*
X160359905Y-83170666D01*
X160333547Y-83173500D01*
X159075737Y-83173500D01*
X159060120Y-83171776D01*
X159060093Y-83172062D01*
X159052331Y-83171327D01*
X158983203Y-83173500D01*
X158953650Y-83173500D01*
X158952929Y-83173590D01*
X158946757Y-83174369D01*
X158940945Y-83174826D01*
X158894373Y-83176290D01*
X158894372Y-83176290D01*
X158875129Y-83181881D01*
X158856079Y-83185825D01*
X158836211Y-83188334D01*
X158836209Y-83188335D01*
X158792884Y-83205488D01*
X158787357Y-83207380D01*
X158742610Y-83220381D01*
X158742609Y-83220382D01*
X158725367Y-83230579D01*
X158707899Y-83239137D01*
X158689269Y-83246513D01*
X158689267Y-83246514D01*
X158651576Y-83273898D01*
X158646694Y-83277105D01*
X158606579Y-83300830D01*
X158592408Y-83315000D01*
X158577623Y-83327628D01*
X158561412Y-83339407D01*
X158531709Y-83375310D01*
X158527777Y-83379631D01*
X153044788Y-88862619D01*
X152983465Y-88896104D01*
X152913773Y-88891120D01*
X152906672Y-88888218D01*
X152795802Y-88838855D01*
X152650001Y-88807865D01*
X152610646Y-88799500D01*
X152421354Y-88799500D01*
X152388897Y-88806398D01*
X152236197Y-88838855D01*
X152236192Y-88838857D01*
X152063270Y-88915848D01*
X152063265Y-88915851D01*
X151910129Y-89027111D01*
X151783466Y-89167785D01*
X151688821Y-89331715D01*
X151688818Y-89331722D01*
X151630327Y-89511740D01*
X151630326Y-89511744D01*
X151610540Y-89700000D01*
X147934500Y-89700000D01*
X147934500Y-87007000D01*
X150557357Y-87007000D01*
X150565029Y-87099589D01*
X150565350Y-87103456D01*
X150565562Y-87108579D01*
X150565562Y-87131081D01*
X150569265Y-87153282D01*
X150569899Y-87158365D01*
X150577891Y-87254816D01*
X150577891Y-87254818D01*
X150601654Y-87348657D01*
X150602705Y-87353672D01*
X150606407Y-87375854D01*
X150606409Y-87375862D01*
X150613714Y-87397141D01*
X150615176Y-87402053D01*
X150638935Y-87495874D01*
X150638939Y-87495887D01*
X150677815Y-87584515D01*
X150679677Y-87589286D01*
X150686986Y-87610576D01*
X150686988Y-87610579D01*
X150697698Y-87630371D01*
X150699948Y-87634975D01*
X150738827Y-87723608D01*
X150791764Y-87804634D01*
X150794388Y-87809038D01*
X150805095Y-87828823D01*
X150805098Y-87828828D01*
X150818926Y-87846595D01*
X150821903Y-87850765D01*
X150874834Y-87931782D01*
X150874838Y-87931787D01*
X150940393Y-88003000D01*
X150943706Y-88006911D01*
X150957522Y-88024662D01*
X150974080Y-88039905D01*
X150977694Y-88043519D01*
X151043256Y-88114738D01*
X151119651Y-88174199D01*
X151123547Y-88177499D01*
X151129913Y-88183360D01*
X151140099Y-88192737D01*
X151158936Y-88205044D01*
X151163102Y-88208018D01*
X151239491Y-88267474D01*
X151324640Y-88313554D01*
X151329001Y-88316153D01*
X151347855Y-88328471D01*
X151368494Y-88337524D01*
X151373033Y-88339743D01*
X151458190Y-88385828D01*
X151549754Y-88417262D01*
X151554489Y-88419109D01*
X151575116Y-88428157D01*
X151596932Y-88433681D01*
X151601816Y-88435135D01*
X151665874Y-88457126D01*
X151693385Y-88466571D01*
X151727189Y-88472211D01*
X151788866Y-88482503D01*
X151793879Y-88483555D01*
X151815676Y-88489075D01*
X151815678Y-88489075D01*
X151815685Y-88489077D01*
X151838125Y-88490936D01*
X151843169Y-88491564D01*
X151938665Y-88507500D01*
X151938666Y-88507500D01*
X152035448Y-88507500D01*
X152040561Y-88507711D01*
X152056415Y-88509025D01*
X152062998Y-88509571D01*
X152063000Y-88509571D01*
X152063002Y-88509571D01*
X152069584Y-88509025D01*
X152085438Y-88507711D01*
X152090552Y-88507500D01*
X152187330Y-88507500D01*
X152187335Y-88507500D01*
X152282851Y-88491561D01*
X152287862Y-88490937D01*
X152310315Y-88489077D01*
X152332153Y-88483546D01*
X152337105Y-88482508D01*
X152432614Y-88466571D01*
X152524198Y-88435129D01*
X152529042Y-88433688D01*
X152550884Y-88428157D01*
X152571500Y-88419113D01*
X152576234Y-88417265D01*
X152667810Y-88385828D01*
X152752975Y-88339738D01*
X152757505Y-88337524D01*
X152778145Y-88328471D01*
X152797008Y-88316146D01*
X152801337Y-88313566D01*
X152886509Y-88267474D01*
X152962931Y-88207992D01*
X152967018Y-88205073D01*
X152985898Y-88192739D01*
X153002466Y-88177487D01*
X153006341Y-88174204D01*
X153082744Y-88114738D01*
X153148313Y-88043510D01*
X153151897Y-88039925D01*
X153168477Y-88024663D01*
X153182320Y-88006876D01*
X153185581Y-88003026D01*
X153251164Y-87931785D01*
X153304127Y-87850718D01*
X153307053Y-87846620D01*
X153320902Y-87828828D01*
X153331623Y-87809016D01*
X153334233Y-87804636D01*
X153387173Y-87723607D01*
X153426061Y-87634950D01*
X153428299Y-87630375D01*
X153430589Y-87626144D01*
X153439014Y-87610576D01*
X153446336Y-87589246D01*
X153448162Y-87584564D01*
X153487063Y-87495881D01*
X153510826Y-87402041D01*
X153512278Y-87397162D01*
X153519592Y-87375859D01*
X153523296Y-87353658D01*
X153524340Y-87348677D01*
X153548108Y-87254821D01*
X153556104Y-87158321D01*
X153556733Y-87153282D01*
X153560438Y-87131081D01*
X153561088Y-87099589D01*
X153561283Y-87095812D01*
X153568643Y-87007000D01*
X153567470Y-86992850D01*
X153567339Y-86991268D01*
X153561284Y-86918190D01*
X153561088Y-86914407D01*
X153560438Y-86882919D01*
X153556733Y-86860714D01*
X153556103Y-86855666D01*
X153548108Y-86759179D01*
X153524341Y-86665327D01*
X153523295Y-86660334D01*
X153519592Y-86638143D01*
X153519591Y-86638140D01*
X153512283Y-86616850D01*
X153510825Y-86611952D01*
X153487062Y-86518116D01*
X153468098Y-86474883D01*
X153448174Y-86429461D01*
X153446329Y-86424734D01*
X153439014Y-86403424D01*
X153428298Y-86383622D01*
X153426052Y-86379029D01*
X153388971Y-86294492D01*
X153387173Y-86290392D01*
X153334231Y-86209358D01*
X153331607Y-86204954D01*
X153320904Y-86185177D01*
X153320902Y-86185172D01*
X153307080Y-86167413D01*
X153304102Y-86163242D01*
X153251166Y-86082218D01*
X153251165Y-86082217D01*
X153251164Y-86082215D01*
X153215670Y-86043658D01*
X153185606Y-86010999D01*
X153182295Y-86007090D01*
X153168477Y-85989337D01*
X153168473Y-85989332D01*
X153151919Y-85974093D01*
X153148301Y-85970476D01*
X153082744Y-85899262D01*
X153006352Y-85839804D01*
X153002444Y-85836493D01*
X152985898Y-85821261D01*
X152967063Y-85808955D01*
X152962897Y-85805981D01*
X152886509Y-85746526D01*
X152886508Y-85746525D01*
X152886505Y-85746523D01*
X152886503Y-85746522D01*
X152801385Y-85700459D01*
X152796981Y-85697835D01*
X152778145Y-85685529D01*
X152757547Y-85676494D01*
X152752940Y-85674242D01*
X152667811Y-85628172D01*
X152667802Y-85628169D01*
X152576259Y-85596742D01*
X152571484Y-85594879D01*
X152571312Y-85594803D01*
X152550884Y-85585843D01*
X152550880Y-85585842D01*
X152550878Y-85585841D01*
X152529076Y-85580319D01*
X152524166Y-85578858D01*
X152432614Y-85547429D01*
X152337138Y-85531496D01*
X152332123Y-85530444D01*
X152310312Y-85524922D01*
X152310316Y-85524922D01*
X152287895Y-85523065D01*
X152282810Y-85522431D01*
X152187336Y-85506500D01*
X152187335Y-85506500D01*
X152090541Y-85506500D01*
X152085427Y-85506288D01*
X152069555Y-85504973D01*
X152063002Y-85504430D01*
X152062998Y-85504430D01*
X152056444Y-85504973D01*
X152040572Y-85506288D01*
X152035459Y-85506500D01*
X151938665Y-85506500D01*
X151843188Y-85522431D01*
X151838103Y-85523065D01*
X151815688Y-85524922D01*
X151815683Y-85524923D01*
X151793880Y-85530444D01*
X151788866Y-85531495D01*
X151693382Y-85547429D01*
X151601834Y-85578856D01*
X151596927Y-85580317D01*
X151575126Y-85585839D01*
X151575116Y-85585843D01*
X151554510Y-85594881D01*
X151549738Y-85596742D01*
X151458194Y-85628170D01*
X151458183Y-85628175D01*
X151373062Y-85674240D01*
X151368458Y-85676491D01*
X151347854Y-85685529D01*
X151347845Y-85685534D01*
X151329023Y-85697831D01*
X151324621Y-85700455D01*
X151239492Y-85746524D01*
X151239489Y-85746527D01*
X151163106Y-85805977D01*
X151158938Y-85808954D01*
X151140099Y-85821263D01*
X151123542Y-85836503D01*
X151119635Y-85839812D01*
X151043255Y-85899262D01*
X150977697Y-85970476D01*
X150974075Y-85974098D01*
X150957529Y-85989330D01*
X150957514Y-85989346D01*
X150943699Y-86007094D01*
X150940390Y-86011001D01*
X150874836Y-86082215D01*
X150821901Y-86163236D01*
X150818925Y-86167404D01*
X150805099Y-86185170D01*
X150805094Y-86185177D01*
X150794386Y-86204964D01*
X150791763Y-86209365D01*
X150738828Y-86290390D01*
X150699953Y-86379015D01*
X150697704Y-86383615D01*
X150686985Y-86403424D01*
X150679676Y-86424714D01*
X150677814Y-86429487D01*
X150664467Y-86459916D01*
X150638939Y-86518116D01*
X150638936Y-86518122D01*
X150615177Y-86611942D01*
X150613716Y-86616850D01*
X150606408Y-86638140D01*
X150602705Y-86660327D01*
X150601654Y-86665342D01*
X150577891Y-86759178D01*
X150577891Y-86759182D01*
X150569898Y-86855634D01*
X150569265Y-86860714D01*
X150565562Y-86882919D01*
X150565562Y-86905419D01*
X150565350Y-86910535D01*
X150564713Y-86918228D01*
X150558530Y-86992850D01*
X150557357Y-87007000D01*
X147934500Y-87007000D01*
X147934500Y-73823552D01*
X147954185Y-73756513D01*
X147970819Y-73735871D01*
X148146872Y-73559819D01*
X148208195Y-73526334D01*
X148234553Y-73523500D01*
X148293744Y-73523500D01*
X148293746Y-73523500D01*
X148478903Y-73484144D01*
X148651830Y-73407151D01*
X148804971Y-73295888D01*
X148931633Y-73155216D01*
X149026279Y-72991284D01*
X149084774Y-72811256D01*
X149104560Y-72623000D01*
X149084774Y-72434744D01*
X149026279Y-72254716D01*
X148931633Y-72090784D01*
X148804971Y-71950112D01*
X148804970Y-71950111D01*
X148651834Y-71838851D01*
X148651829Y-71838848D01*
X148478907Y-71761857D01*
X148478902Y-71761855D01*
X148333101Y-71730865D01*
X148293746Y-71722500D01*
X148104454Y-71722500D01*
X148071997Y-71729398D01*
X147919297Y-71761855D01*
X147919292Y-71761857D01*
X147746370Y-71838848D01*
X147746365Y-71838851D01*
X147593229Y-71950111D01*
X147466566Y-72090785D01*
X147371921Y-72254715D01*
X147371918Y-72254722D01*
X147330931Y-72380869D01*
X147291493Y-72438545D01*
X147227135Y-72465743D01*
X147158289Y-72453828D01*
X147106813Y-72406584D01*
X147095069Y-72380869D01*
X147054081Y-72254722D01*
X147054080Y-72254721D01*
X147054079Y-72254716D01*
X146959433Y-72090784D01*
X146832771Y-71950112D01*
X146832770Y-71950111D01*
X146679634Y-71838851D01*
X146679629Y-71838848D01*
X146506707Y-71761857D01*
X146506702Y-71761855D01*
X146360901Y-71730865D01*
X146321546Y-71722500D01*
X146132254Y-71722500D01*
X146099797Y-71729398D01*
X145947097Y-71761855D01*
X145947092Y-71761857D01*
X145774170Y-71838848D01*
X145774165Y-71838851D01*
X145621029Y-71950111D01*
X145494366Y-72090785D01*
X145399721Y-72254715D01*
X145399718Y-72254722D01*
X145345387Y-72421937D01*
X145341226Y-72434744D01*
X145321440Y-72623000D01*
X145341226Y-72811256D01*
X145341227Y-72811259D01*
X145399718Y-72991277D01*
X145399721Y-72991284D01*
X145494367Y-73155216D01*
X145514052Y-73177078D01*
X145569550Y-73238715D01*
X145599780Y-73301706D01*
X145601400Y-73321687D01*
X145601400Y-91822142D01*
X145581715Y-91889181D01*
X145528911Y-91934936D01*
X145459753Y-91944880D01*
X145396197Y-91915855D01*
X145389719Y-91909823D01*
X143753108Y-90273212D01*
X143743285Y-90260950D01*
X143743064Y-90261134D01*
X143738091Y-90255123D01*
X143687669Y-90207773D01*
X143673231Y-90193335D01*
X143666780Y-90186883D01*
X143661291Y-90182625D01*
X143656866Y-90178847D01*
X143622887Y-90146938D01*
X143622885Y-90146936D01*
X143622882Y-90146935D01*
X143605334Y-90137288D01*
X143589068Y-90126604D01*
X143573238Y-90114325D01*
X143530473Y-90095818D01*
X143525227Y-90093248D01*
X143484398Y-90070803D01*
X143484397Y-90070802D01*
X143464998Y-90065822D01*
X143446586Y-90059518D01*
X143428203Y-90051562D01*
X143428197Y-90051560D01*
X143382179Y-90044272D01*
X143376457Y-90043087D01*
X143331326Y-90031500D01*
X143331324Y-90031500D01*
X143311289Y-90031500D01*
X143291891Y-90029973D01*
X143284467Y-90028797D01*
X143272110Y-90026840D01*
X143272109Y-90026840D01*
X143225721Y-90031225D01*
X143219883Y-90031500D01*
X142138227Y-90031500D01*
X142071188Y-90011815D01*
X142036652Y-89978623D01*
X141901494Y-89785597D01*
X141734402Y-89618506D01*
X141734401Y-89618505D01*
X141548405Y-89488269D01*
X141504781Y-89433692D01*
X141497588Y-89364193D01*
X141529110Y-89301839D01*
X141548405Y-89285119D01*
X141734082Y-89155105D01*
X141901105Y-88988082D01*
X142036600Y-88794578D01*
X142136429Y-88580492D01*
X142136432Y-88580486D01*
X142193636Y-88367000D01*
X141296686Y-88367000D01*
X141322493Y-88326844D01*
X141363000Y-88188889D01*
X141363000Y-88045111D01*
X141322493Y-87907156D01*
X141296686Y-87867000D01*
X142193636Y-87867000D01*
X142193635Y-87866999D01*
X142136432Y-87653513D01*
X142136429Y-87653507D01*
X142036600Y-87439422D01*
X142036599Y-87439420D01*
X141901113Y-87245926D01*
X141901108Y-87245920D01*
X141779053Y-87123865D01*
X141745568Y-87062542D01*
X141750552Y-86992850D01*
X141792424Y-86936917D01*
X141823400Y-86920002D01*
X141955331Y-86870796D01*
X142070546Y-86784546D01*
X142156796Y-86669331D01*
X142207091Y-86534483D01*
X142213500Y-86474873D01*
X142213499Y-84679128D01*
X142207091Y-84619517D01*
X142183986Y-84557570D01*
X142156797Y-84484671D01*
X142156793Y-84484664D01*
X142070547Y-84369455D01*
X142070544Y-84369452D01*
X141955335Y-84283206D01*
X141955328Y-84283202D01*
X141820482Y-84232908D01*
X141820483Y-84232908D01*
X141760883Y-84226501D01*
X141760881Y-84226500D01*
X141760873Y-84226500D01*
X141760864Y-84226500D01*
X139965129Y-84226500D01*
X139965123Y-84226501D01*
X139905516Y-84232908D01*
X139770671Y-84283202D01*
X139770664Y-84283206D01*
X139655455Y-84369452D01*
X139655452Y-84369455D01*
X139569206Y-84484664D01*
X139569202Y-84484671D01*
X139518908Y-84619517D01*
X139514836Y-84657399D01*
X139512501Y-84679123D01*
X139512500Y-84679135D01*
X139512500Y-84702500D01*
X139492815Y-84769539D01*
X139440011Y-84815294D01*
X139394817Y-84825125D01*
X139394870Y-84826043D01*
X139394875Y-84826081D01*
X139394872Y-84826081D01*
X139394885Y-84826291D01*
X139391287Y-84826500D01*
X139365222Y-84829546D01*
X139358705Y-84830308D01*
X139353403Y-84830771D01*
X139282201Y-84837001D01*
X139275134Y-84838461D01*
X139275122Y-84838404D01*
X139267753Y-84840038D01*
X139267767Y-84840095D01*
X139260739Y-84841760D01*
X139204655Y-84862173D01*
X139188568Y-84868028D01*
X139115665Y-84892186D01*
X139115663Y-84892186D01*
X139115660Y-84892188D01*
X139109123Y-84895236D01*
X139109098Y-84895184D01*
X139102310Y-84898470D01*
X139102336Y-84898521D01*
X139095885Y-84901761D01*
X139031723Y-84943961D01*
X138966346Y-84984285D01*
X138960682Y-84988765D01*
X138960646Y-84988719D01*
X138954798Y-84993484D01*
X138954835Y-84993528D01*
X138949310Y-84998164D01*
X138896614Y-85054017D01*
X138077358Y-85873272D01*
X138063729Y-85885051D01*
X138044468Y-85899390D01*
X138010898Y-85939397D01*
X138007253Y-85943376D01*
X138001409Y-85949222D01*
X137984609Y-85970469D01*
X137981059Y-85974959D01*
X137969001Y-85989330D01*
X137929249Y-86036705D01*
X137871079Y-86075407D01*
X137834259Y-86081000D01*
X136922686Y-86081000D01*
X136948493Y-86040844D01*
X136989000Y-85902889D01*
X136989000Y-85759111D01*
X136948493Y-85621156D01*
X136922686Y-85581000D01*
X137819636Y-85581000D01*
X137819635Y-85580999D01*
X137762432Y-85367513D01*
X137762429Y-85367507D01*
X137662600Y-85153422D01*
X137662599Y-85153420D01*
X137527113Y-84959926D01*
X137527108Y-84959920D01*
X137360082Y-84792894D01*
X137166578Y-84657399D01*
X136952492Y-84557570D01*
X136952486Y-84557567D01*
X136739000Y-84500364D01*
X136739000Y-85395498D01*
X136631315Y-85346320D01*
X136524763Y-85331000D01*
X136453237Y-85331000D01*
X136346685Y-85346320D01*
X136239000Y-85395498D01*
X136239000Y-84500364D01*
X136238999Y-84500364D01*
X136025513Y-84557567D01*
X136025507Y-84557570D01*
X135811422Y-84657399D01*
X135811420Y-84657400D01*
X135617926Y-84792886D01*
X135617920Y-84792891D01*
X135450891Y-84959920D01*
X135450886Y-84959926D01*
X135315400Y-85153420D01*
X135315399Y-85153422D01*
X135215570Y-85367507D01*
X135215567Y-85367513D01*
X135158364Y-85580999D01*
X135158364Y-85581000D01*
X136055314Y-85581000D01*
X136029507Y-85621156D01*
X135989000Y-85759111D01*
X135989000Y-85902889D01*
X136029507Y-86040844D01*
X136055314Y-86081000D01*
X135158364Y-86081000D01*
X135215567Y-86294486D01*
X135215570Y-86294492D01*
X135315399Y-86508578D01*
X135450894Y-86702082D01*
X135617917Y-86869105D01*
X135803595Y-86999119D01*
X135847219Y-87053696D01*
X135854412Y-87123195D01*
X135822890Y-87185549D01*
X135803595Y-87202269D01*
X135617594Y-87332508D01*
X135450505Y-87499597D01*
X135314965Y-87693169D01*
X135314964Y-87693171D01*
X135215098Y-87907335D01*
X135215094Y-87907344D01*
X135153938Y-88135586D01*
X135153936Y-88135596D01*
X135133341Y-88370999D01*
X135133341Y-88371000D01*
X135153936Y-88606403D01*
X135153938Y-88606413D01*
X135215094Y-88834655D01*
X135215096Y-88834659D01*
X135215097Y-88834663D01*
X135252955Y-88915849D01*
X135314965Y-89048830D01*
X135314967Y-89048834D01*
X135398258Y-89167785D01*
X135450501Y-89242396D01*
X135450506Y-89242402D01*
X135617597Y-89409493D01*
X135617603Y-89409498D01*
X135803158Y-89539425D01*
X135846783Y-89594002D01*
X135853977Y-89663500D01*
X135822454Y-89725855D01*
X135803158Y-89742575D01*
X135617597Y-89872505D01*
X135450505Y-90039597D01*
X135314965Y-90233169D01*
X135314964Y-90233171D01*
X135215098Y-90447335D01*
X135215094Y-90447344D01*
X135153938Y-90675586D01*
X135153936Y-90675596D01*
X135133341Y-90910999D01*
X135133341Y-90911000D01*
X135153936Y-91146403D01*
X135153938Y-91146413D01*
X135215094Y-91374655D01*
X135215096Y-91374659D01*
X135215097Y-91374663D01*
X135286787Y-91528402D01*
X135314965Y-91588830D01*
X135314967Y-91588834D01*
X135389655Y-91695498D01*
X135450501Y-91782396D01*
X135450506Y-91782402D01*
X135617597Y-91949493D01*
X135617603Y-91949498D01*
X135803158Y-92079425D01*
X135846783Y-92134002D01*
X135853977Y-92203500D01*
X135822454Y-92265855D01*
X135803158Y-92282575D01*
X135617597Y-92412505D01*
X135450506Y-92579596D01*
X135402874Y-92647623D01*
X135348297Y-92691248D01*
X135301299Y-92700500D01*
X135053705Y-92700500D01*
X135035735Y-92699191D01*
X135011972Y-92695710D01*
X134966533Y-92699686D01*
X134959931Y-92700264D01*
X134954530Y-92700500D01*
X134946289Y-92700500D01*
X134924579Y-92703037D01*
X134913724Y-92704306D01*
X134898419Y-92705645D01*
X134837199Y-92711001D01*
X134830132Y-92712460D01*
X134830120Y-92712404D01*
X134822763Y-92714035D01*
X134822777Y-92714092D01*
X134815743Y-92715759D01*
X134743575Y-92742025D01*
X134670675Y-92766181D01*
X134664126Y-92769236D01*
X134664101Y-92769183D01*
X134657308Y-92772471D01*
X134657334Y-92772523D01*
X134650880Y-92775764D01*
X134586708Y-92817971D01*
X134521347Y-92858285D01*
X134515683Y-92862765D01*
X134515647Y-92862719D01*
X134509798Y-92867484D01*
X134509835Y-92867528D01*
X134504310Y-92872164D01*
X134504304Y-92872169D01*
X134504304Y-92872170D01*
X134462437Y-92916546D01*
X134451597Y-92928035D01*
X132599358Y-94780272D01*
X132585729Y-94792051D01*
X132566468Y-94806390D01*
X132532898Y-94846397D01*
X132529253Y-94850376D01*
X132523409Y-94856222D01*
X132503059Y-94881959D01*
X132453695Y-94940789D01*
X132449729Y-94946819D01*
X132449682Y-94946788D01*
X132445630Y-94953147D01*
X132445679Y-94953177D01*
X132441889Y-94959321D01*
X132409424Y-95028941D01*
X132374960Y-95097566D01*
X132372488Y-95104357D01*
X132372432Y-95104336D01*
X132369960Y-95111450D01*
X132370015Y-95111469D01*
X132367742Y-95118327D01*
X132359975Y-95155946D01*
X132352207Y-95193565D01*
X132346349Y-95218284D01*
X132334498Y-95268286D01*
X132333661Y-95275454D01*
X132333601Y-95275447D01*
X132332835Y-95282945D01*
X132332895Y-95282951D01*
X132332265Y-95290140D01*
X132334500Y-95366916D01*
X132334500Y-117644294D01*
X132333191Y-117662263D01*
X132329710Y-117686025D01*
X129062449Y-117686025D01*
X129048063Y-117521592D01*
X128986903Y-117293337D01*
X128887035Y-117079171D01*
X128887034Y-117079169D01*
X128751494Y-116885597D01*
X128584402Y-116718505D01*
X128390830Y-116582965D01*
X128390828Y-116582964D01*
X128283746Y-116533031D01*
X128176663Y-116483097D01*
X128176659Y-116483096D01*
X128176655Y-116483094D01*
X127948413Y-116421938D01*
X127948403Y-116421936D01*
X127771966Y-116406500D01*
X127354034Y-116406500D01*
X127177596Y-116421936D01*
X127177586Y-116421938D01*
X126949344Y-116483094D01*
X126949335Y-116483098D01*
X126735171Y-116582964D01*
X126735169Y-116582965D01*
X126541597Y-116718505D01*
X126374506Y-116885597D01*
X126374501Y-116885604D01*
X126238967Y-117079165D01*
X126238965Y-117079169D01*
X126139098Y-117293335D01*
X126139094Y-117293344D01*
X126077938Y-117521586D01*
X126077936Y-117521596D01*
X126057341Y-117756999D01*
X126057341Y-117757000D01*
X124563500Y-117757000D01*
X124563500Y-111507000D01*
X127457551Y-111507000D01*
X127477317Y-111758151D01*
X127536126Y-112003110D01*
X127632533Y-112235859D01*
X127764160Y-112450653D01*
X127764161Y-112450656D01*
X127764164Y-112450659D01*
X127927776Y-112642224D01*
X128076066Y-112768875D01*
X128119343Y-112805838D01*
X128119346Y-112805839D01*
X128334140Y-112937466D01*
X128566889Y-113033873D01*
X128811852Y-113092683D01*
X128967950Y-113104968D01*
X129000116Y-113107500D01*
X129000118Y-113107500D01*
X129125884Y-113107500D01*
X129155518Y-113105167D01*
X129314148Y-113092683D01*
X129559111Y-113033873D01*
X129791859Y-112937466D01*
X130006659Y-112805836D01*
X130198224Y-112642224D01*
X130361836Y-112450659D01*
X130493466Y-112235859D01*
X130589873Y-112003111D01*
X130648683Y-111758148D01*
X130668449Y-111507000D01*
X130648683Y-111255852D01*
X130589873Y-111010889D01*
X130557051Y-110931649D01*
X130493466Y-110778140D01*
X130361839Y-110563346D01*
X130361838Y-110563343D01*
X130304698Y-110496441D01*
X130198224Y-110371776D01*
X130071571Y-110263604D01*
X130006656Y-110208161D01*
X130006653Y-110208160D01*
X129791859Y-110076533D01*
X129559110Y-109980126D01*
X129314150Y-109921317D01*
X129125884Y-109906500D01*
X129125882Y-109906500D01*
X129000118Y-109906500D01*
X129000116Y-109906500D01*
X128811849Y-109921317D01*
X128566889Y-109980126D01*
X128334140Y-110076533D01*
X128119346Y-110208160D01*
X128119343Y-110208161D01*
X127927776Y-110371776D01*
X127764161Y-110563343D01*
X127764160Y-110563346D01*
X127632533Y-110778140D01*
X127536126Y-111010889D01*
X127477317Y-111255848D01*
X127457551Y-111507000D01*
X124563500Y-111507000D01*
X124563500Y-110086289D01*
X124583185Y-110019250D01*
X124635061Y-109973922D01*
X132061926Y-106508052D01*
X132063328Y-106507437D01*
X132063381Y-106507383D01*
X132063383Y-106507383D01*
X132063383Y-106507381D01*
X132063466Y-106507299D01*
X132063506Y-106507188D01*
X132063509Y-106507185D01*
X132063500Y-106506978D01*
X132063500Y-87507022D01*
X132063509Y-87506815D01*
X132063507Y-87506813D01*
X132063467Y-87506701D01*
X132063383Y-87506617D01*
X132063193Y-87506538D01*
X128291733Y-85746523D01*
X124635062Y-84040076D01*
X124582636Y-83993888D01*
X124563500Y-83927709D01*
X124563500Y-82507000D01*
X127457551Y-82507000D01*
X127477317Y-82758151D01*
X127536126Y-83003110D01*
X127632533Y-83235859D01*
X127764160Y-83450653D01*
X127764161Y-83450656D01*
X127764164Y-83450659D01*
X127927776Y-83642224D01*
X128076066Y-83768875D01*
X128119343Y-83805838D01*
X128119346Y-83805839D01*
X128334140Y-83937466D01*
X128566889Y-84033873D01*
X128811852Y-84092683D01*
X128967950Y-84104968D01*
X129000116Y-84107500D01*
X129000118Y-84107500D01*
X129125884Y-84107500D01*
X129155518Y-84105167D01*
X129314148Y-84092683D01*
X129559111Y-84033873D01*
X129791859Y-83937466D01*
X130006659Y-83805836D01*
X130198224Y-83642224D01*
X130361836Y-83450659D01*
X130493466Y-83235859D01*
X130589873Y-83003111D01*
X130648683Y-82758148D01*
X130668449Y-82507000D01*
X130648683Y-82255852D01*
X130589873Y-82010889D01*
X130529989Y-81866316D01*
X130493466Y-81778140D01*
X130361839Y-81563346D01*
X130361838Y-81563343D01*
X130253797Y-81436844D01*
X130198224Y-81371776D01*
X130028713Y-81227000D01*
X130006656Y-81208161D01*
X130006653Y-81208160D01*
X129791859Y-81076533D01*
X129559110Y-80980126D01*
X129314150Y-80921317D01*
X129125884Y-80906500D01*
X129125882Y-80906500D01*
X129000118Y-80906500D01*
X129000116Y-80906500D01*
X128811849Y-80921317D01*
X128566889Y-80980126D01*
X128334140Y-81076533D01*
X128119346Y-81208160D01*
X128119343Y-81208161D01*
X127927776Y-81371776D01*
X127764161Y-81563343D01*
X127764160Y-81563346D01*
X127632533Y-81778140D01*
X127536126Y-82010889D01*
X127477317Y-82255848D01*
X127457551Y-82507000D01*
X124563500Y-82507000D01*
X124563500Y-73757000D01*
X126057341Y-73757000D01*
X126077936Y-73992403D01*
X126077938Y-73992413D01*
X126139094Y-74220655D01*
X126139096Y-74220659D01*
X126139097Y-74220663D01*
X126158704Y-74262709D01*
X126238964Y-74434828D01*
X126238965Y-74434830D01*
X126374505Y-74628402D01*
X126521704Y-74775601D01*
X126555189Y-74836924D01*
X126550205Y-74906616D01*
X126508333Y-74962549D01*
X126499120Y-74968820D01*
X126344347Y-75064285D01*
X126344343Y-75064288D01*
X126220289Y-75188342D01*
X126128187Y-75337663D01*
X126128185Y-75337668D01*
X126101378Y-75418568D01*
X126073001Y-75504203D01*
X126073001Y-75504204D01*
X126073000Y-75504204D01*
X126062500Y-75606983D01*
X126062500Y-76907001D01*
X126062501Y-76907018D01*
X126073000Y-77009796D01*
X126073001Y-77009799D01*
X126128185Y-77176331D01*
X126128187Y-77176336D01*
X126133838Y-77185498D01*
X126220288Y-77325656D01*
X126344344Y-77449712D01*
X126493666Y-77541814D01*
X126660203Y-77596999D01*
X126762991Y-77607500D01*
X128363008Y-77607499D01*
X128465797Y-77596999D01*
X128632334Y-77541814D01*
X128781656Y-77449712D01*
X128905712Y-77325656D01*
X128997814Y-77176334D01*
X129052999Y-77009797D01*
X129063500Y-76907009D01*
X129063499Y-75606992D01*
X129060656Y-75579165D01*
X129052999Y-75504203D01*
X129052998Y-75504200D01*
X129045129Y-75480454D01*
X128997814Y-75337666D01*
X128905712Y-75188344D01*
X128781656Y-75064288D01*
X128700658Y-75014328D01*
X128626879Y-74968821D01*
X128580155Y-74916873D01*
X128568932Y-74847910D01*
X128596776Y-74783828D01*
X128604295Y-74775601D01*
X128665725Y-74714171D01*
X128751495Y-74628401D01*
X128887035Y-74434830D01*
X128986903Y-74220663D01*
X129048063Y-73992408D01*
X129068659Y-73757000D01*
X129048063Y-73521592D01*
X128994499Y-73321687D01*
X128986905Y-73293344D01*
X128986904Y-73293343D01*
X128986903Y-73293337D01*
X128887035Y-73079171D01*
X128887034Y-73079169D01*
X128751494Y-72885597D01*
X128584402Y-72718505D01*
X128390830Y-72582965D01*
X128390828Y-72582964D01*
X128283746Y-72533031D01*
X128176663Y-72483097D01*
X128176659Y-72483096D01*
X128176655Y-72483094D01*
X127948413Y-72421938D01*
X127948403Y-72421936D01*
X127771966Y-72406500D01*
X127354034Y-72406500D01*
X127177596Y-72421936D01*
X127177586Y-72421938D01*
X126949344Y-72483094D01*
X126949335Y-72483098D01*
X126735171Y-72582964D01*
X126735169Y-72582965D01*
X126541597Y-72718505D01*
X126374506Y-72885597D01*
X126374501Y-72885604D01*
X126238967Y-73079165D01*
X126238965Y-73079169D01*
X126139098Y-73293335D01*
X126139094Y-73293344D01*
X126077938Y-73521586D01*
X126077936Y-73521596D01*
X126057341Y-73756999D01*
X126057341Y-73757000D01*
X124563500Y-73757000D01*
X124563500Y-70586289D01*
X124583185Y-70519250D01*
X124635061Y-70473922D01*
X132038182Y-67019132D01*
X132090620Y-67007500D01*
X163035380Y-67007500D01*
X163087817Y-67019132D01*
G37*
G04 #@! TD.AperFunction*
M02*
