G04 #@! TF.GenerationSoftware,KiCad,Pcbnew,7.0.8*
G04 #@! TF.CreationDate,2024-02-21T14:18:38-03:00*
G04 #@! TF.ProjectId,Drone PCB,44726f6e-6520-4504-9342-2e6b69636164,1.0*
G04 #@! TF.SameCoordinates,Original*
G04 #@! TF.FileFunction,Soldermask,Bot*
G04 #@! TF.FilePolarity,Negative*
%FSLAX46Y46*%
G04 Gerber Fmt 4.6, Leading zero omitted, Abs format (unit mm)*
G04 Created by KiCad (PCBNEW 7.0.8) date 2024-02-21 14:18:38*
%MOMM*%
%LPD*%
G01*
G04 APERTURE LIST*
G04 Aperture macros list*
%AMRoundRect*
0 Rectangle with rounded corners*
0 $1 Rounding radius*
0 $2 $3 $4 $5 $6 $7 $8 $9 X,Y pos of 4 corners*
0 Add a 4 corners polygon primitive as box body*
4,1,4,$2,$3,$4,$5,$6,$7,$8,$9,$2,$3,0*
0 Add four circle primitives for the rounded corners*
1,1,$1+$1,$2,$3*
1,1,$1+$1,$4,$5*
1,1,$1+$1,$6,$7*
1,1,$1+$1,$8,$9*
0 Add four rect primitives between the rounded corners*
20,1,$1+$1,$2,$3,$4,$5,0*
20,1,$1+$1,$4,$5,$6,$7,0*
20,1,$1+$1,$6,$7,$8,$9,0*
20,1,$1+$1,$8,$9,$2,$3,0*%
G04 Aperture macros list end*
%ADD10RoundRect,0.250000X0.750000X-0.600000X0.750000X0.600000X-0.750000X0.600000X-0.750000X-0.600000X0*%
%ADD11O,2.000000X1.700000*%
%ADD12R,1.800000X1.800000*%
%ADD13C,1.800000*%
%ADD14C,2.700000*%
%ADD15RoundRect,0.250000X-0.750000X0.600000X-0.750000X-0.600000X0.750000X-0.600000X0.750000X0.600000X0*%
%ADD16R,1.700000X1.700000*%
%ADD17O,1.700000X1.700000*%
%ADD18R,1.500000X1.500000*%
%ADD19C,1.500000*%
%ADD20RoundRect,0.250000X0.600000X0.750000X-0.600000X0.750000X-0.600000X-0.750000X0.600000X-0.750000X0*%
%ADD21O,1.700000X2.000000*%
G04 APERTURE END LIST*
D10*
X127563000Y-120257000D03*
D11*
X127563000Y-117757000D03*
D12*
X136293000Y-123043000D03*
D13*
X138833000Y-123043000D03*
D14*
X166063000Y-82507000D03*
X129063000Y-82507000D03*
D15*
X167563000Y-117757000D03*
D11*
X167563000Y-120257000D03*
D10*
X127563000Y-76257000D03*
D11*
X127563000Y-73757000D03*
D10*
X135038000Y-107507000D03*
D11*
X135038000Y-105007000D03*
D16*
X160530500Y-81227000D03*
D17*
X157990500Y-81227000D03*
X160530500Y-78687000D03*
X157990500Y-78687000D03*
X160530500Y-76147000D03*
X157990500Y-76147000D03*
X160530500Y-73607000D03*
X157990500Y-73607000D03*
D14*
X166063000Y-111507000D03*
D15*
X167563000Y-73757000D03*
D11*
X167563000Y-76257000D03*
D16*
X136489000Y-98531000D03*
D17*
X136489000Y-95991000D03*
X136489000Y-93451000D03*
X136489000Y-90911000D03*
X136489000Y-88371000D03*
X136489000Y-85831000D03*
D16*
X140863000Y-85577000D03*
D17*
X140863000Y-88117000D03*
X140863000Y-90657000D03*
X140863000Y-93197000D03*
X140863000Y-95737000D03*
X140863000Y-98277000D03*
X140863000Y-100817000D03*
X140863000Y-103357000D03*
X140863000Y-105897000D03*
X140863000Y-108437000D03*
D14*
X129063000Y-111507000D03*
D18*
X145563000Y-120543000D03*
D19*
X147563000Y-120543000D03*
X149563000Y-120543000D03*
X145563000Y-125543000D03*
X147563000Y-125543000D03*
X149563000Y-125543000D03*
D20*
X158833000Y-123932000D03*
D21*
X156333000Y-123932000D03*
M02*
